%TF.GenerationSoftware,KiCad,Pcbnew,7.0.8*%
%TF.CreationDate,2024-01-22T14:24:45+01:00*%
%TF.ProjectId,BMS-Master,424d532d-4d61-4737-9465-722e6b696361,rev?*%
%TF.SameCoordinates,Original*%
%TF.FileFunction,Copper,L4,Bot*%
%TF.FilePolarity,Positive*%
%FSLAX46Y46*%
G04 Gerber Fmt 4.6, Leading zero omitted, Abs format (unit mm)*
G04 Created by KiCad (PCBNEW 7.0.8) date 2024-01-22 14:24:45*
%MOMM*%
%LPD*%
G01*
G04 APERTURE LIST*
%TA.AperFunction,ComponentPad*%
%ADD10R,1.700000X1.700000*%
%TD*%
%TA.AperFunction,ComponentPad*%
%ADD11O,1.700000X1.700000*%
%TD*%
%TA.AperFunction,ComponentPad*%
%ADD12R,1.520000X1.520000*%
%TD*%
%TA.AperFunction,ComponentPad*%
%ADD13C,1.520000*%
%TD*%
%TA.AperFunction,ComponentPad*%
%ADD14C,2.000000*%
%TD*%
%TA.AperFunction,ComponentPad*%
%ADD15R,2.500000X1.500000*%
%TD*%
%TA.AperFunction,ComponentPad*%
%ADD16O,2.500000X1.500000*%
%TD*%
%TA.AperFunction,ComponentPad*%
%ADD17R,1.350000X1.350000*%
%TD*%
%TA.AperFunction,ComponentPad*%
%ADD18O,1.350000X1.350000*%
%TD*%
%TA.AperFunction,ComponentPad*%
%ADD19C,1.100000*%
%TD*%
%TA.AperFunction,ComponentPad*%
%ADD20C,4.800000*%
%TD*%
%TA.AperFunction,ComponentPad*%
%ADD21C,1.500000*%
%TD*%
%TA.AperFunction,ViaPad*%
%ADD22C,0.800000*%
%TD*%
%TA.AperFunction,ViaPad*%
%ADD23C,1.000000*%
%TD*%
%TA.AperFunction,Conductor*%
%ADD24C,0.762000*%
%TD*%
%TA.AperFunction,Conductor*%
%ADD25C,0.254000*%
%TD*%
%TA.AperFunction,Conductor*%
%ADD26C,0.300000*%
%TD*%
%TA.AperFunction,Conductor*%
%ADD27C,0.381000*%
%TD*%
%TA.AperFunction,Conductor*%
%ADD28C,0.508000*%
%TD*%
%TA.AperFunction,Conductor*%
%ADD29C,0.600000*%
%TD*%
%TA.AperFunction,Conductor*%
%ADD30C,0.250000*%
%TD*%
G04 APERTURE END LIST*
D10*
%TO.P,J5,1,Pin_1*%
%TO.N,+3.3V*%
X163000000Y-131040000D03*
D11*
%TO.P,J5,2,Pin_2*%
%TO.N,/MCU1_secondary/MCU1_BOOT*%
X163000000Y-128500000D03*
%TD*%
D12*
%TO.P,J12,1,1*%
%TO.N,Net-(IC2-Pad1)*%
X88248500Y-142149000D03*
D13*
%TO.P,J12,2,2*%
%TO.N,+3.3V*%
X88248500Y-145149000D03*
%TD*%
D12*
%TO.P,J16,1,1*%
%TO.N,/Contactors/contactors_com_pos*%
X227250001Y-102190000D03*
D13*
%TO.P,J16,2,2*%
%TO.N,/Contactors/Contactor_out0*%
X224250002Y-102190000D03*
%TO.P,J16,3,3*%
%TO.N,/Contactors/feedback0*%
X227250001Y-99190001D03*
%TO.P,J16,4,4*%
%TO.N,GND*%
X224250002Y-99190001D03*
%TD*%
D14*
%TO.P,TP3,1,1*%
%TO.N,USB1_GND*%
X116180000Y-224657100D03*
%TD*%
%TO.P,TP6,1,1*%
%TO.N,/isoSPI_interface/OUT0_P*%
X172200000Y-196150000D03*
%TD*%
D12*
%TO.P,J11,1,1*%
%TO.N,GND*%
X88151750Y-130743000D03*
D13*
%TO.P,J11,2,2*%
%TO.N,Net-(F1-Pad1)*%
X88151750Y-127743000D03*
%TO.P,J11,3,3*%
%TO.N,/Shutdown/Bender_OK_EXT*%
X88151750Y-124743000D03*
%TD*%
D14*
%TO.P,TP13,1,1*%
%TO.N,/isoSPI_interface/OUT1_P_rv*%
X161050000Y-196150000D03*
%TD*%
%TO.P,TP16,1,1*%
%TO.N,Net-(C71-Pad1)*%
X125616750Y-159937000D03*
%TD*%
D12*
%TO.P,J7,1,1*%
%TO.N,Net-(T1-PRI_6)*%
X175239649Y-227015000D03*
D13*
%TO.P,J7,2,2*%
%TO.N,Net-(T1-PRI_4)*%
X172239650Y-227015000D03*
%TO.P,J7,3,3*%
%TO.N,Net-(T2-PRI_4)*%
X175239649Y-224015001D03*
%TO.P,J7,4,4*%
%TO.N,Net-(T2-PRI_6)*%
X172239650Y-224015001D03*
%TD*%
D14*
%TO.P,TP33,1,1*%
%TO.N,+3.3V*%
X134454000Y-105505000D03*
%TD*%
%TO.P,TP23,1,1*%
%TO.N,/Contactors/contactors_com_pos*%
X95625500Y-175299000D03*
%TD*%
D15*
%TO.P,U21,1,Vin*%
%TO.N,Net-(U21-Vin)*%
X124954000Y-108145000D03*
D16*
%TO.P,U21,2,GND*%
%TO.N,GND*%
X124954000Y-105605000D03*
%TO.P,U21,3,Vout*%
%TO.N,+5V*%
X124954000Y-103065000D03*
%TD*%
D14*
%TO.P,TP4,1,1*%
%TO.N,USB0_GND*%
X249650500Y-225171000D03*
%TD*%
%TO.P,TP12,1,1*%
%TO.N,/isoSPI_interface/OUT1_N_rv*%
X156450000Y-196150000D03*
%TD*%
%TO.P,TP36,1,1*%
%TO.N,GND_ISO*%
X260760000Y-139570000D03*
%TD*%
%TO.P,TP25,1,1*%
%TO.N,/Contactors/Contactor_feedback1*%
X244326000Y-116325000D03*
%TD*%
%TO.P,TP5,1,1*%
%TO.N,USB_VCC*%
X249650500Y-228750000D03*
%TD*%
%TO.P,TP29,1,1*%
%TO.N,/CAN0_interface/CAN0.RX*%
X248063000Y-194757000D03*
%TD*%
D17*
%TO.P,J9,1,Pin_1*%
%TO.N,+3.3V*%
X136250000Y-208400000D03*
D18*
%TO.P,J9,2,Pin_2*%
%TO.N,/isoSPI_interface/PHA_0*%
X138250000Y-208400000D03*
%TO.P,J9,3,Pin_3*%
%TO.N,GND*%
X140250000Y-208400000D03*
%TD*%
D14*
%TO.P,TP7,1,1*%
%TO.N,/isoSPI_interface/OUT0_N*%
X167650000Y-196150000D03*
%TD*%
%TO.P,TP9,1,1*%
%TO.N,/isoSPI_interface/OUT0_P_rv*%
X179150000Y-200500000D03*
%TD*%
D19*
%TO.P,P1,S1,SHIELD*%
%TO.N,USB1_GND*%
X107180000Y-224507100D03*
X107180000Y-228807100D03*
X111980000Y-224507100D03*
X111980000Y-228807100D03*
%TD*%
D14*
%TO.P,TP10,1,1*%
%TO.N,/isoSPI_interface/OUT1_P*%
X150550000Y-196150000D03*
%TD*%
%TO.P,TP35,1,1*%
%TO.N,+5V_ISO*%
X266510000Y-139570000D03*
%TD*%
%TO.P,TP24,1,1*%
%TO.N,/Contactors/Contactor_feedback0*%
X240076000Y-116325000D03*
%TD*%
D12*
%TO.P,J6,1,1*%
%TO.N,Net-(T1-PRI_3)*%
X156389649Y-227000000D03*
D13*
%TO.P,J6,2,2*%
%TO.N,Net-(T1-PRI_1)*%
X153389650Y-227000000D03*
%TO.P,J6,3,3*%
%TO.N,Net-(T2-PRI_1)*%
X156389649Y-224000001D03*
%TO.P,J6,4,4*%
%TO.N,Net-(T2-PRI_3)*%
X153389650Y-224000001D03*
%TD*%
D14*
%TO.P,TP11,1,1*%
%TO.N,/isoSPI_interface/OUT1_N*%
X149450000Y-200450000D03*
%TD*%
%TO.P,TP34,1,1*%
%TO.N,GND*%
X134454000Y-111105000D03*
%TD*%
%TO.P,TP21,1,1*%
%TO.N,/Shutdown/IMD_SHTDW*%
X85483325Y-218325326D03*
%TD*%
%TO.P,TP27,1,1*%
%TO.N,/CAN0_interface/CAN0.TX*%
X248013000Y-189657000D03*
%TD*%
D12*
%TO.P,J19,1,1*%
%TO.N,/Contactors/contactors_com_pos*%
X214500001Y-102190000D03*
D13*
%TO.P,J19,2,2*%
%TO.N,/Contactors/Contactor_out2*%
X211500002Y-102190000D03*
%TO.P,J19,3,3*%
%TO.N,/Contactors/feedback2*%
X214500001Y-99190001D03*
%TO.P,J19,4,4*%
%TO.N,GND*%
X211500002Y-99190001D03*
%TD*%
D14*
%TO.P,TP17,1,1*%
%TO.N,Net-(R45-Pad2)*%
X125616750Y-167811000D03*
%TD*%
D20*
%TO.P,J20,0,PAD*%
%TO.N,unconnected-(J20-PAD-Pad0)*%
X276283000Y-210542000D03*
X276283000Y-185552000D03*
D21*
%TO.P,J20,1,1*%
%TO.N,unconnected-(J20-Pad1)*%
X274863000Y-192567000D03*
%TO.P,J20,2,2*%
%TO.N,/CAN0_interface/CAN0_L*%
X274863000Y-195307000D03*
%TO.P,J20,3,3*%
%TO.N,GND*%
X274863000Y-198047000D03*
%TO.P,J20,4,4*%
%TO.N,unconnected-(J20-Pad4)*%
X274863000Y-200787000D03*
%TO.P,J20,5,5*%
%TO.N,GND*%
X274863000Y-203527000D03*
%TO.P,J20,6,6*%
X277703000Y-193937000D03*
%TO.P,J20,7,7*%
%TO.N,/CAN0_interface/CAN0_H*%
X277703000Y-196677000D03*
%TO.P,J20,8,8*%
%TO.N,unconnected-(J20-Pad8)*%
X277703000Y-199417000D03*
%TO.P,J20,9,9*%
%TO.N,+5V*%
X277703000Y-202157000D03*
%TD*%
D14*
%TO.P,TP26,1,1*%
%TO.N,/Contactors/Contactor_feedback2*%
X251076000Y-116325000D03*
%TD*%
D17*
%TO.P,J10,1,Pin_1*%
%TO.N,+3.3V*%
X136250000Y-196500000D03*
D18*
%TO.P,J10,2,Pin_2*%
%TO.N,/isoSPI_interface/SLOW*%
X138250000Y-196500000D03*
%TO.P,J10,3,Pin_3*%
%TO.N,GND*%
X140250000Y-196500000D03*
%TD*%
D14*
%TO.P,TP22,1,1*%
%TO.N,Net-(IC7-OUT_1)*%
X95625500Y-180760000D03*
%TD*%
D12*
%TO.P,J14,1,1*%
%TO.N,Net-(IC8-C)*%
X87243676Y-205460326D03*
D13*
%TO.P,J14,2,2*%
%TO.N,Net-(IC8-E)*%
X90243675Y-205460326D03*
%TO.P,J14,3,3*%
%TO.N,Net-(IC10-C)*%
X87243676Y-208460325D03*
%TO.P,J14,4,4*%
%TO.N,Net-(IC10-E)*%
X90243675Y-208460325D03*
%TD*%
D20*
%TO.P,J21,0,PAD*%
%TO.N,GND_ISO*%
X275830000Y-141845000D03*
X275830000Y-166835000D03*
D21*
%TO.P,J21,1,1*%
%TO.N,unconnected-(J21-Pad1)*%
X277250000Y-159820000D03*
%TO.P,J21,2,2*%
%TO.N,/CAN0_interface/CAN1_-*%
X277250000Y-157080000D03*
%TO.P,J21,3,3*%
%TO.N,GND_ISO*%
X277250000Y-154340000D03*
%TO.P,J21,4,4*%
%TO.N,unconnected-(J21-Pad4)*%
X277250000Y-151600000D03*
%TO.P,J21,5,5*%
%TO.N,GND_ISO*%
X277250000Y-148860000D03*
%TO.P,J21,6,6*%
X274410000Y-158450000D03*
%TO.P,J21,7,7*%
%TO.N,/CAN0_interface/CAN1_+*%
X274410000Y-155710000D03*
%TO.P,J21,8,8*%
%TO.N,unconnected-(J21-Pad8)*%
X274410000Y-152970000D03*
%TO.P,J21,9,9*%
%TO.N,+5V_ISO*%
X274410000Y-150230000D03*
%TD*%
D12*
%TO.P,J17,1,1*%
%TO.N,Net-(IC11-C)*%
X243921001Y-98385000D03*
D13*
%TO.P,J17,2,2*%
%TO.N,Net-(IC12-C)*%
X246921000Y-98385000D03*
%TO.P,J17,3,3*%
%TO.N,Net-(IC13-C)*%
X243921001Y-101384999D03*
%TO.P,J17,4,4*%
%TO.N,Net-(IC11-E)*%
X246921000Y-101384999D03*
%TD*%
D12*
%TO.P,J13,1,1*%
%TO.N,Net-(IC6-Pad1)*%
X88182000Y-163121000D03*
D13*
%TO.P,J13,2,2*%
%TO.N,+3.3V*%
X88182000Y-160121000D03*
%TD*%
D14*
%TO.P,TP14,1,1*%
%TO.N,/Shutdown/Bender_OK_EXT*%
X111829000Y-150749000D03*
%TD*%
%TO.P,TP31,1,1*%
%TO.N,SUPPLY*%
X99500000Y-106975000D03*
%TD*%
D12*
%TO.P,J15,1,1*%
%TO.N,/Contactors/contactors_com_pos*%
X88248500Y-177201000D03*
D13*
%TO.P,J15,2,2*%
%TO.N,Net-(IC7-OUT_1)*%
X88248500Y-180201000D03*
%TD*%
D14*
%TO.P,TP8,1,1*%
%TO.N,/isoSPI_interface/OUT0_N_rv*%
X177150000Y-196150000D03*
%TD*%
%TO.P,TP20,1,1*%
%TO.N,/Shutdown/AMS_SHTDW*%
X92483325Y-196325326D03*
%TD*%
%TO.P,TP18,1,1*%
%TO.N,Net-(IC1-Pad6)*%
X102756750Y-150730000D03*
%TD*%
%TO.P,TP30,1,1*%
%TO.N,/CAN0_interface/CAN1.RX*%
X247000000Y-155500000D03*
%TD*%
%TO.P,TP28,1,1*%
%TO.N,/CAN0_interface/CAN1.TX*%
X247000000Y-152000000D03*
%TD*%
D19*
%TO.P,P2,S1,SHIELD*%
%TO.N,USB0_GND*%
X240755500Y-225081000D03*
X240755500Y-229381000D03*
X245555500Y-225081000D03*
X245555500Y-229381000D03*
%TD*%
D17*
%TO.P,J8,1,Pin_1*%
%TO.N,+3.3V*%
X136250000Y-202450000D03*
D18*
%TO.P,J8,2,Pin_2*%
%TO.N,/isoSPI_interface/POL_0*%
X138250000Y-202450000D03*
%TO.P,J8,3,Pin_3*%
%TO.N,GND*%
X140250000Y-202450000D03*
%TD*%
D14*
%TO.P,TP2,1,1*%
%TO.N,USB1_VCC*%
X116180000Y-228607100D03*
%TD*%
%TO.P,TP32,1,1*%
%TO.N,+5V*%
X134404000Y-99955000D03*
%TD*%
D10*
%TO.P,J3,1,Pin_1*%
%TO.N,+3.3V*%
X281750000Y-219540000D03*
D11*
%TO.P,J3,2,Pin_2*%
%TO.N,/MCU0_primary/MCU0_BOOT*%
X281750000Y-217000000D03*
%TD*%
D12*
%TO.P,J18,1,1*%
%TO.N,/Contactors/contactors_com_pos*%
X201733668Y-102181000D03*
D13*
%TO.P,J18,2,2*%
%TO.N,/Contactors/Contactor_out1*%
X198733669Y-102181000D03*
%TO.P,J18,3,3*%
%TO.N,/Contactors/feedback1*%
X201733668Y-99181001D03*
%TO.P,J18,4,4*%
%TO.N,GND*%
X198733669Y-99181001D03*
%TD*%
D12*
%TO.P,J22,1,1*%
%TO.N,Net-(F2-Pad1)*%
X86896750Y-109060000D03*
D13*
%TO.P,J22,2,2*%
%TO.N,GND*%
X86896750Y-112060000D03*
%TD*%
D14*
%TO.P,TP1,1,1*%
%TO.N,Net-(U1-VDDA)*%
X190246000Y-173990000D03*
%TD*%
D22*
%TO.N,GND*%
X153234000Y-162735000D03*
X199390000Y-154051000D03*
X199898000Y-174625000D03*
X175967000Y-150797000D03*
X227711000Y-164846000D03*
X237376001Y-191818600D03*
X204851000Y-136779000D03*
X234000000Y-151750000D03*
X122345000Y-169725000D03*
X113030000Y-207899000D03*
X253000000Y-114000000D03*
X94750000Y-220500000D03*
X108756000Y-168328000D03*
X179364500Y-170353000D03*
X243409500Y-200688000D03*
X96691000Y-164899000D03*
X110788000Y-175059000D03*
X104057000Y-146611000D03*
X149612000Y-138296000D03*
X215921000Y-171595503D03*
X182063000Y-150797000D03*
X233426000Y-198120000D03*
X109391000Y-140261000D03*
X170180000Y-148336000D03*
X103930000Y-144071000D03*
X237500000Y-158750000D03*
X230886000Y-176403000D03*
X208407000Y-137033000D03*
X230899001Y-191818600D03*
X174250000Y-200000000D03*
X175967000Y-158417000D03*
X255120000Y-196953000D03*
X105835000Y-176837000D03*
X248250000Y-157500000D03*
X139700000Y-108458000D03*
X141169000Y-153210000D03*
X181809000Y-158417000D03*
X196215000Y-171577000D03*
X172000000Y-191500000D03*
X227711500Y-158946026D03*
X153381600Y-199716800D03*
X248500000Y-118500000D03*
X137759714Y-190009714D03*
X233312001Y-183055600D03*
X214462000Y-137446000D03*
X148662000Y-162735000D03*
X227330353Y-153288647D03*
X228613001Y-182928600D03*
X186000000Y-185177500D03*
X135862000Y-159896000D03*
X112268000Y-113792000D03*
X266296000Y-196064000D03*
X227584000Y-147193000D03*
X230912000Y-171646000D03*
X205394500Y-166265500D03*
X230123002Y-109058000D03*
X112141000Y-96266000D03*
X160000000Y-193750000D03*
X241900000Y-134578000D03*
X232791000Y-125688000D03*
X252299500Y-204087100D03*
X101136000Y-175186000D03*
X194945000Y-177419000D03*
X148212000Y-143746000D03*
X119424000Y-166804000D03*
X114725000Y-174932000D03*
X215461645Y-144003149D03*
X109899000Y-133149000D03*
X205105000Y-154940000D03*
X219837000Y-144145000D03*
X122301000Y-178689000D03*
X262250000Y-187750000D03*
X239750000Y-124000000D03*
X193762000Y-162446000D03*
X231000000Y-167000000D03*
X232791000Y-133308000D03*
X229112000Y-171596000D03*
X112058000Y-157914000D03*
X167250000Y-194000000D03*
X169252000Y-199688799D03*
X166000000Y-142500000D03*
X96564000Y-156517000D03*
X140500000Y-184750000D03*
X205105000Y-161925000D03*
X140000000Y-148750000D03*
X219112000Y-173546000D03*
X122472000Y-157660000D03*
X192659000Y-160274000D03*
X216100737Y-192107263D03*
X88211675Y-188696326D03*
X228600000Y-198247000D03*
X218362000Y-136896000D03*
X146177000Y-109347000D03*
X152000000Y-179750000D03*
X228537000Y-179346000D03*
X144500000Y-147750000D03*
X172411000Y-127048000D03*
X194818000Y-165354000D03*
X159750000Y-184250000D03*
X161250000Y-170353000D03*
X238000000Y-114750000D03*
X107105000Y-138610000D03*
X96691000Y-168074000D03*
X198712000Y-135996000D03*
X198247000Y-167259000D03*
X265250000Y-113750000D03*
X94151000Y-143436000D03*
X118789000Y-158295000D03*
X96183000Y-140007000D03*
X94659000Y-146103000D03*
X181500000Y-179250000D03*
X198374000Y-161671000D03*
X148062000Y-153846000D03*
X187706000Y-163068000D03*
X180500000Y-194500000D03*
X257025000Y-188444000D03*
X224688500Y-132572193D03*
X195961000Y-148336000D03*
X159457000Y-162481000D03*
X227412000Y-136107499D03*
X120650000Y-207899000D03*
X159350600Y-199716800D03*
X205750000Y-108500000D03*
X187706000Y-168275000D03*
X205232000Y-150622000D03*
X216535000Y-176403000D03*
X100247000Y-133149000D03*
X159362000Y-144296000D03*
X223990214Y-170872510D03*
X260073000Y-207621000D03*
X235725001Y-191818600D03*
X236474000Y-176530000D03*
X111931000Y-168201000D03*
X170750000Y-184750000D03*
X219500000Y-109000000D03*
X136000000Y-167500000D03*
X226962001Y-191818600D03*
X232536500Y-130083500D03*
%TO.N,+3.3V*%
X163780299Y-192904000D03*
X143129000Y-147574000D03*
X177930299Y-192904000D03*
X139812000Y-101496000D03*
X218931500Y-166278637D03*
X149112000Y-115946000D03*
X128143000Y-132969000D03*
X230661500Y-164896000D03*
X151250000Y-181400000D03*
X172562000Y-130846000D03*
X243750000Y-124000000D03*
X218837497Y-144145000D03*
X228537201Y-194496000D03*
X196728738Y-164530154D03*
X230862000Y-183296000D03*
X174212000Y-148546000D03*
X110762000Y-206096000D03*
X205219077Y-165281512D03*
X160512000Y-157546000D03*
X182012000Y-157146000D03*
X191430299Y-192904000D03*
X193562000Y-172646000D03*
D23*
X143500000Y-100250000D03*
D22*
X106812000Y-159196000D03*
X214493336Y-144250908D03*
X216424521Y-180346761D03*
X119062000Y-173446000D03*
X225741342Y-143521568D03*
X164338000Y-142621000D03*
X147320000Y-140208000D03*
X223936500Y-165896000D03*
X133096000Y-161290000D03*
X148338000Y-192904000D03*
X235737001Y-180346000D03*
X219158000Y-140746000D03*
X119662000Y-204346000D03*
X225812000Y-183396000D03*
X207662000Y-144096000D03*
X233337001Y-194346000D03*
X248250000Y-147000000D03*
X225812000Y-136107499D03*
X106762000Y-161746000D03*
X238662000Y-179046000D03*
X202312000Y-151196000D03*
X105262000Y-167196000D03*
X230562500Y-159096000D03*
X215921000Y-170596000D03*
X185312000Y-166496000D03*
X200062000Y-133246000D03*
X251062000Y-203996000D03*
X98062000Y-156196000D03*
X186436000Y-132080000D03*
X243412000Y-207496000D03*
X203835000Y-139446000D03*
X98812000Y-146096000D03*
X202012000Y-161690000D03*
X148662000Y-152959500D03*
X185162000Y-149514000D03*
X103012000Y-138546000D03*
X230562000Y-153190000D03*
X202162000Y-155190000D03*
X226279319Y-145658208D03*
X148662500Y-155846000D03*
X176550000Y-181150000D03*
X104012000Y-147846000D03*
X242000000Y-133346000D03*
X251612000Y-186996000D03*
X116212000Y-171196000D03*
%TO.N,/MCU0_primary/MCU0_NRST*%
X197104000Y-137287000D03*
X198755000Y-159416500D03*
X197866000Y-170688000D03*
%TO.N,/MCU1_secondary/MCU1_NRST*%
X147447000Y-149733000D03*
X146304000Y-138049000D03*
X138812714Y-151650500D03*
X137541000Y-159004000D03*
%TO.N,Net-(U5-3V3OUT)*%
X105266000Y-209671161D03*
X102362000Y-209677000D03*
%TO.N,USB1_GND*%
X120650000Y-213487000D03*
X113030000Y-213614000D03*
%TO.N,USB1_VCC*%
X110236000Y-221615000D03*
X103251000Y-221615000D03*
%TO.N,Net-(U6-3V3OUT)*%
X234519500Y-212880000D03*
X237694500Y-212880000D03*
%TO.N,USB0_GND*%
X252299500Y-213261000D03*
X244679500Y-213261000D03*
X237948500Y-225072000D03*
%TO.N,USB_VCC*%
X235789500Y-222024000D03*
X251862000Y-223996000D03*
X245314500Y-221008000D03*
X243663500Y-222024000D03*
%TO.N,SUPPLY*%
X102166000Y-119889000D03*
X101981000Y-125349000D03*
%TO.N,Net-(IC3-OUT_1)*%
X99568000Y-178181000D03*
X99278098Y-131066458D03*
%TO.N,+5V*%
X185250000Y-116000000D03*
X246000000Y-143000000D03*
X224750000Y-124899502D03*
X237500000Y-134000000D03*
X118745000Y-168529000D03*
X224750000Y-121250000D03*
X237750000Y-149000000D03*
X219500000Y-124500000D03*
X242000000Y-136000000D03*
X117348000Y-161163000D03*
X179500000Y-116000000D03*
X154162000Y-109296000D03*
%TO.N,Net-(IC7-OUT_1)*%
X95504000Y-184150000D03*
%TO.N,+5V_ISO*%
X265760000Y-143445000D03*
X261500000Y-154750000D03*
%TO.N,GND_ISO*%
X262101463Y-148850000D03*
X261250000Y-146600000D03*
X259500000Y-158750000D03*
%TO.N,Net-(D1-A)*%
X199112000Y-178396000D03*
X200012000Y-159916500D03*
%TO.N,Net-(D2-A)*%
X201112000Y-160396000D03*
X199112000Y-179446000D03*
%TO.N,Net-(D3-A)*%
X149352000Y-151506500D03*
X149500000Y-171750000D03*
%TO.N,Net-(D4-A)*%
X150368000Y-151765000D03*
X150500000Y-169000000D03*
%TO.N,/Contactors/contactors_com_pos*%
X120000000Y-117750000D03*
X115250000Y-117750000D03*
X217000000Y-107500000D03*
X229750000Y-107500000D03*
X204000000Y-107500000D03*
%TO.N,/Shutdown/Bender_OK_EXT*%
X115189000Y-124714000D03*
%TO.N,Net-(IC1-Pad2)*%
X99060000Y-144526000D03*
X110363000Y-136779000D03*
X99314000Y-136779000D03*
X109728000Y-146558000D03*
%TO.N,/Shutdown/AMS_SHTDW*%
X92483325Y-154178000D03*
X106299000Y-154178000D03*
X106299000Y-145161000D03*
X92583000Y-138938000D03*
X98552000Y-139827000D03*
X98552000Y-129032000D03*
%TO.N,/MCU0_primary/SHUTDOWN_ctrl_MCU0*%
X113538000Y-123789500D03*
X113538000Y-143891000D03*
X220599000Y-138430000D03*
X220562000Y-121000000D03*
%TO.N,/MCU1_secondary/SHUTDOWN_ctrl_MCU0*%
X112776000Y-142621000D03*
X155321000Y-130302000D03*
X155612000Y-137946000D03*
X112776000Y-130302000D03*
%TO.N,Net-(IC1-Pad6)*%
X105029000Y-141478000D03*
%TO.N,/Shutdown/IMD_SHTDW*%
X86254798Y-158741061D03*
X93472000Y-138176000D03*
X93472000Y-158294000D03*
X85471000Y-183134000D03*
%TO.N,Net-(IC1-Pad10)*%
X100965000Y-161036000D03*
X100767500Y-142748000D03*
%TO.N,Net-(IC2-Pad3)*%
X98933000Y-147574000D03*
X98933000Y-170307000D03*
X98933000Y-165735000D03*
%TO.N,Net-(IC4-Pad1)*%
X117646000Y-165153000D03*
X113836000Y-165661000D03*
X109264000Y-165661000D03*
%TO.N,Net-(IC4-Pad6)*%
X112185000Y-159184000D03*
X114852000Y-159184000D03*
%TO.N,Net-(IC8-C)*%
X87245325Y-202385326D03*
X89531325Y-202385326D03*
%TO.N,/MCU0_primary/SHUTDOWN_feedback_MCU0*%
X154686500Y-138771131D03*
X154594000Y-126146000D03*
X120396000Y-131318000D03*
X120396000Y-173482000D03*
X154686000Y-131318000D03*
X219872500Y-126344500D03*
X219872500Y-134346000D03*
%TO.N,/Contactors/Contactor_feedback0*%
X238812000Y-128296000D03*
X239062000Y-145846000D03*
%TO.N,/Contactors/Contactor_feedback1*%
X239960000Y-129540000D03*
X240000000Y-145092000D03*
%TO.N,/Contactors/Contactor_feedback2*%
X240900000Y-130796000D03*
X240900000Y-144296000D03*
%TO.N,/MCU0_Memory/EEPROM.CS*%
X200152000Y-138303000D03*
X201422000Y-147193000D03*
%TO.N,/MCU0_Memory/EEPROM.MISO*%
X216916000Y-139954000D03*
X216916000Y-134620000D03*
%TO.N,/MCU0_Memory/EEPROM.MOSI*%
X215519000Y-131318000D03*
X215463000Y-139724830D03*
%TO.N,/MCU0_Memory/EEPROM.SCK*%
X216189500Y-139025985D03*
X216154000Y-133731000D03*
%TO.N,Net-(J1-+)*%
X205112000Y-145996000D03*
X191000000Y-118500000D03*
%TO.N,/MCU0_primary/MCU0_SWDIO*%
X231810500Y-149335073D03*
X198662000Y-123022000D03*
X231810000Y-122646000D03*
X198627136Y-130810000D03*
%TO.N,/MCU0_primary/MCU0_SWCLK*%
X197795000Y-132080000D03*
X197891637Y-127071000D03*
X224663000Y-137032500D03*
X222250000Y-127071000D03*
%TO.N,/MCU0_primary/MCU0_SWO*%
X212362000Y-127797500D03*
X197173636Y-127797500D03*
X197068500Y-133917626D03*
X212412000Y-139746000D03*
%TO.N,/MCU0_primary/MCU0_TDI*%
X196342000Y-136017000D03*
X222250000Y-128524000D03*
X196342000Y-128524000D03*
X223647000Y-137160000D03*
%TO.N,/MCU0_primary/MCU0_BOOT*%
X241626500Y-138096000D03*
X228602945Y-138372375D03*
X210564320Y-145450500D03*
X256312000Y-215250000D03*
%TO.N,/MCU1_secondary/MCU1_SWDIO*%
X163391500Y-145459500D03*
X163195000Y-133096000D03*
%TO.N,/MCU1_secondary/MCU1_SWCLK*%
X160655000Y-134366000D03*
X160528000Y-141986000D03*
%TO.N,/MCU1_secondary/MCU1_SWO*%
X152852755Y-135290500D03*
X153162000Y-140462000D03*
%TO.N,/MCU1_secondary/MCU1_TDI*%
X159131000Y-140335000D03*
X159258000Y-136906000D03*
%TO.N,/MCU1_secondary/MCU1_BOOT*%
X150622000Y-140462000D03*
X150622000Y-128397000D03*
%TO.N,Net-(T1-PRI_3)*%
X162400000Y-227000000D03*
%TO.N,Net-(T1-PRI_1)*%
X162400000Y-225500000D03*
%TO.N,Net-(T2-PRI_4)*%
X157400000Y-221100000D03*
%TO.N,Net-(T2-PRI_6)*%
X162850000Y-222000000D03*
%TO.N,/isoSPI_interface/POL_0*%
X191430299Y-186904000D03*
X163250000Y-186904000D03*
X150000000Y-186904000D03*
X177930299Y-186904000D03*
%TO.N,/isoSPI_interface/PHA_0*%
X191430299Y-185904000D03*
X148338000Y-185904000D03*
X177930299Y-185904000D03*
X162500000Y-185904000D03*
%TO.N,/isoSPI_interface/SLOW*%
X139038000Y-189904000D03*
X181250000Y-189226500D03*
X168630299Y-189904000D03*
X153500000Y-189750000D03*
%TO.N,/Contactors/feedback0*%
X226125000Y-109125000D03*
X226712000Y-127296000D03*
%TO.N,/Contactors/feedback1*%
X224750000Y-126750000D03*
X208500000Y-108750000D03*
X223750000Y-118250000D03*
X221500000Y-118250000D03*
%TO.N,/Contactors/feedback2*%
X225000000Y-131500000D03*
X221500000Y-108750000D03*
%TO.N,/CAN0_interface/CAN0_L*%
X270614000Y-203303000D03*
X270614000Y-195556000D03*
%TO.N,/CAN0_interface/CAN0_H*%
X269598000Y-201652000D03*
X269598000Y-196699000D03*
%TO.N,Net-(U17-CANL)*%
X262486000Y-192127000D03*
X262359000Y-197334000D03*
%TO.N,Net-(U17-CANH)*%
X259819000Y-190984000D03*
X259819000Y-197334000D03*
%TO.N,/USB_interface/D1+*%
X109093000Y-223647000D03*
X99568000Y-220599000D03*
X110236000Y-220599000D03*
%TO.N,/USB_interface/D1-*%
X110109000Y-222631000D03*
X101219000Y-222631000D03*
%TO.N,/USB_interface/D0+*%
X245314500Y-223929000D03*
X243663500Y-221008000D03*
X242679000Y-224056000D03*
X231979500Y-221008000D03*
%TO.N,/USB_interface/D0-*%
X233630500Y-222913000D03*
X243663500Y-223023503D03*
%TO.N,/MCU0_primary/FTDI_MCU0.DTR*%
X253746000Y-221000000D03*
X253746000Y-207899000D03*
%TO.N,/MCU1_secondary/FTDI_MCU1.DTR*%
X168910000Y-167750000D03*
X115570000Y-204470000D03*
X115570000Y-185674000D03*
X169545000Y-134112000D03*
%TO.N,/MCU1_secondary/FTDI_MCU1.RTS*%
X114300000Y-204597000D03*
X114300000Y-185450000D03*
%TO.N,/isoSPI_interface/OUT0_N*%
X167682000Y-199261799D03*
%TO.N,/isoSPI_interface/OUT0_P*%
X171173000Y-200323799D03*
%TO.N,Net-(R39-Pad2)*%
X175087500Y-184962500D03*
X175087500Y-181412500D03*
%TO.N,Net-(R40-Pad2)*%
X145500000Y-181400000D03*
X145500000Y-184950000D03*
%TO.N,/MCU0_primary/isoSPI0.DIR*%
X199500000Y-152500000D03*
X213677298Y-146346000D03*
%TO.N,/MCU1_secondary/isoSPI1.DIR*%
X169636500Y-136398000D03*
X152435500Y-139630364D03*
X141250000Y-178250000D03*
X152146000Y-136017000D03*
%TO.N,/Contactors/Contactor_ctrl0*%
X233000000Y-113500000D03*
X235662000Y-143146000D03*
%TO.N,/Contactors/Contactor_ctrl1*%
X231375000Y-118375000D03*
X234112000Y-142996000D03*
%TO.N,/Contactors/Contactor_ctrl2*%
X234838500Y-142096000D03*
X231250000Y-117000000D03*
%TO.N,/CAN0_interface/CAN0.TRANS_STBY_CTRL*%
X249312000Y-183246000D03*
X223262000Y-143646000D03*
X228655000Y-141369500D03*
X243100000Y-141369500D03*
%TO.N,/CAN0_interface/CAN1.TRANS_STBY_CTRL*%
X211562000Y-146346000D03*
X228655000Y-139796000D03*
%TO.N,/CAN0_interface/CAN0.TX*%
X230666252Y-163846275D03*
X230712000Y-188646000D03*
%TO.N,/CAN0_interface/CAN1.TX*%
X245000000Y-143250000D03*
X209662000Y-140946000D03*
X228612000Y-136296497D03*
%TO.N,/CAN0_interface/CAN0.RX*%
X227912000Y-140546000D03*
X242353000Y-140546000D03*
X212574889Y-145414132D03*
%TO.N,/CAN0_interface/CAN1.RX*%
X228612000Y-137296000D03*
X244000000Y-139250000D03*
X209884500Y-144596000D03*
%TO.N,/MCU0_Memory/MCU0_RAM.A0*%
X220512000Y-183246000D03*
X219853601Y-151752620D03*
%TO.N,/MCU0_Memory/MCU0_RAM.A1*%
X218857960Y-152548232D03*
X218948000Y-180467000D03*
%TO.N,/MCU0_Memory/MCU0_RAM.A2*%
X218150500Y-179572161D03*
X218077480Y-153172616D03*
%TO.N,/MCU0_Memory/MCU0_RAM.A3*%
X217424000Y-180340000D03*
X217297000Y-153797000D03*
%TO.N,/MCU0_Memory/MCU0_RAM.A4*%
X207186393Y-189589203D03*
X206629000Y-153916500D03*
%TO.N,/MCU0_Memory/MCU0_RAM.A5*%
X207244807Y-188591409D03*
X207772000Y-153924000D03*
%TO.N,/MCU0_Memory/MCU0_RAM.SDNWE*%
X225421323Y-179687024D03*
X224917000Y-159690000D03*
%TO.N,/MCU0_primary/isoSPI0.CS*%
X172000000Y-183500000D03*
X210025500Y-172146000D03*
%TO.N,/MCU0_primary/isoSPI0.SCK*%
X177930299Y-188904000D03*
X191430299Y-188904000D03*
X210201500Y-170896000D03*
%TO.N,/MCU0_primary/isoSPI0.MISO*%
X177930299Y-190904000D03*
X191430299Y-190904000D03*
X210111211Y-169745252D03*
%TO.N,/MCU0_primary/isoSPI0.MOSI*%
X210962000Y-169046000D03*
X191430299Y-191904000D03*
X177930299Y-191904000D03*
%TO.N,/MCU0_Memory/MCU0_RAM.SDNRAS*%
X211841500Y-174146000D03*
X210865478Y-166278637D03*
%TO.N,/MCU0_Memory/MCU0_RAM.A6*%
X212387000Y-189096000D03*
X210952041Y-165282890D03*
%TO.N,/MCU0_Memory/MCU0_RAM.A7*%
X212662000Y-164302500D03*
X213250000Y-188250000D03*
%TO.N,/MCU0_Memory/MCU0_RAM.A8*%
X214431232Y-187872593D03*
X214530484Y-164302500D03*
%TO.N,/MCU0_Memory/MCU0_RAM.A9*%
X214858298Y-186968922D03*
X215532121Y-164362604D03*
%TO.N,/MCU0_Memory/MCU0_RAM.A10*%
X215921000Y-169446000D03*
X216375000Y-175046000D03*
%TO.N,/MCU0_Memory/MCU0_RAM.A11*%
X215526900Y-186225970D03*
X216570857Y-164373913D03*
%TO.N,/MCU0_Memory/MCU0_RAM.D4*%
X223774000Y-177546000D03*
X222795500Y-172874780D03*
%TO.N,/MCU0_Memory/MCU0_RAM.D5*%
X222795500Y-173874283D03*
X223795503Y-176326786D03*
%TO.N,/MCU0_Memory/MCU0_RAM.D6*%
X222795500Y-174873786D03*
X222795500Y-176326786D03*
%TO.N,/MCU0_Memory/MCU0_RAM.D7*%
X228055323Y-183846000D03*
X228055323Y-176046000D03*
%TO.N,/MCU0_Memory/MCU0_RAM.D8*%
X207301500Y-186594012D03*
X209850855Y-164050009D03*
%TO.N,/MCU0_Memory/MCU0_RAM.D9*%
X207301500Y-185594509D03*
X208676274Y-164197162D03*
%TO.N,/MCU0_Memory/MCU0_RAM.D10*%
X207301500Y-184595006D03*
X208209500Y-163197667D03*
%TO.N,/MCU0_Memory/MCU0_RAM.D11*%
X207755500Y-162213209D03*
X207301500Y-183595503D03*
%TO.N,/MCU0_Memory/MCU0_RAM.D12*%
X207301500Y-161268500D03*
X207301500Y-182596000D03*
%TO.N,/MCU0_primary/FTDI_MCU0.TX*%
X222752018Y-196522513D03*
X223212000Y-163946000D03*
%TO.N,/MCU0_primary/FTDI_MCU0.RX*%
X223478518Y-197429482D03*
X223936500Y-164746000D03*
%TO.N,/MCU0_Memory/MCU0_RAM.SDNE1*%
X223012000Y-180467000D03*
X221412000Y-162427474D03*
%TO.N,/MCU0_Memory/MCU0_RAM.SDCKE1*%
X207301500Y-187593515D03*
X211455000Y-160416500D03*
%TO.N,/MCU0_primary/MCU_to_MCU_INTERFACE_MCU0.CS*%
X179112000Y-154646000D03*
X227656663Y-163847975D03*
X229937500Y-124887584D03*
X179012000Y-125469500D03*
%TO.N,/MCU0_primary/MCU_to_MCU_INTERFACE_MCU0.MISO*%
X178362000Y-155846000D03*
X178012497Y-125469500D03*
X227507094Y-162859727D03*
X229250000Y-123226500D03*
%TO.N,/MCU0_primary/MCU_to_MCU_INTERFACE_MCU0.MOSI*%
X181012000Y-123354500D03*
X230500000Y-121750000D03*
X231356500Y-163123390D03*
X181012000Y-152046000D03*
%TO.N,/MCU0_Memory/MCU0_RAM.D13*%
X231810500Y-162179000D03*
X234061000Y-191770000D03*
%TO.N,/MCU0_Memory/MCU0_RAM.D14*%
X234928962Y-190796000D03*
X234187500Y-161544000D03*
%TO.N,/MCU0_Memory/MCU0_RAM.D15*%
X234894717Y-160837708D03*
X236527242Y-190796000D03*
%TO.N,/MCU0_Memory/MCU0_RAM.D0*%
X237253742Y-183146000D03*
X234862000Y-157546000D03*
%TO.N,/MCU0_Memory/MCU0_RAM.D1*%
X233717500Y-156819500D03*
X234201962Y-179453535D03*
%TO.N,/MCU0_Memory/MCU0_RAM.BA0*%
X221144500Y-156428500D03*
X222162000Y-182896000D03*
%TO.N,/MCU0_Memory/MCU0_RAM.BA1*%
X220345000Y-155575000D03*
X221361000Y-180467000D03*
%TO.N,/MCU0_Memory/MCU0_RAM.SDCLK*%
X224537001Y-191643000D03*
X226151500Y-154178000D03*
%TO.N,/MCU0_Memory/MCU0_RAM.D2*%
X222849500Y-134896000D03*
X234188000Y-180467000D03*
X223062000Y-138046000D03*
X232800000Y-134926999D03*
%TO.N,/MCU0_Memory/MCU0_RAM.D3*%
X232537000Y-136398000D03*
X232537000Y-180340000D03*
%TO.N,/MCU0_primary/MCU_to_MCU_INTERFACE_MCU0.SCK*%
X221384500Y-139446000D03*
X180162000Y-153346000D03*
X180162000Y-125469500D03*
X221398000Y-126000000D03*
%TO.N,/MCU0_Memory/MCU0_RAM.SDNCAS*%
X222504000Y-145161000D03*
X223129281Y-178528719D03*
%TO.N,/MCU0_Memory/MCU0_RAM.NBL0*%
X226147823Y-180410326D03*
X225425000Y-147719500D03*
%TO.N,/MCU0_Memory/MCU0_RAM.NBL1*%
X225528765Y-191767134D03*
X226568000Y-148446000D03*
%TO.N,/MCU1_secondary/MCU_to_MCU_INTERFACE_MCU1.CS*%
X171704000Y-153924000D03*
X171704000Y-155702000D03*
%TO.N,/MCU1_secondary/MCU_to_MCU_INTERFACE_MCU1.SCK*%
X176784000Y-153289000D03*
X176657000Y-138049000D03*
%TO.N,/MCU1_secondary/isoSPI1.CS*%
X142250000Y-184000000D03*
X146250000Y-171750000D03*
%TO.N,/MCU1_secondary/isoSPI1.SCK*%
X164750000Y-188000000D03*
X158242000Y-153233000D03*
X148338000Y-188904000D03*
X165500000Y-184750000D03*
%TO.N,/MCU1_secondary/isoSPI1.MISO*%
X148338000Y-190904000D03*
X163750000Y-190704001D03*
X159059245Y-153959500D03*
X166273500Y-183624647D03*
%TO.N,/MCU1_secondary/isoSPI1.MOSI*%
X148338000Y-191904000D03*
X164500000Y-191904000D03*
X165750000Y-182126500D03*
X159766000Y-154686000D03*
%TO.N,/MCU1_secondary/FTDI_MCU1.TX*%
X118110000Y-204343000D03*
X158750000Y-175250000D03*
X157950683Y-155544903D03*
X118110000Y-186944000D03*
%TO.N,/MCU1_secondary/FTDI_MCU1.RX*%
X158950164Y-155538303D03*
X116840000Y-186436000D03*
X116840000Y-204343000D03*
X159500000Y-174250000D03*
%TO.N,/USB_interface/USB_MCU1.DTR*%
X107315000Y-208661000D03*
X115570000Y-208661000D03*
%TO.N,/USB_interface/USB_MCU1.RTS*%
X106299000Y-209550000D03*
X114300000Y-209677000D03*
%TO.N,/USB_interface/USB_MCU1.RX*%
X118110000Y-210439000D03*
X104521000Y-210439000D03*
%TO.N,/USB_interface/USB_MCU1.TX*%
X107315000Y-211455000D03*
X116840000Y-211455000D03*
%TO.N,/USB_interface/USB_MCU0.DTR*%
X247219500Y-210467000D03*
X239218500Y-210467000D03*
%TO.N,/USB_interface/USB_MCU0.RTS*%
X238456500Y-212118000D03*
X245949500Y-212372000D03*
%TO.N,/USB_interface/USB_MCU0.RX*%
X236805500Y-211356000D03*
X249632500Y-211356000D03*
%TO.N,/USB_interface/USB_MCU0.TX*%
X240361500Y-209677000D03*
X248362500Y-209705000D03*
%TO.N,Net-(U13-Pad10)*%
X176137500Y-184012500D03*
X177187500Y-182462500D03*
%TO.N,Net-(U14-Pad10)*%
X146550000Y-184000000D03*
X147600000Y-182450000D03*
%TD*%
D24*
%TO.N,SUPPLY*%
X102027000Y-125303000D02*
X101981000Y-125349000D01*
X102166000Y-119889000D02*
X102027000Y-120028000D01*
X102027000Y-120028000D02*
X102027000Y-125303000D01*
D25*
%TO.N,/CAN0_interface/CAN0.TRANS_STBY_CTRL*%
X241800000Y-178550000D02*
X246496000Y-183246000D01*
X241800000Y-145742052D02*
X241800000Y-178550000D01*
X243100000Y-144442052D02*
X241800000Y-145742052D01*
X243100000Y-141369500D02*
X243100000Y-144442052D01*
X246496000Y-183246000D02*
X249312000Y-183246000D01*
%TO.N,GND*%
X215648500Y-171868003D02*
X215921000Y-171595503D01*
X219362000Y-182296000D02*
X219712000Y-181946000D01*
X215697521Y-177240479D02*
X215697521Y-181481521D01*
X216507076Y-176403000D02*
X215648500Y-175544424D01*
X216535000Y-176403000D02*
X216507076Y-176403000D01*
X216512000Y-182296000D02*
X219362000Y-182296000D01*
X219712000Y-180202866D02*
X219510000Y-180000866D01*
X230912000Y-171646000D02*
X230912000Y-176377000D01*
X215648500Y-175544424D02*
X215648500Y-171868003D01*
X219510000Y-173944000D02*
X219112000Y-173546000D01*
D26*
X140000000Y-148750000D02*
X143500000Y-148750000D01*
D25*
X229112000Y-178771000D02*
X229112000Y-171596000D01*
X216535000Y-176403000D02*
X215697521Y-177240479D01*
X219712000Y-181946000D02*
X219712000Y-180202866D01*
D26*
X143500000Y-148750000D02*
X144500000Y-147750000D01*
D25*
X228537000Y-179346000D02*
X229112000Y-178771000D01*
X227412000Y-135295693D02*
X224688500Y-132572193D01*
X227412000Y-136107499D02*
X227412000Y-135295693D01*
X219510000Y-180000866D02*
X219510000Y-173944000D01*
X215697521Y-181481521D02*
X216512000Y-182296000D01*
X230912000Y-176377000D02*
X230886000Y-176403000D01*
%TO.N,+3.3V*%
X191430299Y-192904000D02*
X148338000Y-192904000D01*
%TO.N,/MCU0_primary/MCU0_NRST*%
X199101000Y-169453000D02*
X197866000Y-170688000D01*
X198755000Y-159416500D02*
X199101000Y-159762500D01*
X199101000Y-159762500D02*
X199101000Y-169453000D01*
X197104000Y-137287000D02*
X197104000Y-157765500D01*
X197104000Y-157765500D02*
X198755000Y-159416500D01*
%TO.N,/MCU1_secondary/MCU1_NRST*%
X137541000Y-159004000D02*
X137541000Y-152922214D01*
X146304000Y-138049000D02*
X146304000Y-148590000D01*
X146304000Y-148590000D02*
X147447000Y-149733000D01*
X137541000Y-152922214D02*
X138812714Y-151650500D01*
D27*
%TO.N,Net-(U5-3V3OUT)*%
X102362000Y-209677000D02*
X102390500Y-209648500D01*
X105243339Y-209648500D02*
X105266000Y-209671161D01*
X102390500Y-209648500D02*
X105243339Y-209648500D01*
%TO.N,USB1_GND*%
X111980000Y-224507100D02*
X107180000Y-224507100D01*
X116030000Y-224507100D02*
X116180000Y-224657100D01*
D28*
X113030000Y-213614000D02*
X120523000Y-213614000D01*
X120523000Y-213614000D02*
X120650000Y-213487000D01*
D27*
X111980000Y-224507100D02*
X116030000Y-224507100D01*
%TO.N,USB1_VCC*%
X103251000Y-221615000D02*
X110236000Y-221615000D01*
%TO.N,Net-(U6-3V3OUT)*%
X234519500Y-212880000D02*
X237694500Y-212880000D01*
%TO.N,USB0_GND*%
X237948500Y-225072000D02*
X240746500Y-225072000D01*
X249650500Y-225171000D02*
X245645500Y-225171000D01*
X245555500Y-225081000D02*
X240755500Y-225081000D01*
X240746500Y-225072000D02*
X240755500Y-225081000D01*
X245645500Y-225171000D02*
X245555500Y-225081000D01*
D28*
X244679500Y-213261000D02*
X252299500Y-213261000D01*
D27*
%TO.N,USB_VCC*%
X251862000Y-223996000D02*
X248874000Y-221008000D01*
X235789500Y-222024000D02*
X243663500Y-222024000D01*
X249650500Y-228750000D02*
X251862000Y-226538500D01*
X248874000Y-221008000D02*
X245314500Y-221008000D01*
X244298500Y-222024000D02*
X243663500Y-222024000D01*
X251862000Y-226538500D02*
X251862000Y-223996000D01*
X245314500Y-221008000D02*
X244298500Y-222024000D01*
D25*
%TO.N,Net-(IC3-OUT_1)*%
X99278098Y-135600098D02*
X99278098Y-131066458D01*
X99568000Y-178181000D02*
X100041000Y-177708000D01*
X100041000Y-136363000D02*
X99278098Y-135600098D01*
X100041000Y-177708000D02*
X100041000Y-136363000D01*
D24*
%TO.N,+5V*%
X219500000Y-124500000D02*
X207750000Y-124500000D01*
X140205000Y-99955000D02*
X134404000Y-99955000D01*
D28*
X237500000Y-148750000D02*
X237500000Y-134000000D01*
X117348000Y-106172000D02*
X120455000Y-103065000D01*
D24*
X154162000Y-109296000D02*
X149546000Y-109296000D01*
X161500000Y-116000000D02*
X179500000Y-116000000D01*
D26*
X243750000Y-136000000D02*
X242000000Y-136000000D01*
X245000000Y-141000000D02*
X245000000Y-137250000D01*
D24*
X154162000Y-109296000D02*
X154796000Y-109296000D01*
D28*
X118745000Y-168529000D02*
X118570000Y-168354000D01*
D26*
X245000000Y-137250000D02*
X243750000Y-136000000D01*
D24*
X207750000Y-124500000D02*
X199250000Y-116000000D01*
X158750000Y-113250000D02*
X161500000Y-116000000D01*
D28*
X120455000Y-103065000D02*
X124954000Y-103065000D01*
X117348000Y-161163000D02*
X117348000Y-106172000D01*
D24*
X199250000Y-116000000D02*
X185250000Y-116000000D01*
X149546000Y-109296000D02*
X140205000Y-99955000D01*
D28*
X118570000Y-162385000D02*
X117348000Y-161163000D01*
D26*
X245000000Y-142000000D02*
X245000000Y-141000000D01*
X224750000Y-124899502D02*
X224750000Y-121250000D01*
X246000000Y-143000000D02*
X245000000Y-142000000D01*
D24*
X154796000Y-109296000D02*
X158750000Y-113250000D01*
D28*
X237750000Y-149000000D02*
X237500000Y-148750000D01*
X118570000Y-168354000D02*
X118570000Y-162385000D01*
D25*
%TO.N,Net-(IC7-OUT_1)*%
X95625500Y-180760000D02*
X95625500Y-184028500D01*
X95625500Y-184028500D02*
X95504000Y-184150000D01*
%TO.N,Net-(D1-A)*%
X200012000Y-173482866D02*
X199112000Y-174382866D01*
X199112000Y-174382866D02*
X199112000Y-178396000D01*
X200012000Y-159916500D02*
X200012000Y-173482866D01*
%TO.N,Net-(D2-A)*%
X201112000Y-177424134D02*
X199112000Y-179424134D01*
X199112000Y-179424134D02*
X199112000Y-179446000D01*
X201112000Y-160396000D02*
X201112000Y-177424134D01*
%TO.N,Net-(D3-A)*%
X149500000Y-171750000D02*
X149500000Y-151654500D01*
X149500000Y-151654500D02*
X149352000Y-151506500D01*
%TO.N,Net-(D4-A)*%
X150500000Y-169000000D02*
X150114000Y-168614000D01*
X150114000Y-152019000D02*
X150368000Y-151765000D01*
X150114000Y-168614000D02*
X150114000Y-152019000D01*
D29*
%TO.N,/Contactors/contactors_com_pos*%
X95625500Y-142375500D02*
X95625500Y-175299000D01*
X97250000Y-117750000D02*
X94750000Y-120250000D01*
X94750000Y-141500000D02*
X95625500Y-142375500D01*
X94750000Y-120250000D02*
X94750000Y-141500000D01*
X217000000Y-107500000D02*
X229750000Y-107500000D01*
X115250000Y-117750000D02*
X97250000Y-117750000D01*
X192000000Y-107500000D02*
X204000000Y-107500000D01*
X120000000Y-117750000D02*
X181750000Y-117750000D01*
X204000000Y-107500000D02*
X217000000Y-107500000D01*
X181750000Y-117750000D02*
X192000000Y-107500000D01*
D25*
%TO.N,/Shutdown/Bender_OK_EXT*%
X115189000Y-124714000D02*
X115189000Y-147389000D01*
X115189000Y-147389000D02*
X111829000Y-150749000D01*
%TO.N,Net-(IC1-Pad2)*%
X110109000Y-146177000D02*
X109728000Y-146558000D01*
X110109000Y-140571134D02*
X110109000Y-146177000D01*
X99060000Y-144526000D02*
X99314000Y-144272000D01*
X110363000Y-136779000D02*
X110363000Y-140317134D01*
X99314000Y-144272000D02*
X99314000Y-136779000D01*
X110363000Y-140317134D02*
X110109000Y-140571134D01*
%TO.N,/Shutdown/AMS_SHTDW*%
X98312000Y-139587000D02*
X98312000Y-129272000D01*
X98552000Y-139827000D02*
X98312000Y-139587000D01*
X98312000Y-129272000D02*
X98552000Y-129032000D01*
X92483325Y-154178000D02*
X92483325Y-139037675D01*
X106299000Y-145161000D02*
X106299000Y-154178000D01*
X92483325Y-196325326D02*
X92483325Y-154178000D01*
X92483325Y-139037675D02*
X92583000Y-138938000D01*
%TO.N,/MCU0_primary/SHUTDOWN_ctrl_MCU0*%
X113538000Y-143891000D02*
X113538000Y-123789500D01*
X220599000Y-121037000D02*
X220599000Y-138430000D01*
X220562000Y-121000000D02*
X220599000Y-121037000D01*
%TO.N,/MCU1_secondary/SHUTDOWN_ctrl_MCU0*%
X155612000Y-137946000D02*
X155612000Y-130593000D01*
X155612000Y-130593000D02*
X155321000Y-130302000D01*
X112776000Y-142621000D02*
X112776000Y-130302000D01*
%TO.N,Net-(IC1-Pad6)*%
X102756750Y-150730000D02*
X105029000Y-148457750D01*
X105029000Y-148457750D02*
X105029000Y-141478000D01*
%TO.N,/Shutdown/IMD_SHTDW*%
X93472000Y-138176000D02*
X93424000Y-138224000D01*
X86135500Y-158860359D02*
X86254798Y-158741061D01*
X93424000Y-138224000D02*
X93424000Y-158246000D01*
X86135500Y-182469500D02*
X86135500Y-158860359D01*
X85471000Y-183134000D02*
X86135500Y-182469500D01*
X93424000Y-158246000D02*
X93472000Y-158294000D01*
X85483325Y-183146325D02*
X85471000Y-183134000D01*
X85483325Y-218325326D02*
X85483325Y-183146325D01*
%TO.N,Net-(IC1-Pad10)*%
X100767500Y-160838500D02*
X100965000Y-161036000D01*
X100767500Y-142748000D02*
X100767500Y-160838500D01*
%TO.N,Net-(IC2-Pad3)*%
X98933000Y-165735000D02*
X98933000Y-170307000D01*
X98933000Y-165735000D02*
X98933000Y-147574000D01*
D28*
%TO.N,Net-(IC4-Pad1)*%
X113836000Y-165661000D02*
X117138000Y-165661000D01*
X117138000Y-165661000D02*
X117646000Y-165153000D01*
X113836000Y-165661000D02*
X109264000Y-165661000D01*
%TO.N,Net-(IC4-Pad6)*%
X114852000Y-159184000D02*
X112185000Y-159184000D01*
%TO.N,Net-(IC8-C)*%
X89531325Y-202385326D02*
X87245325Y-202385326D01*
D25*
%TO.N,/MCU0_primary/SHUTDOWN_feedback_MCU0*%
X154594000Y-131226000D02*
X154686000Y-131318000D01*
X154686000Y-138770631D02*
X154686500Y-138771131D01*
X154686000Y-131318000D02*
X154686000Y-138770631D01*
X120396000Y-173482000D02*
X120396000Y-131318000D01*
X154594000Y-126146000D02*
X154594000Y-131226000D01*
X219872500Y-126344500D02*
X219872500Y-134346000D01*
%TO.N,/Contactors/Contactor_feedback0*%
X239106000Y-145802000D02*
X239106000Y-128590000D01*
X238250000Y-119750000D02*
X240076000Y-117924000D01*
X240076000Y-117924000D02*
X240076000Y-116325000D01*
X238812000Y-128296000D02*
X238250000Y-127734000D01*
X238250000Y-127734000D02*
X238250000Y-119750000D01*
X239106000Y-128590000D02*
X238812000Y-128296000D01*
X239062000Y-145846000D02*
X239106000Y-145802000D01*
D26*
%TO.N,/Contactors/Contactor_feedback1*%
X244326000Y-116325000D02*
X244326000Y-117924000D01*
D25*
X240012500Y-138822500D02*
X240000000Y-138835000D01*
D26*
X240750000Y-121500000D02*
X240750000Y-126000000D01*
X244326000Y-117924000D02*
X240750000Y-121500000D01*
X239960000Y-126790000D02*
X239960000Y-129540000D01*
D25*
X239960000Y-129540000D02*
X240012500Y-129592500D01*
X240012500Y-129592500D02*
X240012500Y-138822500D01*
D26*
X240750000Y-126000000D02*
X239960000Y-126790000D01*
D25*
X240000000Y-138835000D02*
X240000000Y-145092000D01*
%TO.N,/Contactors/Contactor_feedback2*%
X251076000Y-118924000D02*
X251076000Y-116325000D01*
X240900000Y-144296000D02*
X240900000Y-130796000D01*
X240900000Y-130796000D02*
X243000000Y-128696000D01*
X243000000Y-128696000D02*
X243000000Y-127000000D01*
X243000000Y-127000000D02*
X251076000Y-118924000D01*
%TO.N,/MCU0_Memory/EEPROM.CS*%
X201422000Y-139573000D02*
X200152000Y-138303000D01*
X201422000Y-147193000D02*
X201422000Y-139573000D01*
%TO.N,/MCU0_Memory/EEPROM.MISO*%
X216916000Y-134620000D02*
X216916000Y-139954000D01*
%TO.N,/MCU0_Memory/EEPROM.MOSI*%
X215427000Y-139688830D02*
X215463000Y-139724830D01*
X215427000Y-131410000D02*
X215427000Y-139688830D01*
X215519000Y-131318000D02*
X215427000Y-131410000D01*
%TO.N,/MCU0_Memory/EEPROM.SCK*%
X216189500Y-133766500D02*
X216189500Y-139025985D01*
X216154000Y-133731000D02*
X216189500Y-133766500D01*
%TO.N,Net-(J1-+)*%
X205578000Y-127078000D02*
X205578000Y-145530000D01*
X205578000Y-145530000D02*
X205112000Y-145996000D01*
X197000000Y-118500000D02*
X205578000Y-127078000D01*
X191000000Y-118500000D02*
X197000000Y-118500000D01*
%TO.N,/MCU0_primary/MCU0_SWDIO*%
X198662000Y-123022000D02*
X198627136Y-123056864D01*
X231810000Y-149334573D02*
X231810500Y-149335073D01*
X198627136Y-123056864D02*
X198627136Y-130810000D01*
X231810000Y-122646000D02*
X231810000Y-149334573D01*
%TO.N,/MCU0_primary/MCU0_SWCLK*%
X223962000Y-128783000D02*
X223962000Y-132925813D01*
X224663000Y-133626813D02*
X224663000Y-137032500D01*
X197900636Y-127079999D02*
X197891637Y-127071000D01*
X197795000Y-132080000D02*
X197900636Y-131974364D01*
X222250000Y-127071000D02*
X223962000Y-128783000D01*
X197900636Y-131974364D02*
X197900636Y-127079999D01*
X223962000Y-132925813D02*
X224663000Y-133626813D01*
%TO.N,/MCU0_primary/MCU0_SWO*%
X212362000Y-127797500D02*
X212412000Y-127847500D01*
X197068500Y-127902636D02*
X197173636Y-127797500D01*
X212412000Y-127847500D02*
X212412000Y-139746000D01*
X197068500Y-133917626D02*
X197068500Y-127902636D01*
%TO.N,/MCU0_primary/MCU0_TDI*%
X223212000Y-132817866D02*
X223647000Y-133252866D01*
X196342000Y-136017000D02*
X196342000Y-128524000D01*
X222250000Y-128524000D02*
X223212000Y-129486000D01*
X223647000Y-133252866D02*
X223647000Y-137160000D01*
X223212000Y-129486000D02*
X223212000Y-132817866D01*
%TO.N,/MCU0_primary/MCU0_BOOT*%
X225956479Y-138916521D02*
X228058799Y-138916521D01*
X241201134Y-145023000D02*
X241626500Y-144597634D01*
X241177000Y-145023000D02*
X241201134Y-145023000D01*
X256312000Y-205946000D02*
X240250000Y-189884000D01*
X222862000Y-142011000D02*
X225956479Y-138916521D01*
X214307834Y-142011000D02*
X222862000Y-142011000D01*
X256312000Y-215250000D02*
X256312000Y-205946000D01*
X210564320Y-145450500D02*
X210564320Y-145434114D01*
X240250000Y-189884000D02*
X240250000Y-145950000D01*
X228058799Y-138916521D02*
X228602945Y-138372375D01*
X210564320Y-145434114D02*
X213987434Y-142011000D01*
X240250000Y-145950000D02*
X241177000Y-145023000D01*
X213987434Y-142011000D02*
X214307834Y-142011000D01*
X241626500Y-144597634D02*
X241626500Y-138096000D01*
D27*
%TO.N,/MCU1_secondary/MCU1_SWDIO*%
X163195000Y-145263000D02*
X163391500Y-145459500D01*
D25*
X163195000Y-133096000D02*
X163195000Y-145263000D01*
%TO.N,/MCU1_secondary/MCU1_SWCLK*%
X160655000Y-141859000D02*
X160528000Y-141986000D01*
X160655000Y-134366000D02*
X160655000Y-141859000D01*
%TO.N,/MCU1_secondary/MCU1_SWO*%
X152852755Y-135290500D02*
X153162000Y-135599745D01*
X153162000Y-135599745D02*
X153162000Y-140462000D01*
%TO.N,/MCU1_secondary/MCU1_TDI*%
X159258000Y-140208000D02*
X159131000Y-140335000D01*
X159258000Y-136906000D02*
X159258000Y-140208000D01*
%TO.N,/MCU1_secondary/MCU1_BOOT*%
X150622000Y-128397000D02*
X150622000Y-140462000D01*
D28*
%TO.N,Net-(T1-PRI_3)*%
X162400000Y-227000000D02*
X156389649Y-227000000D01*
%TO.N,Net-(T1-PRI_1)*%
X154889650Y-225500000D02*
X153389650Y-227000000D01*
X162400000Y-225500000D02*
X154889650Y-225500000D01*
%TO.N,Net-(T2-PRI_4)*%
X172324648Y-221100000D02*
X175239649Y-224015001D01*
X157400000Y-221100000D02*
X172324648Y-221100000D01*
%TO.N,Net-(T2-PRI_6)*%
X166650000Y-221950000D02*
X162900000Y-221950000D01*
X162900000Y-221950000D02*
X162850000Y-222000000D01*
X170500000Y-222350000D02*
X170100000Y-221950000D01*
X170100000Y-221950000D02*
X166650000Y-221950000D01*
X172165001Y-224015001D02*
X170500000Y-222350000D01*
X172239650Y-224015001D02*
X172165001Y-224015001D01*
D25*
%TO.N,/isoSPI_interface/POL_0*%
X137000000Y-198250000D02*
X138250000Y-199500000D01*
X134500000Y-197750000D02*
X135000000Y-198250000D01*
X135000000Y-198250000D02*
X137000000Y-198250000D01*
X150000000Y-186904000D02*
X191430299Y-186904000D01*
X139838000Y-186904000D02*
X134500000Y-192242000D01*
X134500000Y-192242000D02*
X134500000Y-197750000D01*
X138250000Y-199500000D02*
X138250000Y-202450000D01*
X150000000Y-186904000D02*
X139838000Y-186904000D01*
%TO.N,/isoSPI_interface/PHA_0*%
X134500000Y-201500000D02*
X134500000Y-203750000D01*
X133750000Y-191842000D02*
X133750000Y-200750000D01*
X134500000Y-203750000D02*
X135000000Y-204250000D01*
X148338000Y-185904000D02*
X139688000Y-185904000D01*
X138250000Y-205250000D02*
X138250000Y-208400000D01*
X148338000Y-185904000D02*
X191430299Y-185904000D01*
X137250000Y-204250000D02*
X138250000Y-205250000D01*
X133750000Y-200750000D02*
X134500000Y-201500000D01*
X139688000Y-185904000D02*
X133750000Y-191842000D01*
X135000000Y-204250000D02*
X137250000Y-204250000D01*
%TO.N,/isoSPI_interface/SLOW*%
X138250000Y-195500000D02*
X138250000Y-196500000D01*
X181250000Y-189226500D02*
X180726500Y-189750000D01*
X180726500Y-189750000D02*
X139192000Y-189750000D01*
X139038000Y-189904000D02*
X139000000Y-189942000D01*
X139192000Y-189750000D02*
X139038000Y-189904000D01*
X139000000Y-189942000D02*
X139000000Y-194750000D01*
X139000000Y-194750000D02*
X138250000Y-195500000D01*
D27*
%TO.N,/Contactors/feedback0*%
X226125000Y-109125000D02*
X226712000Y-109712000D01*
X226712000Y-109712000D02*
X226712000Y-127296000D01*
%TO.N,/Contactors/feedback1*%
X208500000Y-112750000D02*
X208500000Y-108750000D01*
X221500000Y-118250000D02*
X214000000Y-118250000D01*
X224750000Y-126750000D02*
X223750000Y-125750000D01*
X223750000Y-125750000D02*
X223750000Y-118250000D01*
X214000000Y-118250000D02*
X208500000Y-112750000D01*
%TO.N,/Contactors/feedback2*%
X222500000Y-109750000D02*
X221500000Y-108750000D01*
X225000000Y-128250000D02*
X222500000Y-125750000D01*
X225000000Y-131500000D02*
X225000000Y-128250000D01*
X222500000Y-125750000D02*
X222500000Y-109750000D01*
%TO.N,unconnected-(J20-PAD-Pad0)*%
X280312000Y-206513000D02*
X280312000Y-189581000D01*
X280312000Y-189581000D02*
X276283000Y-185552000D01*
X276283000Y-210542000D02*
X280312000Y-206513000D01*
%TO.N,/CAN0_interface/CAN0_L*%
X270614000Y-203303000D02*
X270614000Y-195556000D01*
%TO.N,/CAN0_interface/CAN0_H*%
X269598000Y-201652000D02*
X269598000Y-196699000D01*
D28*
%TO.N,Net-(U17-CANL)*%
X262486000Y-197207000D02*
X262359000Y-197334000D01*
X262486000Y-192127000D02*
X262486000Y-197207000D01*
%TO.N,Net-(U17-CANH)*%
X259819000Y-190984000D02*
X259819000Y-197334000D01*
D25*
%TO.N,/USB_interface/D1+*%
X111262000Y-221612866D02*
X110248134Y-220599000D01*
X110248134Y-220599000D02*
X110236000Y-220599000D01*
D27*
X99568000Y-220599000D02*
X110236000Y-220599000D01*
D25*
X109093000Y-223647000D02*
X110361000Y-223647000D01*
X110361000Y-223647000D02*
X111262000Y-222746000D01*
X111262000Y-222746000D02*
X111262000Y-221612866D01*
D27*
%TO.N,/USB_interface/D1-*%
X101219000Y-222631000D02*
X110109000Y-222631000D01*
D25*
%TO.N,/USB_interface/D0+*%
X242679000Y-224056000D02*
X245187500Y-224056000D01*
X245187500Y-224056000D02*
X245314500Y-223929000D01*
D27*
X231979500Y-221008000D02*
X243663500Y-221008000D01*
%TO.N,/USB_interface/D0-*%
X233630500Y-222913000D02*
X243552997Y-222913000D01*
X243552997Y-222913000D02*
X243663500Y-223023503D01*
D25*
%TO.N,/MCU0_primary/FTDI_MCU0.DTR*%
X253746000Y-221000000D02*
X253746000Y-207899000D01*
%TO.N,/MCU1_secondary/FTDI_MCU1.DTR*%
X168910000Y-134747000D02*
X169545000Y-134112000D01*
X168910000Y-167750000D02*
X168910000Y-134747000D01*
X115570000Y-204470000D02*
X115570000Y-185674000D01*
%TO.N,/MCU1_secondary/FTDI_MCU1.RTS*%
X114300000Y-204597000D02*
X114300000Y-185450000D01*
%TO.N,/isoSPI_interface/OUT0_N*%
X168017000Y-198926799D02*
X167682000Y-199261799D01*
%TO.N,/isoSPI_interface/OUT0_P*%
X171265000Y-200415799D02*
X171173000Y-200323799D01*
%TO.N,Net-(R39-Pad2)*%
X175087500Y-184962500D02*
X175087500Y-181412500D01*
%TO.N,Net-(R40-Pad2)*%
X145500000Y-184950000D02*
X145500000Y-181400000D01*
%TO.N,/MCU0_primary/isoSPI0.DIR*%
X213677298Y-146346000D02*
X207523298Y-152500000D01*
X205750000Y-152500000D02*
X199500000Y-152500000D01*
X207523298Y-152500000D02*
X205750000Y-152500000D01*
%TO.N,/MCU1_secondary/isoSPI1.DIR*%
X145000000Y-166750000D02*
X145000000Y-171250000D01*
X152435500Y-139630364D02*
X151750000Y-140315864D01*
X141250000Y-175000000D02*
X141250000Y-178250000D01*
X152146000Y-136017000D02*
X152146000Y-139340864D01*
X145750000Y-153500000D02*
X145750000Y-166000000D01*
X152146000Y-139340864D02*
X152435500Y-139630364D01*
X169453000Y-136581500D02*
X169636500Y-136398000D01*
X151750000Y-140315864D02*
X151750000Y-147500000D01*
X145750000Y-166000000D02*
X145000000Y-166750000D01*
X145000000Y-171250000D02*
X141250000Y-175000000D01*
X151750000Y-147500000D02*
X145750000Y-153500000D01*
%TO.N,/Contactors/Contactor_ctrl0*%
X235662000Y-116162000D02*
X235662000Y-143146000D01*
X233000000Y-113500000D02*
X235662000Y-116162000D01*
%TO.N,/Contactors/Contactor_ctrl1*%
X231375000Y-118375000D02*
X234112000Y-121112000D01*
X234112000Y-121112000D02*
X234112000Y-142996000D01*
%TO.N,/Contactors/Contactor_ctrl2*%
X234838500Y-120588500D02*
X234838500Y-142096000D01*
X231250000Y-117000000D02*
X234838500Y-120588500D01*
%TO.N,/CAN0_interface/CAN0.TRANS_STBY_CTRL*%
X228655000Y-141369500D02*
X225538500Y-141369500D01*
X225538500Y-141369500D02*
X223262000Y-143646000D01*
%TO.N,/CAN0_interface/CAN1.TRANS_STBY_CTRL*%
X223158896Y-142465000D02*
X214495887Y-142465000D01*
X214495887Y-142465000D02*
X211562000Y-145398887D01*
X225812000Y-139796000D02*
X225062000Y-140546000D01*
X228655000Y-139796000D02*
X225812000Y-139796000D01*
X225062000Y-140561896D02*
X223158896Y-142465000D01*
X225062000Y-140546000D02*
X225062000Y-140561896D01*
X211562000Y-145398887D02*
X211562000Y-146346000D01*
%TO.N,/CAN0_interface/CAN0.TX*%
X230666252Y-163846275D02*
X229935000Y-164577527D01*
X229935000Y-164577527D02*
X229935000Y-187869000D01*
X229935000Y-187869000D02*
X230712000Y-188646000D01*
%TO.N,/CAN0_interface/CAN1.TX*%
X228583369Y-136296497D02*
X228612000Y-136296497D01*
X245000000Y-143250000D02*
X245000000Y-150000000D01*
X220212000Y-140246000D02*
X223342896Y-140246000D01*
X226692896Y-136896000D02*
X227983866Y-136896000D01*
X223342896Y-140246000D02*
X226692896Y-136896000D01*
X209662000Y-140946000D02*
X217929866Y-140946000D01*
X227983866Y-136896000D02*
X228583369Y-136296497D01*
X218856866Y-140019000D02*
X219985000Y-140019000D01*
X219985000Y-140019000D02*
X220212000Y-140246000D01*
X245000000Y-150000000D02*
X247000000Y-152000000D01*
X217929866Y-140946000D02*
X218856866Y-140019000D01*
%TO.N,/CAN0_interface/CAN0.RX*%
X242353000Y-144547000D02*
X241250000Y-145650000D01*
X242353000Y-140546000D02*
X242353000Y-144547000D01*
X249962000Y-192858000D02*
X248063000Y-194757000D01*
X214797110Y-142919000D02*
X212574889Y-145141221D01*
X227912000Y-140546000D02*
X225719948Y-140546000D01*
X225719948Y-140546000D02*
X223346948Y-142919000D01*
X212574889Y-145141221D02*
X212574889Y-145414132D01*
X241250000Y-179584000D02*
X249962000Y-188296000D01*
X241250000Y-145650000D02*
X241250000Y-179584000D01*
X249962000Y-188296000D02*
X249962000Y-192858000D01*
X223346948Y-142919000D02*
X214797110Y-142919000D01*
%TO.N,/CAN0_interface/CAN1.RX*%
X225768427Y-138462521D02*
X227445479Y-138462521D01*
X227445479Y-138462521D02*
X228612000Y-137296000D01*
X210760382Y-144596000D02*
X213236191Y-142120191D01*
X213236191Y-142120191D02*
X213799381Y-141557000D01*
X209884500Y-144596000D02*
X210760382Y-144596000D01*
X215612000Y-141557000D02*
X222673948Y-141557000D01*
X246500000Y-155500000D02*
X247000000Y-155500000D01*
X222673948Y-141557000D02*
X225768427Y-138462521D01*
X244000000Y-139250000D02*
X244000000Y-153000000D01*
X213799381Y-141557000D02*
X215612000Y-141557000D01*
X244000000Y-153000000D02*
X246500000Y-155500000D01*
%TO.N,/MCU0_Memory/MCU0_RAM.A0*%
X219583000Y-164084000D02*
X219583000Y-153823238D01*
X220512000Y-180260052D02*
X219964000Y-179712052D01*
X220512000Y-183246000D02*
X220512000Y-180260052D01*
X219583000Y-153823238D02*
X219853601Y-153552637D01*
X219853601Y-153552637D02*
X219853601Y-151752620D01*
X219964000Y-179712052D02*
X219964000Y-164465000D01*
X219964000Y-164465000D02*
X219583000Y-164084000D01*
%TO.N,/MCU0_Memory/MCU0_RAM.A1*%
X218948000Y-165234003D02*
X218204500Y-165977503D01*
X218204500Y-165977503D02*
X218204500Y-173666634D01*
X218948000Y-153996266D02*
X218948000Y-165234003D01*
X218857960Y-153906226D02*
X218948000Y-153996266D01*
X218857960Y-152548232D02*
X218857960Y-153906226D01*
X218912000Y-180431000D02*
X218948000Y-180467000D01*
X218912000Y-174374134D02*
X218912000Y-180431000D01*
X218204500Y-173666634D02*
X218912000Y-174374134D01*
%TO.N,/MCU0_Memory/MCU0_RAM.A2*%
X218494000Y-154461174D02*
X218494000Y-165045951D01*
X218077480Y-153172616D02*
X218077480Y-154044654D01*
X217750500Y-173854686D02*
X218150500Y-174254686D01*
X218494000Y-165045951D02*
X217750500Y-165789451D01*
X218077480Y-154044654D02*
X218494000Y-154461174D01*
X217750500Y-165789451D02*
X217750500Y-173854686D01*
X218150500Y-174254686D02*
X218150500Y-179572161D01*
%TO.N,/MCU0_Memory/MCU0_RAM.A3*%
X217296500Y-165601399D02*
X217296500Y-180212500D01*
X217296500Y-180212500D02*
X217424000Y-180340000D01*
X217623480Y-154123480D02*
X217623480Y-154232706D01*
X217297000Y-153797000D02*
X217623480Y-154123480D01*
X218040000Y-154649226D02*
X218040000Y-164857899D01*
X218040000Y-164857899D02*
X217296500Y-165601399D01*
X217623480Y-154232706D02*
X218040000Y-154649226D01*
%TO.N,/MCU0_Memory/MCU0_RAM.A4*%
X207186393Y-189589203D02*
X206121000Y-188523810D01*
X206121000Y-188523810D02*
X206121000Y-154424500D01*
X206121000Y-154424500D02*
X206629000Y-153916500D01*
%TO.N,/MCU0_Memory/MCU0_RAM.A5*%
X206587774Y-165693774D02*
X206575000Y-165681000D01*
X207244807Y-188591409D02*
X206575000Y-187921602D01*
X206587774Y-166622259D02*
X206587774Y-165693774D01*
X206575000Y-166635033D02*
X206587774Y-166622259D01*
X206575000Y-155121000D02*
X207772000Y-153924000D01*
X206575000Y-165681000D02*
X206575000Y-155121000D01*
X206575000Y-187921602D02*
X206575000Y-166635033D01*
%TO.N,/MCU0_Memory/MCU0_RAM.SDNWE*%
X225418094Y-165507385D02*
X225966823Y-166056114D01*
X225418094Y-160191094D02*
X225418094Y-165507385D01*
X225421323Y-179469838D02*
X225421323Y-179687024D01*
X225966823Y-178924338D02*
X225421323Y-179469838D01*
X225966823Y-166056114D02*
X225966823Y-178924338D01*
X224917000Y-159690000D02*
X225418094Y-160191094D01*
%TO.N,/MCU0_primary/isoSPI0.CS*%
X208351146Y-187214552D02*
X210298500Y-185267198D01*
X209753000Y-180809106D02*
X209753000Y-172418500D01*
X194000000Y-180250000D02*
X204250000Y-190500000D01*
X173000000Y-180250000D02*
X194000000Y-180250000D01*
X172000000Y-183500000D02*
X172000000Y-181250000D01*
X204250000Y-190500000D02*
X207303730Y-190500000D01*
X172000000Y-181250000D02*
X173000000Y-180250000D01*
X208351146Y-189452584D02*
X208351146Y-187214552D01*
X210298500Y-185267198D02*
X210298500Y-181354605D01*
X209753000Y-172418500D02*
X210025500Y-172146000D01*
X207303730Y-190500000D02*
X208351146Y-189452584D01*
X210298500Y-181354605D02*
X209753000Y-180809106D01*
%TO.N,/MCU0_primary/isoSPI0.SCK*%
X210201500Y-170896000D02*
X210752500Y-171447000D01*
X178584299Y-188250000D02*
X190776299Y-188250000D01*
X203250000Y-191250000D02*
X200904000Y-188904000D01*
X210752500Y-171447000D02*
X210752500Y-172447134D01*
X200904000Y-188904000D02*
X191430299Y-188904000D01*
X207750000Y-191250000D02*
X203250000Y-191250000D01*
X210207000Y-172992634D02*
X210207000Y-180621053D01*
X177930299Y-188904000D02*
X178584299Y-188250000D01*
X210207000Y-180621053D02*
X210752500Y-181166552D01*
X190776299Y-188250000D02*
X191430299Y-188904000D01*
X210752500Y-188247500D02*
X207750000Y-191250000D01*
X210752500Y-181166552D02*
X210752500Y-188247500D01*
X210752500Y-172447134D02*
X210207000Y-172992634D01*
%TO.N,/MCU0_primary/isoSPI0.MISO*%
X210111211Y-169745252D02*
X211206500Y-170840541D01*
X210661000Y-173180686D02*
X210661000Y-180433000D01*
X177930299Y-190904000D02*
X191430299Y-190904000D01*
X202250000Y-192000000D02*
X201154000Y-190904000D01*
X211206500Y-180978499D02*
X211206500Y-189293500D01*
X210661000Y-180433000D02*
X211206500Y-180978499D01*
X211206500Y-189293500D02*
X208500000Y-192000000D01*
X211206500Y-172635186D02*
X210661000Y-173180686D01*
X208500000Y-192000000D02*
X202250000Y-192000000D01*
X211206500Y-170840541D02*
X211206500Y-172635186D01*
X201154000Y-190904000D02*
X191430299Y-190904000D01*
%TO.N,/MCU0_primary/isoSPI0.MOSI*%
X211660500Y-180790446D02*
X211660500Y-190089500D01*
X211660500Y-172823238D02*
X211115000Y-173368738D01*
X201750000Y-192750000D02*
X201000000Y-192000000D01*
X191430299Y-191904000D02*
X177930299Y-191904000D01*
X191526299Y-192000000D02*
X191430299Y-191904000D01*
X209000000Y-192750000D02*
X201750000Y-192750000D01*
X201000000Y-192000000D02*
X191526299Y-192000000D01*
X211660500Y-190089500D02*
X209000000Y-192750000D01*
X211660500Y-169744500D02*
X211660500Y-172823238D01*
X211115000Y-173368738D02*
X211115000Y-180244947D01*
X211115000Y-180244947D02*
X211660500Y-180790446D01*
X210962000Y-169046000D02*
X211660500Y-169744500D01*
%TO.N,/MCU0_Memory/MCU0_RAM.SDNRAS*%
X212114500Y-173011290D02*
X211841500Y-173284290D01*
X210865478Y-166278637D02*
X212114500Y-167527659D01*
X211841500Y-173284290D02*
X211841500Y-174146000D01*
X212114500Y-167527659D02*
X212114500Y-173011290D01*
%TO.N,/MCU0_Memory/MCU0_RAM.A6*%
X212387000Y-189096000D02*
X212387000Y-180329892D01*
X212387000Y-180329892D02*
X212568500Y-180148392D01*
X212568500Y-166899349D02*
X210952041Y-165282890D01*
X212568500Y-180148392D02*
X212568500Y-166899349D01*
%TO.N,/MCU0_Memory/MCU0_RAM.A7*%
X213250000Y-188250000D02*
X213022500Y-188022500D01*
X213022500Y-188022500D02*
X213022500Y-166711297D01*
X212662000Y-166350797D02*
X212662000Y-164302500D01*
X213022500Y-166711297D02*
X212662000Y-166350797D01*
%TO.N,/MCU0_Memory/MCU0_RAM.A8*%
X214286500Y-164546484D02*
X214286500Y-186512586D01*
X214131298Y-187572659D02*
X214431232Y-187872593D01*
X214286500Y-186512586D02*
X214131298Y-186667788D01*
X214530484Y-164302500D02*
X214286500Y-164546484D01*
X214131298Y-186667788D02*
X214131298Y-187572659D01*
%TO.N,/MCU0_Memory/MCU0_RAM.A9*%
X214740500Y-165154225D02*
X215532121Y-164362604D01*
X214858298Y-186968922D02*
X214740500Y-186851124D01*
X214740500Y-186851124D02*
X214740500Y-165154225D01*
%TO.N,/MCU0_Memory/MCU0_RAM.A10*%
X216712000Y-170237000D02*
X215921000Y-169446000D01*
X216375000Y-175046000D02*
X216712000Y-174709000D01*
X216712000Y-174709000D02*
X216712000Y-170237000D01*
%TO.N,/MCU0_Memory/MCU0_RAM.A11*%
X215194500Y-165750270D02*
X216570857Y-164373913D01*
X215526900Y-186225970D02*
X215194500Y-185893570D01*
X215194500Y-185893570D02*
X215194500Y-165750270D01*
%TO.N,/MCU0_Memory/MCU0_RAM.D4*%
X222795500Y-172874780D02*
X222912523Y-172874780D01*
X224522003Y-174484260D02*
X224522003Y-176797997D01*
X224522003Y-176797997D02*
X223774000Y-177546000D01*
X222912523Y-172874780D02*
X224522003Y-174484260D01*
%TO.N,/MCU0_Memory/MCU0_RAM.D5*%
X223795503Y-176326786D02*
X223795503Y-174845655D01*
X222824131Y-173874283D02*
X222795500Y-173874283D01*
X223795503Y-174845655D02*
X222824131Y-173874283D01*
%TO.N,/MCU0_Memory/MCU0_RAM.D6*%
X222795500Y-174873786D02*
X222795500Y-176326786D01*
%TO.N,/MCU0_Memory/MCU0_RAM.D7*%
X227782823Y-183573500D02*
X227782823Y-176446000D01*
X227782823Y-176318500D02*
X228055323Y-176046000D01*
X228055323Y-183846000D02*
X227782823Y-183573500D01*
X227782823Y-176446000D02*
X227782823Y-176318500D01*
%TO.N,/MCU0_Memory/MCU0_RAM.D8*%
X208845000Y-181185210D02*
X209390500Y-181730710D01*
X208857774Y-167562524D02*
X208845000Y-167575298D01*
X209390500Y-184533643D02*
X207602634Y-186321509D01*
X208857774Y-165043090D02*
X208857774Y-167562524D01*
X208845000Y-167575298D02*
X208845000Y-181185210D01*
X209390500Y-181730710D02*
X209390500Y-184533643D01*
X207574003Y-186321509D02*
X207301500Y-186594012D01*
X209850855Y-164050009D02*
X208857774Y-165043090D01*
X207602634Y-186321509D02*
X207574003Y-186321509D01*
%TO.N,/MCU0_Memory/MCU0_RAM.D9*%
X208676274Y-164197162D02*
X208403774Y-164469662D01*
X208391000Y-181373262D02*
X208936500Y-181918762D01*
X208391000Y-167387245D02*
X208391000Y-181373262D01*
X208936500Y-181918762D02*
X208936500Y-183988140D01*
X207574003Y-185322006D02*
X207301500Y-185594509D01*
X207602634Y-185322006D02*
X207574003Y-185322006D01*
X208936500Y-183988140D02*
X207602634Y-185322006D01*
X208403774Y-164469662D02*
X208403774Y-167374471D01*
X208403774Y-167374471D02*
X208391000Y-167387245D01*
%TO.N,/MCU0_Memory/MCU0_RAM.D10*%
X208482500Y-183442637D02*
X207602634Y-184322503D01*
X207602634Y-184322503D02*
X207574003Y-184322503D01*
X207937000Y-181561314D02*
X208482500Y-182106814D01*
X207949774Y-167186418D02*
X207937000Y-167199190D01*
X207574003Y-184322503D02*
X207301500Y-184595006D01*
X207949774Y-163457393D02*
X207949774Y-167186418D01*
X208482500Y-182106814D02*
X208482500Y-183442637D01*
X208209500Y-163197667D02*
X207949774Y-163457393D01*
X207937000Y-167199190D02*
X207937000Y-181561314D01*
%TO.N,/MCU0_Memory/MCU0_RAM.D11*%
X208028500Y-182294866D02*
X208028500Y-182897134D01*
X207483000Y-167011138D02*
X207483000Y-181749366D01*
X207330131Y-183595503D02*
X207301500Y-183595503D01*
X208028500Y-182897134D02*
X207330131Y-183595503D01*
X207495774Y-165317668D02*
X207495774Y-166998365D01*
X207755500Y-162213209D02*
X207483000Y-162485709D01*
X207483000Y-165304894D02*
X207495774Y-165317668D01*
X207495774Y-166998365D02*
X207483000Y-167011138D01*
X207483000Y-181749366D02*
X208028500Y-182294866D01*
X207483000Y-162485709D02*
X207483000Y-165304894D01*
%TO.N,/MCU0_Memory/MCU0_RAM.D12*%
X207041774Y-166810312D02*
X207029000Y-166823086D01*
X207301500Y-161268500D02*
X207029000Y-161541000D01*
X207041774Y-165505721D02*
X207041774Y-166810312D01*
X207029000Y-161541000D02*
X207029000Y-165492947D01*
X207029000Y-165492947D02*
X207041774Y-165505721D01*
X207029000Y-166823086D02*
X207029000Y-182323500D01*
X207029000Y-182323500D02*
X207301500Y-182596000D01*
%TO.N,/MCU0_primary/FTDI_MCU0.TX*%
X223739000Y-179465823D02*
X223739000Y-190769000D01*
X225058823Y-168592823D02*
X225058823Y-178146000D01*
X223739000Y-190769000D02*
X222752018Y-191755982D01*
X223209500Y-163948500D02*
X223209500Y-166743500D01*
X223209500Y-166743500D02*
X225058823Y-168592823D01*
X225058823Y-178146000D02*
X223739000Y-179465823D01*
X223212000Y-163946000D02*
X223209500Y-163948500D01*
X222752018Y-191755982D02*
X222752018Y-196522513D01*
%TO.N,/MCU0_primary/FTDI_MCU0.RX*%
X224662000Y-190489867D02*
X223478518Y-191673349D01*
X225512823Y-178567390D02*
X224662000Y-179418213D01*
X223936500Y-164746000D02*
X225512823Y-166322323D01*
X224662000Y-179418213D02*
X224662000Y-190489867D01*
X223478518Y-191673349D02*
X223478518Y-197429482D01*
X225512823Y-166322323D02*
X225512823Y-178567390D01*
%TO.N,/MCU0_Memory/MCU0_RAM.SDNE1*%
X221412000Y-162427474D02*
X221615000Y-162630474D01*
X223012000Y-180038651D02*
X223012000Y-180467000D01*
X221615000Y-162630474D02*
X221615000Y-178641651D01*
X221615000Y-178641651D02*
X223012000Y-180038651D01*
%TO.N,/MCU0_Memory/MCU0_RAM.SDCKE1*%
X207602634Y-187321012D02*
X209844500Y-185079146D01*
X209312000Y-168150280D02*
X209312000Y-165746000D01*
X209299000Y-180997158D02*
X209299000Y-168163280D01*
X209844500Y-181542658D02*
X209299000Y-180997158D01*
X209312000Y-165746000D02*
X211455000Y-163603000D01*
X207574003Y-187321012D02*
X207602634Y-187321012D01*
X209299000Y-168163280D02*
X209312000Y-168150280D01*
X207301500Y-187593515D02*
X207574003Y-187321012D01*
X209844500Y-185079146D02*
X209844500Y-181542658D01*
X211455000Y-163603000D02*
X211455000Y-160416500D01*
%TO.N,/MCU0_primary/MCU_to_MCU_INTERFACE_MCU0.CS*%
X179112000Y-154646000D02*
X179112000Y-125569500D01*
X179112000Y-125569500D02*
X179012000Y-125469500D01*
X229835500Y-124989584D02*
X229835500Y-161669138D01*
X229937500Y-124887584D02*
X229835500Y-124989584D01*
X229835500Y-161669138D02*
X227656663Y-163847975D01*
%TO.N,/MCU0_primary/MCU_to_MCU_INTERFACE_MCU0.MISO*%
X229210500Y-123266000D02*
X229210500Y-125188718D01*
X178362000Y-125819003D02*
X178012497Y-125469500D01*
X229210500Y-125188718D02*
X229381500Y-125359718D01*
X178362000Y-155846000D02*
X178362000Y-125819003D01*
X229381500Y-160985321D02*
X227507094Y-162859727D01*
X229250000Y-123226500D02*
X229210500Y-123266000D01*
X229381500Y-125359718D02*
X229381500Y-160985321D01*
D30*
%TO.N,/MCU0_primary/MCU_to_MCU_INTERFACE_MCU0.MOSI*%
X231085500Y-162852390D02*
X231356500Y-163123390D01*
X231312000Y-153996000D02*
X231312000Y-159371805D01*
X230662000Y-152246000D02*
X231287500Y-152871500D01*
X231312000Y-159371805D02*
X231085500Y-159598305D01*
X230662000Y-121912000D02*
X230662000Y-152246000D01*
X181012000Y-152046000D02*
X181012000Y-123354500D01*
X231085500Y-159598305D02*
X231085500Y-162852390D01*
X231287500Y-153971500D02*
X231312000Y-153996000D01*
X230500000Y-121750000D02*
X230662000Y-121912000D01*
X231287500Y-152871500D02*
X231287500Y-153971500D01*
D25*
%TO.N,/MCU0_Memory/MCU0_RAM.D13*%
X232083000Y-179765866D02*
X232083000Y-162451500D01*
X231810000Y-180038866D02*
X232083000Y-179765866D01*
X232083000Y-162451500D02*
X231810500Y-162179000D01*
X234061000Y-191770000D02*
X231810000Y-189519000D01*
X231810000Y-189519000D02*
X231810000Y-180038866D01*
%TO.N,/MCU0_Memory/MCU0_RAM.D14*%
X234915000Y-162271500D02*
X234187500Y-161544000D01*
X233915000Y-166020134D02*
X234915000Y-165020134D01*
X234928962Y-179152401D02*
X233915000Y-178138439D01*
X234915000Y-165020134D02*
X234915000Y-162271500D01*
X233915000Y-178138439D02*
X233915000Y-166020134D01*
X234928962Y-190796000D02*
X234928962Y-179152401D01*
%TO.N,/MCU0_Memory/MCU0_RAM.D15*%
X236527242Y-180108629D02*
X234369000Y-177950387D01*
X236527242Y-190796000D02*
X236527242Y-180108629D01*
X234369000Y-166370000D02*
X235369000Y-165370000D01*
X235369000Y-165370000D02*
X235369000Y-161311991D01*
X235369000Y-161311991D02*
X234894717Y-160837708D01*
X234369000Y-177950387D02*
X234369000Y-166370000D01*
%TO.N,/MCU0_Memory/MCU0_RAM.D0*%
X235823000Y-158507000D02*
X234862000Y-157546000D01*
X235823000Y-165558052D02*
X235823000Y-158507000D01*
X234912000Y-177796000D02*
X234912000Y-166469052D01*
X237253742Y-180137742D02*
X234912000Y-177796000D01*
X237253742Y-183146000D02*
X237253742Y-180137742D01*
X234912000Y-166469052D02*
X235823000Y-165558052D01*
%TO.N,/MCU0_Memory/MCU0_RAM.D1*%
X233461000Y-178712573D02*
X234201962Y-179453535D01*
X233717500Y-156819500D02*
X233461000Y-157076000D01*
X233461000Y-157076000D02*
X233461000Y-178712573D01*
%TO.N,/MCU0_Memory/MCU0_RAM.BA0*%
X220562000Y-157011000D02*
X221144500Y-156428500D01*
X220872000Y-178926079D02*
X220872000Y-164088895D01*
X222162000Y-182896000D02*
X222162000Y-180216079D01*
X220562000Y-163778896D02*
X220562000Y-157011000D01*
X222162000Y-180216079D02*
X220872000Y-178926079D01*
X220872000Y-164088895D02*
X220562000Y-163778896D01*
%TO.N,/MCU0_Memory/MCU0_RAM.BA1*%
X220108000Y-163966949D02*
X220418000Y-164276948D01*
X220418000Y-164276948D02*
X220418000Y-179524000D01*
X220108000Y-155812000D02*
X220108000Y-163966949D01*
X220345000Y-155575000D02*
X220108000Y-155812000D01*
X220418000Y-179524000D02*
X221361000Y-180467000D01*
%TO.N,/MCU0_Memory/MCU0_RAM.SDCLK*%
X226151500Y-158730313D02*
X226151500Y-154178000D01*
X226874823Y-165680009D02*
X226475663Y-165280849D01*
X226326094Y-163348914D02*
X226326094Y-158904907D01*
X226326094Y-158904907D02*
X226151500Y-158730313D01*
X224537001Y-191643000D02*
X226874823Y-189305178D01*
X226475663Y-165280849D02*
X226475663Y-163498483D01*
X226874823Y-189305178D02*
X226874823Y-165680009D01*
X226475663Y-163498483D02*
X226326094Y-163348914D01*
%TO.N,/MCU0_Memory/MCU0_RAM.D2*%
X232991000Y-136972134D02*
X232991000Y-179270000D01*
X233264000Y-135390999D02*
X233264000Y-136699134D01*
X222849500Y-137833500D02*
X222849500Y-134896000D01*
X223062000Y-138046000D02*
X222849500Y-137833500D01*
X233264000Y-136699134D02*
X232991000Y-136972134D01*
X232800000Y-134926999D02*
X233264000Y-135390999D01*
X232991000Y-179270000D02*
X234188000Y-180467000D01*
%TO.N,/MCU0_Memory/MCU0_RAM.D3*%
X232537000Y-149085866D02*
X232537000Y-136398000D01*
X232537000Y-180340000D02*
X232537000Y-149085866D01*
D30*
%TO.N,/MCU0_primary/MCU_to_MCU_INTERFACE_MCU0.SCK*%
X221398000Y-139432500D02*
X221384500Y-139446000D01*
X180162000Y-125469500D02*
X180162000Y-153346000D01*
X221398000Y-126000000D02*
X221398000Y-139432500D01*
D25*
%TO.N,/MCU0_Memory/MCU0_RAM.SDNCAS*%
X223129281Y-178528719D02*
X222069000Y-177468438D01*
X222377000Y-145288000D02*
X222504000Y-145161000D01*
X222377000Y-167779134D02*
X222377000Y-145288000D01*
X222069000Y-168087134D02*
X222377000Y-167779134D01*
X222069000Y-177468438D02*
X222069000Y-168087134D01*
%TO.N,/MCU0_Memory/MCU0_RAM.NBL0*%
X225425000Y-158645866D02*
X225872094Y-159092960D01*
X226147823Y-179385390D02*
X226147823Y-180410326D01*
X225872094Y-159092960D02*
X225872094Y-163536967D01*
X225872094Y-163536967D02*
X226021663Y-163686536D01*
X226420823Y-165868061D02*
X226420823Y-179112390D01*
X226021663Y-165468902D02*
X226420823Y-165868061D01*
X226021663Y-163686536D02*
X226021663Y-165468902D01*
X225425000Y-147719500D02*
X225425000Y-158645866D01*
X226420823Y-179112390D02*
X226147823Y-179385390D01*
%TO.N,/MCU0_Memory/MCU0_RAM.NBL1*%
X226929663Y-165092797D02*
X227328823Y-165491957D01*
X226929663Y-163310430D02*
X226929663Y-165092797D01*
X226780094Y-163160861D02*
X226929663Y-163310430D01*
X226780094Y-154577540D02*
X226780094Y-163160861D01*
X227328823Y-189967076D02*
X225528765Y-191767134D01*
X226878500Y-154479134D02*
X226780094Y-154577540D01*
X226568000Y-153566366D02*
X226878500Y-153876866D01*
X227328823Y-165491957D02*
X227328823Y-189967076D01*
X226568000Y-148446000D02*
X226568000Y-153566366D01*
X226878500Y-153876866D02*
X226878500Y-154479134D01*
%TO.N,/MCU1_secondary/MCU_to_MCU_INTERFACE_MCU1.CS*%
X171704000Y-155702000D02*
X171704000Y-153924000D01*
%TO.N,/MCU1_secondary/MCU_to_MCU_INTERFACE_MCU1.SCK*%
X176784000Y-153289000D02*
X176784000Y-138176000D01*
X176784000Y-138176000D02*
X176657000Y-138049000D01*
%TO.N,/MCU1_secondary/isoSPI1.CS*%
X142250000Y-175750000D02*
X142250000Y-184000000D01*
X146250000Y-171750000D02*
X142250000Y-175750000D01*
%TO.N,/MCU1_secondary/isoSPI1.SCK*%
X167250000Y-183750000D02*
X166250000Y-184750000D01*
X164750000Y-188000000D02*
X163846000Y-188904000D01*
X167000000Y-181250000D02*
X167250000Y-181500000D01*
X166750000Y-159500000D02*
X166750000Y-170500000D01*
X166250000Y-184750000D02*
X165500000Y-184750000D01*
X166750000Y-170500000D02*
X166750000Y-181000000D01*
X167250000Y-181500000D02*
X167250000Y-183750000D01*
X166750000Y-181000000D02*
X167000000Y-181250000D01*
X166750000Y-159500000D02*
X160483000Y-153233000D01*
X160483000Y-153233000D02*
X158242000Y-153233000D01*
X163846000Y-188904000D02*
X148338000Y-188904000D01*
%TO.N,/MCU1_secondary/isoSPI1.MISO*%
X148492000Y-190750000D02*
X148338000Y-190904000D01*
X166273500Y-183624647D02*
X166750000Y-183148147D01*
X166750000Y-183148147D02*
X166750000Y-181750000D01*
X166750000Y-181750000D02*
X166250000Y-181250000D01*
X163704001Y-190750000D02*
X148492000Y-190750000D01*
X166250000Y-181250000D02*
X166250000Y-160141866D01*
X160067634Y-153959500D02*
X159059245Y-153959500D01*
X166250000Y-160141866D02*
X160067634Y-153959500D01*
X163750000Y-190704001D02*
X163704001Y-190750000D01*
%TO.N,/MCU1_secondary/isoSPI1.MOSI*%
X165750000Y-160670000D02*
X159766000Y-154686000D01*
X165750000Y-182126500D02*
X165750000Y-160670000D01*
X148338000Y-191904000D02*
X164500000Y-191904000D01*
%TO.N,/MCU1_secondary/FTDI_MCU1.TX*%
X158242000Y-174742000D02*
X158242000Y-155836220D01*
X158750000Y-175250000D02*
X158242000Y-174742000D01*
X118110000Y-204343000D02*
X118110000Y-186944000D01*
X158242000Y-155836220D02*
X157950683Y-155544903D01*
%TO.N,/MCU1_secondary/FTDI_MCU1.RX*%
X159500000Y-174250000D02*
X158696000Y-173446000D01*
X116840000Y-204343000D02*
X116840000Y-186436000D01*
X158696000Y-173446000D02*
X158696000Y-155792467D01*
X158696000Y-155792467D02*
X158950164Y-155538303D01*
D27*
%TO.N,/USB_interface/USB_MCU1.DTR*%
X115541500Y-208689500D02*
X107343500Y-208689500D01*
X115570000Y-208661000D02*
X115541500Y-208689500D01*
X107343500Y-208689500D02*
X107315000Y-208661000D01*
%TO.N,/USB_interface/USB_MCU1.RTS*%
X106299000Y-209550000D02*
X114173000Y-209550000D01*
X114173000Y-209550000D02*
X114300000Y-209677000D01*
%TO.N,/USB_interface/USB_MCU1.RX*%
X104521000Y-210439000D02*
X104549500Y-210467500D01*
X104549500Y-210467500D02*
X118081500Y-210467500D01*
X118081500Y-210467500D02*
X118110000Y-210439000D01*
%TO.N,/USB_interface/USB_MCU1.TX*%
X116840000Y-211455000D02*
X107315000Y-211455000D01*
%TO.N,/USB_interface/USB_MCU0.DTR*%
X247219500Y-210467000D02*
X239218500Y-210467000D01*
%TO.N,/USB_interface/USB_MCU0.RTS*%
X245949500Y-212372000D02*
X238710500Y-212372000D01*
X238710500Y-212372000D02*
X238456500Y-212118000D01*
%TO.N,/USB_interface/USB_MCU0.RX*%
X249604000Y-211327500D02*
X249632500Y-211356000D01*
X236834000Y-211327500D02*
X249604000Y-211327500D01*
X236805500Y-211356000D02*
X236834000Y-211327500D01*
%TO.N,/USB_interface/USB_MCU0.TX*%
X240361500Y-209677000D02*
X248334500Y-209677000D01*
X248334500Y-209677000D02*
X248362500Y-209705000D01*
D25*
%TO.N,Net-(U13-Pad10)*%
X177187500Y-182962500D02*
X176137500Y-184012500D01*
X177187500Y-182462500D02*
X177187500Y-182962500D01*
%TO.N,Net-(U14-Pad10)*%
X147600000Y-182450000D02*
X147600000Y-182950000D01*
X147600000Y-182950000D02*
X146550000Y-184000000D01*
%TD*%
M02*
