%TF.GenerationSoftware,KiCad,Pcbnew,7.0.8*%
%TF.CreationDate,2024-01-12T20:03:42+01:00*%
%TF.ProjectId,BMS-Slave,424d532d-536c-4617-9665-2e6b69636164,rev?*%
%TF.SameCoordinates,Original*%
%TF.FileFunction,Soldermask,Bot*%
%TF.FilePolarity,Negative*%
%FSLAX46Y46*%
G04 Gerber Fmt 4.6, Leading zero omitted, Abs format (unit mm)*
G04 Created by KiCad (PCBNEW 7.0.8) date 2024-01-12 20:03:42*
%MOMM*%
%LPD*%
G01*
G04 APERTURE LIST*
G04 Aperture macros list*
%AMRoundRect*
0 Rectangle with rounded corners*
0 $1 Rounding radius*
0 $2 $3 $4 $5 $6 $7 $8 $9 X,Y pos of 4 corners*
0 Add a 4 corners polygon primitive as box body*
4,1,4,$2,$3,$4,$5,$6,$7,$8,$9,$2,$3,0*
0 Add four circle primitives for the rounded corners*
1,1,$1+$1,$2,$3*
1,1,$1+$1,$4,$5*
1,1,$1+$1,$6,$7*
1,1,$1+$1,$8,$9*
0 Add four rect primitives between the rounded corners*
20,1,$1+$1,$2,$3,$4,$5,0*
20,1,$1+$1,$4,$5,$6,$7,0*
20,1,$1+$1,$6,$7,$8,$9,0*
20,1,$1+$1,$8,$9,$2,$3,0*%
G04 Aperture macros list end*
%ADD10C,2.000000*%
%ADD11C,1.270000*%
%ADD12RoundRect,0.250001X-0.759999X0.499999X-0.759999X-0.499999X0.759999X-0.499999X0.759999X0.499999X0*%
%ADD13O,2.020000X1.500000*%
%ADD14C,1.440000*%
%ADD15C,1.020000*%
%ADD16RoundRect,0.250001X0.499999X0.499999X-0.499999X0.499999X-0.499999X-0.499999X0.499999X-0.499999X0*%
%ADD17C,1.500000*%
%ADD18RoundRect,0.250001X-0.499999X-0.499999X0.499999X-0.499999X0.499999X0.499999X-0.499999X0.499999X0*%
%ADD19RoundRect,0.250001X0.499999X-0.499999X0.499999X0.499999X-0.499999X0.499999X-0.499999X-0.499999X0*%
%ADD20RoundRect,0.250001X0.759999X-0.499999X0.759999X0.499999X-0.759999X0.499999X-0.759999X-0.499999X0*%
G04 APERTURE END LIST*
D10*
%TO.C,TP16*%
X306250000Y-118750000D03*
%TD*%
D11*
%TO.C,J13*%
X258000000Y-103250000D03*
X258000000Y-112250000D03*
D12*
X256040000Y-106250000D03*
D13*
X256040000Y-109250000D03*
%TD*%
D11*
%TO.C,J7*%
X148460000Y-103250000D03*
X148460000Y-112250000D03*
D12*
X146500000Y-106250000D03*
D13*
X146500000Y-109250000D03*
%TD*%
D14*
%TO.C,U3*%
X179250000Y-105710000D03*
X179250000Y-108250000D03*
X179250000Y-110790000D03*
%TD*%
D10*
%TO.C,TP1*%
X146000000Y-115600000D03*
%TD*%
D15*
%TO.C,J5*%
X174750000Y-105310000D03*
X150750000Y-105310000D03*
D16*
X171750000Y-109250000D03*
D17*
X168750000Y-109250000D03*
X165750000Y-109250000D03*
X162750000Y-109250000D03*
X159750000Y-109250000D03*
X156750000Y-109250000D03*
X153750000Y-109250000D03*
X171750000Y-106250000D03*
X168750000Y-106250000D03*
X165750000Y-106250000D03*
X162750000Y-106250000D03*
X159750000Y-106250000D03*
X156750000Y-106250000D03*
X153750000Y-106250000D03*
%TD*%
D15*
%TO.C,J14*%
X259250000Y-168690000D03*
X286250000Y-168690000D03*
D18*
X262250000Y-164750000D03*
D17*
X265250000Y-164750000D03*
X268250000Y-164750000D03*
X271250000Y-164750000D03*
X274250000Y-164750000D03*
X277250000Y-164750000D03*
X280250000Y-164750000D03*
X283250000Y-164750000D03*
X262250000Y-167750000D03*
X265250000Y-167750000D03*
X268250000Y-167750000D03*
X271250000Y-167750000D03*
X274250000Y-167750000D03*
X277250000Y-167750000D03*
X280250000Y-167750000D03*
X283250000Y-167750000D03*
%TD*%
D10*
%TO.C,TP5*%
X189250000Y-121750000D03*
%TD*%
%TO.C,TP7*%
X195500000Y-159000000D03*
%TD*%
D15*
%TO.C,J1*%
X98215000Y-148000000D03*
X98215000Y-139000000D03*
D19*
X94275000Y-145000000D03*
D17*
X94275000Y-142000000D03*
X97275000Y-145000000D03*
X97275000Y-142000000D03*
%TD*%
D10*
%TO.C,TP4*%
X192250000Y-124750000D03*
%TD*%
D15*
%TO.C,J12*%
X337000000Y-168940000D03*
X349000000Y-168940000D03*
D18*
X340000000Y-165000000D03*
D17*
X343000000Y-165000000D03*
X346000000Y-165000000D03*
X340000000Y-168000000D03*
X343000000Y-168000000D03*
X346000000Y-168000000D03*
%TD*%
D14*
%TO.C,U8*%
X183470000Y-168330000D03*
X183470000Y-165790000D03*
X183470000Y-163250000D03*
%TD*%
D10*
%TO.C,TP12*%
X302250000Y-159250000D03*
%TD*%
D15*
%TO.C,J4*%
X232000000Y-105000000D03*
X220000000Y-105000000D03*
D16*
X229000000Y-108940000D03*
D17*
X226000000Y-108940000D03*
X223000000Y-108940000D03*
X229000000Y-105940000D03*
X226000000Y-105940000D03*
X223000000Y-105940000D03*
%TD*%
D11*
%TO.C,J9*%
X344290000Y-112000000D03*
X344290000Y-103000000D03*
D20*
X346250000Y-109000000D03*
D13*
X346250000Y-106000000D03*
%TD*%
D15*
%TO.C,J6*%
X227000000Y-169000000D03*
X239000000Y-169000000D03*
D18*
X230000000Y-165060000D03*
D17*
X233000000Y-165060000D03*
X236000000Y-165060000D03*
X230000000Y-168060000D03*
X233000000Y-168060000D03*
X236000000Y-168060000D03*
%TD*%
D10*
%TO.C,TP10*%
X298750000Y-159250000D03*
%TD*%
D11*
%TO.C,J3*%
X234290000Y-112000000D03*
X234290000Y-103000000D03*
D20*
X236250000Y-109000000D03*
D13*
X236250000Y-106000000D03*
%TD*%
D10*
%TO.C,TP6*%
X188500000Y-159000000D03*
%TD*%
D15*
%TO.C,J11*%
X284250000Y-105310000D03*
X260250000Y-105310000D03*
D16*
X281250000Y-109250000D03*
D17*
X278250000Y-109250000D03*
X275250000Y-109250000D03*
X272250000Y-109250000D03*
X269250000Y-109250000D03*
X266250000Y-109250000D03*
X263250000Y-109250000D03*
X281250000Y-106250000D03*
X278250000Y-106250000D03*
X275250000Y-106250000D03*
X272250000Y-106250000D03*
X269250000Y-106250000D03*
X266250000Y-106250000D03*
X263250000Y-106250000D03*
%TD*%
D15*
%TO.C,J8*%
X149500000Y-168750000D03*
X176500000Y-168750000D03*
D18*
X152500000Y-164810000D03*
D17*
X155500000Y-164810000D03*
X158500000Y-164810000D03*
X161500000Y-164810000D03*
X164500000Y-164810000D03*
X167500000Y-164810000D03*
X170500000Y-164810000D03*
X173500000Y-164810000D03*
X152500000Y-167810000D03*
X155500000Y-167810000D03*
X158500000Y-167810000D03*
X161500000Y-167810000D03*
X164500000Y-167810000D03*
X167500000Y-167810000D03*
X170500000Y-167810000D03*
X173500000Y-167810000D03*
%TD*%
D10*
%TO.C,TP13*%
X255250000Y-115000000D03*
%TD*%
%TO.C,TP14*%
X306250000Y-114750000D03*
%TD*%
%TO.C,TP11*%
X305500000Y-160250000D03*
%TD*%
%TO.C,TP2*%
X146400000Y-159600000D03*
%TD*%
D15*
%TO.C,J2*%
X98195000Y-135000000D03*
X98195000Y-126000000D03*
D19*
X94255000Y-132000000D03*
D17*
X94255000Y-129000000D03*
X97255000Y-132000000D03*
X97255000Y-129000000D03*
%TD*%
D10*
%TO.C,TP15*%
X306250000Y-123250000D03*
%TD*%
%TO.C,TP9*%
X256250000Y-158750000D03*
%TD*%
%TO.C,TP3*%
X186000000Y-118750000D03*
%TD*%
D14*
%TO.C,U12*%
X288700000Y-105710000D03*
X288700000Y-108250000D03*
X288700000Y-110790000D03*
%TD*%
%TO.C,U10*%
X293250000Y-168330000D03*
X293250000Y-165790000D03*
X293250000Y-163250000D03*
%TD*%
D15*
%TO.C,J10*%
X342000000Y-105000000D03*
X330000000Y-105000000D03*
D16*
X339000000Y-108940000D03*
D17*
X336000000Y-108940000D03*
X333000000Y-108940000D03*
X339000000Y-105940000D03*
X336000000Y-105940000D03*
X333000000Y-105940000D03*
%TD*%
D10*
%TO.C,TP8*%
X192000000Y-159000000D03*
%TD*%
M02*
