%TF.GenerationSoftware,KiCad,Pcbnew,7.0.8*%
%TF.CreationDate,2024-01-22T14:24:57+01:00*%
%TF.ProjectId,BMS-Master,424d532d-4d61-4737-9465-722e6b696361,rev?*%
%TF.SameCoordinates,Original*%
%TF.FileFunction,Drillmap*%
%TF.FilePolarity,Positive*%
%FSLAX45Y45*%
G04 Gerber Fmt 4.5, Leading zero omitted, Abs format (unit mm)*
G04 Created by KiCad (PCBNEW 7.0.8) date 2024-01-22 14:24:57*
%MOMM*%
%LPD*%
G01*
G04 APERTURE LIST*
%ADD10C,0.200000*%
%ADD11C,0.100000*%
%ADD12C,0.060000*%
%ADD13C,0.102000*%
%ADD14C,0.127000*%
G04 APERTURE END LIST*
D10*
X10670000Y-19250000D02*
G75*
G03*
X10670000Y-19250000I-170000J0D01*
G01*
X14420000Y-12500000D02*
G75*
G03*
X14420000Y-12500000I-170000J0D01*
G01*
X24925000Y-17625000D02*
G75*
G03*
X24925000Y-17625000I-170000J0D01*
G01*
X17540000Y-16375000D02*
G75*
G03*
X17540000Y-16375000I-170000J0D01*
G01*
X20420000Y-22500000D02*
G75*
G03*
X20420000Y-22500000I-170000J0D01*
G01*
X8770000Y-9950000D02*
G75*
G03*
X8770000Y-9950000I-170000J0D01*
G01*
X8770000Y-22575000D02*
G75*
G03*
X8770000Y-22575000I-170000J0D01*
G01*
X28045000Y-9950000D02*
G75*
G03*
X28045000Y-9950000I-170000J0D01*
G01*
D11*
X18800000Y-21625000D02*
G75*
G03*
X17825000Y-20650000I-975000J0D01*
G01*
X25840146Y-12169942D02*
X27831000Y-12169942D01*
X27831000Y-13187000D01*
X25840146Y-13187000D01*
X25840146Y-12169942D01*
X18800000Y-21625000D02*
X17825000Y-21625000D01*
X15025000Y-20650000D02*
X17825000Y-20650000D01*
X8100000Y-9448800D02*
X28369500Y-9448800D01*
X28369500Y-23077200D01*
X8100000Y-23077200D01*
X8100000Y-9448800D01*
X15025000Y-21625000D02*
X14050000Y-21625000D01*
X15025000Y-21625000D02*
X17825000Y-21625000D01*
X15025000Y-20650000D02*
G75*
G03*
X14050000Y-21625000I0J-975000D01*
G01*
D10*
X28045000Y-22575000D02*
G75*
G03*
X28045000Y-22575000I-170000J0D01*
G01*
D12*
X10553000Y-22635710D02*
X10613000Y-22695710D01*
X10613000Y-22635710D02*
X10553000Y-22695710D01*
X11303000Y-22635710D02*
X11363000Y-22695710D01*
X11363000Y-22635710D02*
X11303000Y-22695710D01*
D10*
X11313000Y-22695710D02*
X11353000Y-22695710D01*
X11353000Y-22695710D02*
G75*
G03*
X11353000Y-22635710I0J30000D01*
G01*
X11353000Y-22635710D02*
X11313000Y-22635710D01*
X11313000Y-22635710D02*
G75*
G03*
X11313000Y-22695710I0J-30000D01*
G01*
D12*
X23910550Y-22693100D02*
X23970550Y-22753100D01*
X23970550Y-22693100D02*
X23910550Y-22753100D01*
X24660550Y-22693100D02*
X24720550Y-22753100D01*
X24720550Y-22693100D02*
X24660550Y-22753100D01*
D10*
X24670550Y-22753100D02*
X24710550Y-22753100D01*
X24710550Y-22753100D02*
G75*
G03*
X24710550Y-22693100I0J30000D01*
G01*
X24710550Y-22693100D02*
X24670550Y-22693100D01*
X24670550Y-22693100D02*
G75*
G03*
X24670550Y-22753100I0J-30000D01*
G01*
D13*
X8440675Y-11300000D02*
G75*
G03*
X8440675Y-11300000I-51000J0D01*
G01*
X8475368Y-20940033D02*
G75*
G03*
X8475368Y-20940033I-51000J0D01*
G01*
X8569200Y-15918100D02*
G75*
G03*
X8569200Y-15918100I-51000J0D01*
G01*
X8575850Y-14608900D02*
G75*
G03*
X8575850Y-14608900I-51000J0D01*
G01*
X8575850Y-18114100D02*
G75*
G03*
X8575850Y-18114100I-51000J0D01*
G01*
X9040675Y-11300000D02*
G75*
G03*
X9040675Y-11300000I-51000J0D01*
G01*
X9169200Y-15918100D02*
G75*
G03*
X9169200Y-15918100I-51000J0D01*
G01*
X9175850Y-14608900D02*
G75*
G03*
X9175850Y-14608900I-51000J0D01*
G01*
X9175850Y-18114100D02*
G75*
G03*
X9175850Y-18114100I-51000J0D01*
G01*
X9375366Y-20940033D02*
G75*
G03*
X9375366Y-20940033I-51000J0D01*
G01*
X15089967Y-22306000D02*
G75*
G03*
X15089967Y-22306000I-51000J0D01*
G01*
X15989965Y-22306000D02*
G75*
G03*
X15989965Y-22306000I-51000J0D01*
G01*
X16974967Y-22307500D02*
G75*
G03*
X16974967Y-22307500I-51000J0D01*
G01*
X17874965Y-22307500D02*
G75*
G03*
X17874965Y-22307500I-51000J0D01*
G01*
X19624369Y-9824100D02*
G75*
G03*
X19624369Y-9824100I-51000J0D01*
G01*
X20524367Y-9824100D02*
G75*
G03*
X20524367Y-9824100I-51000J0D01*
G01*
X20901002Y-9825000D02*
G75*
G03*
X20901002Y-9825000I-51000J0D01*
G01*
X21801000Y-9825000D02*
G75*
G03*
X21801000Y-9825000I-51000J0D01*
G01*
X22176002Y-9825000D02*
G75*
G03*
X22176002Y-9825000I-51000J0D01*
G01*
X23076000Y-9825000D02*
G75*
G03*
X23076000Y-9825000I-51000J0D01*
G01*
X24143100Y-10232500D02*
G75*
G03*
X24143100Y-10232500I-51000J0D01*
G01*
X25043098Y-10232500D02*
G75*
G03*
X25043098Y-10232500I-51000J0D01*
G01*
D14*
X8619175Y-12110800D02*
X8619175Y-12237800D01*
X8555675Y-12174300D02*
X8682675Y-12174300D01*
X8619175Y-13310800D02*
X8619175Y-13437800D01*
X8555675Y-13374300D02*
X8682675Y-13374300D01*
D10*
X8355777Y-23393684D02*
X8355777Y-23193684D01*
X8355777Y-23193684D02*
X8403396Y-23193684D01*
X8403396Y-23193684D02*
X8431967Y-23203208D01*
X8431967Y-23203208D02*
X8451015Y-23222255D01*
X8451015Y-23222255D02*
X8460539Y-23241303D01*
X8460539Y-23241303D02*
X8470063Y-23279398D01*
X8470063Y-23279398D02*
X8470063Y-23307969D01*
X8470063Y-23307969D02*
X8460539Y-23346065D01*
X8460539Y-23346065D02*
X8451015Y-23365112D01*
X8451015Y-23365112D02*
X8431967Y-23384160D01*
X8431967Y-23384160D02*
X8403396Y-23393684D01*
X8403396Y-23393684D02*
X8355777Y-23393684D01*
X8555777Y-23393684D02*
X8555777Y-23260350D01*
X8555777Y-23298446D02*
X8565301Y-23279398D01*
X8565301Y-23279398D02*
X8574824Y-23269874D01*
X8574824Y-23269874D02*
X8593872Y-23260350D01*
X8593872Y-23260350D02*
X8612920Y-23260350D01*
X8679586Y-23393684D02*
X8679586Y-23260350D01*
X8679586Y-23193684D02*
X8670063Y-23203208D01*
X8670063Y-23203208D02*
X8679586Y-23212731D01*
X8679586Y-23212731D02*
X8689110Y-23203208D01*
X8689110Y-23203208D02*
X8679586Y-23193684D01*
X8679586Y-23193684D02*
X8679586Y-23212731D01*
X8803396Y-23393684D02*
X8784348Y-23384160D01*
X8784348Y-23384160D02*
X8774824Y-23365112D01*
X8774824Y-23365112D02*
X8774824Y-23193684D01*
X8908158Y-23393684D02*
X8889110Y-23384160D01*
X8889110Y-23384160D02*
X8879586Y-23365112D01*
X8879586Y-23365112D02*
X8879586Y-23193684D01*
X9136729Y-23393684D02*
X9136729Y-23193684D01*
X9136729Y-23193684D02*
X9203396Y-23336541D01*
X9203396Y-23336541D02*
X9270063Y-23193684D01*
X9270063Y-23193684D02*
X9270063Y-23393684D01*
X9451015Y-23393684D02*
X9451015Y-23288922D01*
X9451015Y-23288922D02*
X9441491Y-23269874D01*
X9441491Y-23269874D02*
X9422444Y-23260350D01*
X9422444Y-23260350D02*
X9384348Y-23260350D01*
X9384348Y-23260350D02*
X9365301Y-23269874D01*
X9451015Y-23384160D02*
X9431967Y-23393684D01*
X9431967Y-23393684D02*
X9384348Y-23393684D01*
X9384348Y-23393684D02*
X9365301Y-23384160D01*
X9365301Y-23384160D02*
X9355777Y-23365112D01*
X9355777Y-23365112D02*
X9355777Y-23346065D01*
X9355777Y-23346065D02*
X9365301Y-23327017D01*
X9365301Y-23327017D02*
X9384348Y-23317493D01*
X9384348Y-23317493D02*
X9431967Y-23317493D01*
X9431967Y-23317493D02*
X9451015Y-23307969D01*
X9546253Y-23260350D02*
X9546253Y-23460350D01*
X9546253Y-23269874D02*
X9565301Y-23260350D01*
X9565301Y-23260350D02*
X9603396Y-23260350D01*
X9603396Y-23260350D02*
X9622444Y-23269874D01*
X9622444Y-23269874D02*
X9631967Y-23279398D01*
X9631967Y-23279398D02*
X9641491Y-23298446D01*
X9641491Y-23298446D02*
X9641491Y-23355588D01*
X9641491Y-23355588D02*
X9631967Y-23374636D01*
X9631967Y-23374636D02*
X9622444Y-23384160D01*
X9622444Y-23384160D02*
X9603396Y-23393684D01*
X9603396Y-23393684D02*
X9565301Y-23393684D01*
X9565301Y-23393684D02*
X9546253Y-23384160D01*
X9727205Y-23374636D02*
X9736729Y-23384160D01*
X9736729Y-23384160D02*
X9727205Y-23393684D01*
X9727205Y-23393684D02*
X9717682Y-23384160D01*
X9717682Y-23384160D02*
X9727205Y-23374636D01*
X9727205Y-23374636D02*
X9727205Y-23393684D01*
X9727205Y-23269874D02*
X9736729Y-23279398D01*
X9736729Y-23279398D02*
X9727205Y-23288922D01*
X9727205Y-23288922D02*
X9717682Y-23279398D01*
X9717682Y-23279398D02*
X9727205Y-23269874D01*
X9727205Y-23269874D02*
X9727205Y-23288922D01*
D12*
X8035000Y-23692200D02*
X8095000Y-23752200D01*
X8095000Y-23692200D02*
X8035000Y-23752200D01*
D10*
X8393872Y-23613684D02*
X8412920Y-23613684D01*
X8412920Y-23613684D02*
X8431967Y-23623208D01*
X8431967Y-23623208D02*
X8441491Y-23632731D01*
X8441491Y-23632731D02*
X8451015Y-23651779D01*
X8451015Y-23651779D02*
X8460539Y-23689874D01*
X8460539Y-23689874D02*
X8460539Y-23737493D01*
X8460539Y-23737493D02*
X8451015Y-23775588D01*
X8451015Y-23775588D02*
X8441491Y-23794636D01*
X8441491Y-23794636D02*
X8431967Y-23804160D01*
X8431967Y-23804160D02*
X8412920Y-23813684D01*
X8412920Y-23813684D02*
X8393872Y-23813684D01*
X8393872Y-23813684D02*
X8374824Y-23804160D01*
X8374824Y-23804160D02*
X8365301Y-23794636D01*
X8365301Y-23794636D02*
X8355777Y-23775588D01*
X8355777Y-23775588D02*
X8346253Y-23737493D01*
X8346253Y-23737493D02*
X8346253Y-23689874D01*
X8346253Y-23689874D02*
X8355777Y-23651779D01*
X8355777Y-23651779D02*
X8365301Y-23632731D01*
X8365301Y-23632731D02*
X8374824Y-23623208D01*
X8374824Y-23623208D02*
X8393872Y-23613684D01*
X8546253Y-23794636D02*
X8555777Y-23804160D01*
X8555777Y-23804160D02*
X8546253Y-23813684D01*
X8546253Y-23813684D02*
X8536729Y-23804160D01*
X8536729Y-23804160D02*
X8546253Y-23794636D01*
X8546253Y-23794636D02*
X8546253Y-23813684D01*
X8727205Y-23613684D02*
X8689110Y-23613684D01*
X8689110Y-23613684D02*
X8670063Y-23623208D01*
X8670063Y-23623208D02*
X8660539Y-23632731D01*
X8660539Y-23632731D02*
X8641491Y-23661303D01*
X8641491Y-23661303D02*
X8631967Y-23699398D01*
X8631967Y-23699398D02*
X8631967Y-23775588D01*
X8631967Y-23775588D02*
X8641491Y-23794636D01*
X8641491Y-23794636D02*
X8651015Y-23804160D01*
X8651015Y-23804160D02*
X8670063Y-23813684D01*
X8670063Y-23813684D02*
X8708158Y-23813684D01*
X8708158Y-23813684D02*
X8727205Y-23804160D01*
X8727205Y-23804160D02*
X8736729Y-23794636D01*
X8736729Y-23794636D02*
X8746253Y-23775588D01*
X8746253Y-23775588D02*
X8746253Y-23727969D01*
X8746253Y-23727969D02*
X8736729Y-23708922D01*
X8736729Y-23708922D02*
X8727205Y-23699398D01*
X8727205Y-23699398D02*
X8708158Y-23689874D01*
X8708158Y-23689874D02*
X8670063Y-23689874D01*
X8670063Y-23689874D02*
X8651015Y-23699398D01*
X8651015Y-23699398D02*
X8641491Y-23708922D01*
X8641491Y-23708922D02*
X8631967Y-23727969D01*
X8870063Y-23613684D02*
X8889110Y-23613684D01*
X8889110Y-23613684D02*
X8908158Y-23623208D01*
X8908158Y-23623208D02*
X8917682Y-23632731D01*
X8917682Y-23632731D02*
X8927205Y-23651779D01*
X8927205Y-23651779D02*
X8936729Y-23689874D01*
X8936729Y-23689874D02*
X8936729Y-23737493D01*
X8936729Y-23737493D02*
X8927205Y-23775588D01*
X8927205Y-23775588D02*
X8917682Y-23794636D01*
X8917682Y-23794636D02*
X8908158Y-23804160D01*
X8908158Y-23804160D02*
X8889110Y-23813684D01*
X8889110Y-23813684D02*
X8870063Y-23813684D01*
X8870063Y-23813684D02*
X8851015Y-23804160D01*
X8851015Y-23804160D02*
X8841491Y-23794636D01*
X8841491Y-23794636D02*
X8831967Y-23775588D01*
X8831967Y-23775588D02*
X8822444Y-23737493D01*
X8822444Y-23737493D02*
X8822444Y-23689874D01*
X8822444Y-23689874D02*
X8831967Y-23651779D01*
X8831967Y-23651779D02*
X8841491Y-23632731D01*
X8841491Y-23632731D02*
X8851015Y-23623208D01*
X8851015Y-23623208D02*
X8870063Y-23613684D01*
X9060539Y-23613684D02*
X9079586Y-23613684D01*
X9079586Y-23613684D02*
X9098634Y-23623208D01*
X9098634Y-23623208D02*
X9108158Y-23632731D01*
X9108158Y-23632731D02*
X9117682Y-23651779D01*
X9117682Y-23651779D02*
X9127205Y-23689874D01*
X9127205Y-23689874D02*
X9127205Y-23737493D01*
X9127205Y-23737493D02*
X9117682Y-23775588D01*
X9117682Y-23775588D02*
X9108158Y-23794636D01*
X9108158Y-23794636D02*
X9098634Y-23804160D01*
X9098634Y-23804160D02*
X9079586Y-23813684D01*
X9079586Y-23813684D02*
X9060539Y-23813684D01*
X9060539Y-23813684D02*
X9041491Y-23804160D01*
X9041491Y-23804160D02*
X9031967Y-23794636D01*
X9031967Y-23794636D02*
X9022444Y-23775588D01*
X9022444Y-23775588D02*
X9012920Y-23737493D01*
X9012920Y-23737493D02*
X9012920Y-23689874D01*
X9012920Y-23689874D02*
X9022444Y-23651779D01*
X9022444Y-23651779D02*
X9031967Y-23632731D01*
X9031967Y-23632731D02*
X9041491Y-23623208D01*
X9041491Y-23623208D02*
X9060539Y-23613684D01*
X9212920Y-23813684D02*
X9212920Y-23680350D01*
X9212920Y-23699398D02*
X9222444Y-23689874D01*
X9222444Y-23689874D02*
X9241491Y-23680350D01*
X9241491Y-23680350D02*
X9270063Y-23680350D01*
X9270063Y-23680350D02*
X9289110Y-23689874D01*
X9289110Y-23689874D02*
X9298634Y-23708922D01*
X9298634Y-23708922D02*
X9298634Y-23813684D01*
X9298634Y-23708922D02*
X9308158Y-23689874D01*
X9308158Y-23689874D02*
X9327205Y-23680350D01*
X9327205Y-23680350D02*
X9355777Y-23680350D01*
X9355777Y-23680350D02*
X9374825Y-23689874D01*
X9374825Y-23689874D02*
X9384348Y-23708922D01*
X9384348Y-23708922D02*
X9384348Y-23813684D01*
X9479586Y-23813684D02*
X9479586Y-23680350D01*
X9479586Y-23699398D02*
X9489110Y-23689874D01*
X9489110Y-23689874D02*
X9508158Y-23680350D01*
X9508158Y-23680350D02*
X9536729Y-23680350D01*
X9536729Y-23680350D02*
X9555777Y-23689874D01*
X9555777Y-23689874D02*
X9565301Y-23708922D01*
X9565301Y-23708922D02*
X9565301Y-23813684D01*
X9565301Y-23708922D02*
X9574825Y-23689874D01*
X9574825Y-23689874D02*
X9593872Y-23680350D01*
X9593872Y-23680350D02*
X9622444Y-23680350D01*
X9622444Y-23680350D02*
X9641491Y-23689874D01*
X9641491Y-23689874D02*
X9651015Y-23708922D01*
X9651015Y-23708922D02*
X9651015Y-23813684D01*
X10041491Y-23604160D02*
X9870063Y-23861303D01*
X10298634Y-23613684D02*
X10317682Y-23613684D01*
X10317682Y-23613684D02*
X10336729Y-23623208D01*
X10336729Y-23623208D02*
X10346253Y-23632731D01*
X10346253Y-23632731D02*
X10355777Y-23651779D01*
X10355777Y-23651779D02*
X10365301Y-23689874D01*
X10365301Y-23689874D02*
X10365301Y-23737493D01*
X10365301Y-23737493D02*
X10355777Y-23775588D01*
X10355777Y-23775588D02*
X10346253Y-23794636D01*
X10346253Y-23794636D02*
X10336729Y-23804160D01*
X10336729Y-23804160D02*
X10317682Y-23813684D01*
X10317682Y-23813684D02*
X10298634Y-23813684D01*
X10298634Y-23813684D02*
X10279587Y-23804160D01*
X10279587Y-23804160D02*
X10270063Y-23794636D01*
X10270063Y-23794636D02*
X10260539Y-23775588D01*
X10260539Y-23775588D02*
X10251015Y-23737493D01*
X10251015Y-23737493D02*
X10251015Y-23689874D01*
X10251015Y-23689874D02*
X10260539Y-23651779D01*
X10260539Y-23651779D02*
X10270063Y-23632731D01*
X10270063Y-23632731D02*
X10279587Y-23623208D01*
X10279587Y-23623208D02*
X10298634Y-23613684D01*
X10451015Y-23794636D02*
X10460539Y-23804160D01*
X10460539Y-23804160D02*
X10451015Y-23813684D01*
X10451015Y-23813684D02*
X10441491Y-23804160D01*
X10441491Y-23804160D02*
X10451015Y-23794636D01*
X10451015Y-23794636D02*
X10451015Y-23813684D01*
X10584348Y-23613684D02*
X10603396Y-23613684D01*
X10603396Y-23613684D02*
X10622444Y-23623208D01*
X10622444Y-23623208D02*
X10631968Y-23632731D01*
X10631968Y-23632731D02*
X10641491Y-23651779D01*
X10641491Y-23651779D02*
X10651015Y-23689874D01*
X10651015Y-23689874D02*
X10651015Y-23737493D01*
X10651015Y-23737493D02*
X10641491Y-23775588D01*
X10641491Y-23775588D02*
X10631968Y-23794636D01*
X10631968Y-23794636D02*
X10622444Y-23804160D01*
X10622444Y-23804160D02*
X10603396Y-23813684D01*
X10603396Y-23813684D02*
X10584348Y-23813684D01*
X10584348Y-23813684D02*
X10565301Y-23804160D01*
X10565301Y-23804160D02*
X10555777Y-23794636D01*
X10555777Y-23794636D02*
X10546253Y-23775588D01*
X10546253Y-23775588D02*
X10536729Y-23737493D01*
X10536729Y-23737493D02*
X10536729Y-23689874D01*
X10536729Y-23689874D02*
X10546253Y-23651779D01*
X10546253Y-23651779D02*
X10555777Y-23632731D01*
X10555777Y-23632731D02*
X10565301Y-23623208D01*
X10565301Y-23623208D02*
X10584348Y-23613684D01*
X10727206Y-23632731D02*
X10736729Y-23623208D01*
X10736729Y-23623208D02*
X10755777Y-23613684D01*
X10755777Y-23613684D02*
X10803396Y-23613684D01*
X10803396Y-23613684D02*
X10822444Y-23623208D01*
X10822444Y-23623208D02*
X10831968Y-23632731D01*
X10831968Y-23632731D02*
X10841491Y-23651779D01*
X10841491Y-23651779D02*
X10841491Y-23670827D01*
X10841491Y-23670827D02*
X10831968Y-23699398D01*
X10831968Y-23699398D02*
X10717682Y-23813684D01*
X10717682Y-23813684D02*
X10841491Y-23813684D01*
X10908158Y-23613684D02*
X11031968Y-23613684D01*
X11031968Y-23613684D02*
X10965301Y-23689874D01*
X10965301Y-23689874D02*
X10993872Y-23689874D01*
X10993872Y-23689874D02*
X11012920Y-23699398D01*
X11012920Y-23699398D02*
X11022444Y-23708922D01*
X11022444Y-23708922D02*
X11031968Y-23727969D01*
X11031968Y-23727969D02*
X11031968Y-23775588D01*
X11031968Y-23775588D02*
X11022444Y-23794636D01*
X11022444Y-23794636D02*
X11012920Y-23804160D01*
X11012920Y-23804160D02*
X10993872Y-23813684D01*
X10993872Y-23813684D02*
X10936729Y-23813684D01*
X10936729Y-23813684D02*
X10917682Y-23804160D01*
X10917682Y-23804160D02*
X10908158Y-23794636D01*
X11203396Y-23613684D02*
X11165301Y-23613684D01*
X11165301Y-23613684D02*
X11146253Y-23623208D01*
X11146253Y-23623208D02*
X11136729Y-23632731D01*
X11136729Y-23632731D02*
X11117682Y-23661303D01*
X11117682Y-23661303D02*
X11108158Y-23699398D01*
X11108158Y-23699398D02*
X11108158Y-23775588D01*
X11108158Y-23775588D02*
X11117682Y-23794636D01*
X11117682Y-23794636D02*
X11127206Y-23804160D01*
X11127206Y-23804160D02*
X11146253Y-23813684D01*
X11146253Y-23813684D02*
X11184349Y-23813684D01*
X11184349Y-23813684D02*
X11203396Y-23804160D01*
X11203396Y-23804160D02*
X11212920Y-23794636D01*
X11212920Y-23794636D02*
X11222444Y-23775588D01*
X11222444Y-23775588D02*
X11222444Y-23727969D01*
X11222444Y-23727969D02*
X11212920Y-23708922D01*
X11212920Y-23708922D02*
X11203396Y-23699398D01*
X11203396Y-23699398D02*
X11184349Y-23689874D01*
X11184349Y-23689874D02*
X11146253Y-23689874D01*
X11146253Y-23689874D02*
X11127206Y-23699398D01*
X11127206Y-23699398D02*
X11117682Y-23708922D01*
X11117682Y-23708922D02*
X11108158Y-23727969D01*
X11298634Y-23613684D02*
X11298634Y-23651779D01*
X11374825Y-23613684D02*
X11374825Y-23651779D01*
X11670063Y-23889874D02*
X11660539Y-23880350D01*
X11660539Y-23880350D02*
X11641491Y-23851779D01*
X11641491Y-23851779D02*
X11631968Y-23832731D01*
X11631968Y-23832731D02*
X11622444Y-23804160D01*
X11622444Y-23804160D02*
X11612920Y-23756541D01*
X11612920Y-23756541D02*
X11612920Y-23718446D01*
X11612920Y-23718446D02*
X11622444Y-23670827D01*
X11622444Y-23670827D02*
X11631968Y-23642255D01*
X11631968Y-23642255D02*
X11641491Y-23623208D01*
X11641491Y-23623208D02*
X11660539Y-23594636D01*
X11660539Y-23594636D02*
X11670063Y-23585112D01*
X11736729Y-23632731D02*
X11746253Y-23623208D01*
X11746253Y-23623208D02*
X11765301Y-23613684D01*
X11765301Y-23613684D02*
X11812920Y-23613684D01*
X11812920Y-23613684D02*
X11831968Y-23623208D01*
X11831968Y-23623208D02*
X11841491Y-23632731D01*
X11841491Y-23632731D02*
X11851015Y-23651779D01*
X11851015Y-23651779D02*
X11851015Y-23670827D01*
X11851015Y-23670827D02*
X11841491Y-23699398D01*
X11841491Y-23699398D02*
X11727206Y-23813684D01*
X11727206Y-23813684D02*
X11851015Y-23813684D01*
X12089110Y-23813684D02*
X12089110Y-23613684D01*
X12174825Y-23813684D02*
X12174825Y-23708922D01*
X12174825Y-23708922D02*
X12165301Y-23689874D01*
X12165301Y-23689874D02*
X12146253Y-23680350D01*
X12146253Y-23680350D02*
X12117682Y-23680350D01*
X12117682Y-23680350D02*
X12098634Y-23689874D01*
X12098634Y-23689874D02*
X12089110Y-23699398D01*
X12298634Y-23813684D02*
X12279587Y-23804160D01*
X12279587Y-23804160D02*
X12270063Y-23794636D01*
X12270063Y-23794636D02*
X12260539Y-23775588D01*
X12260539Y-23775588D02*
X12260539Y-23718446D01*
X12260539Y-23718446D02*
X12270063Y-23699398D01*
X12270063Y-23699398D02*
X12279587Y-23689874D01*
X12279587Y-23689874D02*
X12298634Y-23680350D01*
X12298634Y-23680350D02*
X12327206Y-23680350D01*
X12327206Y-23680350D02*
X12346253Y-23689874D01*
X12346253Y-23689874D02*
X12355777Y-23699398D01*
X12355777Y-23699398D02*
X12365301Y-23718446D01*
X12365301Y-23718446D02*
X12365301Y-23775588D01*
X12365301Y-23775588D02*
X12355777Y-23794636D01*
X12355777Y-23794636D02*
X12346253Y-23804160D01*
X12346253Y-23804160D02*
X12327206Y-23813684D01*
X12327206Y-23813684D02*
X12298634Y-23813684D01*
X12479587Y-23813684D02*
X12460539Y-23804160D01*
X12460539Y-23804160D02*
X12451015Y-23785112D01*
X12451015Y-23785112D02*
X12451015Y-23613684D01*
X12631968Y-23804160D02*
X12612920Y-23813684D01*
X12612920Y-23813684D02*
X12574825Y-23813684D01*
X12574825Y-23813684D02*
X12555777Y-23804160D01*
X12555777Y-23804160D02*
X12546253Y-23785112D01*
X12546253Y-23785112D02*
X12546253Y-23708922D01*
X12546253Y-23708922D02*
X12555777Y-23689874D01*
X12555777Y-23689874D02*
X12574825Y-23680350D01*
X12574825Y-23680350D02*
X12612920Y-23680350D01*
X12612920Y-23680350D02*
X12631968Y-23689874D01*
X12631968Y-23689874D02*
X12641491Y-23708922D01*
X12641491Y-23708922D02*
X12641491Y-23727969D01*
X12641491Y-23727969D02*
X12546253Y-23747017D01*
X12717682Y-23804160D02*
X12736730Y-23813684D01*
X12736730Y-23813684D02*
X12774825Y-23813684D01*
X12774825Y-23813684D02*
X12793872Y-23804160D01*
X12793872Y-23804160D02*
X12803396Y-23785112D01*
X12803396Y-23785112D02*
X12803396Y-23775588D01*
X12803396Y-23775588D02*
X12793872Y-23756541D01*
X12793872Y-23756541D02*
X12774825Y-23747017D01*
X12774825Y-23747017D02*
X12746253Y-23747017D01*
X12746253Y-23747017D02*
X12727206Y-23737493D01*
X12727206Y-23737493D02*
X12717682Y-23718446D01*
X12717682Y-23718446D02*
X12717682Y-23708922D01*
X12717682Y-23708922D02*
X12727206Y-23689874D01*
X12727206Y-23689874D02*
X12746253Y-23680350D01*
X12746253Y-23680350D02*
X12774825Y-23680350D01*
X12774825Y-23680350D02*
X12793872Y-23689874D01*
X13041492Y-23737493D02*
X13193873Y-23737493D01*
X13117682Y-23813684D02*
X13117682Y-23661303D01*
X13431968Y-23632731D02*
X13441492Y-23623208D01*
X13441492Y-23623208D02*
X13460539Y-23613684D01*
X13460539Y-23613684D02*
X13508158Y-23613684D01*
X13508158Y-23613684D02*
X13527206Y-23623208D01*
X13527206Y-23623208D02*
X13536730Y-23632731D01*
X13536730Y-23632731D02*
X13546253Y-23651779D01*
X13546253Y-23651779D02*
X13546253Y-23670827D01*
X13546253Y-23670827D02*
X13536730Y-23699398D01*
X13536730Y-23699398D02*
X13422444Y-23813684D01*
X13422444Y-23813684D02*
X13546253Y-23813684D01*
X13774825Y-23804160D02*
X13793873Y-23813684D01*
X13793873Y-23813684D02*
X13831968Y-23813684D01*
X13831968Y-23813684D02*
X13851015Y-23804160D01*
X13851015Y-23804160D02*
X13860539Y-23785112D01*
X13860539Y-23785112D02*
X13860539Y-23775588D01*
X13860539Y-23775588D02*
X13851015Y-23756541D01*
X13851015Y-23756541D02*
X13831968Y-23747017D01*
X13831968Y-23747017D02*
X13803396Y-23747017D01*
X13803396Y-23747017D02*
X13784349Y-23737493D01*
X13784349Y-23737493D02*
X13774825Y-23718446D01*
X13774825Y-23718446D02*
X13774825Y-23708922D01*
X13774825Y-23708922D02*
X13784349Y-23689874D01*
X13784349Y-23689874D02*
X13803396Y-23680350D01*
X13803396Y-23680350D02*
X13831968Y-23680350D01*
X13831968Y-23680350D02*
X13851015Y-23689874D01*
X13974825Y-23813684D02*
X13955777Y-23804160D01*
X13955777Y-23804160D02*
X13946254Y-23785112D01*
X13946254Y-23785112D02*
X13946254Y-23613684D01*
X14079587Y-23813684D02*
X14060539Y-23804160D01*
X14060539Y-23804160D02*
X14051015Y-23794636D01*
X14051015Y-23794636D02*
X14041492Y-23775588D01*
X14041492Y-23775588D02*
X14041492Y-23718446D01*
X14041492Y-23718446D02*
X14051015Y-23699398D01*
X14051015Y-23699398D02*
X14060539Y-23689874D01*
X14060539Y-23689874D02*
X14079587Y-23680350D01*
X14079587Y-23680350D02*
X14108158Y-23680350D01*
X14108158Y-23680350D02*
X14127206Y-23689874D01*
X14127206Y-23689874D02*
X14136730Y-23699398D01*
X14136730Y-23699398D02*
X14146254Y-23718446D01*
X14146254Y-23718446D02*
X14146254Y-23775588D01*
X14146254Y-23775588D02*
X14136730Y-23794636D01*
X14136730Y-23794636D02*
X14127206Y-23804160D01*
X14127206Y-23804160D02*
X14108158Y-23813684D01*
X14108158Y-23813684D02*
X14079587Y-23813684D01*
X14203396Y-23680350D02*
X14279587Y-23680350D01*
X14231968Y-23613684D02*
X14231968Y-23785112D01*
X14231968Y-23785112D02*
X14241492Y-23804160D01*
X14241492Y-23804160D02*
X14260539Y-23813684D01*
X14260539Y-23813684D02*
X14279587Y-23813684D01*
X14336730Y-23804160D02*
X14355777Y-23813684D01*
X14355777Y-23813684D02*
X14393873Y-23813684D01*
X14393873Y-23813684D02*
X14412920Y-23804160D01*
X14412920Y-23804160D02*
X14422444Y-23785112D01*
X14422444Y-23785112D02*
X14422444Y-23775588D01*
X14422444Y-23775588D02*
X14412920Y-23756541D01*
X14412920Y-23756541D02*
X14393873Y-23747017D01*
X14393873Y-23747017D02*
X14365301Y-23747017D01*
X14365301Y-23747017D02*
X14346254Y-23737493D01*
X14346254Y-23737493D02*
X14336730Y-23718446D01*
X14336730Y-23718446D02*
X14336730Y-23708922D01*
X14336730Y-23708922D02*
X14346254Y-23689874D01*
X14346254Y-23689874D02*
X14365301Y-23680350D01*
X14365301Y-23680350D02*
X14393873Y-23680350D01*
X14393873Y-23680350D02*
X14412920Y-23689874D01*
X14489111Y-23889874D02*
X14498635Y-23880350D01*
X14498635Y-23880350D02*
X14517682Y-23851779D01*
X14517682Y-23851779D02*
X14527206Y-23832731D01*
X14527206Y-23832731D02*
X14536730Y-23804160D01*
X14536730Y-23804160D02*
X14546254Y-23756541D01*
X14546254Y-23756541D02*
X14546254Y-23718446D01*
X14546254Y-23718446D02*
X14536730Y-23670827D01*
X14536730Y-23670827D02*
X14527206Y-23642255D01*
X14527206Y-23642255D02*
X14517682Y-23623208D01*
X14517682Y-23623208D02*
X14498635Y-23594636D01*
X14498635Y-23594636D02*
X14489111Y-23585112D01*
X14851016Y-23889874D02*
X14841492Y-23880350D01*
X14841492Y-23880350D02*
X14822444Y-23851779D01*
X14822444Y-23851779D02*
X14812920Y-23832731D01*
X14812920Y-23832731D02*
X14803396Y-23804160D01*
X14803396Y-23804160D02*
X14793873Y-23756541D01*
X14793873Y-23756541D02*
X14793873Y-23718446D01*
X14793873Y-23718446D02*
X14803396Y-23670827D01*
X14803396Y-23670827D02*
X14812920Y-23642255D01*
X14812920Y-23642255D02*
X14822444Y-23623208D01*
X14822444Y-23623208D02*
X14841492Y-23594636D01*
X14841492Y-23594636D02*
X14851016Y-23585112D01*
X14927206Y-23680350D02*
X14927206Y-23813684D01*
X14927206Y-23699398D02*
X14936730Y-23689874D01*
X14936730Y-23689874D02*
X14955777Y-23680350D01*
X14955777Y-23680350D02*
X14984349Y-23680350D01*
X14984349Y-23680350D02*
X15003396Y-23689874D01*
X15003396Y-23689874D02*
X15012920Y-23708922D01*
X15012920Y-23708922D02*
X15012920Y-23813684D01*
X15136730Y-23813684D02*
X15117682Y-23804160D01*
X15117682Y-23804160D02*
X15108158Y-23794636D01*
X15108158Y-23794636D02*
X15098635Y-23775588D01*
X15098635Y-23775588D02*
X15098635Y-23718446D01*
X15098635Y-23718446D02*
X15108158Y-23699398D01*
X15108158Y-23699398D02*
X15117682Y-23689874D01*
X15117682Y-23689874D02*
X15136730Y-23680350D01*
X15136730Y-23680350D02*
X15165301Y-23680350D01*
X15165301Y-23680350D02*
X15184349Y-23689874D01*
X15184349Y-23689874D02*
X15193873Y-23699398D01*
X15193873Y-23699398D02*
X15203396Y-23718446D01*
X15203396Y-23718446D02*
X15203396Y-23775588D01*
X15203396Y-23775588D02*
X15193873Y-23794636D01*
X15193873Y-23794636D02*
X15184349Y-23804160D01*
X15184349Y-23804160D02*
X15165301Y-23813684D01*
X15165301Y-23813684D02*
X15136730Y-23813684D01*
X15260539Y-23680350D02*
X15336730Y-23680350D01*
X15289111Y-23613684D02*
X15289111Y-23785112D01*
X15289111Y-23785112D02*
X15298635Y-23804160D01*
X15298635Y-23804160D02*
X15317682Y-23813684D01*
X15317682Y-23813684D02*
X15336730Y-23813684D01*
X15555777Y-23680350D02*
X15555777Y-23880350D01*
X15555777Y-23689874D02*
X15574825Y-23680350D01*
X15574825Y-23680350D02*
X15612920Y-23680350D01*
X15612920Y-23680350D02*
X15631968Y-23689874D01*
X15631968Y-23689874D02*
X15641492Y-23699398D01*
X15641492Y-23699398D02*
X15651016Y-23718446D01*
X15651016Y-23718446D02*
X15651016Y-23775588D01*
X15651016Y-23775588D02*
X15641492Y-23794636D01*
X15641492Y-23794636D02*
X15631968Y-23804160D01*
X15631968Y-23804160D02*
X15612920Y-23813684D01*
X15612920Y-23813684D02*
X15574825Y-23813684D01*
X15574825Y-23813684D02*
X15555777Y-23804160D01*
X15765301Y-23813684D02*
X15746254Y-23804160D01*
X15746254Y-23804160D02*
X15736730Y-23785112D01*
X15736730Y-23785112D02*
X15736730Y-23613684D01*
X15927206Y-23813684D02*
X15927206Y-23708922D01*
X15927206Y-23708922D02*
X15917682Y-23689874D01*
X15917682Y-23689874D02*
X15898635Y-23680350D01*
X15898635Y-23680350D02*
X15860539Y-23680350D01*
X15860539Y-23680350D02*
X15841492Y-23689874D01*
X15927206Y-23804160D02*
X15908158Y-23813684D01*
X15908158Y-23813684D02*
X15860539Y-23813684D01*
X15860539Y-23813684D02*
X15841492Y-23804160D01*
X15841492Y-23804160D02*
X15831968Y-23785112D01*
X15831968Y-23785112D02*
X15831968Y-23766065D01*
X15831968Y-23766065D02*
X15841492Y-23747017D01*
X15841492Y-23747017D02*
X15860539Y-23737493D01*
X15860539Y-23737493D02*
X15908158Y-23737493D01*
X15908158Y-23737493D02*
X15927206Y-23727969D01*
X15993873Y-23680350D02*
X16070063Y-23680350D01*
X16022444Y-23613684D02*
X16022444Y-23785112D01*
X16022444Y-23785112D02*
X16031968Y-23804160D01*
X16031968Y-23804160D02*
X16051016Y-23813684D01*
X16051016Y-23813684D02*
X16070063Y-23813684D01*
X16212920Y-23804160D02*
X16193873Y-23813684D01*
X16193873Y-23813684D02*
X16155777Y-23813684D01*
X16155777Y-23813684D02*
X16136730Y-23804160D01*
X16136730Y-23804160D02*
X16127206Y-23785112D01*
X16127206Y-23785112D02*
X16127206Y-23708922D01*
X16127206Y-23708922D02*
X16136730Y-23689874D01*
X16136730Y-23689874D02*
X16155777Y-23680350D01*
X16155777Y-23680350D02*
X16193873Y-23680350D01*
X16193873Y-23680350D02*
X16212920Y-23689874D01*
X16212920Y-23689874D02*
X16222444Y-23708922D01*
X16222444Y-23708922D02*
X16222444Y-23727969D01*
X16222444Y-23727969D02*
X16127206Y-23747017D01*
X16393873Y-23813684D02*
X16393873Y-23613684D01*
X16393873Y-23804160D02*
X16374825Y-23813684D01*
X16374825Y-23813684D02*
X16336730Y-23813684D01*
X16336730Y-23813684D02*
X16317682Y-23804160D01*
X16317682Y-23804160D02*
X16308158Y-23794636D01*
X16308158Y-23794636D02*
X16298635Y-23775588D01*
X16298635Y-23775588D02*
X16298635Y-23718446D01*
X16298635Y-23718446D02*
X16308158Y-23699398D01*
X16308158Y-23699398D02*
X16317682Y-23689874D01*
X16317682Y-23689874D02*
X16336730Y-23680350D01*
X16336730Y-23680350D02*
X16374825Y-23680350D01*
X16374825Y-23680350D02*
X16393873Y-23689874D01*
X16470063Y-23889874D02*
X16479587Y-23880350D01*
X16479587Y-23880350D02*
X16498635Y-23851779D01*
X16498635Y-23851779D02*
X16508158Y-23832731D01*
X16508158Y-23832731D02*
X16517682Y-23804160D01*
X16517682Y-23804160D02*
X16527206Y-23756541D01*
X16527206Y-23756541D02*
X16527206Y-23718446D01*
X16527206Y-23718446D02*
X16517682Y-23670827D01*
X16517682Y-23670827D02*
X16508158Y-23642255D01*
X16508158Y-23642255D02*
X16498635Y-23623208D01*
X16498635Y-23623208D02*
X16479587Y-23594636D01*
X16479587Y-23594636D02*
X16470063Y-23585112D01*
D13*
X8095000Y-23986200D02*
G75*
G03*
X8095000Y-23986200I-51000J0D01*
G01*
D10*
X8460539Y-24077684D02*
X8346253Y-24077684D01*
X8403396Y-24077684D02*
X8403396Y-23877684D01*
X8403396Y-23877684D02*
X8384348Y-23906255D01*
X8384348Y-23906255D02*
X8365301Y-23925303D01*
X8365301Y-23925303D02*
X8346253Y-23934827D01*
X8546253Y-24058636D02*
X8555777Y-24068160D01*
X8555777Y-24068160D02*
X8546253Y-24077684D01*
X8546253Y-24077684D02*
X8536729Y-24068160D01*
X8536729Y-24068160D02*
X8546253Y-24058636D01*
X8546253Y-24058636D02*
X8546253Y-24077684D01*
X8679586Y-23877684D02*
X8698634Y-23877684D01*
X8698634Y-23877684D02*
X8717682Y-23887208D01*
X8717682Y-23887208D02*
X8727205Y-23896731D01*
X8727205Y-23896731D02*
X8736729Y-23915779D01*
X8736729Y-23915779D02*
X8746253Y-23953874D01*
X8746253Y-23953874D02*
X8746253Y-24001493D01*
X8746253Y-24001493D02*
X8736729Y-24039588D01*
X8736729Y-24039588D02*
X8727205Y-24058636D01*
X8727205Y-24058636D02*
X8717682Y-24068160D01*
X8717682Y-24068160D02*
X8698634Y-24077684D01*
X8698634Y-24077684D02*
X8679586Y-24077684D01*
X8679586Y-24077684D02*
X8660539Y-24068160D01*
X8660539Y-24068160D02*
X8651015Y-24058636D01*
X8651015Y-24058636D02*
X8641491Y-24039588D01*
X8641491Y-24039588D02*
X8631967Y-24001493D01*
X8631967Y-24001493D02*
X8631967Y-23953874D01*
X8631967Y-23953874D02*
X8641491Y-23915779D01*
X8641491Y-23915779D02*
X8651015Y-23896731D01*
X8651015Y-23896731D02*
X8660539Y-23887208D01*
X8660539Y-23887208D02*
X8679586Y-23877684D01*
X8822444Y-23896731D02*
X8831967Y-23887208D01*
X8831967Y-23887208D02*
X8851015Y-23877684D01*
X8851015Y-23877684D02*
X8898634Y-23877684D01*
X8898634Y-23877684D02*
X8917682Y-23887208D01*
X8917682Y-23887208D02*
X8927205Y-23896731D01*
X8927205Y-23896731D02*
X8936729Y-23915779D01*
X8936729Y-23915779D02*
X8936729Y-23934827D01*
X8936729Y-23934827D02*
X8927205Y-23963398D01*
X8927205Y-23963398D02*
X8812920Y-24077684D01*
X8812920Y-24077684D02*
X8936729Y-24077684D01*
X9060539Y-23877684D02*
X9079586Y-23877684D01*
X9079586Y-23877684D02*
X9098634Y-23887208D01*
X9098634Y-23887208D02*
X9108158Y-23896731D01*
X9108158Y-23896731D02*
X9117682Y-23915779D01*
X9117682Y-23915779D02*
X9127205Y-23953874D01*
X9127205Y-23953874D02*
X9127205Y-24001493D01*
X9127205Y-24001493D02*
X9117682Y-24039588D01*
X9117682Y-24039588D02*
X9108158Y-24058636D01*
X9108158Y-24058636D02*
X9098634Y-24068160D01*
X9098634Y-24068160D02*
X9079586Y-24077684D01*
X9079586Y-24077684D02*
X9060539Y-24077684D01*
X9060539Y-24077684D02*
X9041491Y-24068160D01*
X9041491Y-24068160D02*
X9031967Y-24058636D01*
X9031967Y-24058636D02*
X9022444Y-24039588D01*
X9022444Y-24039588D02*
X9012920Y-24001493D01*
X9012920Y-24001493D02*
X9012920Y-23953874D01*
X9012920Y-23953874D02*
X9022444Y-23915779D01*
X9022444Y-23915779D02*
X9031967Y-23896731D01*
X9031967Y-23896731D02*
X9041491Y-23887208D01*
X9041491Y-23887208D02*
X9060539Y-23877684D01*
X9212920Y-24077684D02*
X9212920Y-23944350D01*
X9212920Y-23963398D02*
X9222444Y-23953874D01*
X9222444Y-23953874D02*
X9241491Y-23944350D01*
X9241491Y-23944350D02*
X9270063Y-23944350D01*
X9270063Y-23944350D02*
X9289110Y-23953874D01*
X9289110Y-23953874D02*
X9298634Y-23972922D01*
X9298634Y-23972922D02*
X9298634Y-24077684D01*
X9298634Y-23972922D02*
X9308158Y-23953874D01*
X9308158Y-23953874D02*
X9327205Y-23944350D01*
X9327205Y-23944350D02*
X9355777Y-23944350D01*
X9355777Y-23944350D02*
X9374825Y-23953874D01*
X9374825Y-23953874D02*
X9384348Y-23972922D01*
X9384348Y-23972922D02*
X9384348Y-24077684D01*
X9479586Y-24077684D02*
X9479586Y-23944350D01*
X9479586Y-23963398D02*
X9489110Y-23953874D01*
X9489110Y-23953874D02*
X9508158Y-23944350D01*
X9508158Y-23944350D02*
X9536729Y-23944350D01*
X9536729Y-23944350D02*
X9555777Y-23953874D01*
X9555777Y-23953874D02*
X9565301Y-23972922D01*
X9565301Y-23972922D02*
X9565301Y-24077684D01*
X9565301Y-23972922D02*
X9574825Y-23953874D01*
X9574825Y-23953874D02*
X9593872Y-23944350D01*
X9593872Y-23944350D02*
X9622444Y-23944350D01*
X9622444Y-23944350D02*
X9641491Y-23953874D01*
X9641491Y-23953874D02*
X9651015Y-23972922D01*
X9651015Y-23972922D02*
X9651015Y-24077684D01*
X10041491Y-23868160D02*
X9870063Y-24125303D01*
X10298634Y-23877684D02*
X10317682Y-23877684D01*
X10317682Y-23877684D02*
X10336729Y-23887208D01*
X10336729Y-23887208D02*
X10346253Y-23896731D01*
X10346253Y-23896731D02*
X10355777Y-23915779D01*
X10355777Y-23915779D02*
X10365301Y-23953874D01*
X10365301Y-23953874D02*
X10365301Y-24001493D01*
X10365301Y-24001493D02*
X10355777Y-24039588D01*
X10355777Y-24039588D02*
X10346253Y-24058636D01*
X10346253Y-24058636D02*
X10336729Y-24068160D01*
X10336729Y-24068160D02*
X10317682Y-24077684D01*
X10317682Y-24077684D02*
X10298634Y-24077684D01*
X10298634Y-24077684D02*
X10279587Y-24068160D01*
X10279587Y-24068160D02*
X10270063Y-24058636D01*
X10270063Y-24058636D02*
X10260539Y-24039588D01*
X10260539Y-24039588D02*
X10251015Y-24001493D01*
X10251015Y-24001493D02*
X10251015Y-23953874D01*
X10251015Y-23953874D02*
X10260539Y-23915779D01*
X10260539Y-23915779D02*
X10270063Y-23896731D01*
X10270063Y-23896731D02*
X10279587Y-23887208D01*
X10279587Y-23887208D02*
X10298634Y-23877684D01*
X10451015Y-24058636D02*
X10460539Y-24068160D01*
X10460539Y-24068160D02*
X10451015Y-24077684D01*
X10451015Y-24077684D02*
X10441491Y-24068160D01*
X10441491Y-24068160D02*
X10451015Y-24058636D01*
X10451015Y-24058636D02*
X10451015Y-24077684D01*
X10584348Y-23877684D02*
X10603396Y-23877684D01*
X10603396Y-23877684D02*
X10622444Y-23887208D01*
X10622444Y-23887208D02*
X10631968Y-23896731D01*
X10631968Y-23896731D02*
X10641491Y-23915779D01*
X10641491Y-23915779D02*
X10651015Y-23953874D01*
X10651015Y-23953874D02*
X10651015Y-24001493D01*
X10651015Y-24001493D02*
X10641491Y-24039588D01*
X10641491Y-24039588D02*
X10631968Y-24058636D01*
X10631968Y-24058636D02*
X10622444Y-24068160D01*
X10622444Y-24068160D02*
X10603396Y-24077684D01*
X10603396Y-24077684D02*
X10584348Y-24077684D01*
X10584348Y-24077684D02*
X10565301Y-24068160D01*
X10565301Y-24068160D02*
X10555777Y-24058636D01*
X10555777Y-24058636D02*
X10546253Y-24039588D01*
X10546253Y-24039588D02*
X10536729Y-24001493D01*
X10536729Y-24001493D02*
X10536729Y-23953874D01*
X10536729Y-23953874D02*
X10546253Y-23915779D01*
X10546253Y-23915779D02*
X10555777Y-23896731D01*
X10555777Y-23896731D02*
X10565301Y-23887208D01*
X10565301Y-23887208D02*
X10584348Y-23877684D01*
X10822444Y-23944350D02*
X10822444Y-24077684D01*
X10774825Y-23868160D02*
X10727206Y-24011017D01*
X10727206Y-24011017D02*
X10851015Y-24011017D01*
X10965301Y-23877684D02*
X10984349Y-23877684D01*
X10984349Y-23877684D02*
X11003396Y-23887208D01*
X11003396Y-23887208D02*
X11012920Y-23896731D01*
X11012920Y-23896731D02*
X11022444Y-23915779D01*
X11022444Y-23915779D02*
X11031968Y-23953874D01*
X11031968Y-23953874D02*
X11031968Y-24001493D01*
X11031968Y-24001493D02*
X11022444Y-24039588D01*
X11022444Y-24039588D02*
X11012920Y-24058636D01*
X11012920Y-24058636D02*
X11003396Y-24068160D01*
X11003396Y-24068160D02*
X10984349Y-24077684D01*
X10984349Y-24077684D02*
X10965301Y-24077684D01*
X10965301Y-24077684D02*
X10946253Y-24068160D01*
X10946253Y-24068160D02*
X10936729Y-24058636D01*
X10936729Y-24058636D02*
X10927206Y-24039588D01*
X10927206Y-24039588D02*
X10917682Y-24001493D01*
X10917682Y-24001493D02*
X10917682Y-23953874D01*
X10917682Y-23953874D02*
X10927206Y-23915779D01*
X10927206Y-23915779D02*
X10936729Y-23896731D01*
X10936729Y-23896731D02*
X10946253Y-23887208D01*
X10946253Y-23887208D02*
X10965301Y-23877684D01*
X11108158Y-23896731D02*
X11117682Y-23887208D01*
X11117682Y-23887208D02*
X11136729Y-23877684D01*
X11136729Y-23877684D02*
X11184349Y-23877684D01*
X11184349Y-23877684D02*
X11203396Y-23887208D01*
X11203396Y-23887208D02*
X11212920Y-23896731D01*
X11212920Y-23896731D02*
X11222444Y-23915779D01*
X11222444Y-23915779D02*
X11222444Y-23934827D01*
X11222444Y-23934827D02*
X11212920Y-23963398D01*
X11212920Y-23963398D02*
X11098634Y-24077684D01*
X11098634Y-24077684D02*
X11222444Y-24077684D01*
X11298634Y-23877684D02*
X11298634Y-23915779D01*
X11374825Y-23877684D02*
X11374825Y-23915779D01*
X11670063Y-24153874D02*
X11660539Y-24144350D01*
X11660539Y-24144350D02*
X11641491Y-24115779D01*
X11641491Y-24115779D02*
X11631968Y-24096731D01*
X11631968Y-24096731D02*
X11622444Y-24068160D01*
X11622444Y-24068160D02*
X11612920Y-24020541D01*
X11612920Y-24020541D02*
X11612920Y-23982446D01*
X11612920Y-23982446D02*
X11622444Y-23934827D01*
X11622444Y-23934827D02*
X11631968Y-23906255D01*
X11631968Y-23906255D02*
X11641491Y-23887208D01*
X11641491Y-23887208D02*
X11660539Y-23858636D01*
X11660539Y-23858636D02*
X11670063Y-23849112D01*
X11736729Y-23896731D02*
X11746253Y-23887208D01*
X11746253Y-23887208D02*
X11765301Y-23877684D01*
X11765301Y-23877684D02*
X11812920Y-23877684D01*
X11812920Y-23877684D02*
X11831968Y-23887208D01*
X11831968Y-23887208D02*
X11841491Y-23896731D01*
X11841491Y-23896731D02*
X11851015Y-23915779D01*
X11851015Y-23915779D02*
X11851015Y-23934827D01*
X11851015Y-23934827D02*
X11841491Y-23963398D01*
X11841491Y-23963398D02*
X11727206Y-24077684D01*
X11727206Y-24077684D02*
X11851015Y-24077684D01*
X11927206Y-23896731D02*
X11936729Y-23887208D01*
X11936729Y-23887208D02*
X11955777Y-23877684D01*
X11955777Y-23877684D02*
X12003396Y-23877684D01*
X12003396Y-23877684D02*
X12022444Y-23887208D01*
X12022444Y-23887208D02*
X12031968Y-23896731D01*
X12031968Y-23896731D02*
X12041491Y-23915779D01*
X12041491Y-23915779D02*
X12041491Y-23934827D01*
X12041491Y-23934827D02*
X12031968Y-23963398D01*
X12031968Y-23963398D02*
X11917682Y-24077684D01*
X11917682Y-24077684D02*
X12041491Y-24077684D01*
X12279587Y-24077684D02*
X12279587Y-23877684D01*
X12365301Y-24077684D02*
X12365301Y-23972922D01*
X12365301Y-23972922D02*
X12355777Y-23953874D01*
X12355777Y-23953874D02*
X12336730Y-23944350D01*
X12336730Y-23944350D02*
X12308158Y-23944350D01*
X12308158Y-23944350D02*
X12289110Y-23953874D01*
X12289110Y-23953874D02*
X12279587Y-23963398D01*
X12489110Y-24077684D02*
X12470063Y-24068160D01*
X12470063Y-24068160D02*
X12460539Y-24058636D01*
X12460539Y-24058636D02*
X12451015Y-24039588D01*
X12451015Y-24039588D02*
X12451015Y-23982446D01*
X12451015Y-23982446D02*
X12460539Y-23963398D01*
X12460539Y-23963398D02*
X12470063Y-23953874D01*
X12470063Y-23953874D02*
X12489110Y-23944350D01*
X12489110Y-23944350D02*
X12517682Y-23944350D01*
X12517682Y-23944350D02*
X12536730Y-23953874D01*
X12536730Y-23953874D02*
X12546253Y-23963398D01*
X12546253Y-23963398D02*
X12555777Y-23982446D01*
X12555777Y-23982446D02*
X12555777Y-24039588D01*
X12555777Y-24039588D02*
X12546253Y-24058636D01*
X12546253Y-24058636D02*
X12536730Y-24068160D01*
X12536730Y-24068160D02*
X12517682Y-24077684D01*
X12517682Y-24077684D02*
X12489110Y-24077684D01*
X12670063Y-24077684D02*
X12651015Y-24068160D01*
X12651015Y-24068160D02*
X12641491Y-24049112D01*
X12641491Y-24049112D02*
X12641491Y-23877684D01*
X12822444Y-24068160D02*
X12803396Y-24077684D01*
X12803396Y-24077684D02*
X12765301Y-24077684D01*
X12765301Y-24077684D02*
X12746253Y-24068160D01*
X12746253Y-24068160D02*
X12736730Y-24049112D01*
X12736730Y-24049112D02*
X12736730Y-23972922D01*
X12736730Y-23972922D02*
X12746253Y-23953874D01*
X12746253Y-23953874D02*
X12765301Y-23944350D01*
X12765301Y-23944350D02*
X12803396Y-23944350D01*
X12803396Y-23944350D02*
X12822444Y-23953874D01*
X12822444Y-23953874D02*
X12831968Y-23972922D01*
X12831968Y-23972922D02*
X12831968Y-23991969D01*
X12831968Y-23991969D02*
X12736730Y-24011017D01*
X12908158Y-24068160D02*
X12927206Y-24077684D01*
X12927206Y-24077684D02*
X12965301Y-24077684D01*
X12965301Y-24077684D02*
X12984349Y-24068160D01*
X12984349Y-24068160D02*
X12993872Y-24049112D01*
X12993872Y-24049112D02*
X12993872Y-24039588D01*
X12993872Y-24039588D02*
X12984349Y-24020541D01*
X12984349Y-24020541D02*
X12965301Y-24011017D01*
X12965301Y-24011017D02*
X12936730Y-24011017D01*
X12936730Y-24011017D02*
X12917682Y-24001493D01*
X12917682Y-24001493D02*
X12908158Y-23982446D01*
X12908158Y-23982446D02*
X12908158Y-23972922D01*
X12908158Y-23972922D02*
X12917682Y-23953874D01*
X12917682Y-23953874D02*
X12936730Y-23944350D01*
X12936730Y-23944350D02*
X12965301Y-23944350D01*
X12965301Y-23944350D02*
X12984349Y-23953874D01*
X13060539Y-24153874D02*
X13070063Y-24144350D01*
X13070063Y-24144350D02*
X13089111Y-24115779D01*
X13089111Y-24115779D02*
X13098634Y-24096731D01*
X13098634Y-24096731D02*
X13108158Y-24068160D01*
X13108158Y-24068160D02*
X13117682Y-24020541D01*
X13117682Y-24020541D02*
X13117682Y-23982446D01*
X13117682Y-23982446D02*
X13108158Y-23934827D01*
X13108158Y-23934827D02*
X13098634Y-23906255D01*
X13098634Y-23906255D02*
X13089111Y-23887208D01*
X13089111Y-23887208D02*
X13070063Y-23858636D01*
X13070063Y-23858636D02*
X13060539Y-23849112D01*
X13422444Y-24153874D02*
X13412920Y-24144350D01*
X13412920Y-24144350D02*
X13393872Y-24115779D01*
X13393872Y-24115779D02*
X13384349Y-24096731D01*
X13384349Y-24096731D02*
X13374825Y-24068160D01*
X13374825Y-24068160D02*
X13365301Y-24020541D01*
X13365301Y-24020541D02*
X13365301Y-23982446D01*
X13365301Y-23982446D02*
X13374825Y-23934827D01*
X13374825Y-23934827D02*
X13384349Y-23906255D01*
X13384349Y-23906255D02*
X13393872Y-23887208D01*
X13393872Y-23887208D02*
X13412920Y-23858636D01*
X13412920Y-23858636D02*
X13422444Y-23849112D01*
X13498634Y-23944350D02*
X13498634Y-24077684D01*
X13498634Y-23963398D02*
X13508158Y-23953874D01*
X13508158Y-23953874D02*
X13527206Y-23944350D01*
X13527206Y-23944350D02*
X13555777Y-23944350D01*
X13555777Y-23944350D02*
X13574825Y-23953874D01*
X13574825Y-23953874D02*
X13584349Y-23972922D01*
X13584349Y-23972922D02*
X13584349Y-24077684D01*
X13708158Y-24077684D02*
X13689111Y-24068160D01*
X13689111Y-24068160D02*
X13679587Y-24058636D01*
X13679587Y-24058636D02*
X13670063Y-24039588D01*
X13670063Y-24039588D02*
X13670063Y-23982446D01*
X13670063Y-23982446D02*
X13679587Y-23963398D01*
X13679587Y-23963398D02*
X13689111Y-23953874D01*
X13689111Y-23953874D02*
X13708158Y-23944350D01*
X13708158Y-23944350D02*
X13736730Y-23944350D01*
X13736730Y-23944350D02*
X13755777Y-23953874D01*
X13755777Y-23953874D02*
X13765301Y-23963398D01*
X13765301Y-23963398D02*
X13774825Y-23982446D01*
X13774825Y-23982446D02*
X13774825Y-24039588D01*
X13774825Y-24039588D02*
X13765301Y-24058636D01*
X13765301Y-24058636D02*
X13755777Y-24068160D01*
X13755777Y-24068160D02*
X13736730Y-24077684D01*
X13736730Y-24077684D02*
X13708158Y-24077684D01*
X13831968Y-23944350D02*
X13908158Y-23944350D01*
X13860539Y-23877684D02*
X13860539Y-24049112D01*
X13860539Y-24049112D02*
X13870063Y-24068160D01*
X13870063Y-24068160D02*
X13889111Y-24077684D01*
X13889111Y-24077684D02*
X13908158Y-24077684D01*
X14127206Y-23944350D02*
X14127206Y-24144350D01*
X14127206Y-23953874D02*
X14146253Y-23944350D01*
X14146253Y-23944350D02*
X14184349Y-23944350D01*
X14184349Y-23944350D02*
X14203396Y-23953874D01*
X14203396Y-23953874D02*
X14212920Y-23963398D01*
X14212920Y-23963398D02*
X14222444Y-23982446D01*
X14222444Y-23982446D02*
X14222444Y-24039588D01*
X14222444Y-24039588D02*
X14212920Y-24058636D01*
X14212920Y-24058636D02*
X14203396Y-24068160D01*
X14203396Y-24068160D02*
X14184349Y-24077684D01*
X14184349Y-24077684D02*
X14146253Y-24077684D01*
X14146253Y-24077684D02*
X14127206Y-24068160D01*
X14336730Y-24077684D02*
X14317682Y-24068160D01*
X14317682Y-24068160D02*
X14308158Y-24049112D01*
X14308158Y-24049112D02*
X14308158Y-23877684D01*
X14498634Y-24077684D02*
X14498634Y-23972922D01*
X14498634Y-23972922D02*
X14489111Y-23953874D01*
X14489111Y-23953874D02*
X14470063Y-23944350D01*
X14470063Y-23944350D02*
X14431968Y-23944350D01*
X14431968Y-23944350D02*
X14412920Y-23953874D01*
X14498634Y-24068160D02*
X14479587Y-24077684D01*
X14479587Y-24077684D02*
X14431968Y-24077684D01*
X14431968Y-24077684D02*
X14412920Y-24068160D01*
X14412920Y-24068160D02*
X14403396Y-24049112D01*
X14403396Y-24049112D02*
X14403396Y-24030065D01*
X14403396Y-24030065D02*
X14412920Y-24011017D01*
X14412920Y-24011017D02*
X14431968Y-24001493D01*
X14431968Y-24001493D02*
X14479587Y-24001493D01*
X14479587Y-24001493D02*
X14498634Y-23991969D01*
X14565301Y-23944350D02*
X14641492Y-23944350D01*
X14593873Y-23877684D02*
X14593873Y-24049112D01*
X14593873Y-24049112D02*
X14603396Y-24068160D01*
X14603396Y-24068160D02*
X14622444Y-24077684D01*
X14622444Y-24077684D02*
X14641492Y-24077684D01*
X14784349Y-24068160D02*
X14765301Y-24077684D01*
X14765301Y-24077684D02*
X14727206Y-24077684D01*
X14727206Y-24077684D02*
X14708158Y-24068160D01*
X14708158Y-24068160D02*
X14698634Y-24049112D01*
X14698634Y-24049112D02*
X14698634Y-23972922D01*
X14698634Y-23972922D02*
X14708158Y-23953874D01*
X14708158Y-23953874D02*
X14727206Y-23944350D01*
X14727206Y-23944350D02*
X14765301Y-23944350D01*
X14765301Y-23944350D02*
X14784349Y-23953874D01*
X14784349Y-23953874D02*
X14793873Y-23972922D01*
X14793873Y-23972922D02*
X14793873Y-23991969D01*
X14793873Y-23991969D02*
X14698634Y-24011017D01*
X14965301Y-24077684D02*
X14965301Y-23877684D01*
X14965301Y-24068160D02*
X14946254Y-24077684D01*
X14946254Y-24077684D02*
X14908158Y-24077684D01*
X14908158Y-24077684D02*
X14889111Y-24068160D01*
X14889111Y-24068160D02*
X14879587Y-24058636D01*
X14879587Y-24058636D02*
X14870063Y-24039588D01*
X14870063Y-24039588D02*
X14870063Y-23982446D01*
X14870063Y-23982446D02*
X14879587Y-23963398D01*
X14879587Y-23963398D02*
X14889111Y-23953874D01*
X14889111Y-23953874D02*
X14908158Y-23944350D01*
X14908158Y-23944350D02*
X14946254Y-23944350D01*
X14946254Y-23944350D02*
X14965301Y-23953874D01*
X15041492Y-24153874D02*
X15051015Y-24144350D01*
X15051015Y-24144350D02*
X15070063Y-24115779D01*
X15070063Y-24115779D02*
X15079587Y-24096731D01*
X15079587Y-24096731D02*
X15089111Y-24068160D01*
X15089111Y-24068160D02*
X15098634Y-24020541D01*
X15098634Y-24020541D02*
X15098634Y-23982446D01*
X15098634Y-23982446D02*
X15089111Y-23934827D01*
X15089111Y-23934827D02*
X15079587Y-23906255D01*
X15079587Y-23906255D02*
X15070063Y-23887208D01*
X15070063Y-23887208D02*
X15051015Y-23858636D01*
X15051015Y-23858636D02*
X15041492Y-23849112D01*
D14*
X8031500Y-24186700D02*
X8031500Y-24313700D01*
X7968000Y-24250200D02*
X8095000Y-24250200D01*
D10*
X8460539Y-24341684D02*
X8346253Y-24341684D01*
X8403396Y-24341684D02*
X8403396Y-24141684D01*
X8403396Y-24141684D02*
X8384348Y-24170255D01*
X8384348Y-24170255D02*
X8365301Y-24189303D01*
X8365301Y-24189303D02*
X8346253Y-24198827D01*
X8546253Y-24322636D02*
X8555777Y-24332160D01*
X8555777Y-24332160D02*
X8546253Y-24341684D01*
X8546253Y-24341684D02*
X8536729Y-24332160D01*
X8536729Y-24332160D02*
X8546253Y-24322636D01*
X8546253Y-24322636D02*
X8546253Y-24341684D01*
X8631967Y-24160731D02*
X8641491Y-24151208D01*
X8641491Y-24151208D02*
X8660539Y-24141684D01*
X8660539Y-24141684D02*
X8708158Y-24141684D01*
X8708158Y-24141684D02*
X8727205Y-24151208D01*
X8727205Y-24151208D02*
X8736729Y-24160731D01*
X8736729Y-24160731D02*
X8746253Y-24179779D01*
X8746253Y-24179779D02*
X8746253Y-24198827D01*
X8746253Y-24198827D02*
X8736729Y-24227398D01*
X8736729Y-24227398D02*
X8622444Y-24341684D01*
X8622444Y-24341684D02*
X8746253Y-24341684D01*
X8812920Y-24141684D02*
X8946253Y-24141684D01*
X8946253Y-24141684D02*
X8860539Y-24341684D01*
X9060539Y-24141684D02*
X9079586Y-24141684D01*
X9079586Y-24141684D02*
X9098634Y-24151208D01*
X9098634Y-24151208D02*
X9108158Y-24160731D01*
X9108158Y-24160731D02*
X9117682Y-24179779D01*
X9117682Y-24179779D02*
X9127205Y-24217874D01*
X9127205Y-24217874D02*
X9127205Y-24265493D01*
X9127205Y-24265493D02*
X9117682Y-24303588D01*
X9117682Y-24303588D02*
X9108158Y-24322636D01*
X9108158Y-24322636D02*
X9098634Y-24332160D01*
X9098634Y-24332160D02*
X9079586Y-24341684D01*
X9079586Y-24341684D02*
X9060539Y-24341684D01*
X9060539Y-24341684D02*
X9041491Y-24332160D01*
X9041491Y-24332160D02*
X9031967Y-24322636D01*
X9031967Y-24322636D02*
X9022444Y-24303588D01*
X9022444Y-24303588D02*
X9012920Y-24265493D01*
X9012920Y-24265493D02*
X9012920Y-24217874D01*
X9012920Y-24217874D02*
X9022444Y-24179779D01*
X9022444Y-24179779D02*
X9031967Y-24160731D01*
X9031967Y-24160731D02*
X9041491Y-24151208D01*
X9041491Y-24151208D02*
X9060539Y-24141684D01*
X9212920Y-24341684D02*
X9212920Y-24208350D01*
X9212920Y-24227398D02*
X9222444Y-24217874D01*
X9222444Y-24217874D02*
X9241491Y-24208350D01*
X9241491Y-24208350D02*
X9270063Y-24208350D01*
X9270063Y-24208350D02*
X9289110Y-24217874D01*
X9289110Y-24217874D02*
X9298634Y-24236922D01*
X9298634Y-24236922D02*
X9298634Y-24341684D01*
X9298634Y-24236922D02*
X9308158Y-24217874D01*
X9308158Y-24217874D02*
X9327205Y-24208350D01*
X9327205Y-24208350D02*
X9355777Y-24208350D01*
X9355777Y-24208350D02*
X9374825Y-24217874D01*
X9374825Y-24217874D02*
X9384348Y-24236922D01*
X9384348Y-24236922D02*
X9384348Y-24341684D01*
X9479586Y-24341684D02*
X9479586Y-24208350D01*
X9479586Y-24227398D02*
X9489110Y-24217874D01*
X9489110Y-24217874D02*
X9508158Y-24208350D01*
X9508158Y-24208350D02*
X9536729Y-24208350D01*
X9536729Y-24208350D02*
X9555777Y-24217874D01*
X9555777Y-24217874D02*
X9565301Y-24236922D01*
X9565301Y-24236922D02*
X9565301Y-24341684D01*
X9565301Y-24236922D02*
X9574825Y-24217874D01*
X9574825Y-24217874D02*
X9593872Y-24208350D01*
X9593872Y-24208350D02*
X9622444Y-24208350D01*
X9622444Y-24208350D02*
X9641491Y-24217874D01*
X9641491Y-24217874D02*
X9651015Y-24236922D01*
X9651015Y-24236922D02*
X9651015Y-24341684D01*
X10041491Y-24132160D02*
X9870063Y-24389303D01*
X10298634Y-24141684D02*
X10317682Y-24141684D01*
X10317682Y-24141684D02*
X10336729Y-24151208D01*
X10336729Y-24151208D02*
X10346253Y-24160731D01*
X10346253Y-24160731D02*
X10355777Y-24179779D01*
X10355777Y-24179779D02*
X10365301Y-24217874D01*
X10365301Y-24217874D02*
X10365301Y-24265493D01*
X10365301Y-24265493D02*
X10355777Y-24303588D01*
X10355777Y-24303588D02*
X10346253Y-24322636D01*
X10346253Y-24322636D02*
X10336729Y-24332160D01*
X10336729Y-24332160D02*
X10317682Y-24341684D01*
X10317682Y-24341684D02*
X10298634Y-24341684D01*
X10298634Y-24341684D02*
X10279587Y-24332160D01*
X10279587Y-24332160D02*
X10270063Y-24322636D01*
X10270063Y-24322636D02*
X10260539Y-24303588D01*
X10260539Y-24303588D02*
X10251015Y-24265493D01*
X10251015Y-24265493D02*
X10251015Y-24217874D01*
X10251015Y-24217874D02*
X10260539Y-24179779D01*
X10260539Y-24179779D02*
X10270063Y-24160731D01*
X10270063Y-24160731D02*
X10279587Y-24151208D01*
X10279587Y-24151208D02*
X10298634Y-24141684D01*
X10451015Y-24322636D02*
X10460539Y-24332160D01*
X10460539Y-24332160D02*
X10451015Y-24341684D01*
X10451015Y-24341684D02*
X10441491Y-24332160D01*
X10441491Y-24332160D02*
X10451015Y-24322636D01*
X10451015Y-24322636D02*
X10451015Y-24341684D01*
X10584348Y-24141684D02*
X10603396Y-24141684D01*
X10603396Y-24141684D02*
X10622444Y-24151208D01*
X10622444Y-24151208D02*
X10631968Y-24160731D01*
X10631968Y-24160731D02*
X10641491Y-24179779D01*
X10641491Y-24179779D02*
X10651015Y-24217874D01*
X10651015Y-24217874D02*
X10651015Y-24265493D01*
X10651015Y-24265493D02*
X10641491Y-24303588D01*
X10641491Y-24303588D02*
X10631968Y-24322636D01*
X10631968Y-24322636D02*
X10622444Y-24332160D01*
X10622444Y-24332160D02*
X10603396Y-24341684D01*
X10603396Y-24341684D02*
X10584348Y-24341684D01*
X10584348Y-24341684D02*
X10565301Y-24332160D01*
X10565301Y-24332160D02*
X10555777Y-24322636D01*
X10555777Y-24322636D02*
X10546253Y-24303588D01*
X10546253Y-24303588D02*
X10536729Y-24265493D01*
X10536729Y-24265493D02*
X10536729Y-24217874D01*
X10536729Y-24217874D02*
X10546253Y-24179779D01*
X10546253Y-24179779D02*
X10555777Y-24160731D01*
X10555777Y-24160731D02*
X10565301Y-24151208D01*
X10565301Y-24151208D02*
X10584348Y-24141684D01*
X10831968Y-24141684D02*
X10736729Y-24141684D01*
X10736729Y-24141684D02*
X10727206Y-24236922D01*
X10727206Y-24236922D02*
X10736729Y-24227398D01*
X10736729Y-24227398D02*
X10755777Y-24217874D01*
X10755777Y-24217874D02*
X10803396Y-24217874D01*
X10803396Y-24217874D02*
X10822444Y-24227398D01*
X10822444Y-24227398D02*
X10831968Y-24236922D01*
X10831968Y-24236922D02*
X10841491Y-24255969D01*
X10841491Y-24255969D02*
X10841491Y-24303588D01*
X10841491Y-24303588D02*
X10831968Y-24322636D01*
X10831968Y-24322636D02*
X10822444Y-24332160D01*
X10822444Y-24332160D02*
X10803396Y-24341684D01*
X10803396Y-24341684D02*
X10755777Y-24341684D01*
X10755777Y-24341684D02*
X10736729Y-24332160D01*
X10736729Y-24332160D02*
X10727206Y-24322636D01*
X10965301Y-24141684D02*
X10984349Y-24141684D01*
X10984349Y-24141684D02*
X11003396Y-24151208D01*
X11003396Y-24151208D02*
X11012920Y-24160731D01*
X11012920Y-24160731D02*
X11022444Y-24179779D01*
X11022444Y-24179779D02*
X11031968Y-24217874D01*
X11031968Y-24217874D02*
X11031968Y-24265493D01*
X11031968Y-24265493D02*
X11022444Y-24303588D01*
X11022444Y-24303588D02*
X11012920Y-24322636D01*
X11012920Y-24322636D02*
X11003396Y-24332160D01*
X11003396Y-24332160D02*
X10984349Y-24341684D01*
X10984349Y-24341684D02*
X10965301Y-24341684D01*
X10965301Y-24341684D02*
X10946253Y-24332160D01*
X10946253Y-24332160D02*
X10936729Y-24322636D01*
X10936729Y-24322636D02*
X10927206Y-24303588D01*
X10927206Y-24303588D02*
X10917682Y-24265493D01*
X10917682Y-24265493D02*
X10917682Y-24217874D01*
X10917682Y-24217874D02*
X10927206Y-24179779D01*
X10927206Y-24179779D02*
X10936729Y-24160731D01*
X10936729Y-24160731D02*
X10946253Y-24151208D01*
X10946253Y-24151208D02*
X10965301Y-24141684D01*
X11155777Y-24141684D02*
X11174825Y-24141684D01*
X11174825Y-24141684D02*
X11193872Y-24151208D01*
X11193872Y-24151208D02*
X11203396Y-24160731D01*
X11203396Y-24160731D02*
X11212920Y-24179779D01*
X11212920Y-24179779D02*
X11222444Y-24217874D01*
X11222444Y-24217874D02*
X11222444Y-24265493D01*
X11222444Y-24265493D02*
X11212920Y-24303588D01*
X11212920Y-24303588D02*
X11203396Y-24322636D01*
X11203396Y-24322636D02*
X11193872Y-24332160D01*
X11193872Y-24332160D02*
X11174825Y-24341684D01*
X11174825Y-24341684D02*
X11155777Y-24341684D01*
X11155777Y-24341684D02*
X11136729Y-24332160D01*
X11136729Y-24332160D02*
X11127206Y-24322636D01*
X11127206Y-24322636D02*
X11117682Y-24303588D01*
X11117682Y-24303588D02*
X11108158Y-24265493D01*
X11108158Y-24265493D02*
X11108158Y-24217874D01*
X11108158Y-24217874D02*
X11117682Y-24179779D01*
X11117682Y-24179779D02*
X11127206Y-24160731D01*
X11127206Y-24160731D02*
X11136729Y-24151208D01*
X11136729Y-24151208D02*
X11155777Y-24141684D01*
X11298634Y-24141684D02*
X11298634Y-24179779D01*
X11374825Y-24141684D02*
X11374825Y-24179779D01*
X11670063Y-24417874D02*
X11660539Y-24408350D01*
X11660539Y-24408350D02*
X11641491Y-24379779D01*
X11641491Y-24379779D02*
X11631968Y-24360731D01*
X11631968Y-24360731D02*
X11622444Y-24332160D01*
X11622444Y-24332160D02*
X11612920Y-24284541D01*
X11612920Y-24284541D02*
X11612920Y-24246446D01*
X11612920Y-24246446D02*
X11622444Y-24198827D01*
X11622444Y-24198827D02*
X11631968Y-24170255D01*
X11631968Y-24170255D02*
X11641491Y-24151208D01*
X11641491Y-24151208D02*
X11660539Y-24122636D01*
X11660539Y-24122636D02*
X11670063Y-24113112D01*
X11736729Y-24160731D02*
X11746253Y-24151208D01*
X11746253Y-24151208D02*
X11765301Y-24141684D01*
X11765301Y-24141684D02*
X11812920Y-24141684D01*
X11812920Y-24141684D02*
X11831968Y-24151208D01*
X11831968Y-24151208D02*
X11841491Y-24160731D01*
X11841491Y-24160731D02*
X11851015Y-24179779D01*
X11851015Y-24179779D02*
X11851015Y-24198827D01*
X11851015Y-24198827D02*
X11841491Y-24227398D01*
X11841491Y-24227398D02*
X11727206Y-24341684D01*
X11727206Y-24341684D02*
X11851015Y-24341684D01*
X12089110Y-24341684D02*
X12089110Y-24141684D01*
X12174825Y-24341684D02*
X12174825Y-24236922D01*
X12174825Y-24236922D02*
X12165301Y-24217874D01*
X12165301Y-24217874D02*
X12146253Y-24208350D01*
X12146253Y-24208350D02*
X12117682Y-24208350D01*
X12117682Y-24208350D02*
X12098634Y-24217874D01*
X12098634Y-24217874D02*
X12089110Y-24227398D01*
X12298634Y-24341684D02*
X12279587Y-24332160D01*
X12279587Y-24332160D02*
X12270063Y-24322636D01*
X12270063Y-24322636D02*
X12260539Y-24303588D01*
X12260539Y-24303588D02*
X12260539Y-24246446D01*
X12260539Y-24246446D02*
X12270063Y-24227398D01*
X12270063Y-24227398D02*
X12279587Y-24217874D01*
X12279587Y-24217874D02*
X12298634Y-24208350D01*
X12298634Y-24208350D02*
X12327206Y-24208350D01*
X12327206Y-24208350D02*
X12346253Y-24217874D01*
X12346253Y-24217874D02*
X12355777Y-24227398D01*
X12355777Y-24227398D02*
X12365301Y-24246446D01*
X12365301Y-24246446D02*
X12365301Y-24303588D01*
X12365301Y-24303588D02*
X12355777Y-24322636D01*
X12355777Y-24322636D02*
X12346253Y-24332160D01*
X12346253Y-24332160D02*
X12327206Y-24341684D01*
X12327206Y-24341684D02*
X12298634Y-24341684D01*
X12479587Y-24341684D02*
X12460539Y-24332160D01*
X12460539Y-24332160D02*
X12451015Y-24313112D01*
X12451015Y-24313112D02*
X12451015Y-24141684D01*
X12631968Y-24332160D02*
X12612920Y-24341684D01*
X12612920Y-24341684D02*
X12574825Y-24341684D01*
X12574825Y-24341684D02*
X12555777Y-24332160D01*
X12555777Y-24332160D02*
X12546253Y-24313112D01*
X12546253Y-24313112D02*
X12546253Y-24236922D01*
X12546253Y-24236922D02*
X12555777Y-24217874D01*
X12555777Y-24217874D02*
X12574825Y-24208350D01*
X12574825Y-24208350D02*
X12612920Y-24208350D01*
X12612920Y-24208350D02*
X12631968Y-24217874D01*
X12631968Y-24217874D02*
X12641491Y-24236922D01*
X12641491Y-24236922D02*
X12641491Y-24255969D01*
X12641491Y-24255969D02*
X12546253Y-24275017D01*
X12717682Y-24332160D02*
X12736730Y-24341684D01*
X12736730Y-24341684D02*
X12774825Y-24341684D01*
X12774825Y-24341684D02*
X12793872Y-24332160D01*
X12793872Y-24332160D02*
X12803396Y-24313112D01*
X12803396Y-24313112D02*
X12803396Y-24303588D01*
X12803396Y-24303588D02*
X12793872Y-24284541D01*
X12793872Y-24284541D02*
X12774825Y-24275017D01*
X12774825Y-24275017D02*
X12746253Y-24275017D01*
X12746253Y-24275017D02*
X12727206Y-24265493D01*
X12727206Y-24265493D02*
X12717682Y-24246446D01*
X12717682Y-24246446D02*
X12717682Y-24236922D01*
X12717682Y-24236922D02*
X12727206Y-24217874D01*
X12727206Y-24217874D02*
X12746253Y-24208350D01*
X12746253Y-24208350D02*
X12774825Y-24208350D01*
X12774825Y-24208350D02*
X12793872Y-24217874D01*
X12870063Y-24417874D02*
X12879587Y-24408350D01*
X12879587Y-24408350D02*
X12898634Y-24379779D01*
X12898634Y-24379779D02*
X12908158Y-24360731D01*
X12908158Y-24360731D02*
X12917682Y-24332160D01*
X12917682Y-24332160D02*
X12927206Y-24284541D01*
X12927206Y-24284541D02*
X12927206Y-24246446D01*
X12927206Y-24246446D02*
X12917682Y-24198827D01*
X12917682Y-24198827D02*
X12908158Y-24170255D01*
X12908158Y-24170255D02*
X12898634Y-24151208D01*
X12898634Y-24151208D02*
X12879587Y-24122636D01*
X12879587Y-24122636D02*
X12870063Y-24113112D01*
X13231968Y-24417874D02*
X13222444Y-24408350D01*
X13222444Y-24408350D02*
X13203396Y-24379779D01*
X13203396Y-24379779D02*
X13193872Y-24360731D01*
X13193872Y-24360731D02*
X13184349Y-24332160D01*
X13184349Y-24332160D02*
X13174825Y-24284541D01*
X13174825Y-24284541D02*
X13174825Y-24246446D01*
X13174825Y-24246446D02*
X13184349Y-24198827D01*
X13184349Y-24198827D02*
X13193872Y-24170255D01*
X13193872Y-24170255D02*
X13203396Y-24151208D01*
X13203396Y-24151208D02*
X13222444Y-24122636D01*
X13222444Y-24122636D02*
X13231968Y-24113112D01*
X13308158Y-24208350D02*
X13308158Y-24341684D01*
X13308158Y-24227398D02*
X13317682Y-24217874D01*
X13317682Y-24217874D02*
X13336730Y-24208350D01*
X13336730Y-24208350D02*
X13365301Y-24208350D01*
X13365301Y-24208350D02*
X13384349Y-24217874D01*
X13384349Y-24217874D02*
X13393872Y-24236922D01*
X13393872Y-24236922D02*
X13393872Y-24341684D01*
X13517682Y-24341684D02*
X13498634Y-24332160D01*
X13498634Y-24332160D02*
X13489111Y-24322636D01*
X13489111Y-24322636D02*
X13479587Y-24303588D01*
X13479587Y-24303588D02*
X13479587Y-24246446D01*
X13479587Y-24246446D02*
X13489111Y-24227398D01*
X13489111Y-24227398D02*
X13498634Y-24217874D01*
X13498634Y-24217874D02*
X13517682Y-24208350D01*
X13517682Y-24208350D02*
X13546253Y-24208350D01*
X13546253Y-24208350D02*
X13565301Y-24217874D01*
X13565301Y-24217874D02*
X13574825Y-24227398D01*
X13574825Y-24227398D02*
X13584349Y-24246446D01*
X13584349Y-24246446D02*
X13584349Y-24303588D01*
X13584349Y-24303588D02*
X13574825Y-24322636D01*
X13574825Y-24322636D02*
X13565301Y-24332160D01*
X13565301Y-24332160D02*
X13546253Y-24341684D01*
X13546253Y-24341684D02*
X13517682Y-24341684D01*
X13641492Y-24208350D02*
X13717682Y-24208350D01*
X13670063Y-24141684D02*
X13670063Y-24313112D01*
X13670063Y-24313112D02*
X13679587Y-24332160D01*
X13679587Y-24332160D02*
X13698634Y-24341684D01*
X13698634Y-24341684D02*
X13717682Y-24341684D01*
X13936730Y-24208350D02*
X13936730Y-24408350D01*
X13936730Y-24217874D02*
X13955777Y-24208350D01*
X13955777Y-24208350D02*
X13993873Y-24208350D01*
X13993873Y-24208350D02*
X14012920Y-24217874D01*
X14012920Y-24217874D02*
X14022444Y-24227398D01*
X14022444Y-24227398D02*
X14031968Y-24246446D01*
X14031968Y-24246446D02*
X14031968Y-24303588D01*
X14031968Y-24303588D02*
X14022444Y-24322636D01*
X14022444Y-24322636D02*
X14012920Y-24332160D01*
X14012920Y-24332160D02*
X13993873Y-24341684D01*
X13993873Y-24341684D02*
X13955777Y-24341684D01*
X13955777Y-24341684D02*
X13936730Y-24332160D01*
X14146253Y-24341684D02*
X14127206Y-24332160D01*
X14127206Y-24332160D02*
X14117682Y-24313112D01*
X14117682Y-24313112D02*
X14117682Y-24141684D01*
X14308158Y-24341684D02*
X14308158Y-24236922D01*
X14308158Y-24236922D02*
X14298634Y-24217874D01*
X14298634Y-24217874D02*
X14279587Y-24208350D01*
X14279587Y-24208350D02*
X14241492Y-24208350D01*
X14241492Y-24208350D02*
X14222444Y-24217874D01*
X14308158Y-24332160D02*
X14289111Y-24341684D01*
X14289111Y-24341684D02*
X14241492Y-24341684D01*
X14241492Y-24341684D02*
X14222444Y-24332160D01*
X14222444Y-24332160D02*
X14212920Y-24313112D01*
X14212920Y-24313112D02*
X14212920Y-24294065D01*
X14212920Y-24294065D02*
X14222444Y-24275017D01*
X14222444Y-24275017D02*
X14241492Y-24265493D01*
X14241492Y-24265493D02*
X14289111Y-24265493D01*
X14289111Y-24265493D02*
X14308158Y-24255969D01*
X14374825Y-24208350D02*
X14451015Y-24208350D01*
X14403396Y-24141684D02*
X14403396Y-24313112D01*
X14403396Y-24313112D02*
X14412920Y-24332160D01*
X14412920Y-24332160D02*
X14431968Y-24341684D01*
X14431968Y-24341684D02*
X14451015Y-24341684D01*
X14593873Y-24332160D02*
X14574825Y-24341684D01*
X14574825Y-24341684D02*
X14536730Y-24341684D01*
X14536730Y-24341684D02*
X14517682Y-24332160D01*
X14517682Y-24332160D02*
X14508158Y-24313112D01*
X14508158Y-24313112D02*
X14508158Y-24236922D01*
X14508158Y-24236922D02*
X14517682Y-24217874D01*
X14517682Y-24217874D02*
X14536730Y-24208350D01*
X14536730Y-24208350D02*
X14574825Y-24208350D01*
X14574825Y-24208350D02*
X14593873Y-24217874D01*
X14593873Y-24217874D02*
X14603396Y-24236922D01*
X14603396Y-24236922D02*
X14603396Y-24255969D01*
X14603396Y-24255969D02*
X14508158Y-24275017D01*
X14774825Y-24341684D02*
X14774825Y-24141684D01*
X14774825Y-24332160D02*
X14755777Y-24341684D01*
X14755777Y-24341684D02*
X14717682Y-24341684D01*
X14717682Y-24341684D02*
X14698634Y-24332160D01*
X14698634Y-24332160D02*
X14689111Y-24322636D01*
X14689111Y-24322636D02*
X14679587Y-24303588D01*
X14679587Y-24303588D02*
X14679587Y-24246446D01*
X14679587Y-24246446D02*
X14689111Y-24227398D01*
X14689111Y-24227398D02*
X14698634Y-24217874D01*
X14698634Y-24217874D02*
X14717682Y-24208350D01*
X14717682Y-24208350D02*
X14755777Y-24208350D01*
X14755777Y-24208350D02*
X14774825Y-24217874D01*
X14851015Y-24417874D02*
X14860539Y-24408350D01*
X14860539Y-24408350D02*
X14879587Y-24379779D01*
X14879587Y-24379779D02*
X14889111Y-24360731D01*
X14889111Y-24360731D02*
X14898634Y-24332160D01*
X14898634Y-24332160D02*
X14908158Y-24284541D01*
X14908158Y-24284541D02*
X14908158Y-24246446D01*
X14908158Y-24246446D02*
X14898634Y-24198827D01*
X14898634Y-24198827D02*
X14889111Y-24170255D01*
X14889111Y-24170255D02*
X14879587Y-24151208D01*
X14879587Y-24151208D02*
X14860539Y-24122636D01*
X14860539Y-24122636D02*
X14851015Y-24113112D01*
M02*
