%TF.GenerationSoftware,KiCad,Pcbnew,7.0.8*%
%TF.CreationDate,2024-01-22T14:24:46+01:00*%
%TF.ProjectId,BMS-Master,424d532d-4d61-4737-9465-722e6b696361,rev?*%
%TF.SameCoordinates,Original*%
%TF.FileFunction,Soldermask,Bot*%
%TF.FilePolarity,Negative*%
%FSLAX46Y46*%
G04 Gerber Fmt 4.6, Leading zero omitted, Abs format (unit mm)*
G04 Created by KiCad (PCBNEW 7.0.8) date 2024-01-22 14:24:46*
%MOMM*%
%LPD*%
G01*
G04 APERTURE LIST*
%ADD10C,0.711200*%
%ADD11C,0.836200*%
%ADD12C,0.010000*%
%ADD13R,1.700000X1.700000*%
%ADD14O,1.700000X1.700000*%
%ADD15C,1.020000*%
%ADD16R,1.520000X1.520000*%
%ADD17C,1.520000*%
%ADD18C,2.000000*%
%ADD19C,1.270000*%
%ADD20R,2.500000X1.500000*%
%ADD21O,2.500000X1.500000*%
%ADD22R,1.350000X1.350000*%
%ADD23O,1.350000X1.350000*%
%ADD24C,0.252400*%
%ADD25O,0.252400X0.252400*%
%ADD26C,1.252400*%
%ADD27C,4.800000*%
%ADD28C,1.500000*%
G04 APERTURE END LIST*
D10*
%TO.C,J11*%
X86547350Y-121743000D02*
G75*
G03*
X86547350Y-121743000I-355600J0D01*
G01*
D11*
X88569850Y-124743000D02*
G75*
G03*
X88569850Y-124743000I-418100J0D01*
G01*
X88569850Y-127743000D02*
G75*
G03*
X88569850Y-127743000I-418100J0D01*
G01*
D10*
X86547350Y-133743000D02*
G75*
G03*
X86547350Y-133743000I-355600J0D01*
G01*
D12*
X88987950Y-131579200D02*
X87315550Y-131579200D01*
X87315550Y-129906800D01*
X88987950Y-129906800D01*
X88987950Y-131579200D01*
G36*
X88987950Y-131579200D02*
G01*
X87315550Y-131579200D01*
X87315550Y-129906800D01*
X88987950Y-129906800D01*
X88987950Y-131579200D01*
G37*
%TD*%
D13*
%TO.C,J5*%
X163000000Y-131040000D03*
D14*
X163000000Y-128500000D03*
%TD*%
D15*
%TO.C,J12*%
X91248500Y-146089000D03*
X85248500Y-146089000D03*
D16*
X88248500Y-142149000D03*
D17*
X88248500Y-145149000D03*
%TD*%
D15*
%TO.C,J16*%
X221250018Y-98250000D03*
X230250000Y-98250000D03*
D16*
X227250001Y-102190000D03*
D17*
X224250002Y-102190000D03*
X227250001Y-99190001D03*
X224250002Y-99190001D03*
%TD*%
D18*
%TO.C,TP3*%
X116180000Y-224657100D03*
%TD*%
%TO.C,TP6*%
X172200000Y-196150000D03*
%TD*%
D19*
%TO.C,J11*%
X86191750Y-121743000D03*
X86191750Y-133743000D03*
%TD*%
D18*
%TO.C,TP13*%
X161050000Y-196150000D03*
%TD*%
%TO.C,TP16*%
X125616750Y-159937000D03*
%TD*%
D15*
%TO.C,J7*%
X169239666Y-223075000D03*
X178239648Y-223075000D03*
D16*
X175239649Y-227015000D03*
D17*
X172239650Y-227015000D03*
X175239649Y-224015001D03*
X172239650Y-224015001D03*
%TD*%
D18*
%TO.C,TP33*%
X134454000Y-105505000D03*
%TD*%
%TO.C,TP23*%
X95625500Y-175299000D03*
%TD*%
D20*
%TO.C,U21*%
X124954000Y-108145000D03*
D21*
X124954000Y-105605000D03*
X124954000Y-103065000D03*
%TD*%
D18*
%TO.C,TP4*%
X249650500Y-225171000D03*
%TD*%
%TO.C,TP12*%
X156450000Y-196150000D03*
%TD*%
%TO.C,TP36*%
X260760000Y-139570000D03*
%TD*%
%TO.C,TP25*%
X244326000Y-116325000D03*
%TD*%
%TO.C,TP5*%
X249650500Y-228750000D03*
%TD*%
%TO.C,TP29*%
X248063000Y-194757000D03*
%TD*%
D22*
%TO.C,J9*%
X136250000Y-208400000D03*
D23*
X138250000Y-208400000D03*
X140250000Y-208400000D03*
%TD*%
D18*
%TO.C,TP7*%
X167650000Y-196150000D03*
%TD*%
%TO.C,TP9*%
X179150000Y-200500000D03*
%TD*%
D24*
%TO.C,P1*%
X105830000Y-226657100D03*
D25*
X113330000Y-226657100D03*
D26*
X107180000Y-224507100D03*
X107180000Y-228807100D03*
X111980000Y-224507100D03*
X111980000Y-228807100D03*
%TD*%
D18*
%TO.C,TP10*%
X150550000Y-196150000D03*
%TD*%
%TO.C,TP35*%
X266510000Y-139570000D03*
%TD*%
%TO.C,TP24*%
X240076000Y-116325000D03*
%TD*%
D15*
%TO.C,J6*%
X150389666Y-223060000D03*
X159389648Y-223060000D03*
D16*
X156389649Y-227000000D03*
D17*
X153389650Y-227000000D03*
X156389649Y-224000001D03*
X153389650Y-224000001D03*
%TD*%
D18*
%TO.C,TP11*%
X149450000Y-200450000D03*
%TD*%
%TO.C,TP34*%
X134454000Y-111105000D03*
%TD*%
%TO.C,TP21*%
X85483325Y-218325326D03*
%TD*%
%TO.C,TP27*%
X248013000Y-189657000D03*
%TD*%
D15*
%TO.C,J19*%
X208500018Y-98250000D03*
X217500000Y-98250000D03*
D16*
X214500001Y-102190000D03*
D17*
X211500002Y-102190000D03*
X214500001Y-99190001D03*
X211500002Y-99190001D03*
%TD*%
D18*
%TO.C,TP17*%
X125616750Y-167811000D03*
%TD*%
D27*
%TO.C,J20*%
X276283000Y-210542000D03*
X276283000Y-185552000D03*
D28*
X274863000Y-192567000D03*
X274863000Y-195307000D03*
X274863000Y-198047000D03*
X274863000Y-200787000D03*
X274863000Y-203527000D03*
X277703000Y-193937000D03*
X277703000Y-196677000D03*
X277703000Y-199417000D03*
X277703000Y-202157000D03*
%TD*%
D18*
%TO.C,TP26*%
X251076000Y-116325000D03*
%TD*%
D22*
%TO.C,J10*%
X136250000Y-196500000D03*
D23*
X138250000Y-196500000D03*
X140250000Y-196500000D03*
%TD*%
D18*
%TO.C,TP22*%
X95625500Y-180760000D03*
%TD*%
D15*
%TO.C,J14*%
X93243659Y-209400326D03*
X84243677Y-209400326D03*
D16*
X87243676Y-205460326D03*
D17*
X90243675Y-205460326D03*
X87243676Y-208460325D03*
X90243675Y-208460325D03*
%TD*%
D27*
%TO.C,J21*%
X275830000Y-141845000D03*
X275830000Y-166835000D03*
D28*
X277250000Y-159820000D03*
X277250000Y-157080000D03*
X277250000Y-154340000D03*
X277250000Y-151600000D03*
X277250000Y-148860000D03*
X274410000Y-158450000D03*
X274410000Y-155710000D03*
X274410000Y-152970000D03*
X274410000Y-150230000D03*
%TD*%
D15*
%TO.C,J17*%
X249920984Y-102325000D03*
X240921002Y-102325000D03*
D16*
X243921001Y-98385000D03*
D17*
X246921000Y-98385000D03*
X243921001Y-101384999D03*
X246921000Y-101384999D03*
%TD*%
D15*
%TO.C,J13*%
X85182000Y-159181000D03*
X91182000Y-159181000D03*
D16*
X88182000Y-163121000D03*
D17*
X88182000Y-160121000D03*
%TD*%
D18*
%TO.C,TP14*%
X111829000Y-150749000D03*
%TD*%
%TO.C,TP31*%
X99500000Y-106975000D03*
%TD*%
D15*
%TO.C,J15*%
X91248500Y-181141000D03*
X85248500Y-181141000D03*
D16*
X88248500Y-177201000D03*
D17*
X88248500Y-180201000D03*
%TD*%
D18*
%TO.C,TP8*%
X177150000Y-196150000D03*
%TD*%
%TO.C,TP20*%
X92483325Y-196325326D03*
%TD*%
%TO.C,TP18*%
X102756750Y-150730000D03*
%TD*%
%TO.C,TP30*%
X247000000Y-155500000D03*
%TD*%
%TO.C,TP28*%
X247000000Y-152000000D03*
%TD*%
D24*
%TO.C,P2*%
X239405500Y-227231000D03*
D25*
X246905500Y-227231000D03*
D26*
X240755500Y-225081000D03*
X240755500Y-229381000D03*
X245555500Y-225081000D03*
X245555500Y-229381000D03*
%TD*%
D22*
%TO.C,J8*%
X136250000Y-202450000D03*
D23*
X138250000Y-202450000D03*
X140250000Y-202450000D03*
%TD*%
D18*
%TO.C,TP2*%
X116180000Y-228607100D03*
%TD*%
%TO.C,TP32*%
X134404000Y-99955000D03*
%TD*%
D13*
%TO.C,J3*%
X281750000Y-219540000D03*
D14*
X281750000Y-217000000D03*
%TD*%
D15*
%TO.C,J18*%
X195733685Y-98241000D03*
X204733667Y-98241000D03*
D16*
X201733668Y-102181000D03*
D17*
X198733669Y-102181000D03*
X201733668Y-99181001D03*
X198733669Y-99181001D03*
%TD*%
D15*
%TO.C,J22*%
X89896750Y-113000000D03*
X83896750Y-113000000D03*
D16*
X86896750Y-109060000D03*
D17*
X86896750Y-112060000D03*
%TD*%
D18*
%TO.C,TP1*%
X190246000Y-173990000D03*
%TD*%
M02*
