%TF.GenerationSoftware,KiCad,Pcbnew,7.0.8*%
%TF.CreationDate,2024-01-22T14:24:57+01:00*%
%TF.ProjectId,BMS-Master,424d532d-4d61-4737-9465-722e6b696361,rev?*%
%TF.SameCoordinates,Original*%
%TF.FileFunction,Drillmap*%
%TF.FilePolarity,Positive*%
%FSLAX45Y45*%
G04 Gerber Fmt 4.5, Leading zero omitted, Abs format (unit mm)*
G04 Created by KiCad (PCBNEW 7.0.8) date 2024-01-22 14:24:57*
%MOMM*%
%LPD*%
G01*
G04 APERTURE LIST*
%ADD10C,0.200000*%
%ADD11C,0.100000*%
%ADD12C,0.040000*%
%ADD13C,0.050000*%
%ADD14C,0.070000*%
%ADD15C,0.080000*%
%ADD16C,0.102000*%
%ADD17C,0.320000*%
G04 APERTURE END LIST*
D10*
X10670000Y-19250000D02*
G75*
G03*
X10670000Y-19250000I-170000J0D01*
G01*
X14420000Y-12500000D02*
G75*
G03*
X14420000Y-12500000I-170000J0D01*
G01*
X24925000Y-17625000D02*
G75*
G03*
X24925000Y-17625000I-170000J0D01*
G01*
X17540000Y-16375000D02*
G75*
G03*
X17540000Y-16375000I-170000J0D01*
G01*
X20420000Y-22500000D02*
G75*
G03*
X20420000Y-22500000I-170000J0D01*
G01*
X8770000Y-9950000D02*
G75*
G03*
X8770000Y-9950000I-170000J0D01*
G01*
X8770000Y-22575000D02*
G75*
G03*
X8770000Y-22575000I-170000J0D01*
G01*
X28045000Y-9950000D02*
G75*
G03*
X28045000Y-9950000I-170000J0D01*
G01*
D11*
X18800000Y-21625000D02*
G75*
G03*
X17825000Y-20650000I-975000J0D01*
G01*
X25840146Y-12169942D02*
X27831000Y-12169942D01*
X27831000Y-13187000D01*
X25840146Y-13187000D01*
X25840146Y-12169942D01*
X18800000Y-21625000D02*
X17825000Y-21625000D01*
X15025000Y-20650000D02*
X17825000Y-20650000D01*
X8100000Y-9448800D02*
X28369500Y-9448800D01*
X28369500Y-23077200D01*
X8100000Y-23077200D01*
X8100000Y-9448800D01*
X15025000Y-21625000D02*
X14050000Y-21625000D01*
X15025000Y-21625000D02*
X17825000Y-21625000D01*
X15025000Y-20650000D02*
G75*
G03*
X14050000Y-21625000I0J-975000D01*
G01*
D10*
X28045000Y-22575000D02*
G75*
G03*
X28045000Y-22575000I-170000J0D01*
G01*
D12*
X8527100Y-18293400D02*
X8567100Y-18333400D01*
X8567100Y-18293400D02*
X8527100Y-18333400D01*
X8605480Y-15854106D02*
X8645480Y-15894106D01*
X8645480Y-15854106D02*
X8605480Y-15894106D01*
X8704533Y-20218533D02*
X8744533Y-20258533D01*
X8744533Y-20218533D02*
X8704533Y-20258533D01*
X8801168Y-18849633D02*
X8841168Y-18889633D01*
X8841168Y-18849633D02*
X8801168Y-18889633D01*
X8933133Y-20218533D02*
X8973133Y-20258533D01*
X8973133Y-20218533D02*
X8933133Y-20258533D01*
X9228333Y-15397800D02*
X9268333Y-15437800D01*
X9268333Y-15397800D02*
X9228333Y-15437800D01*
X9238300Y-13873800D02*
X9278300Y-13913800D01*
X9278300Y-13873800D02*
X9238300Y-13913800D01*
X9327200Y-13797600D02*
X9367200Y-13837600D01*
X9367200Y-13797600D02*
X9327200Y-13837600D01*
X9327200Y-15809400D02*
X9367200Y-15849400D01*
X9367200Y-15809400D02*
X9327200Y-15849400D01*
X9395100Y-14323600D02*
X9435100Y-14363600D01*
X9435100Y-14323600D02*
X9395100Y-14363600D01*
X9445900Y-14590300D02*
X9485900Y-14630300D01*
X9485900Y-14590300D02*
X9445900Y-14630300D01*
X9455000Y-22030000D02*
X9495000Y-22070000D01*
X9495000Y-22030000D02*
X9455000Y-22070000D01*
X9530400Y-18395000D02*
X9570400Y-18435000D01*
X9570400Y-18395000D02*
X9530400Y-18435000D01*
X9598300Y-13980700D02*
X9638300Y-14020700D01*
X9638300Y-13980700D02*
X9598300Y-14020700D01*
X9636400Y-15631700D02*
X9676400Y-15671700D01*
X9676400Y-15631700D02*
X9636400Y-15671700D01*
X9649100Y-16469900D02*
X9689100Y-16509900D01*
X9689100Y-16469900D02*
X9649100Y-16509900D01*
X9649100Y-16787400D02*
X9689100Y-16827400D01*
X9689100Y-16787400D02*
X9649100Y-16827400D01*
X9786200Y-15599600D02*
X9826200Y-15639600D01*
X9826200Y-15599600D02*
X9786200Y-15639600D01*
X9835200Y-12883200D02*
X9875200Y-12923200D01*
X9875200Y-12883200D02*
X9835200Y-12923200D01*
X9835200Y-13962700D02*
X9875200Y-14002700D01*
X9875200Y-13962700D02*
X9835200Y-14002700D01*
X9861200Y-14589600D02*
X9901200Y-14629600D01*
X9901200Y-14589600D02*
X9861200Y-14629600D01*
X9873300Y-14737400D02*
X9913300Y-14777400D01*
X9913300Y-14737400D02*
X9873300Y-14777400D01*
X9873300Y-16553500D02*
X9913300Y-16593500D01*
X9913300Y-16553500D02*
X9873300Y-16593500D01*
X9873300Y-17010700D02*
X9913300Y-17050700D01*
X9913300Y-17010700D02*
X9873300Y-17050700D01*
X9886000Y-14432600D02*
X9926000Y-14472600D01*
X9926000Y-14432600D02*
X9886000Y-14472600D01*
X9907810Y-13086646D02*
X9947810Y-13126646D01*
X9947810Y-13086646D02*
X9907810Y-13126646D01*
X9911400Y-13657900D02*
X9951400Y-13697900D01*
X9951400Y-13657900D02*
X9911400Y-13697900D01*
X9936800Y-17798100D02*
X9976800Y-17838100D01*
X9976800Y-17798100D02*
X9936800Y-17838100D01*
X9936800Y-22039900D02*
X9976800Y-22079900D01*
X9976800Y-22039900D02*
X9936800Y-22079900D01*
X10004700Y-13294900D02*
X10044700Y-13334900D01*
X10044700Y-13294900D02*
X10004700Y-13334900D01*
X10056750Y-14254800D02*
X10096750Y-14294800D01*
X10096750Y-14254800D02*
X10056750Y-14294800D01*
X10076500Y-16083600D02*
X10116500Y-16123600D01*
X10116500Y-16083600D02*
X10076500Y-16123600D01*
X10093600Y-17498600D02*
X10133600Y-17538600D01*
X10133600Y-17498600D02*
X10093600Y-17538600D01*
X10101900Y-22243100D02*
X10141900Y-22283100D01*
X10141900Y-22243100D02*
X10101900Y-22283100D01*
X10178100Y-12514900D02*
X10218100Y-12554900D01*
X10218100Y-12514900D02*
X10178100Y-12554900D01*
X10196600Y-11968900D02*
X10236600Y-12008900D01*
X10236600Y-11968900D02*
X10196600Y-12008900D01*
X10216200Y-20947700D02*
X10256200Y-20987700D01*
X10256200Y-20947700D02*
X10216200Y-20987700D01*
X10281200Y-13834600D02*
X10321200Y-13874600D01*
X10321200Y-13834600D02*
X10281200Y-13874600D01*
X10305100Y-22141500D02*
X10345100Y-22181500D01*
X10345100Y-22141500D02*
X10305100Y-22181500D01*
X10373000Y-14387100D02*
X10413000Y-14427100D01*
X10413000Y-14387100D02*
X10373000Y-14427100D01*
X10381200Y-14764600D02*
X10421200Y-14804600D01*
X10421200Y-14764600D02*
X10381200Y-14804600D01*
X10385700Y-14641100D02*
X10425700Y-14681100D01*
X10425700Y-14641100D02*
X10385700Y-14681100D01*
X10432100Y-21023900D02*
X10472100Y-21063900D01*
X10472100Y-21023900D02*
X10432100Y-21063900D01*
X10482900Y-14127800D02*
X10522900Y-14167800D01*
X10522900Y-14127800D02*
X10482900Y-14167800D01*
X10506200Y-16699600D02*
X10546200Y-16739600D01*
X10546200Y-16699600D02*
X10506200Y-16739600D01*
X10506600Y-20947116D02*
X10546600Y-20987116D01*
X10546600Y-20947116D02*
X10506600Y-20987116D01*
X10563500Y-17663700D02*
X10603500Y-17703700D01*
X10603500Y-17663700D02*
X10563500Y-17703700D01*
X10609900Y-14496100D02*
X10649900Y-14536100D01*
X10649900Y-14496100D02*
X10609900Y-14536100D01*
X10609900Y-15397800D02*
X10649900Y-15437800D01*
X10649900Y-15397800D02*
X10609900Y-15437800D01*
X10609900Y-20935000D02*
X10649900Y-20975000D01*
X10649900Y-20935000D02*
X10609900Y-20975000D01*
X10656200Y-16154600D02*
X10696200Y-16194600D01*
X10696200Y-16154600D02*
X10656200Y-16194600D01*
X10661200Y-15899600D02*
X10701200Y-15939600D01*
X10701200Y-15899600D02*
X10661200Y-15939600D01*
X10690500Y-13841000D02*
X10730500Y-13881000D01*
X10730500Y-13841000D02*
X10690500Y-13881000D01*
X10711500Y-20846100D02*
X10751500Y-20886100D01*
X10751500Y-20846100D02*
X10711500Y-20886100D01*
X10711500Y-21125500D02*
X10751500Y-21165500D01*
X10751500Y-21125500D02*
X10711500Y-21165500D01*
X10855600Y-16812800D02*
X10895600Y-16852800D01*
X10895600Y-16812800D02*
X10855600Y-16852800D01*
X10889300Y-22344700D02*
X10929300Y-22384700D01*
X10929300Y-22344700D02*
X10889300Y-22384700D01*
X10906400Y-16546100D02*
X10946400Y-16586100D01*
X10946400Y-16546100D02*
X10906400Y-16586100D01*
X10919100Y-14006100D02*
X10959100Y-14046100D01*
X10959100Y-14006100D02*
X10919100Y-14046100D01*
X10952800Y-14635800D02*
X10992800Y-14675800D01*
X10992800Y-14635800D02*
X10952800Y-14675800D01*
X10969900Y-13294900D02*
X11009900Y-13334900D01*
X11009900Y-13294900D02*
X10969900Y-13334900D01*
X10990900Y-22243100D02*
X11030900Y-22283100D01*
X11030900Y-22243100D02*
X10990900Y-22283100D01*
X11003600Y-22039900D02*
X11043600Y-22079900D01*
X11043600Y-22039900D02*
X11003600Y-22079900D01*
X11003600Y-22141500D02*
X11043600Y-22181500D01*
X11043600Y-22141500D02*
X11003600Y-22181500D01*
X11016300Y-13657900D02*
X11056300Y-13697900D01*
X11056300Y-13657900D02*
X11016300Y-13697900D01*
X11056200Y-20589600D02*
X11096200Y-20629600D01*
X11096200Y-20589600D02*
X11056200Y-20629600D01*
X11058800Y-17485900D02*
X11098800Y-17525900D01*
X11098800Y-17485900D02*
X11058800Y-17525900D01*
X11173100Y-16800100D02*
X11213100Y-16840100D01*
X11213100Y-16800100D02*
X11173100Y-16840100D01*
X11185800Y-15771400D02*
X11225800Y-15811400D01*
X11225800Y-15771400D02*
X11185800Y-15811400D01*
X11194100Y-9606600D02*
X11234100Y-9646600D01*
X11234100Y-9606600D02*
X11194100Y-9646600D01*
X11198500Y-15898400D02*
X11238500Y-15938400D01*
X11238500Y-15898400D02*
X11198500Y-15938400D01*
X11206800Y-11359200D02*
X11246800Y-11399200D01*
X11246800Y-11359200D02*
X11206800Y-11399200D01*
X11257600Y-13010200D02*
X11297600Y-13050200D01*
X11297600Y-13010200D02*
X11257600Y-13050200D01*
X11257600Y-14242100D02*
X11297600Y-14282100D01*
X11297600Y-14242100D02*
X11257600Y-14282100D01*
X11283000Y-20769900D02*
X11323000Y-20809900D01*
X11323000Y-20769900D02*
X11283000Y-20809900D01*
X11283000Y-21341400D02*
X11323000Y-21381400D01*
X11323000Y-21341400D02*
X11283000Y-21381400D01*
X11333800Y-12358950D02*
X11373800Y-12398950D01*
X11373800Y-12358950D02*
X11333800Y-12398950D01*
X11333800Y-14369100D02*
X11373800Y-14409100D01*
X11373800Y-14369100D02*
X11333800Y-14409100D01*
X11363600Y-16546100D02*
X11403600Y-16586100D01*
X11403600Y-16546100D02*
X11363600Y-16586100D01*
X11410000Y-18525000D02*
X11450000Y-18565000D01*
X11450000Y-18525000D02*
X11410000Y-18565000D01*
X11410000Y-20439700D02*
X11450000Y-20479700D01*
X11450000Y-20439700D02*
X11410000Y-20479700D01*
X11410000Y-20947700D02*
X11450000Y-20987700D01*
X11450000Y-20947700D02*
X11410000Y-20987700D01*
X11452500Y-17473200D02*
X11492500Y-17513200D01*
X11492500Y-17473200D02*
X11452500Y-17513200D01*
X11465200Y-15898400D02*
X11505200Y-15938400D01*
X11505200Y-15898400D02*
X11465200Y-15938400D01*
X11498900Y-12451400D02*
X11538900Y-12491400D01*
X11538900Y-12451400D02*
X11498900Y-12491400D01*
X11505000Y-11755000D02*
X11545000Y-11795000D01*
X11545000Y-11755000D02*
X11505000Y-11795000D01*
X11537000Y-18547400D02*
X11577000Y-18587400D01*
X11577000Y-18547400D02*
X11537000Y-18587400D01*
X11537000Y-20427000D02*
X11577000Y-20467000D01*
X11577000Y-20427000D02*
X11537000Y-20467000D01*
X11537000Y-20846100D02*
X11577000Y-20886100D01*
X11577000Y-20846100D02*
X11537000Y-20886100D01*
X11601200Y-17099600D02*
X11641200Y-17139600D01*
X11641200Y-17099600D02*
X11601200Y-17139600D01*
X11664000Y-18623600D02*
X11704000Y-18663600D01*
X11704000Y-18623600D02*
X11664000Y-18663600D01*
X11664000Y-20414300D02*
X11704000Y-20454300D01*
X11704000Y-20414300D02*
X11664000Y-20454300D01*
X11664000Y-21125500D02*
X11704000Y-21165500D01*
X11704000Y-21125500D02*
X11664000Y-21165500D01*
X11714800Y-16096300D02*
X11754800Y-16136300D01*
X11754800Y-16096300D02*
X11714800Y-16136300D01*
X11744600Y-16495300D02*
X11784600Y-16535300D01*
X11784600Y-16495300D02*
X11744600Y-16535300D01*
X11791000Y-18674400D02*
X11831000Y-18714400D01*
X11831000Y-18674400D02*
X11791000Y-18714400D01*
X11791000Y-20414300D02*
X11831000Y-20454300D01*
X11831000Y-20414300D02*
X11791000Y-20454300D01*
X11791000Y-21023900D02*
X11831000Y-21063900D01*
X11831000Y-21023900D02*
X11791000Y-21063900D01*
X11854500Y-16832900D02*
X11894500Y-16872900D01*
X11894500Y-16832900D02*
X11854500Y-16872900D01*
X11858900Y-15809500D02*
X11898900Y-15849500D01*
X11898900Y-15809500D02*
X11858900Y-15849500D01*
X11886200Y-17324600D02*
X11926200Y-17364600D01*
X11926200Y-17324600D02*
X11886200Y-17364600D01*
X11922400Y-16660400D02*
X11962400Y-16700400D01*
X11962400Y-16660400D02*
X11922400Y-16700400D01*
X11946200Y-20414600D02*
X11986200Y-20454600D01*
X11986200Y-20414600D02*
X11946200Y-20454600D01*
X11980000Y-11755000D02*
X12020000Y-11795000D01*
X12020000Y-11755000D02*
X11980000Y-11795000D01*
X12019600Y-13111800D02*
X12059600Y-13151800D01*
X12059600Y-13111800D02*
X12019600Y-13151800D01*
X12019600Y-17328200D02*
X12059600Y-17368200D01*
X12059600Y-17328200D02*
X12019600Y-17368200D01*
X12045000Y-20769900D02*
X12085000Y-20809900D01*
X12085000Y-20769900D02*
X12045000Y-20809900D01*
X12045000Y-21328700D02*
X12085000Y-21368700D01*
X12085000Y-21328700D02*
X12045000Y-21368700D01*
X12210100Y-17848900D02*
X12250100Y-17888900D01*
X12250100Y-17848900D02*
X12210100Y-17888900D01*
X12214500Y-16952500D02*
X12254500Y-16992500D01*
X12254500Y-16952500D02*
X12214500Y-16992500D01*
X12227200Y-15746000D02*
X12267200Y-15786000D01*
X12267200Y-15746000D02*
X12227200Y-15786000D01*
X12794300Y-13276900D02*
X12834300Y-13316900D01*
X12834300Y-13276900D02*
X12794300Y-13316900D01*
X13289600Y-16109000D02*
X13329600Y-16149000D01*
X13329600Y-16109000D02*
X13289600Y-16149000D01*
X13566200Y-15969600D02*
X13606200Y-16009600D01*
X13606200Y-15969600D02*
X13566200Y-16009600D01*
X13580000Y-16730000D02*
X13620000Y-16770000D01*
X13620000Y-16730000D02*
X13580000Y-16770000D01*
X13734100Y-15880400D02*
X13774100Y-15920400D01*
X13774100Y-15880400D02*
X13734100Y-15920400D01*
X13755971Y-18980971D02*
X13795971Y-19020971D01*
X13795971Y-18980971D02*
X13755971Y-19020971D01*
X13861271Y-15145050D02*
X13901271Y-15185050D01*
X13901271Y-15145050D02*
X13861271Y-15185050D01*
X13883800Y-18970400D02*
X13923800Y-19010400D01*
X13923800Y-18970400D02*
X13883800Y-19010400D01*
X13950000Y-10825800D02*
X13990000Y-10865800D01*
X13990000Y-10825800D02*
X13950000Y-10865800D01*
X13961200Y-10129600D02*
X14001200Y-10169600D01*
X14001200Y-10129600D02*
X13961200Y-10169600D01*
X13980000Y-14855000D02*
X14020000Y-14895000D01*
X14020000Y-14855000D02*
X13980000Y-14895000D01*
X14030000Y-18455000D02*
X14070000Y-18495000D01*
X14070000Y-18455000D02*
X14030000Y-18495000D01*
X14096900Y-15301000D02*
X14136900Y-15341000D01*
X14136900Y-15301000D02*
X14096900Y-15341000D01*
X14105000Y-17805000D02*
X14145000Y-17845000D01*
X14145000Y-17805000D02*
X14105000Y-17845000D01*
X14205000Y-18380000D02*
X14245000Y-18420000D01*
X14245000Y-18380000D02*
X14205000Y-18420000D01*
X14292900Y-14737400D02*
X14332900Y-14777400D01*
X14332900Y-14737400D02*
X14292900Y-14777400D01*
X14430000Y-14755000D02*
X14470000Y-14795000D01*
X14470000Y-14755000D02*
X14430000Y-14795000D01*
X14530000Y-18120000D02*
X14570000Y-18160000D01*
X14570000Y-18120000D02*
X14530000Y-18160000D01*
X14530000Y-18475000D02*
X14570000Y-18515000D01*
X14570000Y-18475000D02*
X14530000Y-18515000D01*
X14597700Y-10914700D02*
X14637700Y-10954700D01*
X14637700Y-10914700D02*
X14597700Y-10954700D01*
X14605000Y-17155000D02*
X14645000Y-17195000D01*
X14645000Y-17155000D02*
X14605000Y-17195000D01*
X14610400Y-13784900D02*
X14650400Y-13824900D01*
X14650400Y-13784900D02*
X14610400Y-13824900D01*
X14635000Y-18380000D02*
X14675000Y-18420000D01*
X14675000Y-18380000D02*
X14635000Y-18420000D01*
X14712000Y-14000800D02*
X14752000Y-14040800D01*
X14752000Y-14000800D02*
X14712000Y-14040800D01*
X14724700Y-14953300D02*
X14764700Y-14993300D01*
X14764700Y-14953300D02*
X14724700Y-14993300D01*
X14740000Y-18225000D02*
X14780000Y-18265000D01*
X14780000Y-18225000D02*
X14740000Y-18265000D01*
X14786200Y-15364600D02*
X14826200Y-15404600D01*
X14826200Y-15364600D02*
X14786200Y-15404600D01*
X14801200Y-14354600D02*
X14841200Y-14394600D01*
X14841200Y-14354600D02*
X14801200Y-14394600D01*
X14813800Y-18570400D02*
X14853800Y-18610400D01*
X14853800Y-18570400D02*
X14813800Y-18610400D01*
X14813800Y-18870400D02*
X14853800Y-18910400D01*
X14853800Y-18870400D02*
X14813800Y-18910400D01*
X14813800Y-19070400D02*
X14853800Y-19110400D01*
X14853800Y-19070400D02*
X14813800Y-19110400D01*
X14813800Y-19170400D02*
X14853800Y-19210400D01*
X14853800Y-19170400D02*
X14813800Y-19210400D01*
X14813800Y-19270400D02*
X14853800Y-19310400D01*
X14853800Y-19270400D02*
X14813800Y-19310400D01*
X14846200Y-15275950D02*
X14886200Y-15315950D01*
X14886200Y-15275950D02*
X14846200Y-15315950D01*
X14846200Y-16253500D02*
X14886200Y-16293500D01*
X14886200Y-16253500D02*
X14846200Y-16293500D01*
X14846250Y-15564600D02*
X14886250Y-15604600D01*
X14886250Y-15564600D02*
X14846250Y-15604600D01*
X14891200Y-11574600D02*
X14931200Y-11614600D01*
X14931200Y-11574600D02*
X14891200Y-11614600D01*
X14915200Y-15130650D02*
X14955200Y-15170650D01*
X14955200Y-15130650D02*
X14915200Y-15170650D01*
X14930000Y-17155000D02*
X14970000Y-17195000D01*
X14970000Y-17155000D02*
X14930000Y-17195000D01*
X14941200Y-13809600D02*
X14981200Y-13849600D01*
X14981200Y-13809600D02*
X14941200Y-13849600D01*
X14980000Y-18670400D02*
X15020000Y-18710400D01*
X15020000Y-18670400D02*
X14980000Y-18710400D01*
X15016800Y-15156500D02*
X15056800Y-15196500D01*
X15056800Y-15156500D02*
X15016800Y-15196500D01*
X15030000Y-16880000D02*
X15070000Y-16920000D01*
X15070000Y-16880000D02*
X15030000Y-16920000D01*
X15042200Y-12819700D02*
X15082200Y-12859700D01*
X15082200Y-12819700D02*
X15042200Y-12859700D01*
X15042200Y-14026200D02*
X15082200Y-14066200D01*
X15082200Y-14026200D02*
X15042200Y-14066200D01*
X15105000Y-18120000D02*
X15145000Y-18160000D01*
X15145000Y-18120000D02*
X15105000Y-18160000D01*
X15180000Y-17955000D02*
X15220000Y-17995000D01*
X15220000Y-17955000D02*
X15180000Y-17995000D01*
X15194600Y-13581700D02*
X15234600Y-13621700D01*
X15234600Y-13581700D02*
X15194600Y-13621700D01*
X15223550Y-13943036D02*
X15263550Y-13983036D01*
X15263550Y-13943036D02*
X15223550Y-13983036D01*
X15265275Y-13509050D02*
X15305275Y-13549050D01*
X15305275Y-13509050D02*
X15265275Y-13549050D01*
X15296200Y-14026200D02*
X15336200Y-14066200D01*
X15336200Y-14026200D02*
X15296200Y-14066200D01*
X15303400Y-16253500D02*
X15343400Y-16293500D01*
X15343400Y-16253500D02*
X15303400Y-16293500D01*
X15318160Y-19951680D02*
X15358160Y-19991680D01*
X15358160Y-19951680D02*
X15318160Y-19991680D01*
X15330000Y-18955000D02*
X15370000Y-18995000D01*
X15370000Y-18955000D02*
X15330000Y-18995000D01*
X15396200Y-10909600D02*
X15436200Y-10949600D01*
X15436200Y-10909600D02*
X15396200Y-10949600D01*
X15439400Y-12594600D02*
X15479400Y-12634600D01*
X15479400Y-12594600D02*
X15439400Y-12634600D01*
X15448600Y-13111800D02*
X15488600Y-13151800D01*
X15488600Y-13111800D02*
X15448600Y-13151800D01*
X15448650Y-13857113D02*
X15488650Y-13897113D01*
X15488650Y-13857113D02*
X15448650Y-13897113D01*
X15512100Y-13010200D02*
X15552100Y-13050200D01*
X15552100Y-13010200D02*
X15512100Y-13050200D01*
X15541200Y-13774600D02*
X15581200Y-13814600D01*
X15581200Y-13774600D02*
X15541200Y-13814600D01*
X15720000Y-22090000D02*
X15760000Y-22130000D01*
X15760000Y-22090000D02*
X15720000Y-22130000D01*
X15775068Y-15534490D02*
X15815068Y-15574490D01*
X15815068Y-15534490D02*
X15775068Y-15574490D01*
X15804200Y-15303300D02*
X15844200Y-15343300D01*
X15844200Y-15303300D02*
X15804200Y-15343300D01*
X15855000Y-17505000D02*
X15895000Y-17545000D01*
X15895000Y-17505000D02*
X15855000Y-17545000D01*
X15875016Y-15533830D02*
X15915016Y-15573830D01*
X15915016Y-15533830D02*
X15875016Y-15573830D01*
X15885924Y-15375950D02*
X15925924Y-15415950D01*
X15925924Y-15375950D02*
X15885924Y-15415950D01*
X15893100Y-14013500D02*
X15933100Y-14053500D01*
X15933100Y-14013500D02*
X15893100Y-14053500D01*
X15905800Y-13670600D02*
X15945800Y-13710600D01*
X15945800Y-13670600D02*
X15905800Y-13710600D01*
X15915060Y-19951680D02*
X15955060Y-19991680D01*
X15955060Y-19951680D02*
X15915060Y-19991680D01*
X15916200Y-14409600D02*
X15956200Y-14449600D01*
X15956200Y-14409600D02*
X15916200Y-14449600D01*
X15925700Y-16228100D02*
X15965700Y-16268100D01*
X15965700Y-16228100D02*
X15925700Y-16268100D01*
X15930000Y-17405000D02*
X15970000Y-17445000D01*
X15970000Y-17405000D02*
X15930000Y-17445000D01*
X15955000Y-18405000D02*
X15995000Y-18445000D01*
X15995000Y-18405000D02*
X15955000Y-18445000D01*
X15956600Y-15448600D02*
X15996600Y-15488600D01*
X15996600Y-15448600D02*
X15956600Y-15488600D01*
X15980000Y-19355000D02*
X16020000Y-19395000D01*
X16020000Y-19355000D02*
X15980000Y-19395000D01*
X16031200Y-15734600D02*
X16071200Y-15774600D01*
X16071200Y-15734600D02*
X16031200Y-15774600D01*
X16032800Y-14178600D02*
X16072800Y-14218600D01*
X16072800Y-14178600D02*
X16032800Y-14218600D01*
X16045500Y-13416600D02*
X16085500Y-13456600D01*
X16085500Y-13416600D02*
X16045500Y-13456600D01*
X16105000Y-17015300D02*
X16145000Y-17055300D01*
X16145000Y-17015300D02*
X16105000Y-17055300D01*
X16220000Y-22530000D02*
X16260000Y-22570000D01*
X16260000Y-22530000D02*
X16220000Y-22570000D01*
X16220000Y-22680000D02*
X16260000Y-22720000D01*
X16260000Y-22680000D02*
X16220000Y-22720000D01*
X16230000Y-18570400D02*
X16270000Y-18610400D01*
X16270000Y-18570400D02*
X16230000Y-18610400D01*
X16265000Y-22180000D02*
X16305000Y-22220000D01*
X16305000Y-22180000D02*
X16265000Y-22220000D01*
X16299500Y-13289600D02*
X16339500Y-13329600D01*
X16339500Y-13289600D02*
X16299500Y-13329600D01*
X16305000Y-18670400D02*
X16345000Y-18710400D01*
X16345000Y-18670400D02*
X16305000Y-18710400D01*
X16319150Y-14525950D02*
X16359150Y-14565950D01*
X16359150Y-14525950D02*
X16319150Y-14565950D01*
X16355000Y-19050400D02*
X16395000Y-19090400D01*
X16395000Y-19050400D02*
X16355000Y-19090400D01*
X16358030Y-19270400D02*
X16398030Y-19310400D01*
X16398030Y-19270400D02*
X16358030Y-19310400D01*
X16413800Y-14242100D02*
X16453800Y-14282100D01*
X16453800Y-14242100D02*
X16413800Y-14282100D01*
X16430000Y-19170400D02*
X16470000Y-19210400D01*
X16470000Y-19170400D02*
X16430000Y-19210400D01*
X16455000Y-18780000D02*
X16495000Y-18820000D01*
X16495000Y-18780000D02*
X16455000Y-18820000D01*
X16530000Y-18455000D02*
X16570000Y-18495000D01*
X16570000Y-18455000D02*
X16530000Y-18495000D01*
X16555000Y-18192650D02*
X16595000Y-18232650D01*
X16595000Y-18192650D02*
X16555000Y-18232650D01*
X16580000Y-14230000D02*
X16620000Y-14270000D01*
X16620000Y-14230000D02*
X16580000Y-14270000D01*
X16607350Y-18342465D02*
X16647350Y-18382465D01*
X16647350Y-18342465D02*
X16607350Y-18382465D01*
X16705000Y-19380000D02*
X16745000Y-19420000D01*
X16745000Y-19380000D02*
X16705000Y-19420000D01*
X16748200Y-19906180D02*
X16788200Y-19946180D01*
X16788200Y-19906180D02*
X16748200Y-19946180D01*
X16843030Y-18970400D02*
X16883030Y-19010400D01*
X16883030Y-18970400D02*
X16843030Y-19010400D01*
X16871000Y-16755000D02*
X16911000Y-16795000D01*
X16911000Y-16755000D02*
X16871000Y-16795000D01*
X16905200Y-19948880D02*
X16945200Y-19988880D01*
X16945200Y-19948880D02*
X16905200Y-19988880D01*
X16934500Y-13391200D02*
X16974500Y-13431200D01*
X16974500Y-13391200D02*
X16934500Y-13431200D01*
X16943650Y-13619800D02*
X16983650Y-13659800D01*
X16983650Y-13619800D02*
X16943650Y-13659800D01*
X16998000Y-14813600D02*
X17038000Y-14853600D01*
X17038000Y-14813600D02*
X16998000Y-14853600D01*
X17055000Y-18455000D02*
X17095000Y-18495000D01*
X17095000Y-18455000D02*
X17055000Y-18495000D01*
X17097300Y-20012380D02*
X17137300Y-20052380D01*
X17137300Y-20012380D02*
X17097300Y-20052380D01*
X17150400Y-15372400D02*
X17190400Y-15412400D01*
X17190400Y-15372400D02*
X17150400Y-15412400D01*
X17150400Y-15550200D02*
X17190400Y-15590200D01*
X17190400Y-15550200D02*
X17150400Y-15590200D01*
X17180000Y-18330000D02*
X17220000Y-18370000D01*
X17220000Y-18330000D02*
X17180000Y-18370000D01*
X17180000Y-19130000D02*
X17220000Y-19170000D01*
X17220000Y-19130000D02*
X17180000Y-19170000D01*
X17221100Y-12684800D02*
X17261100Y-12724800D01*
X17261100Y-12684800D02*
X17221100Y-12724800D01*
X17236200Y-13064600D02*
X17276200Y-13104600D01*
X17276200Y-13064600D02*
X17236200Y-13104600D01*
X17401200Y-14834600D02*
X17441200Y-14874600D01*
X17441200Y-14834600D02*
X17401200Y-14874600D01*
X17405000Y-19980000D02*
X17445000Y-20020000D01*
X17445000Y-19980000D02*
X17405000Y-20020000D01*
X17488750Y-18121250D02*
X17528750Y-18161250D01*
X17528750Y-18121250D02*
X17488750Y-18161250D01*
X17488750Y-18476250D02*
X17528750Y-18516250D01*
X17528750Y-18476250D02*
X17488750Y-18516250D01*
X17576700Y-15059700D02*
X17616700Y-15099700D01*
X17616700Y-15059700D02*
X17576700Y-15099700D01*
X17576700Y-15821700D02*
X17616700Y-15861700D01*
X17616700Y-15821700D02*
X17576700Y-15861700D01*
X17593750Y-18381250D02*
X17633750Y-18421250D01*
X17633750Y-18381250D02*
X17593750Y-18421250D01*
X17635000Y-18095000D02*
X17675000Y-18135000D01*
X17675000Y-18095000D02*
X17635000Y-18135000D01*
X17645700Y-13784900D02*
X17685700Y-13824900D01*
X17685700Y-13784900D02*
X17645700Y-13824900D01*
X17658400Y-15308900D02*
X17698400Y-15348900D01*
X17698400Y-15308900D02*
X17658400Y-15348900D01*
X17698750Y-18226250D02*
X17738750Y-18266250D01*
X17738750Y-18226250D02*
X17698750Y-18266250D01*
X17773030Y-18570400D02*
X17813030Y-18610400D01*
X17813030Y-18570400D02*
X17773030Y-18610400D01*
X17773030Y-18670400D02*
X17813030Y-18710400D01*
X17813030Y-18670400D02*
X17773030Y-18710400D01*
X17773030Y-18870400D02*
X17813030Y-18910400D01*
X17813030Y-18870400D02*
X17773030Y-18910400D01*
X17773030Y-19070400D02*
X17813030Y-19110400D01*
X17813030Y-19070400D02*
X17773030Y-19110400D01*
X17773030Y-19170400D02*
X17813030Y-19210400D01*
X17813030Y-19170400D02*
X17773030Y-19210400D01*
X17773030Y-19270400D02*
X17813030Y-19310400D01*
X17813030Y-19270400D02*
X17773030Y-19310400D01*
X17781250Y-12526950D02*
X17821250Y-12566950D01*
X17821250Y-12526950D02*
X17781250Y-12566950D01*
X17816200Y-15564600D02*
X17856200Y-15604600D01*
X17856200Y-15564600D02*
X17816200Y-15604600D01*
X17881200Y-12526950D02*
X17921200Y-12566950D01*
X17921200Y-12526950D02*
X17881200Y-12566950D01*
X17891200Y-15444600D02*
X17931200Y-15484600D01*
X17931200Y-15444600D02*
X17891200Y-15484600D01*
X17916450Y-17015300D02*
X17956450Y-17055300D01*
X17956450Y-17015300D02*
X17916450Y-17055300D01*
X17930000Y-11580000D02*
X17970000Y-11620000D01*
X17970000Y-11580000D02*
X17930000Y-11620000D01*
X17996200Y-12526950D02*
X18036200Y-12566950D01*
X18036200Y-12526950D02*
X17996200Y-12566950D01*
X17996200Y-15314600D02*
X18036200Y-15354600D01*
X18036200Y-15314600D02*
X17996200Y-15354600D01*
X18030000Y-19430000D02*
X18070000Y-19470000D01*
X18070000Y-19430000D02*
X18030000Y-19470000D01*
X18081200Y-12315450D02*
X18121200Y-12355450D01*
X18121200Y-12315450D02*
X18081200Y-12355450D01*
X18081200Y-15184600D02*
X18121200Y-15224600D01*
X18121200Y-15184600D02*
X18081200Y-15224600D01*
X18105000Y-18902650D02*
X18145000Y-18942650D01*
X18145000Y-18902650D02*
X18105000Y-18942650D01*
X18130000Y-17905000D02*
X18170000Y-17945000D01*
X18170000Y-17905000D02*
X18130000Y-17945000D01*
X18160900Y-15821700D02*
X18200900Y-15861700D01*
X18200900Y-15821700D02*
X18160900Y-15861700D01*
X18181200Y-15694600D02*
X18221200Y-15734600D01*
X18221200Y-15694600D02*
X18181200Y-15734600D01*
X18186300Y-15059700D02*
X18226300Y-15099700D01*
X18226300Y-15059700D02*
X18186300Y-15099700D01*
X18496200Y-14931400D02*
X18536200Y-14971400D01*
X18536200Y-14931400D02*
X18496200Y-14971400D01*
X18505000Y-11580000D02*
X18545000Y-11620000D01*
X18545000Y-11580000D02*
X18505000Y-11620000D01*
X18511200Y-16629600D02*
X18551200Y-16669600D01*
X18551200Y-16629600D02*
X18511200Y-16669600D01*
X18580000Y-18497750D02*
X18620000Y-18537750D01*
X18620000Y-18497750D02*
X18580000Y-18537750D01*
X18623600Y-13188000D02*
X18663600Y-13228000D01*
X18663600Y-13188000D02*
X18623600Y-13228000D01*
X18750600Y-16286800D02*
X18790600Y-16326800D01*
X18790600Y-16286800D02*
X18750600Y-16326800D01*
X18750600Y-16807500D02*
X18790600Y-16847500D01*
X18790600Y-16807500D02*
X18750600Y-16847500D01*
X19080000Y-11830000D02*
X19120000Y-11870000D01*
X19120000Y-11830000D02*
X19080000Y-11870000D01*
X19123030Y-18570400D02*
X19163030Y-18610400D01*
X19163030Y-18570400D02*
X19123030Y-18610400D01*
X19123030Y-18670400D02*
X19163030Y-18710400D01*
X19163030Y-18670400D02*
X19123030Y-18710400D01*
X19123030Y-18870400D02*
X19163030Y-18910400D01*
X19163030Y-18870400D02*
X19123030Y-18910400D01*
X19123030Y-19070400D02*
X19163030Y-19110400D01*
X19163030Y-19070400D02*
X19123030Y-19110400D01*
X19123030Y-19170400D02*
X19163030Y-19210400D01*
X19163030Y-19170400D02*
X19123030Y-19210400D01*
X19123030Y-19270400D02*
X19163030Y-19310400D01*
X19163030Y-19270400D02*
X19123030Y-19310400D01*
X19245900Y-16007400D02*
X19285900Y-16047400D01*
X19285900Y-16007400D02*
X19245900Y-16047400D01*
X19336200Y-17244600D02*
X19376200Y-17284600D01*
X19376200Y-17244600D02*
X19336200Y-17284600D01*
X19356200Y-16224600D02*
X19396200Y-16264600D01*
X19396200Y-16224600D02*
X19356200Y-16264600D01*
X19461800Y-16515400D02*
X19501800Y-16555400D01*
X19501800Y-16515400D02*
X19461800Y-16555400D01*
X19474500Y-17721900D02*
X19514500Y-17761900D01*
X19514500Y-17721900D02*
X19474500Y-17761900D01*
X19576100Y-14813600D02*
X19616100Y-14853600D01*
X19616100Y-14813600D02*
X19576100Y-14853600D01*
X19601500Y-17137700D02*
X19641500Y-17177700D01*
X19641500Y-17137700D02*
X19601500Y-17177700D01*
X19614200Y-12832400D02*
X19654200Y-12872400D01*
X19654200Y-12832400D02*
X19614200Y-12872400D01*
X19614200Y-13581700D02*
X19654200Y-13621700D01*
X19654200Y-13581700D02*
X19614200Y-13621700D01*
X19652874Y-16433015D02*
X19692874Y-16473015D01*
X19692874Y-16433015D02*
X19652874Y-16473015D01*
X19686850Y-13371763D02*
X19726850Y-13411763D01*
X19726850Y-13371763D02*
X19686850Y-13411763D01*
X19690400Y-13708700D02*
X19730400Y-13748700D01*
X19730400Y-13708700D02*
X19690400Y-13748700D01*
X19697364Y-12759750D02*
X19737364Y-12799750D01*
X19737364Y-12759750D02*
X19697364Y-12799750D01*
X19759500Y-13188000D02*
X19799500Y-13228000D01*
X19799500Y-13188000D02*
X19759500Y-13228000D01*
X19766600Y-17048800D02*
X19806600Y-17088800D01*
X19806600Y-17048800D02*
X19766600Y-17088800D01*
X19769164Y-12687100D02*
X19809164Y-12727100D01*
X19809164Y-12687100D02*
X19769164Y-12727100D01*
X19804700Y-16705900D02*
X19844700Y-16745900D01*
X19844700Y-16705900D02*
X19804700Y-16745900D01*
X19817400Y-16147100D02*
X19857400Y-16187100D01*
X19857400Y-16147100D02*
X19817400Y-16187100D01*
X19842714Y-13061000D02*
X19882714Y-13101000D01*
X19882714Y-13061000D02*
X19842714Y-13101000D01*
X19846200Y-12282200D02*
X19886200Y-12322200D01*
X19886200Y-12282200D02*
X19846200Y-12322200D01*
X19851200Y-13579600D02*
X19891200Y-13619600D01*
X19891200Y-13579600D02*
X19851200Y-13619600D01*
X19855500Y-15921650D02*
X19895500Y-15961650D01*
X19895500Y-15921650D02*
X19855500Y-15961650D01*
X19891200Y-17819600D02*
X19931200Y-17859600D01*
X19931200Y-17819600D02*
X19891200Y-17859600D01*
X19891200Y-17924600D02*
X19931200Y-17964600D01*
X19931200Y-17924600D02*
X19891200Y-17964600D01*
X19919000Y-15385100D02*
X19959000Y-15425100D01*
X19959000Y-15385100D02*
X19919000Y-15425100D01*
X19930000Y-15230000D02*
X19970000Y-15270000D01*
X19970000Y-15230000D02*
X19930000Y-15270000D01*
X19969800Y-17442500D02*
X20009800Y-17482500D01*
X20009800Y-17442500D02*
X19969800Y-17482500D01*
X19981200Y-15971650D02*
X20021200Y-16011650D01*
X20021200Y-15971650D02*
X19981200Y-16011650D01*
X19986200Y-13304600D02*
X20026200Y-13344600D01*
X20026200Y-13304600D02*
X19986200Y-13344600D01*
X19995200Y-13810300D02*
X20035200Y-13850300D01*
X20035200Y-13810300D02*
X19995200Y-13850300D01*
X20091200Y-16019600D02*
X20131200Y-16059600D01*
X20131200Y-16019600D02*
X20091200Y-16059600D01*
X20122200Y-14699300D02*
X20162200Y-14739300D01*
X20162200Y-14699300D02*
X20122200Y-14739300D01*
X20181200Y-16149000D02*
X20221200Y-16189000D01*
X20221200Y-16149000D02*
X20181200Y-16189000D01*
X20196200Y-15499000D02*
X20236200Y-15539000D01*
X20236200Y-15499000D02*
X20196200Y-15539000D01*
X20211200Y-15099600D02*
X20251200Y-15139600D01*
X20251200Y-15099600D02*
X20211200Y-15139600D01*
X20363500Y-13924600D02*
X20403500Y-13964600D01*
X20403500Y-13924600D02*
X20363500Y-13964600D01*
X20380000Y-10730000D02*
X20420000Y-10770000D01*
X20420000Y-10730000D02*
X20380000Y-10770000D01*
X20465100Y-13657900D02*
X20505100Y-13697900D01*
X20505100Y-13657900D02*
X20465100Y-13697900D01*
X20490500Y-15474000D02*
X20530500Y-15514000D01*
X20530500Y-15474000D02*
X20490500Y-15514000D01*
X20490500Y-16172500D02*
X20530500Y-16212500D01*
X20530500Y-16172500D02*
X20490500Y-16212500D01*
X20491200Y-14579600D02*
X20531200Y-14619600D01*
X20531200Y-14579600D02*
X20491200Y-14619600D01*
X20501908Y-16508151D02*
X20541908Y-16548151D01*
X20541908Y-16508151D02*
X20501908Y-16548151D01*
X20503200Y-15042200D02*
X20543200Y-15082200D01*
X20543200Y-15042200D02*
X20503200Y-15082200D01*
X20519450Y-16606550D02*
X20559450Y-16646550D01*
X20559450Y-16606550D02*
X20519450Y-16646550D01*
X20555000Y-10830000D02*
X20595000Y-10870000D01*
X20595000Y-10830000D02*
X20555000Y-10870000D01*
X20642900Y-15371650D02*
X20682900Y-15411650D01*
X20682900Y-15371650D02*
X20642900Y-15411650D01*
X20698639Y-18938920D02*
X20738639Y-18978920D01*
X20738639Y-18938920D02*
X20698639Y-18978920D01*
X20704481Y-18839141D02*
X20744481Y-18879141D01*
X20744481Y-18839141D02*
X20704481Y-18879141D01*
X20710150Y-16106850D02*
X20750150Y-16146850D01*
X20750150Y-16106850D02*
X20710150Y-16146850D01*
X20710150Y-18239600D02*
X20750150Y-18279600D01*
X20750150Y-18239600D02*
X20710150Y-18279600D01*
X20710150Y-18339550D02*
X20750150Y-18379550D01*
X20750150Y-18339550D02*
X20710150Y-18379550D01*
X20710150Y-18439501D02*
X20750150Y-18479501D01*
X20750150Y-18439501D02*
X20710150Y-18479501D01*
X20710150Y-18539451D02*
X20750150Y-18579451D01*
X20750150Y-18539451D02*
X20710150Y-18579451D01*
X20710150Y-18639401D02*
X20750150Y-18679401D01*
X20750150Y-18639401D02*
X20710150Y-18679401D01*
X20710150Y-18739352D02*
X20750150Y-18779352D01*
X20750150Y-18739352D02*
X20710150Y-18779352D01*
X20746200Y-14389600D02*
X20786200Y-14429600D01*
X20786200Y-14389600D02*
X20746200Y-14429600D01*
X20755550Y-16201321D02*
X20795550Y-16241321D01*
X20795550Y-16201321D02*
X20755550Y-16241321D01*
X20757200Y-15372400D02*
X20797200Y-15412400D01*
X20797200Y-15372400D02*
X20757200Y-15412400D01*
X20800950Y-16299767D02*
X20840950Y-16339767D01*
X20840950Y-16299767D02*
X20800950Y-16339767D01*
X20820700Y-13683300D02*
X20860700Y-13723300D01*
X20860700Y-13683300D02*
X20820700Y-13723300D01*
X20830000Y-10855000D02*
X20870000Y-10895000D01*
X20870000Y-10855000D02*
X20830000Y-10895000D01*
X20847627Y-16399716D02*
X20887627Y-16439716D01*
X20887627Y-16399716D02*
X20847627Y-16439716D01*
X20946200Y-14074600D02*
X20986200Y-14114600D01*
X20986200Y-14074600D02*
X20946200Y-14114600D01*
X20965086Y-16385001D02*
X21005086Y-16425001D01*
X21005086Y-16385001D02*
X20965086Y-16425001D01*
X20968450Y-14439600D02*
X21008450Y-14479600D01*
X21008450Y-14439600D02*
X20968450Y-14479600D01*
X20982550Y-17194600D02*
X21022550Y-17234600D01*
X21022550Y-17194600D02*
X20982550Y-17234600D01*
X20991121Y-16954525D02*
X21031121Y-16994525D01*
X21031121Y-16954525D02*
X20991121Y-16994525D01*
X21000150Y-17069600D02*
X21040150Y-17109600D01*
X21040150Y-17069600D02*
X21000150Y-17109600D01*
X21036432Y-14525050D02*
X21076432Y-14565050D01*
X21076432Y-14525050D02*
X21036432Y-14565050D01*
X21066548Y-16607864D02*
X21106548Y-16647864D01*
X21106548Y-16607864D02*
X21066548Y-16647864D01*
X21075204Y-16508289D02*
X21115204Y-16548289D01*
X21115204Y-16508289D02*
X21075204Y-16548289D01*
X21076200Y-16884600D02*
X21116200Y-16924600D01*
X21116200Y-16884600D02*
X21076200Y-16924600D01*
X21125500Y-16021650D02*
X21165500Y-16061650D01*
X21165500Y-16021650D02*
X21125500Y-16061650D01*
X21136200Y-14614600D02*
X21176200Y-14654600D01*
X21176200Y-14614600D02*
X21136200Y-14654600D01*
X21164150Y-17394600D02*
X21204150Y-17434600D01*
X21204150Y-17394600D02*
X21164150Y-17434600D01*
X21216200Y-12759750D02*
X21256200Y-12799750D01*
X21256200Y-12759750D02*
X21216200Y-12799750D01*
X21218700Y-18889600D02*
X21258700Y-18929600D01*
X21258700Y-18889600D02*
X21218700Y-18929600D01*
X21221200Y-13954600D02*
X21261200Y-13994600D01*
X21261200Y-13954600D02*
X21221200Y-13994600D01*
X21237489Y-14521413D02*
X21277489Y-14561413D01*
X21277489Y-14521413D02*
X21237489Y-14561413D01*
X21246200Y-16410250D02*
X21286200Y-16450250D01*
X21286200Y-16410250D02*
X21246200Y-16450250D01*
X21305000Y-18805000D02*
X21345000Y-18845000D01*
X21345000Y-18805000D02*
X21305000Y-18845000D01*
X21347730Y-14614600D02*
X21387730Y-14654600D01*
X21387730Y-14614600D02*
X21347730Y-14654600D01*
X21423123Y-18767259D02*
X21463123Y-18807259D01*
X21463123Y-18767259D02*
X21423123Y-18807259D01*
X21426200Y-13724600D02*
X21466200Y-13764600D01*
X21466200Y-13724600D02*
X21426200Y-13764600D01*
X21429334Y-14405091D02*
X21469334Y-14445091D01*
X21469334Y-14405091D02*
X21429334Y-14445091D01*
X21433048Y-16410250D02*
X21473048Y-16450250D01*
X21473048Y-16410250D02*
X21433048Y-16450250D01*
X21465830Y-18676892D02*
X21505830Y-18716892D01*
X21505830Y-18676892D02*
X21465830Y-18716892D01*
X21526165Y-14380315D02*
X21566165Y-14420315D01*
X21566165Y-14380315D02*
X21526165Y-14420315D01*
X21526300Y-13952483D02*
X21566300Y-13992483D01*
X21566300Y-13952483D02*
X21526300Y-13992483D01*
X21531900Y-13111800D02*
X21571900Y-13151800D01*
X21571900Y-13111800D02*
X21531900Y-13151800D01*
X21532690Y-18602597D02*
X21572690Y-18642597D01*
X21572690Y-18602597D02*
X21532690Y-18642597D01*
X21533212Y-16416260D02*
X21573212Y-16456260D01*
X21573212Y-16416260D02*
X21533212Y-16456260D01*
X21572100Y-16924600D02*
X21612100Y-16964600D01*
X21612100Y-16924600D02*
X21572100Y-16964600D01*
X21572100Y-17039600D02*
X21612100Y-17079600D01*
X21612100Y-17039600D02*
X21572100Y-17079600D01*
X21572100Y-17139550D02*
X21612100Y-17179550D01*
X21612100Y-17139550D02*
X21572100Y-17179550D01*
X21590074Y-19190726D02*
X21630074Y-19230726D01*
X21630074Y-19190726D02*
X21590074Y-19230726D01*
X21595400Y-13353100D02*
X21635400Y-13393100D01*
X21635400Y-13353100D02*
X21595400Y-13393100D01*
X21598950Y-13882598D02*
X21638950Y-13922598D01*
X21638950Y-13882598D02*
X21598950Y-13922598D01*
X21617500Y-17484600D02*
X21657500Y-17524600D01*
X21657500Y-17484600D02*
X21617500Y-17524600D01*
X21622452Y-18014676D02*
X21662452Y-18054676D01*
X21662452Y-18014676D02*
X21622452Y-18054676D01*
X21633500Y-17620300D02*
X21673500Y-17660300D01*
X21673500Y-17620300D02*
X21633500Y-17660300D01*
X21637086Y-16417391D02*
X21677086Y-16457391D01*
X21677086Y-16417391D02*
X21637086Y-16457391D01*
X21671600Y-13442000D02*
X21711600Y-13482000D01*
X21711600Y-13442000D02*
X21671600Y-13482000D01*
X21671600Y-13975400D02*
X21711600Y-14015400D01*
X21711600Y-13975400D02*
X21671600Y-14015400D01*
X21680000Y-10730000D02*
X21720000Y-10770000D01*
X21720000Y-10730000D02*
X21680000Y-10770000D01*
X21709700Y-15359700D02*
X21749700Y-15399700D01*
X21749700Y-15359700D02*
X21709700Y-15399700D01*
X21722400Y-18014000D02*
X21762400Y-18054000D01*
X21762400Y-18014000D02*
X21722400Y-18054000D01*
X21787748Y-15297262D02*
X21827748Y-15337262D01*
X21827748Y-15297262D02*
X21787748Y-15337262D01*
X21795050Y-17937216D02*
X21835050Y-17977216D01*
X21835050Y-17937216D02*
X21795050Y-17977216D01*
X21816200Y-13669600D02*
X21856200Y-13709600D01*
X21856200Y-13669600D02*
X21816200Y-13709600D01*
X21863750Y-14394500D02*
X21903750Y-14434500D01*
X21903750Y-14394500D02*
X21863750Y-14434500D01*
X21865796Y-15234823D02*
X21905796Y-15274823D01*
X21905796Y-15234823D02*
X21865796Y-15274823D01*
X21873150Y-16607864D02*
X21913150Y-16647864D01*
X21913150Y-16607864D02*
X21873150Y-16647864D01*
X21874800Y-18026700D02*
X21914800Y-18066700D01*
X21914800Y-18026700D02*
X21874800Y-18066700D01*
X21891200Y-17334600D02*
X21931200Y-17374600D01*
X21931200Y-17334600D02*
X21891200Y-17374600D01*
X21895800Y-14054600D02*
X21935800Y-14094600D01*
X21935800Y-14054600D02*
X21895800Y-14094600D01*
X21930000Y-10880000D02*
X21970000Y-10920000D01*
X21970000Y-10880000D02*
X21930000Y-10920000D01*
X21930000Y-12430000D02*
X21970000Y-12470000D01*
X21970000Y-12430000D02*
X21930000Y-12470000D01*
X21963700Y-14394500D02*
X22003700Y-14434500D01*
X22003700Y-14394500D02*
X21963700Y-14434500D01*
X21965360Y-15155262D02*
X22005360Y-15195262D01*
X22005360Y-15155262D02*
X21965360Y-15195262D01*
X21967250Y-12614450D02*
X22007250Y-12654450D01*
X22007250Y-12614450D02*
X21967250Y-12654450D01*
X21967250Y-13414600D02*
X22007250Y-13454600D01*
X22007250Y-13414600D02*
X21967250Y-13454600D01*
X22014500Y-15537500D02*
X22054500Y-15577500D01*
X22054500Y-15537500D02*
X22014500Y-15577500D01*
X22031200Y-18304600D02*
X22071200Y-18344600D01*
X22071200Y-18304600D02*
X22031200Y-18344600D01*
X22036200Y-12080000D02*
X22076200Y-12120000D01*
X22076200Y-12080000D02*
X22036200Y-12120000D01*
X22039900Y-13823000D02*
X22079900Y-13863000D01*
X22079900Y-13823000D02*
X22039900Y-13863000D01*
X22094450Y-15622850D02*
X22134450Y-15662850D01*
X22134450Y-15622850D02*
X22094450Y-15662850D01*
X22116100Y-18026700D02*
X22156100Y-18066700D01*
X22156100Y-18026700D02*
X22116100Y-18066700D01*
X22118450Y-13924600D02*
X22158450Y-13964600D01*
X22158450Y-13924600D02*
X22118450Y-13964600D01*
X22119800Y-12580000D02*
X22159800Y-12620000D01*
X22159800Y-12580000D02*
X22119800Y-12620000D01*
X22121200Y-16222747D02*
X22161200Y-16262747D01*
X22161200Y-16222747D02*
X22121200Y-16262747D01*
X22130000Y-10855000D02*
X22170000Y-10895000D01*
X22170000Y-10855000D02*
X22130000Y-10895000D01*
X22130000Y-11805000D02*
X22170000Y-11845000D01*
X22170000Y-11805000D02*
X22130000Y-11845000D01*
X22196200Y-18269600D02*
X22236200Y-18309600D01*
X22236200Y-18269600D02*
X22196200Y-18309600D01*
X22205000Y-12687100D02*
X22245000Y-12727100D01*
X22245000Y-12687100D02*
X22205000Y-12727100D01*
X22205000Y-12832400D02*
X22245000Y-12872400D01*
X22245000Y-12832400D02*
X22205000Y-12872400D01*
X22230400Y-14496100D02*
X22270400Y-14536100D01*
X22270400Y-14496100D02*
X22230400Y-14536100D01*
X22255202Y-19632251D02*
X22295202Y-19672251D01*
X22295202Y-19632251D02*
X22255202Y-19672251D01*
X22259550Y-17267478D02*
X22299550Y-17307478D01*
X22299550Y-17267478D02*
X22259550Y-17307478D01*
X22259550Y-17367428D02*
X22299550Y-17407428D01*
X22299550Y-17367428D02*
X22259550Y-17407428D01*
X22259550Y-17467379D02*
X22299550Y-17507379D01*
X22299550Y-17467379D02*
X22259550Y-17507379D01*
X22259550Y-17612679D02*
X22299550Y-17652679D01*
X22299550Y-17612679D02*
X22259550Y-17652679D01*
X22264950Y-13469600D02*
X22304950Y-13509600D01*
X22304950Y-13469600D02*
X22264950Y-13509600D01*
X22281200Y-18026700D02*
X22321200Y-18066700D01*
X22321200Y-18026700D02*
X22281200Y-18066700D01*
X22286200Y-13784600D02*
X22326200Y-13824600D01*
X22326200Y-13784600D02*
X22286200Y-13824600D01*
X22292928Y-17832872D02*
X22332928Y-17872872D01*
X22332928Y-17832872D02*
X22292928Y-17872872D01*
X22301200Y-16374600D02*
X22341200Y-16414600D01*
X22341200Y-16374600D02*
X22301200Y-16414600D01*
X22306200Y-14344600D02*
X22346200Y-14384600D01*
X22346200Y-14344600D02*
X22306200Y-14384600D01*
X22327852Y-19722948D02*
X22367852Y-19762948D01*
X22367852Y-19722948D02*
X22327852Y-19762948D01*
X22344700Y-13696000D02*
X22384700Y-13736000D01*
X22384700Y-13696000D02*
X22344700Y-13736000D01*
X22355000Y-11805000D02*
X22395000Y-11845000D01*
X22395000Y-11805000D02*
X22355000Y-11845000D01*
X22357400Y-17734600D02*
X22397400Y-17774600D01*
X22397400Y-17734600D02*
X22357400Y-17774600D01*
X22359550Y-17612679D02*
X22399550Y-17652679D01*
X22399550Y-17612679D02*
X22359550Y-17652679D01*
X22373650Y-16454600D02*
X22413650Y-16494600D01*
X22413650Y-16454600D02*
X22373650Y-16494600D01*
X22373650Y-16569600D02*
X22413650Y-16609600D01*
X22413650Y-16569600D02*
X22373650Y-16609600D01*
X22379021Y-17067251D02*
X22419021Y-17107251D01*
X22419021Y-17067251D02*
X22379021Y-17107251D01*
X22433700Y-19144300D02*
X22473700Y-19184300D01*
X22473700Y-19144300D02*
X22433700Y-19184300D01*
X22446300Y-13683250D02*
X22486300Y-13723250D01*
X22486300Y-13683250D02*
X22446300Y-13723250D01*
X22448850Y-13237219D02*
X22488850Y-13277219D01*
X22488850Y-13237219D02*
X22448850Y-13277219D01*
X22455000Y-12105000D02*
X22495000Y-12145000D01*
X22495000Y-12105000D02*
X22455000Y-12145000D01*
X22455000Y-12469950D02*
X22495000Y-12509950D01*
X22495000Y-12469950D02*
X22455000Y-12509950D01*
X22455000Y-12655000D02*
X22495000Y-12695000D01*
X22495000Y-12655000D02*
X22455000Y-12695000D01*
X22471700Y-15949000D02*
X22511700Y-15989000D01*
X22511700Y-15949000D02*
X22471700Y-15989000D01*
X22480000Y-13130000D02*
X22520000Y-13170000D01*
X22520000Y-13130000D02*
X22480000Y-13170000D01*
X22522132Y-17948702D02*
X22562132Y-17988702D01*
X22562132Y-17948702D02*
X22522132Y-17988702D01*
X22522500Y-14751950D02*
X22562500Y-14791950D01*
X22562500Y-14751950D02*
X22522500Y-14791950D01*
X22532876Y-19156713D02*
X22572876Y-19196713D01*
X22572876Y-19156713D02*
X22532876Y-19196713D01*
X22554134Y-14332157D02*
X22594134Y-14372157D01*
X22594134Y-14332157D02*
X22554134Y-14372157D01*
X22561200Y-13590750D02*
X22601200Y-13630750D01*
X22601200Y-13590750D02*
X22561200Y-13630750D01*
X22561200Y-18319600D02*
X22601200Y-18359600D01*
X22601200Y-18319600D02*
X22561200Y-18359600D01*
X22592500Y-10892500D02*
X22632500Y-10932500D01*
X22632500Y-10892500D02*
X22592500Y-10932500D01*
X22594782Y-18021033D02*
X22634782Y-18061033D01*
X22634782Y-18021033D02*
X22594782Y-18061033D01*
X22595150Y-15397800D02*
X22635150Y-15437800D01*
X22635150Y-15397800D02*
X22595150Y-15437800D01*
X22607932Y-14545821D02*
X22647932Y-14585821D01*
X22647932Y-14545821D02*
X22607932Y-14585821D01*
X22636800Y-14824600D02*
X22676800Y-14864600D01*
X22676800Y-14824600D02*
X22636800Y-14864600D01*
X22651200Y-12709600D02*
X22691200Y-12749600D01*
X22691200Y-12709600D02*
X22651200Y-12749600D01*
X22676200Y-19161860D02*
X22716200Y-19201860D01*
X22716200Y-19161860D02*
X22676200Y-19201860D01*
X22713035Y-15308865D02*
X22753035Y-15348865D01*
X22753035Y-15308865D02*
X22713035Y-15348865D01*
X22721200Y-13590750D02*
X22761200Y-13630750D01*
X22761200Y-13590750D02*
X22721200Y-13630750D01*
X22730709Y-16265973D02*
X22770709Y-16305973D01*
X22770709Y-16265973D02*
X22730709Y-16305973D01*
X22738400Y-14699300D02*
X22778400Y-14739300D01*
X22778400Y-14699300D02*
X22738400Y-14739300D01*
X22745666Y-16364797D02*
X22785666Y-16404797D01*
X22785666Y-16364797D02*
X22745666Y-16404797D01*
X22751100Y-16464600D02*
X22791100Y-16504600D01*
X22791100Y-16464600D02*
X22751100Y-16504600D01*
X22751150Y-15874603D02*
X22791150Y-15914603D01*
X22791150Y-15874603D02*
X22751150Y-15914603D01*
X22771200Y-14034600D02*
X22811200Y-14074600D01*
X22811200Y-14034600D02*
X22771200Y-14074600D01*
X22785532Y-17584600D02*
X22825532Y-17624600D01*
X22825532Y-17584600D02*
X22785532Y-17624600D01*
X22785532Y-18364600D02*
X22825532Y-18404600D01*
X22825532Y-18364600D02*
X22785532Y-18404600D01*
X22833700Y-17914600D02*
X22873700Y-17954600D01*
X22873700Y-17914600D02*
X22833700Y-17954600D01*
X22833720Y-19429600D02*
X22873720Y-19469600D01*
X22873720Y-19429600D02*
X22833720Y-19469600D01*
X22840000Y-19804700D02*
X22880000Y-19844700D01*
X22880000Y-19804700D02*
X22840000Y-19844700D01*
X22840294Y-13817237D02*
X22880294Y-13857237D01*
X22880294Y-13817237D02*
X22840294Y-13857237D01*
X22841200Y-13609650D02*
X22881200Y-13649650D01*
X22881200Y-13609650D02*
X22841200Y-13649650D01*
X22841200Y-13709600D02*
X22881200Y-13749600D01*
X22881200Y-13709600D02*
X22841200Y-13749600D01*
X22841300Y-18272860D02*
X22881300Y-18312860D01*
X22881300Y-18272860D02*
X22841300Y-18312860D01*
X22845500Y-13959600D02*
X22885500Y-13999600D01*
X22885500Y-13959600D02*
X22845500Y-13999600D01*
X22845500Y-14116950D02*
X22885500Y-14156950D01*
X22885500Y-14116950D02*
X22845500Y-14156950D01*
X22891200Y-17139600D02*
X22931200Y-17179600D01*
X22931200Y-17139600D02*
X22891200Y-17179600D01*
X22905000Y-12302650D02*
X22945000Y-12342650D01*
X22945000Y-12302650D02*
X22905000Y-12342650D01*
X22955000Y-10730000D02*
X22995000Y-10770000D01*
X22995000Y-10730000D02*
X22955000Y-10770000D01*
X22973750Y-12468758D02*
X23013750Y-12508758D01*
X23013750Y-12468758D02*
X22973750Y-12508758D01*
X22992300Y-10885800D02*
X23032300Y-10925800D01*
X23032300Y-10885800D02*
X22992300Y-10925800D01*
X23030000Y-12155000D02*
X23070000Y-12195000D01*
X23070000Y-12155000D02*
X23030000Y-12195000D01*
X23036200Y-15299000D02*
X23076200Y-15339000D01*
X23076200Y-15299000D02*
X23036200Y-15339000D01*
X23036250Y-15889600D02*
X23076250Y-15929600D01*
X23076250Y-15889600D02*
X23036250Y-15929600D01*
X23046150Y-16469600D02*
X23086150Y-16509600D01*
X23086150Y-16469600D02*
X23046150Y-16509600D01*
X23046625Y-16364627D02*
X23086625Y-16404627D01*
X23086625Y-16364627D02*
X23046625Y-16404627D01*
X23051200Y-18844600D02*
X23091200Y-18884600D01*
X23091200Y-18844600D02*
X23051200Y-18884600D01*
X23066200Y-18309600D02*
X23106200Y-18349600D01*
X23106200Y-18309600D02*
X23066200Y-18349600D01*
X23068600Y-17620300D02*
X23108600Y-17660300D01*
X23108600Y-17620300D02*
X23068600Y-17660300D01*
X23069900Y-19161860D02*
X23109900Y-19201860D01*
X23109900Y-19161860D02*
X23069900Y-19201860D01*
X23071200Y-17144600D02*
X23111200Y-17184600D01*
X23111200Y-17144600D02*
X23071200Y-17184600D01*
X23080000Y-16680000D02*
X23120000Y-16720000D01*
X23120000Y-16680000D02*
X23080000Y-16720000D01*
X23105000Y-11680000D02*
X23145000Y-11720000D01*
X23145000Y-11680000D02*
X23105000Y-11720000D01*
X23115650Y-16292339D02*
X23155650Y-16332339D01*
X23155650Y-16292339D02*
X23115650Y-16332339D01*
X23117500Y-11817500D02*
X23157500Y-11857500D01*
X23157500Y-11817500D02*
X23117500Y-11857500D01*
X23161000Y-12244600D02*
X23201000Y-12284600D01*
X23201000Y-12244600D02*
X23161000Y-12284600D01*
X23161050Y-14913507D02*
X23201050Y-14953507D01*
X23201050Y-14913507D02*
X23161050Y-14953507D01*
X23161050Y-16197900D02*
X23201050Y-16237900D01*
X23201050Y-16197900D02*
X23161050Y-16237900D01*
X23177950Y-22080800D02*
X23217950Y-22120800D01*
X23217950Y-22080800D02*
X23177950Y-22120800D01*
X23233650Y-12988350D02*
X23273650Y-13028350D01*
X23273650Y-12988350D02*
X23233650Y-13028350D01*
X23233700Y-13619800D02*
X23273700Y-13659800D01*
X23273700Y-13619800D02*
X23233700Y-13659800D01*
X23233700Y-18014000D02*
X23273700Y-18054000D01*
X23273700Y-18014000D02*
X23233700Y-18054000D01*
X23259100Y-12548800D02*
X23299100Y-12588800D01*
X23299100Y-12548800D02*
X23259100Y-12588800D01*
X23259100Y-13310800D02*
X23299100Y-13350800D01*
X23299100Y-13310800D02*
X23259100Y-13350800D01*
X23260000Y-13472700D02*
X23300000Y-13512700D01*
X23300000Y-13472700D02*
X23260000Y-13512700D01*
X23280000Y-11330000D02*
X23320000Y-11370000D01*
X23320000Y-11330000D02*
X23280000Y-11370000D01*
X23311200Y-18285560D02*
X23351200Y-18325560D01*
X23351200Y-18285560D02*
X23311200Y-18325560D01*
X23313700Y-19414600D02*
X23353700Y-19454600D01*
X23353700Y-19414600D02*
X23313700Y-19454600D01*
X23322600Y-19792000D02*
X23362600Y-19832000D01*
X23362600Y-19792000D02*
X23322600Y-19832000D01*
X23343050Y-22271300D02*
X23383050Y-22311300D01*
X23383050Y-22271300D02*
X23343050Y-22311300D01*
X23351750Y-15661950D02*
X23391750Y-15701950D01*
X23391750Y-15661950D02*
X23351750Y-15701950D01*
X23380000Y-15155000D02*
X23420000Y-15195000D01*
X23420000Y-15155000D02*
X23380000Y-15195000D01*
X23386100Y-19157000D02*
X23426100Y-19197000D01*
X23426100Y-19157000D02*
X23386100Y-19197000D01*
X23391200Y-14279600D02*
X23431200Y-14319600D01*
X23431200Y-14279600D02*
X23391200Y-14319600D01*
X23398750Y-16134400D02*
X23438750Y-16174400D01*
X23438750Y-16134400D02*
X23398750Y-16174400D01*
X23398800Y-18026700D02*
X23438800Y-18066700D01*
X23438800Y-18026700D02*
X23398800Y-18066700D01*
X23400196Y-17925354D02*
X23440196Y-17965354D01*
X23440196Y-17925354D02*
X23400196Y-17965354D01*
X23431950Y-21268000D02*
X23471950Y-21308000D01*
X23471950Y-21268000D02*
X23431950Y-21308000D01*
X23463850Y-14189600D02*
X23503850Y-14229600D01*
X23503850Y-14189600D02*
X23463850Y-14229600D01*
X23466200Y-15734600D02*
X23506200Y-15774600D01*
X23506200Y-15734600D02*
X23466200Y-15774600D01*
X23469472Y-16063771D02*
X23509472Y-16103771D01*
X23509472Y-16063771D02*
X23469472Y-16103771D01*
X23472896Y-19059600D02*
X23512896Y-19099600D01*
X23512896Y-19059600D02*
X23472896Y-19099600D01*
X23546200Y-14294600D02*
X23586200Y-14334600D01*
X23586200Y-14294600D02*
X23546200Y-14334600D01*
X23552500Y-19161860D02*
X23592500Y-19201860D01*
X23592500Y-19161860D02*
X23552500Y-19201860D01*
X23553700Y-18014600D02*
X23593700Y-18054600D01*
X23593700Y-18014600D02*
X23553700Y-18054600D01*
X23558950Y-22182400D02*
X23598950Y-22222400D01*
X23598950Y-22182400D02*
X23558950Y-22222400D01*
X23627400Y-17633000D02*
X23667400Y-17673000D01*
X23667400Y-17633000D02*
X23627400Y-17673000D01*
X23632724Y-19059600D02*
X23672724Y-19099600D01*
X23672724Y-19059600D02*
X23632724Y-19099600D01*
X23660550Y-21115600D02*
X23700550Y-21155600D01*
X23700550Y-21115600D02*
X23660550Y-21155600D01*
X23705374Y-18294600D02*
X23745374Y-18334600D01*
X23745374Y-18294600D02*
X23705374Y-18334600D01*
X23717600Y-19161860D02*
X23757600Y-19201860D01*
X23757600Y-19161860D02*
X23717600Y-19201860D01*
X23730000Y-13380000D02*
X23770000Y-13420000D01*
X23770000Y-13380000D02*
X23730000Y-13420000D01*
X23730000Y-15855000D02*
X23770000Y-15895000D01*
X23770000Y-15855000D02*
X23730000Y-15895000D01*
X23749450Y-21268000D02*
X23789450Y-21308000D01*
X23789450Y-21268000D02*
X23749450Y-21308000D01*
X23755000Y-14880000D02*
X23795000Y-14920000D01*
X23795000Y-14880000D02*
X23755000Y-14920000D01*
X23774850Y-22487200D02*
X23814850Y-22527200D01*
X23814850Y-22487200D02*
X23774850Y-22527200D01*
X23780000Y-11455000D02*
X23820000Y-11495000D01*
X23820000Y-11455000D02*
X23780000Y-11495000D01*
X23825650Y-21191800D02*
X23865650Y-21231800D01*
X23865650Y-21191800D02*
X23825650Y-21231800D01*
X23846200Y-17884600D02*
X23886200Y-17924600D01*
X23886200Y-17884600D02*
X23846200Y-17924600D01*
X23861200Y-12809600D02*
X23901200Y-12849600D01*
X23901200Y-12809600D02*
X23861200Y-12849600D01*
X23886200Y-14564600D02*
X23926200Y-14604600D01*
X23926200Y-14564600D02*
X23886200Y-14604600D01*
X23901850Y-21026700D02*
X23941850Y-21066700D01*
X23941850Y-21026700D02*
X23901850Y-21066700D01*
X23955000Y-12380000D02*
X23995000Y-12420000D01*
X23995000Y-12380000D02*
X23955000Y-12420000D01*
X23976000Y-12934000D02*
X24016000Y-12974000D01*
X24016000Y-12934000D02*
X23976000Y-12974000D01*
X23980000Y-14489200D02*
X24020000Y-14529200D01*
X24020000Y-14489200D02*
X23980000Y-14529200D01*
X24016150Y-20947700D02*
X24056150Y-20987700D01*
X24056150Y-20947700D02*
X24016150Y-20987700D01*
X24070000Y-13059600D02*
X24110000Y-13099600D01*
X24110000Y-13059600D02*
X24070000Y-13099600D01*
X24070000Y-14409600D02*
X24110000Y-14449600D01*
X24110000Y-14409600D02*
X24070000Y-14449600D01*
X24142650Y-13789600D02*
X24182650Y-13829600D01*
X24182650Y-13789600D02*
X24142650Y-13829600D01*
X24170000Y-13437800D02*
X24210000Y-13477800D01*
X24210000Y-13437800D02*
X24170000Y-13477800D01*
X24180000Y-13314600D02*
X24220000Y-13354600D01*
X24220000Y-13314600D02*
X24180000Y-13354600D01*
X24180000Y-13580000D02*
X24220000Y-13620000D01*
X24220000Y-13580000D02*
X24180000Y-13620000D01*
X24215300Y-14034600D02*
X24255300Y-14074600D01*
X24255300Y-14034600D02*
X24215300Y-14074600D01*
X24247900Y-22385600D02*
X24287900Y-22425600D01*
X24287900Y-22385600D02*
X24247900Y-22425600D01*
X24290000Y-14116950D02*
X24330000Y-14156950D01*
X24330000Y-14116950D02*
X24290000Y-14156950D01*
X24320950Y-20048800D02*
X24360950Y-20088800D01*
X24360950Y-20048800D02*
X24320950Y-20088800D01*
X24321200Y-20729600D02*
X24361200Y-20769600D01*
X24361200Y-20729600D02*
X24321200Y-20769600D01*
X24346350Y-22080800D02*
X24386350Y-22120800D01*
X24386350Y-22080800D02*
X24346350Y-22120800D01*
X24346350Y-22182400D02*
X24386350Y-22222400D01*
X24386350Y-22182400D02*
X24346350Y-22222400D01*
X24346350Y-22282350D02*
X24386350Y-22322350D01*
X24386350Y-22282350D02*
X24346350Y-22322350D01*
X24355000Y-12380000D02*
X24395000Y-12420000D01*
X24395000Y-12380000D02*
X24355000Y-12420000D01*
X24380000Y-13905000D02*
X24420000Y-13945000D01*
X24420000Y-13905000D02*
X24380000Y-13945000D01*
X24447950Y-21306100D02*
X24487950Y-21346100D01*
X24487950Y-21306100D02*
X24447950Y-21346100D01*
X24480000Y-14305000D02*
X24520000Y-14345000D01*
X24520000Y-14305000D02*
X24480000Y-14345000D01*
X24511450Y-22080800D02*
X24551450Y-22120800D01*
X24551450Y-22080800D02*
X24511450Y-22120800D01*
X24511450Y-22372900D02*
X24551450Y-22412900D01*
X24551450Y-22372900D02*
X24511450Y-22412900D01*
X24574950Y-21217200D02*
X24614950Y-21257200D01*
X24614950Y-21217200D02*
X24574950Y-21257200D01*
X24580000Y-14280000D02*
X24620000Y-14320000D01*
X24620000Y-14280000D02*
X24580000Y-14320000D01*
X24701950Y-21026700D02*
X24741950Y-21066700D01*
X24741950Y-21026700D02*
X24701950Y-21066700D01*
X24805000Y-14680000D02*
X24845000Y-14720000D01*
X24845000Y-14680000D02*
X24805000Y-14720000D01*
X24805000Y-15730000D02*
X24845000Y-15770000D01*
X24845000Y-15730000D02*
X24805000Y-15770000D01*
X24816250Y-20950500D02*
X24856250Y-20990500D01*
X24856250Y-20950500D02*
X24816250Y-20990500D01*
X24830000Y-11830000D02*
X24870000Y-11870000D01*
X24870000Y-11830000D02*
X24830000Y-11870000D01*
X24911200Y-18304600D02*
X24951200Y-18344600D01*
X24951200Y-18304600D02*
X24911200Y-18344600D01*
X24943250Y-21115600D02*
X24983250Y-21155600D01*
X24983250Y-21115600D02*
X24943250Y-21155600D01*
X25086200Y-20379600D02*
X25126200Y-20419600D01*
X25126200Y-20379600D02*
X25086200Y-20419600D01*
X25141200Y-18679600D02*
X25181200Y-18719600D01*
X25181200Y-18679600D02*
X25141200Y-18719600D01*
X25166200Y-22379600D02*
X25206200Y-22419600D01*
X25206200Y-22379600D02*
X25166200Y-22419600D01*
X25209950Y-20388710D02*
X25249950Y-20428710D01*
X25249950Y-20388710D02*
X25209950Y-20428710D01*
X25209950Y-21306100D02*
X25249950Y-21346100D01*
X25249950Y-21306100D02*
X25209950Y-21346100D01*
X25280000Y-11380000D02*
X25320000Y-11420000D01*
X25320000Y-11380000D02*
X25280000Y-11420000D01*
X25354600Y-20769900D02*
X25394600Y-20809900D01*
X25394600Y-20769900D02*
X25354600Y-20809900D01*
X25354600Y-22080000D02*
X25394600Y-22120000D01*
X25394600Y-22080000D02*
X25354600Y-22120000D01*
X25492000Y-19675300D02*
X25532000Y-19715300D01*
X25532000Y-19675300D02*
X25492000Y-19715300D01*
X25611200Y-21505000D02*
X25651200Y-21545000D01*
X25651200Y-21505000D02*
X25611200Y-21545000D01*
X25682500Y-18824400D02*
X25722500Y-18864400D01*
X25722500Y-18824400D02*
X25682500Y-18864400D01*
X25930000Y-15855000D02*
X25970000Y-15895000D01*
X25970000Y-15855000D02*
X25930000Y-15895000D01*
X25961900Y-19078400D02*
X26001900Y-19118400D01*
X26001900Y-19078400D02*
X25961900Y-19118400D01*
X25961900Y-19713400D02*
X26001900Y-19753400D01*
X26001900Y-19713400D02*
X25961900Y-19753400D01*
X25987300Y-20742100D02*
X26027300Y-20782100D01*
X26027300Y-20742100D02*
X25987300Y-20782100D01*
X26105000Y-14640000D02*
X26145000Y-14680000D01*
X26145000Y-14640000D02*
X26105000Y-14680000D01*
X26130000Y-15455000D02*
X26170000Y-15495000D01*
X26170000Y-15455000D02*
X26130000Y-15495000D01*
X26190146Y-14865000D02*
X26230146Y-14905000D01*
X26230146Y-14865000D02*
X26190146Y-14905000D01*
X26205000Y-18755000D02*
X26245000Y-18795000D01*
X26245000Y-18755000D02*
X26205000Y-18795000D01*
X26215900Y-19713400D02*
X26255900Y-19753400D01*
X26255900Y-19713400D02*
X26215900Y-19753400D01*
X26228600Y-19192700D02*
X26268600Y-19232700D01*
X26268600Y-19192700D02*
X26228600Y-19232700D01*
X26505000Y-11355000D02*
X26545000Y-11395000D01*
X26545000Y-11355000D02*
X26505000Y-11395000D01*
X26556000Y-14324500D02*
X26596000Y-14364500D01*
X26596000Y-14324500D02*
X26556000Y-14364500D01*
X26609600Y-19586400D02*
X26649600Y-19626400D01*
X26649600Y-19586400D02*
X26609600Y-19626400D01*
X26939800Y-19649900D02*
X26979800Y-19689900D01*
X26979800Y-19649900D02*
X26939800Y-19689900D01*
X26939800Y-20145200D02*
X26979800Y-20185200D01*
X26979800Y-20145200D02*
X26939800Y-20185200D01*
X27041400Y-19535600D02*
X27081400Y-19575600D01*
X27081400Y-19535600D02*
X27041400Y-19575600D01*
X27041400Y-20310300D02*
X27081400Y-20350300D01*
X27081400Y-20310300D02*
X27041400Y-20350300D01*
D13*
X14375000Y-10025000D02*
G75*
G03*
X14375000Y-10025000I-25000J0D01*
G01*
D14*
X10718000Y-22415710D02*
X10718000Y-22485710D01*
X10683000Y-22450710D02*
X10753000Y-22450710D01*
X10718000Y-22845710D02*
X10718000Y-22915710D01*
X10683000Y-22880710D02*
X10753000Y-22880710D01*
X11198000Y-22415710D02*
X11198000Y-22485710D01*
X11163000Y-22450710D02*
X11233000Y-22450710D01*
X11198000Y-22845710D02*
X11198000Y-22915710D01*
X11163000Y-22880710D02*
X11233000Y-22880710D01*
X24075550Y-22473100D02*
X24075550Y-22543100D01*
X24040550Y-22508100D02*
X24110550Y-22508100D01*
X24075550Y-22903100D02*
X24075550Y-22973100D01*
X24040550Y-22938100D02*
X24110550Y-22938100D01*
X24555550Y-22473100D02*
X24555550Y-22543100D01*
X24520550Y-22508100D02*
X24590550Y-22508100D01*
X24555550Y-22903100D02*
X24555550Y-22973100D01*
X24520550Y-22938100D02*
X24590550Y-22938100D01*
D15*
X13653284Y-19678285D02*
X13653284Y-19621716D01*
X13596715Y-19621716D01*
X13596715Y-19678285D01*
X13653284Y-19678285D01*
X13653284Y-20273285D02*
X13653284Y-20216716D01*
X13596715Y-20216716D01*
X13596715Y-20273285D01*
X13653284Y-20273285D01*
X13653284Y-20868285D02*
X13653284Y-20811716D01*
X13596715Y-20811716D01*
X13596715Y-20868285D01*
X13653284Y-20868285D01*
X13853284Y-19678285D02*
X13853284Y-19621716D01*
X13796715Y-19621716D01*
X13796715Y-19678285D01*
X13853284Y-19678285D01*
X13853284Y-20273285D02*
X13853284Y-20216716D01*
X13796715Y-20216716D01*
X13796715Y-20273285D01*
X13853284Y-20273285D01*
X13853284Y-20868285D02*
X13853284Y-20811716D01*
X13796715Y-20811716D01*
X13796715Y-20868285D01*
X13853284Y-20868285D01*
X14053284Y-19678285D02*
X14053284Y-19621716D01*
X13996715Y-19621716D01*
X13996715Y-19678285D01*
X14053284Y-19678285D01*
X14053284Y-20273285D02*
X14053284Y-20216716D01*
X13996715Y-20216716D01*
X13996715Y-20273285D01*
X14053284Y-20273285D01*
X14053284Y-20868285D02*
X14053284Y-20811716D01*
X13996715Y-20811716D01*
X13996715Y-20868285D01*
X14053284Y-20868285D01*
D11*
X8548333Y-21882533D02*
X8598333Y-21832533D01*
X8548333Y-21782533D01*
X8498333Y-21832533D01*
X8548333Y-21882533D01*
X9248333Y-19682533D02*
X9298333Y-19632533D01*
X9248333Y-19582533D01*
X9198333Y-19632533D01*
X9248333Y-19682533D01*
X9562550Y-17579900D02*
X9612550Y-17529900D01*
X9562550Y-17479900D01*
X9512550Y-17529900D01*
X9562550Y-17579900D01*
X9562550Y-18126000D02*
X9612550Y-18076000D01*
X9562550Y-18026000D01*
X9512550Y-18076000D01*
X9562550Y-18126000D01*
X9950000Y-10747500D02*
X10000000Y-10697500D01*
X9950000Y-10647500D01*
X9900000Y-10697500D01*
X9950000Y-10747500D01*
X10275675Y-15123000D02*
X10325675Y-15073000D01*
X10275675Y-15023000D01*
X10225675Y-15073000D01*
X10275675Y-15123000D01*
X11182900Y-15124900D02*
X11232900Y-15074900D01*
X11182900Y-15024900D01*
X11132900Y-15074900D01*
X11182900Y-15124900D01*
X11618000Y-22515710D02*
X11668000Y-22465710D01*
X11618000Y-22415710D01*
X11568000Y-22465710D01*
X11618000Y-22515710D01*
X11618000Y-22910710D02*
X11668000Y-22860710D01*
X11618000Y-22810710D01*
X11568000Y-22860710D01*
X11618000Y-22910710D01*
X12495400Y-10356500D02*
X12545400Y-10306500D01*
X12495400Y-10256500D01*
X12445400Y-10306500D01*
X12495400Y-10356500D01*
X12495400Y-10610500D02*
X12545400Y-10560500D01*
X12495400Y-10510500D01*
X12445400Y-10560500D01*
X12495400Y-10610500D01*
X12495400Y-10864500D02*
X12545400Y-10814500D01*
X12495400Y-10764500D01*
X12445400Y-10814500D01*
X12495400Y-10864500D01*
X12561675Y-16043700D02*
X12611675Y-15993700D01*
X12561675Y-15943700D01*
X12511675Y-15993700D01*
X12561675Y-16043700D01*
X12561675Y-16831100D02*
X12611675Y-16781100D01*
X12561675Y-16731100D01*
X12511675Y-16781100D01*
X12561675Y-16831100D01*
X13440400Y-10045500D02*
X13490400Y-9995500D01*
X13440400Y-9945500D01*
X13390400Y-9995500D01*
X13440400Y-10045500D01*
X13445400Y-10600500D02*
X13495400Y-10550500D01*
X13445400Y-10500500D01*
X13395400Y-10550500D01*
X13445400Y-10600500D01*
X13445400Y-11160500D02*
X13495400Y-11110500D01*
X13445400Y-11060500D01*
X13395400Y-11110500D01*
X13445400Y-11160500D01*
X14945000Y-20095000D02*
X14995000Y-20045000D01*
X14945000Y-19995000D01*
X14895000Y-20045000D01*
X14945000Y-20095000D01*
X15055000Y-19665000D02*
X15105000Y-19615000D01*
X15055000Y-19565000D01*
X15005000Y-19615000D01*
X15055000Y-19665000D01*
X15645000Y-19665000D02*
X15695000Y-19615000D01*
X15645000Y-19565000D01*
X15595000Y-19615000D01*
X15645000Y-19665000D01*
X16105000Y-19665000D02*
X16155000Y-19615000D01*
X16105000Y-19565000D01*
X16055000Y-19615000D01*
X16105000Y-19665000D01*
X16300000Y-12900000D02*
X16350000Y-12850000D01*
X16300000Y-12800000D01*
X16250000Y-12850000D01*
X16300000Y-12900000D01*
X16300000Y-13154000D02*
X16350000Y-13104000D01*
X16300000Y-13054000D01*
X16250000Y-13104000D01*
X16300000Y-13154000D01*
X16765000Y-19665000D02*
X16815000Y-19615000D01*
X16765000Y-19565000D01*
X16715000Y-19615000D01*
X16765000Y-19665000D01*
X17220000Y-19665000D02*
X17270000Y-19615000D01*
X17220000Y-19565000D01*
X17170000Y-19615000D01*
X17220000Y-19665000D01*
X17715000Y-19665000D02*
X17765000Y-19615000D01*
X17715000Y-19565000D01*
X17665000Y-19615000D01*
X17715000Y-19665000D01*
X17915000Y-20100000D02*
X17965000Y-20050000D01*
X17915000Y-20000000D01*
X17865000Y-20050000D01*
X17915000Y-20100000D01*
X19024600Y-17449000D02*
X19074600Y-17399000D01*
X19024600Y-17349000D01*
X18974600Y-17399000D01*
X19024600Y-17449000D01*
X24007600Y-11682500D02*
X24057600Y-11632500D01*
X24007600Y-11582500D01*
X23957600Y-11632500D01*
X24007600Y-11682500D01*
X24432600Y-11682500D02*
X24482600Y-11632500D01*
X24432600Y-11582500D01*
X24382600Y-11632500D01*
X24432600Y-11682500D01*
X24700000Y-15250000D02*
X24750000Y-15200000D01*
X24700000Y-15150000D01*
X24650000Y-15200000D01*
X24700000Y-15250000D01*
X24700000Y-15600000D02*
X24750000Y-15550000D01*
X24700000Y-15500000D01*
X24650000Y-15550000D01*
X24700000Y-15600000D01*
X24801300Y-19015700D02*
X24851300Y-18965700D01*
X24801300Y-18915700D01*
X24751300Y-18965700D01*
X24801300Y-19015700D01*
X24806300Y-19525700D02*
X24856300Y-19475700D01*
X24806300Y-19425700D01*
X24756300Y-19475700D01*
X24806300Y-19525700D01*
X24965050Y-22567100D02*
X25015050Y-22517100D01*
X24965050Y-22467100D01*
X24915050Y-22517100D01*
X24965050Y-22567100D01*
X24965050Y-22925000D02*
X25015050Y-22875000D01*
X24965050Y-22825000D01*
X24915050Y-22875000D01*
X24965050Y-22925000D01*
X25107600Y-11682500D02*
X25157600Y-11632500D01*
X25107600Y-11582500D01*
X25057600Y-11632500D01*
X25107600Y-11682500D01*
X26076000Y-14007000D02*
X26126000Y-13957000D01*
X26076000Y-13907000D01*
X26026000Y-13957000D01*
X26076000Y-14007000D01*
X26651000Y-14007000D02*
X26701000Y-13957000D01*
X26651000Y-13907000D01*
X26601000Y-13957000D01*
X26651000Y-14007000D01*
X27441000Y-15073000D02*
X27491000Y-15023000D01*
X27441000Y-14973000D01*
X27391000Y-15023000D01*
X27441000Y-15073000D01*
X27441000Y-15347000D02*
X27491000Y-15297000D01*
X27441000Y-15247000D01*
X27391000Y-15297000D01*
X27441000Y-15347000D01*
X27441000Y-15621000D02*
X27491000Y-15571000D01*
X27441000Y-15521000D01*
X27391000Y-15571000D01*
X27441000Y-15621000D01*
X27441000Y-15895000D02*
X27491000Y-15845000D01*
X27441000Y-15795000D01*
X27391000Y-15845000D01*
X27441000Y-15895000D01*
X27486300Y-19306700D02*
X27536300Y-19256700D01*
X27486300Y-19206700D01*
X27436300Y-19256700D01*
X27486300Y-19306700D01*
X27486300Y-19580700D02*
X27536300Y-19530700D01*
X27486300Y-19480700D01*
X27436300Y-19530700D01*
X27486300Y-19580700D01*
X27486300Y-19854700D02*
X27536300Y-19804700D01*
X27486300Y-19754700D01*
X27436300Y-19804700D01*
X27486300Y-19854700D01*
X27486300Y-20128700D02*
X27536300Y-20078700D01*
X27486300Y-20028700D01*
X27436300Y-20078700D01*
X27486300Y-20128700D01*
X27486300Y-20402700D02*
X27536300Y-20352700D01*
X27486300Y-20302700D01*
X27436300Y-20352700D01*
X27486300Y-20402700D01*
X27725000Y-14936000D02*
X27775000Y-14886000D01*
X27725000Y-14836000D01*
X27675000Y-14886000D01*
X27725000Y-14936000D01*
X27725000Y-15210000D02*
X27775000Y-15160000D01*
X27725000Y-15110000D01*
X27675000Y-15160000D01*
X27725000Y-15210000D01*
X27725000Y-15484000D02*
X27775000Y-15434000D01*
X27725000Y-15384000D01*
X27675000Y-15434000D01*
X27725000Y-15484000D01*
X27725000Y-15758000D02*
X27775000Y-15708000D01*
X27725000Y-15658000D01*
X27675000Y-15708000D01*
X27725000Y-15758000D01*
X27725000Y-16032000D02*
X27775000Y-15982000D01*
X27725000Y-15932000D01*
X27675000Y-15982000D01*
X27725000Y-16032000D01*
X27770300Y-19443700D02*
X27820300Y-19393700D01*
X27770300Y-19343700D01*
X27720300Y-19393700D01*
X27770300Y-19443700D01*
X27770300Y-19717700D02*
X27820300Y-19667700D01*
X27770300Y-19617700D01*
X27720300Y-19667700D01*
X27770300Y-19717700D01*
X27770300Y-19991700D02*
X27820300Y-19941700D01*
X27770300Y-19891700D01*
X27720300Y-19941700D01*
X27770300Y-19991700D01*
X27770300Y-20265700D02*
X27820300Y-20215700D01*
X27770300Y-20165700D01*
X27720300Y-20215700D01*
X27770300Y-20265700D01*
X28175000Y-21750000D02*
X28225000Y-21700000D01*
X28175000Y-21650000D01*
X28125000Y-21700000D01*
X28175000Y-21750000D01*
X28175000Y-22004000D02*
X28225000Y-21954000D01*
X28175000Y-21904000D01*
X28125000Y-21954000D01*
X28175000Y-22004000D01*
D16*
X8638675Y-10855000D02*
X8740675Y-10957000D01*
X8740675Y-10855000D02*
X8638675Y-10957000D01*
X8740675Y-10906000D02*
G75*
G03*
X8740675Y-10906000I-51000J0D01*
G01*
X8638675Y-11155000D02*
X8740675Y-11257000D01*
X8740675Y-11155000D02*
X8638675Y-11257000D01*
X8740675Y-11206000D02*
G75*
G03*
X8740675Y-11206000I-51000J0D01*
G01*
X8673368Y-20495033D02*
X8775368Y-20597033D01*
X8775368Y-20495033D02*
X8673368Y-20597033D01*
X8775368Y-20546033D02*
G75*
G03*
X8775368Y-20546033I-51000J0D01*
G01*
X8673368Y-20795033D02*
X8775368Y-20897033D01*
X8775368Y-20795033D02*
X8673368Y-20897033D01*
X8775368Y-20846033D02*
G75*
G03*
X8775368Y-20846033I-51000J0D01*
G01*
X8764175Y-12423300D02*
X8866175Y-12525300D01*
X8866175Y-12423300D02*
X8764175Y-12525300D01*
X8866175Y-12474300D02*
G75*
G03*
X8866175Y-12474300I-51000J0D01*
G01*
X8764175Y-12723300D02*
X8866175Y-12825300D01*
X8866175Y-12723300D02*
X8764175Y-12825300D01*
X8866175Y-12774300D02*
G75*
G03*
X8866175Y-12774300I-51000J0D01*
G01*
X8764175Y-13023300D02*
X8866175Y-13125300D01*
X8866175Y-13023300D02*
X8764175Y-13125300D01*
X8866175Y-13074300D02*
G75*
G03*
X8866175Y-13074300I-51000J0D01*
G01*
X8767200Y-15961100D02*
X8869200Y-16063100D01*
X8869200Y-15961100D02*
X8767200Y-16063100D01*
X8869200Y-16012100D02*
G75*
G03*
X8869200Y-16012100I-51000J0D01*
G01*
X8767200Y-16261100D02*
X8869200Y-16363100D01*
X8869200Y-16261100D02*
X8767200Y-16363100D01*
X8869200Y-16312100D02*
G75*
G03*
X8869200Y-16312100I-51000J0D01*
G01*
X8773850Y-14163900D02*
X8875850Y-14265900D01*
X8875850Y-14163900D02*
X8773850Y-14265900D01*
X8875850Y-14214900D02*
G75*
G03*
X8875850Y-14214900I-51000J0D01*
G01*
X8773850Y-14463900D02*
X8875850Y-14565900D01*
X8875850Y-14463900D02*
X8773850Y-14565900D01*
X8875850Y-14514900D02*
G75*
G03*
X8875850Y-14514900I-51000J0D01*
G01*
X8773850Y-17669100D02*
X8875850Y-17771100D01*
X8875850Y-17669100D02*
X8773850Y-17771100D01*
X8875850Y-17720100D02*
G75*
G03*
X8875850Y-17720100I-51000J0D01*
G01*
X8773850Y-17969100D02*
X8875850Y-18071100D01*
X8875850Y-17969100D02*
X8773850Y-18071100D01*
X8875850Y-18020100D02*
G75*
G03*
X8875850Y-18020100I-51000J0D01*
G01*
X8973368Y-20495033D02*
X9075368Y-20597033D01*
X9075368Y-20495033D02*
X8973368Y-20597033D01*
X9075368Y-20546033D02*
G75*
G03*
X9075368Y-20546033I-51000J0D01*
G01*
X8973368Y-20795033D02*
X9075368Y-20897033D01*
X9075368Y-20795033D02*
X8973368Y-20897033D01*
X9075368Y-20846033D02*
G75*
G03*
X9075368Y-20846033I-51000J0D01*
G01*
X15287965Y-22349000D02*
X15389965Y-22451000D01*
X15389965Y-22349000D02*
X15287965Y-22451000D01*
X15389965Y-22400000D02*
G75*
G03*
X15389965Y-22400000I-51000J0D01*
G01*
X15287965Y-22649000D02*
X15389965Y-22751000D01*
X15389965Y-22649000D02*
X15287965Y-22751000D01*
X15389965Y-22700000D02*
G75*
G03*
X15389965Y-22700000I-51000J0D01*
G01*
X15587965Y-22349000D02*
X15689965Y-22451000D01*
X15689965Y-22349000D02*
X15587965Y-22451000D01*
X15689965Y-22400000D02*
G75*
G03*
X15689965Y-22400000I-51000J0D01*
G01*
X15587965Y-22649000D02*
X15689965Y-22751000D01*
X15689965Y-22649000D02*
X15587965Y-22751000D01*
X15689965Y-22700000D02*
G75*
G03*
X15689965Y-22700000I-51000J0D01*
G01*
X17172965Y-22350500D02*
X17274965Y-22452500D01*
X17274965Y-22350500D02*
X17172965Y-22452500D01*
X17274965Y-22401500D02*
G75*
G03*
X17274965Y-22401500I-51000J0D01*
G01*
X17172965Y-22650500D02*
X17274965Y-22752500D01*
X17274965Y-22650500D02*
X17172965Y-22752500D01*
X17274965Y-22701500D02*
G75*
G03*
X17274965Y-22701500I-51000J0D01*
G01*
X17472965Y-22350500D02*
X17574965Y-22452500D01*
X17574965Y-22350500D02*
X17472965Y-22452500D01*
X17574965Y-22401500D02*
G75*
G03*
X17574965Y-22401500I-51000J0D01*
G01*
X17472965Y-22650500D02*
X17574965Y-22752500D01*
X17574965Y-22650500D02*
X17472965Y-22752500D01*
X17574965Y-22701500D02*
G75*
G03*
X17574965Y-22701500I-51000J0D01*
G01*
X19822367Y-9867100D02*
X19924367Y-9969100D01*
X19924367Y-9867100D02*
X19822367Y-9969100D01*
X19924367Y-9918100D02*
G75*
G03*
X19924367Y-9918100I-51000J0D01*
G01*
X19822367Y-10167100D02*
X19924367Y-10269100D01*
X19924367Y-10167100D02*
X19822367Y-10269100D01*
X19924367Y-10218100D02*
G75*
G03*
X19924367Y-10218100I-51000J0D01*
G01*
X20122367Y-9867100D02*
X20224367Y-9969100D01*
X20224367Y-9867100D02*
X20122367Y-9969100D01*
X20224367Y-9918100D02*
G75*
G03*
X20224367Y-9918100I-51000J0D01*
G01*
X20122367Y-10167100D02*
X20224367Y-10269100D01*
X20224367Y-10167100D02*
X20122367Y-10269100D01*
X20224367Y-10218100D02*
G75*
G03*
X20224367Y-10218100I-51000J0D01*
G01*
X21099000Y-9868000D02*
X21201000Y-9970000D01*
X21201000Y-9868000D02*
X21099000Y-9970000D01*
X21201000Y-9919000D02*
G75*
G03*
X21201000Y-9919000I-51000J0D01*
G01*
X21099000Y-10168000D02*
X21201000Y-10270000D01*
X21201000Y-10168000D02*
X21099000Y-10270000D01*
X21201000Y-10219000D02*
G75*
G03*
X21201000Y-10219000I-51000J0D01*
G01*
X21399000Y-9868000D02*
X21501000Y-9970000D01*
X21501000Y-9868000D02*
X21399000Y-9970000D01*
X21501000Y-9919000D02*
G75*
G03*
X21501000Y-9919000I-51000J0D01*
G01*
X21399000Y-10168000D02*
X21501000Y-10270000D01*
X21501000Y-10168000D02*
X21399000Y-10270000D01*
X21501000Y-10219000D02*
G75*
G03*
X21501000Y-10219000I-51000J0D01*
G01*
X22374000Y-9868000D02*
X22476000Y-9970000D01*
X22476000Y-9868000D02*
X22374000Y-9970000D01*
X22476000Y-9919000D02*
G75*
G03*
X22476000Y-9919000I-51000J0D01*
G01*
X22374000Y-10168000D02*
X22476000Y-10270000D01*
X22476000Y-10168000D02*
X22374000Y-10270000D01*
X22476000Y-10219000D02*
G75*
G03*
X22476000Y-10219000I-51000J0D01*
G01*
X22674000Y-9868000D02*
X22776000Y-9970000D01*
X22776000Y-9868000D02*
X22674000Y-9970000D01*
X22776000Y-9919000D02*
G75*
G03*
X22776000Y-9919000I-51000J0D01*
G01*
X22674000Y-10168000D02*
X22776000Y-10270000D01*
X22776000Y-10168000D02*
X22674000Y-10270000D01*
X22776000Y-10219000D02*
G75*
G03*
X22776000Y-10219000I-51000J0D01*
G01*
X24341100Y-9787500D02*
X24443100Y-9889500D01*
X24443100Y-9787500D02*
X24341100Y-9889500D01*
X24443100Y-9838500D02*
G75*
G03*
X24443100Y-9838500I-51000J0D01*
G01*
X24341100Y-10087500D02*
X24443100Y-10189500D01*
X24443100Y-10087500D02*
X24341100Y-10189500D01*
X24443100Y-10138500D02*
G75*
G03*
X24443100Y-10138500I-51000J0D01*
G01*
X24641100Y-9787500D02*
X24743100Y-9889500D01*
X24743100Y-9787500D02*
X24641100Y-9889500D01*
X24743100Y-9838500D02*
G75*
G03*
X24743100Y-9838500I-51000J0D01*
G01*
X24641100Y-10087500D02*
X24743100Y-10189500D01*
X24743100Y-10087500D02*
X24641100Y-10189500D01*
X24743100Y-10138500D02*
G75*
G03*
X24743100Y-10138500I-51000J0D01*
G01*
D17*
X27423000Y-14024500D02*
X27743000Y-14344500D01*
X27743000Y-14024500D02*
X27423000Y-14344500D01*
X27583000Y-14024500D02*
X27583000Y-14344500D01*
X27423000Y-14184500D02*
X27743000Y-14184500D01*
X27423000Y-16523500D02*
X27743000Y-16843500D01*
X27743000Y-16523500D02*
X27423000Y-16843500D01*
X27583000Y-16523500D02*
X27583000Y-16843500D01*
X27423000Y-16683500D02*
X27743000Y-16683500D01*
X27468300Y-18395200D02*
X27788300Y-18715200D01*
X27788300Y-18395200D02*
X27468300Y-18715200D01*
X27628300Y-18395200D02*
X27628300Y-18715200D01*
X27468300Y-18555200D02*
X27788300Y-18555200D01*
X27468300Y-20894200D02*
X27788300Y-21214200D01*
X27788300Y-20894200D02*
X27468300Y-21214200D01*
X27628300Y-20894200D02*
X27628300Y-21214200D01*
X27468300Y-21054200D02*
X27788300Y-21054200D01*
D10*
X8355777Y-23393684D02*
X8355777Y-23193684D01*
X8355777Y-23193684D02*
X8403396Y-23193684D01*
X8403396Y-23193684D02*
X8431967Y-23203208D01*
X8431967Y-23203208D02*
X8451015Y-23222255D01*
X8451015Y-23222255D02*
X8460539Y-23241303D01*
X8460539Y-23241303D02*
X8470063Y-23279398D01*
X8470063Y-23279398D02*
X8470063Y-23307969D01*
X8470063Y-23307969D02*
X8460539Y-23346065D01*
X8460539Y-23346065D02*
X8451015Y-23365112D01*
X8451015Y-23365112D02*
X8431967Y-23384160D01*
X8431967Y-23384160D02*
X8403396Y-23393684D01*
X8403396Y-23393684D02*
X8355777Y-23393684D01*
X8555777Y-23393684D02*
X8555777Y-23260350D01*
X8555777Y-23298446D02*
X8565301Y-23279398D01*
X8565301Y-23279398D02*
X8574824Y-23269874D01*
X8574824Y-23269874D02*
X8593872Y-23260350D01*
X8593872Y-23260350D02*
X8612920Y-23260350D01*
X8679586Y-23393684D02*
X8679586Y-23260350D01*
X8679586Y-23193684D02*
X8670063Y-23203208D01*
X8670063Y-23203208D02*
X8679586Y-23212731D01*
X8679586Y-23212731D02*
X8689110Y-23203208D01*
X8689110Y-23203208D02*
X8679586Y-23193684D01*
X8679586Y-23193684D02*
X8679586Y-23212731D01*
X8803396Y-23393684D02*
X8784348Y-23384160D01*
X8784348Y-23384160D02*
X8774824Y-23365112D01*
X8774824Y-23365112D02*
X8774824Y-23193684D01*
X8908158Y-23393684D02*
X8889110Y-23384160D01*
X8889110Y-23384160D02*
X8879586Y-23365112D01*
X8879586Y-23365112D02*
X8879586Y-23193684D01*
X9136729Y-23393684D02*
X9136729Y-23193684D01*
X9136729Y-23193684D02*
X9203396Y-23336541D01*
X9203396Y-23336541D02*
X9270063Y-23193684D01*
X9270063Y-23193684D02*
X9270063Y-23393684D01*
X9451015Y-23393684D02*
X9451015Y-23288922D01*
X9451015Y-23288922D02*
X9441491Y-23269874D01*
X9441491Y-23269874D02*
X9422444Y-23260350D01*
X9422444Y-23260350D02*
X9384348Y-23260350D01*
X9384348Y-23260350D02*
X9365301Y-23269874D01*
X9451015Y-23384160D02*
X9431967Y-23393684D01*
X9431967Y-23393684D02*
X9384348Y-23393684D01*
X9384348Y-23393684D02*
X9365301Y-23384160D01*
X9365301Y-23384160D02*
X9355777Y-23365112D01*
X9355777Y-23365112D02*
X9355777Y-23346065D01*
X9355777Y-23346065D02*
X9365301Y-23327017D01*
X9365301Y-23327017D02*
X9384348Y-23317493D01*
X9384348Y-23317493D02*
X9431967Y-23317493D01*
X9431967Y-23317493D02*
X9451015Y-23307969D01*
X9546253Y-23260350D02*
X9546253Y-23460350D01*
X9546253Y-23269874D02*
X9565301Y-23260350D01*
X9565301Y-23260350D02*
X9603396Y-23260350D01*
X9603396Y-23260350D02*
X9622444Y-23269874D01*
X9622444Y-23269874D02*
X9631967Y-23279398D01*
X9631967Y-23279398D02*
X9641491Y-23298446D01*
X9641491Y-23298446D02*
X9641491Y-23355588D01*
X9641491Y-23355588D02*
X9631967Y-23374636D01*
X9631967Y-23374636D02*
X9622444Y-23384160D01*
X9622444Y-23384160D02*
X9603396Y-23393684D01*
X9603396Y-23393684D02*
X9565301Y-23393684D01*
X9565301Y-23393684D02*
X9546253Y-23384160D01*
X9727205Y-23374636D02*
X9736729Y-23384160D01*
X9736729Y-23384160D02*
X9727205Y-23393684D01*
X9727205Y-23393684D02*
X9717682Y-23384160D01*
X9717682Y-23384160D02*
X9727205Y-23374636D01*
X9727205Y-23374636D02*
X9727205Y-23393684D01*
X9727205Y-23269874D02*
X9736729Y-23279398D01*
X9736729Y-23279398D02*
X9727205Y-23288922D01*
X9727205Y-23288922D02*
X9717682Y-23279398D01*
X9717682Y-23279398D02*
X9727205Y-23269874D01*
X9727205Y-23269874D02*
X9727205Y-23288922D01*
D12*
X8055000Y-23702200D02*
X8095000Y-23742200D01*
X8095000Y-23702200D02*
X8055000Y-23742200D01*
D10*
X8393872Y-23613684D02*
X8412920Y-23613684D01*
X8412920Y-23613684D02*
X8431967Y-23623208D01*
X8431967Y-23623208D02*
X8441491Y-23632731D01*
X8441491Y-23632731D02*
X8451015Y-23651779D01*
X8451015Y-23651779D02*
X8460539Y-23689874D01*
X8460539Y-23689874D02*
X8460539Y-23737493D01*
X8460539Y-23737493D02*
X8451015Y-23775588D01*
X8451015Y-23775588D02*
X8441491Y-23794636D01*
X8441491Y-23794636D02*
X8431967Y-23804160D01*
X8431967Y-23804160D02*
X8412920Y-23813684D01*
X8412920Y-23813684D02*
X8393872Y-23813684D01*
X8393872Y-23813684D02*
X8374824Y-23804160D01*
X8374824Y-23804160D02*
X8365301Y-23794636D01*
X8365301Y-23794636D02*
X8355777Y-23775588D01*
X8355777Y-23775588D02*
X8346253Y-23737493D01*
X8346253Y-23737493D02*
X8346253Y-23689874D01*
X8346253Y-23689874D02*
X8355777Y-23651779D01*
X8355777Y-23651779D02*
X8365301Y-23632731D01*
X8365301Y-23632731D02*
X8374824Y-23623208D01*
X8374824Y-23623208D02*
X8393872Y-23613684D01*
X8546253Y-23794636D02*
X8555777Y-23804160D01*
X8555777Y-23804160D02*
X8546253Y-23813684D01*
X8546253Y-23813684D02*
X8536729Y-23804160D01*
X8536729Y-23804160D02*
X8546253Y-23794636D01*
X8546253Y-23794636D02*
X8546253Y-23813684D01*
X8727205Y-23680350D02*
X8727205Y-23813684D01*
X8679586Y-23604160D02*
X8631967Y-23747017D01*
X8631967Y-23747017D02*
X8755777Y-23747017D01*
X8870063Y-23613684D02*
X8889110Y-23613684D01*
X8889110Y-23613684D02*
X8908158Y-23623208D01*
X8908158Y-23623208D02*
X8917682Y-23632731D01*
X8917682Y-23632731D02*
X8927205Y-23651779D01*
X8927205Y-23651779D02*
X8936729Y-23689874D01*
X8936729Y-23689874D02*
X8936729Y-23737493D01*
X8936729Y-23737493D02*
X8927205Y-23775588D01*
X8927205Y-23775588D02*
X8917682Y-23794636D01*
X8917682Y-23794636D02*
X8908158Y-23804160D01*
X8908158Y-23804160D02*
X8889110Y-23813684D01*
X8889110Y-23813684D02*
X8870063Y-23813684D01*
X8870063Y-23813684D02*
X8851015Y-23804160D01*
X8851015Y-23804160D02*
X8841491Y-23794636D01*
X8841491Y-23794636D02*
X8831967Y-23775588D01*
X8831967Y-23775588D02*
X8822444Y-23737493D01*
X8822444Y-23737493D02*
X8822444Y-23689874D01*
X8822444Y-23689874D02*
X8831967Y-23651779D01*
X8831967Y-23651779D02*
X8841491Y-23632731D01*
X8841491Y-23632731D02*
X8851015Y-23623208D01*
X8851015Y-23623208D02*
X8870063Y-23613684D01*
X9060539Y-23613684D02*
X9079586Y-23613684D01*
X9079586Y-23613684D02*
X9098634Y-23623208D01*
X9098634Y-23623208D02*
X9108158Y-23632731D01*
X9108158Y-23632731D02*
X9117682Y-23651779D01*
X9117682Y-23651779D02*
X9127205Y-23689874D01*
X9127205Y-23689874D02*
X9127205Y-23737493D01*
X9127205Y-23737493D02*
X9117682Y-23775588D01*
X9117682Y-23775588D02*
X9108158Y-23794636D01*
X9108158Y-23794636D02*
X9098634Y-23804160D01*
X9098634Y-23804160D02*
X9079586Y-23813684D01*
X9079586Y-23813684D02*
X9060539Y-23813684D01*
X9060539Y-23813684D02*
X9041491Y-23804160D01*
X9041491Y-23804160D02*
X9031967Y-23794636D01*
X9031967Y-23794636D02*
X9022444Y-23775588D01*
X9022444Y-23775588D02*
X9012920Y-23737493D01*
X9012920Y-23737493D02*
X9012920Y-23689874D01*
X9012920Y-23689874D02*
X9022444Y-23651779D01*
X9022444Y-23651779D02*
X9031967Y-23632731D01*
X9031967Y-23632731D02*
X9041491Y-23623208D01*
X9041491Y-23623208D02*
X9060539Y-23613684D01*
X9212920Y-23813684D02*
X9212920Y-23680350D01*
X9212920Y-23699398D02*
X9222444Y-23689874D01*
X9222444Y-23689874D02*
X9241491Y-23680350D01*
X9241491Y-23680350D02*
X9270063Y-23680350D01*
X9270063Y-23680350D02*
X9289110Y-23689874D01*
X9289110Y-23689874D02*
X9298634Y-23708922D01*
X9298634Y-23708922D02*
X9298634Y-23813684D01*
X9298634Y-23708922D02*
X9308158Y-23689874D01*
X9308158Y-23689874D02*
X9327205Y-23680350D01*
X9327205Y-23680350D02*
X9355777Y-23680350D01*
X9355777Y-23680350D02*
X9374825Y-23689874D01*
X9374825Y-23689874D02*
X9384348Y-23708922D01*
X9384348Y-23708922D02*
X9384348Y-23813684D01*
X9479586Y-23813684D02*
X9479586Y-23680350D01*
X9479586Y-23699398D02*
X9489110Y-23689874D01*
X9489110Y-23689874D02*
X9508158Y-23680350D01*
X9508158Y-23680350D02*
X9536729Y-23680350D01*
X9536729Y-23680350D02*
X9555777Y-23689874D01*
X9555777Y-23689874D02*
X9565301Y-23708922D01*
X9565301Y-23708922D02*
X9565301Y-23813684D01*
X9565301Y-23708922D02*
X9574825Y-23689874D01*
X9574825Y-23689874D02*
X9593872Y-23680350D01*
X9593872Y-23680350D02*
X9622444Y-23680350D01*
X9622444Y-23680350D02*
X9641491Y-23689874D01*
X9641491Y-23689874D02*
X9651015Y-23708922D01*
X9651015Y-23708922D02*
X9651015Y-23813684D01*
X10041491Y-23604160D02*
X9870063Y-23861303D01*
X10298634Y-23613684D02*
X10317682Y-23613684D01*
X10317682Y-23613684D02*
X10336729Y-23623208D01*
X10336729Y-23623208D02*
X10346253Y-23632731D01*
X10346253Y-23632731D02*
X10355777Y-23651779D01*
X10355777Y-23651779D02*
X10365301Y-23689874D01*
X10365301Y-23689874D02*
X10365301Y-23737493D01*
X10365301Y-23737493D02*
X10355777Y-23775588D01*
X10355777Y-23775588D02*
X10346253Y-23794636D01*
X10346253Y-23794636D02*
X10336729Y-23804160D01*
X10336729Y-23804160D02*
X10317682Y-23813684D01*
X10317682Y-23813684D02*
X10298634Y-23813684D01*
X10298634Y-23813684D02*
X10279587Y-23804160D01*
X10279587Y-23804160D02*
X10270063Y-23794636D01*
X10270063Y-23794636D02*
X10260539Y-23775588D01*
X10260539Y-23775588D02*
X10251015Y-23737493D01*
X10251015Y-23737493D02*
X10251015Y-23689874D01*
X10251015Y-23689874D02*
X10260539Y-23651779D01*
X10260539Y-23651779D02*
X10270063Y-23632731D01*
X10270063Y-23632731D02*
X10279587Y-23623208D01*
X10279587Y-23623208D02*
X10298634Y-23613684D01*
X10451015Y-23794636D02*
X10460539Y-23804160D01*
X10460539Y-23804160D02*
X10451015Y-23813684D01*
X10451015Y-23813684D02*
X10441491Y-23804160D01*
X10441491Y-23804160D02*
X10451015Y-23794636D01*
X10451015Y-23794636D02*
X10451015Y-23813684D01*
X10584348Y-23613684D02*
X10603396Y-23613684D01*
X10603396Y-23613684D02*
X10622444Y-23623208D01*
X10622444Y-23623208D02*
X10631968Y-23632731D01*
X10631968Y-23632731D02*
X10641491Y-23651779D01*
X10641491Y-23651779D02*
X10651015Y-23689874D01*
X10651015Y-23689874D02*
X10651015Y-23737493D01*
X10651015Y-23737493D02*
X10641491Y-23775588D01*
X10641491Y-23775588D02*
X10631968Y-23794636D01*
X10631968Y-23794636D02*
X10622444Y-23804160D01*
X10622444Y-23804160D02*
X10603396Y-23813684D01*
X10603396Y-23813684D02*
X10584348Y-23813684D01*
X10584348Y-23813684D02*
X10565301Y-23804160D01*
X10565301Y-23804160D02*
X10555777Y-23794636D01*
X10555777Y-23794636D02*
X10546253Y-23775588D01*
X10546253Y-23775588D02*
X10536729Y-23737493D01*
X10536729Y-23737493D02*
X10536729Y-23689874D01*
X10536729Y-23689874D02*
X10546253Y-23651779D01*
X10546253Y-23651779D02*
X10555777Y-23632731D01*
X10555777Y-23632731D02*
X10565301Y-23623208D01*
X10565301Y-23623208D02*
X10584348Y-23613684D01*
X10841491Y-23813684D02*
X10727206Y-23813684D01*
X10784348Y-23813684D02*
X10784348Y-23613684D01*
X10784348Y-23613684D02*
X10765301Y-23642255D01*
X10765301Y-23642255D02*
X10746253Y-23661303D01*
X10746253Y-23661303D02*
X10727206Y-23670827D01*
X11022444Y-23613684D02*
X10927206Y-23613684D01*
X10927206Y-23613684D02*
X10917682Y-23708922D01*
X10917682Y-23708922D02*
X10927206Y-23699398D01*
X10927206Y-23699398D02*
X10946253Y-23689874D01*
X10946253Y-23689874D02*
X10993872Y-23689874D01*
X10993872Y-23689874D02*
X11012920Y-23699398D01*
X11012920Y-23699398D02*
X11022444Y-23708922D01*
X11022444Y-23708922D02*
X11031968Y-23727969D01*
X11031968Y-23727969D02*
X11031968Y-23775588D01*
X11031968Y-23775588D02*
X11022444Y-23794636D01*
X11022444Y-23794636D02*
X11012920Y-23804160D01*
X11012920Y-23804160D02*
X10993872Y-23813684D01*
X10993872Y-23813684D02*
X10946253Y-23813684D01*
X10946253Y-23813684D02*
X10927206Y-23804160D01*
X10927206Y-23804160D02*
X10917682Y-23794636D01*
X11098634Y-23613684D02*
X11231967Y-23613684D01*
X11231967Y-23613684D02*
X11146253Y-23813684D01*
X11298634Y-23613684D02*
X11298634Y-23651779D01*
X11374825Y-23613684D02*
X11374825Y-23651779D01*
X11670063Y-23889874D02*
X11660539Y-23880350D01*
X11660539Y-23880350D02*
X11641491Y-23851779D01*
X11641491Y-23851779D02*
X11631968Y-23832731D01*
X11631968Y-23832731D02*
X11622444Y-23804160D01*
X11622444Y-23804160D02*
X11612920Y-23756541D01*
X11612920Y-23756541D02*
X11612920Y-23718446D01*
X11612920Y-23718446D02*
X11622444Y-23670827D01*
X11622444Y-23670827D02*
X11631968Y-23642255D01*
X11631968Y-23642255D02*
X11641491Y-23623208D01*
X11641491Y-23623208D02*
X11660539Y-23594636D01*
X11660539Y-23594636D02*
X11670063Y-23585112D01*
X11841491Y-23613684D02*
X11746253Y-23613684D01*
X11746253Y-23613684D02*
X11736729Y-23708922D01*
X11736729Y-23708922D02*
X11746253Y-23699398D01*
X11746253Y-23699398D02*
X11765301Y-23689874D01*
X11765301Y-23689874D02*
X11812920Y-23689874D01*
X11812920Y-23689874D02*
X11831968Y-23699398D01*
X11831968Y-23699398D02*
X11841491Y-23708922D01*
X11841491Y-23708922D02*
X11851015Y-23727969D01*
X11851015Y-23727969D02*
X11851015Y-23775588D01*
X11851015Y-23775588D02*
X11841491Y-23794636D01*
X11841491Y-23794636D02*
X11831968Y-23804160D01*
X11831968Y-23804160D02*
X11812920Y-23813684D01*
X11812920Y-23813684D02*
X11765301Y-23813684D01*
X11765301Y-23813684D02*
X11746253Y-23804160D01*
X11746253Y-23804160D02*
X11736729Y-23794636D01*
X11946253Y-23813684D02*
X11984348Y-23813684D01*
X11984348Y-23813684D02*
X12003396Y-23804160D01*
X12003396Y-23804160D02*
X12012920Y-23794636D01*
X12012920Y-23794636D02*
X12031968Y-23766065D01*
X12031968Y-23766065D02*
X12041491Y-23727969D01*
X12041491Y-23727969D02*
X12041491Y-23651779D01*
X12041491Y-23651779D02*
X12031968Y-23632731D01*
X12031968Y-23632731D02*
X12022444Y-23623208D01*
X12022444Y-23623208D02*
X12003396Y-23613684D01*
X12003396Y-23613684D02*
X11965301Y-23613684D01*
X11965301Y-23613684D02*
X11946253Y-23623208D01*
X11946253Y-23623208D02*
X11936729Y-23632731D01*
X11936729Y-23632731D02*
X11927206Y-23651779D01*
X11927206Y-23651779D02*
X11927206Y-23699398D01*
X11927206Y-23699398D02*
X11936729Y-23718446D01*
X11936729Y-23718446D02*
X11946253Y-23727969D01*
X11946253Y-23727969D02*
X11965301Y-23737493D01*
X11965301Y-23737493D02*
X12003396Y-23737493D01*
X12003396Y-23737493D02*
X12022444Y-23727969D01*
X12022444Y-23727969D02*
X12031968Y-23718446D01*
X12031968Y-23718446D02*
X12041491Y-23699398D01*
X12117682Y-23632731D02*
X12127206Y-23623208D01*
X12127206Y-23623208D02*
X12146253Y-23613684D01*
X12146253Y-23613684D02*
X12193872Y-23613684D01*
X12193872Y-23613684D02*
X12212920Y-23623208D01*
X12212920Y-23623208D02*
X12222444Y-23632731D01*
X12222444Y-23632731D02*
X12231968Y-23651779D01*
X12231968Y-23651779D02*
X12231968Y-23670827D01*
X12231968Y-23670827D02*
X12222444Y-23699398D01*
X12222444Y-23699398D02*
X12108158Y-23813684D01*
X12108158Y-23813684D02*
X12231968Y-23813684D01*
X12470063Y-23813684D02*
X12470063Y-23613684D01*
X12555777Y-23813684D02*
X12555777Y-23708922D01*
X12555777Y-23708922D02*
X12546253Y-23689874D01*
X12546253Y-23689874D02*
X12527206Y-23680350D01*
X12527206Y-23680350D02*
X12498634Y-23680350D01*
X12498634Y-23680350D02*
X12479587Y-23689874D01*
X12479587Y-23689874D02*
X12470063Y-23699398D01*
X12679587Y-23813684D02*
X12660539Y-23804160D01*
X12660539Y-23804160D02*
X12651015Y-23794636D01*
X12651015Y-23794636D02*
X12641491Y-23775588D01*
X12641491Y-23775588D02*
X12641491Y-23718446D01*
X12641491Y-23718446D02*
X12651015Y-23699398D01*
X12651015Y-23699398D02*
X12660539Y-23689874D01*
X12660539Y-23689874D02*
X12679587Y-23680350D01*
X12679587Y-23680350D02*
X12708158Y-23680350D01*
X12708158Y-23680350D02*
X12727206Y-23689874D01*
X12727206Y-23689874D02*
X12736730Y-23699398D01*
X12736730Y-23699398D02*
X12746253Y-23718446D01*
X12746253Y-23718446D02*
X12746253Y-23775588D01*
X12746253Y-23775588D02*
X12736730Y-23794636D01*
X12736730Y-23794636D02*
X12727206Y-23804160D01*
X12727206Y-23804160D02*
X12708158Y-23813684D01*
X12708158Y-23813684D02*
X12679587Y-23813684D01*
X12860539Y-23813684D02*
X12841491Y-23804160D01*
X12841491Y-23804160D02*
X12831968Y-23785112D01*
X12831968Y-23785112D02*
X12831968Y-23613684D01*
X13012920Y-23804160D02*
X12993872Y-23813684D01*
X12993872Y-23813684D02*
X12955777Y-23813684D01*
X12955777Y-23813684D02*
X12936730Y-23804160D01*
X12936730Y-23804160D02*
X12927206Y-23785112D01*
X12927206Y-23785112D02*
X12927206Y-23708922D01*
X12927206Y-23708922D02*
X12936730Y-23689874D01*
X12936730Y-23689874D02*
X12955777Y-23680350D01*
X12955777Y-23680350D02*
X12993872Y-23680350D01*
X12993872Y-23680350D02*
X13012920Y-23689874D01*
X13012920Y-23689874D02*
X13022444Y-23708922D01*
X13022444Y-23708922D02*
X13022444Y-23727969D01*
X13022444Y-23727969D02*
X12927206Y-23747017D01*
X13098634Y-23804160D02*
X13117682Y-23813684D01*
X13117682Y-23813684D02*
X13155777Y-23813684D01*
X13155777Y-23813684D02*
X13174825Y-23804160D01*
X13174825Y-23804160D02*
X13184349Y-23785112D01*
X13184349Y-23785112D02*
X13184349Y-23775588D01*
X13184349Y-23775588D02*
X13174825Y-23756541D01*
X13174825Y-23756541D02*
X13155777Y-23747017D01*
X13155777Y-23747017D02*
X13127206Y-23747017D01*
X13127206Y-23747017D02*
X13108158Y-23737493D01*
X13108158Y-23737493D02*
X13098634Y-23718446D01*
X13098634Y-23718446D02*
X13098634Y-23708922D01*
X13098634Y-23708922D02*
X13108158Y-23689874D01*
X13108158Y-23689874D02*
X13127206Y-23680350D01*
X13127206Y-23680350D02*
X13155777Y-23680350D01*
X13155777Y-23680350D02*
X13174825Y-23689874D01*
X13251015Y-23889874D02*
X13260539Y-23880350D01*
X13260539Y-23880350D02*
X13279587Y-23851779D01*
X13279587Y-23851779D02*
X13289111Y-23832731D01*
X13289111Y-23832731D02*
X13298634Y-23804160D01*
X13298634Y-23804160D02*
X13308158Y-23756541D01*
X13308158Y-23756541D02*
X13308158Y-23718446D01*
X13308158Y-23718446D02*
X13298634Y-23670827D01*
X13298634Y-23670827D02*
X13289111Y-23642255D01*
X13289111Y-23642255D02*
X13279587Y-23623208D01*
X13279587Y-23623208D02*
X13260539Y-23594636D01*
X13260539Y-23594636D02*
X13251015Y-23585112D01*
D13*
X8095000Y-23986200D02*
G75*
G03*
X8095000Y-23986200I-25000J0D01*
G01*
D10*
X8393872Y-23877684D02*
X8412920Y-23877684D01*
X8412920Y-23877684D02*
X8431967Y-23887208D01*
X8431967Y-23887208D02*
X8441491Y-23896731D01*
X8441491Y-23896731D02*
X8451015Y-23915779D01*
X8451015Y-23915779D02*
X8460539Y-23953874D01*
X8460539Y-23953874D02*
X8460539Y-24001493D01*
X8460539Y-24001493D02*
X8451015Y-24039588D01*
X8451015Y-24039588D02*
X8441491Y-24058636D01*
X8441491Y-24058636D02*
X8431967Y-24068160D01*
X8431967Y-24068160D02*
X8412920Y-24077684D01*
X8412920Y-24077684D02*
X8393872Y-24077684D01*
X8393872Y-24077684D02*
X8374824Y-24068160D01*
X8374824Y-24068160D02*
X8365301Y-24058636D01*
X8365301Y-24058636D02*
X8355777Y-24039588D01*
X8355777Y-24039588D02*
X8346253Y-24001493D01*
X8346253Y-24001493D02*
X8346253Y-23953874D01*
X8346253Y-23953874D02*
X8355777Y-23915779D01*
X8355777Y-23915779D02*
X8365301Y-23896731D01*
X8365301Y-23896731D02*
X8374824Y-23887208D01*
X8374824Y-23887208D02*
X8393872Y-23877684D01*
X8546253Y-24058636D02*
X8555777Y-24068160D01*
X8555777Y-24068160D02*
X8546253Y-24077684D01*
X8546253Y-24077684D02*
X8536729Y-24068160D01*
X8536729Y-24068160D02*
X8546253Y-24058636D01*
X8546253Y-24058636D02*
X8546253Y-24077684D01*
X8736729Y-23877684D02*
X8641491Y-23877684D01*
X8641491Y-23877684D02*
X8631967Y-23972922D01*
X8631967Y-23972922D02*
X8641491Y-23963398D01*
X8641491Y-23963398D02*
X8660539Y-23953874D01*
X8660539Y-23953874D02*
X8708158Y-23953874D01*
X8708158Y-23953874D02*
X8727205Y-23963398D01*
X8727205Y-23963398D02*
X8736729Y-23972922D01*
X8736729Y-23972922D02*
X8746253Y-23991969D01*
X8746253Y-23991969D02*
X8746253Y-24039588D01*
X8746253Y-24039588D02*
X8736729Y-24058636D01*
X8736729Y-24058636D02*
X8727205Y-24068160D01*
X8727205Y-24068160D02*
X8708158Y-24077684D01*
X8708158Y-24077684D02*
X8660539Y-24077684D01*
X8660539Y-24077684D02*
X8641491Y-24068160D01*
X8641491Y-24068160D02*
X8631967Y-24058636D01*
X8870063Y-23877684D02*
X8889110Y-23877684D01*
X8889110Y-23877684D02*
X8908158Y-23887208D01*
X8908158Y-23887208D02*
X8917682Y-23896731D01*
X8917682Y-23896731D02*
X8927205Y-23915779D01*
X8927205Y-23915779D02*
X8936729Y-23953874D01*
X8936729Y-23953874D02*
X8936729Y-24001493D01*
X8936729Y-24001493D02*
X8927205Y-24039588D01*
X8927205Y-24039588D02*
X8917682Y-24058636D01*
X8917682Y-24058636D02*
X8908158Y-24068160D01*
X8908158Y-24068160D02*
X8889110Y-24077684D01*
X8889110Y-24077684D02*
X8870063Y-24077684D01*
X8870063Y-24077684D02*
X8851015Y-24068160D01*
X8851015Y-24068160D02*
X8841491Y-24058636D01*
X8841491Y-24058636D02*
X8831967Y-24039588D01*
X8831967Y-24039588D02*
X8822444Y-24001493D01*
X8822444Y-24001493D02*
X8822444Y-23953874D01*
X8822444Y-23953874D02*
X8831967Y-23915779D01*
X8831967Y-23915779D02*
X8841491Y-23896731D01*
X8841491Y-23896731D02*
X8851015Y-23887208D01*
X8851015Y-23887208D02*
X8870063Y-23877684D01*
X9060539Y-23877684D02*
X9079586Y-23877684D01*
X9079586Y-23877684D02*
X9098634Y-23887208D01*
X9098634Y-23887208D02*
X9108158Y-23896731D01*
X9108158Y-23896731D02*
X9117682Y-23915779D01*
X9117682Y-23915779D02*
X9127205Y-23953874D01*
X9127205Y-23953874D02*
X9127205Y-24001493D01*
X9127205Y-24001493D02*
X9117682Y-24039588D01*
X9117682Y-24039588D02*
X9108158Y-24058636D01*
X9108158Y-24058636D02*
X9098634Y-24068160D01*
X9098634Y-24068160D02*
X9079586Y-24077684D01*
X9079586Y-24077684D02*
X9060539Y-24077684D01*
X9060539Y-24077684D02*
X9041491Y-24068160D01*
X9041491Y-24068160D02*
X9031967Y-24058636D01*
X9031967Y-24058636D02*
X9022444Y-24039588D01*
X9022444Y-24039588D02*
X9012920Y-24001493D01*
X9012920Y-24001493D02*
X9012920Y-23953874D01*
X9012920Y-23953874D02*
X9022444Y-23915779D01*
X9022444Y-23915779D02*
X9031967Y-23896731D01*
X9031967Y-23896731D02*
X9041491Y-23887208D01*
X9041491Y-23887208D02*
X9060539Y-23877684D01*
X9212920Y-24077684D02*
X9212920Y-23944350D01*
X9212920Y-23963398D02*
X9222444Y-23953874D01*
X9222444Y-23953874D02*
X9241491Y-23944350D01*
X9241491Y-23944350D02*
X9270063Y-23944350D01*
X9270063Y-23944350D02*
X9289110Y-23953874D01*
X9289110Y-23953874D02*
X9298634Y-23972922D01*
X9298634Y-23972922D02*
X9298634Y-24077684D01*
X9298634Y-23972922D02*
X9308158Y-23953874D01*
X9308158Y-23953874D02*
X9327205Y-23944350D01*
X9327205Y-23944350D02*
X9355777Y-23944350D01*
X9355777Y-23944350D02*
X9374825Y-23953874D01*
X9374825Y-23953874D02*
X9384348Y-23972922D01*
X9384348Y-23972922D02*
X9384348Y-24077684D01*
X9479586Y-24077684D02*
X9479586Y-23944350D01*
X9479586Y-23963398D02*
X9489110Y-23953874D01*
X9489110Y-23953874D02*
X9508158Y-23944350D01*
X9508158Y-23944350D02*
X9536729Y-23944350D01*
X9536729Y-23944350D02*
X9555777Y-23953874D01*
X9555777Y-23953874D02*
X9565301Y-23972922D01*
X9565301Y-23972922D02*
X9565301Y-24077684D01*
X9565301Y-23972922D02*
X9574825Y-23953874D01*
X9574825Y-23953874D02*
X9593872Y-23944350D01*
X9593872Y-23944350D02*
X9622444Y-23944350D01*
X9622444Y-23944350D02*
X9641491Y-23953874D01*
X9641491Y-23953874D02*
X9651015Y-23972922D01*
X9651015Y-23972922D02*
X9651015Y-24077684D01*
X10041491Y-23868160D02*
X9870063Y-24125303D01*
X10298634Y-23877684D02*
X10317682Y-23877684D01*
X10317682Y-23877684D02*
X10336729Y-23887208D01*
X10336729Y-23887208D02*
X10346253Y-23896731D01*
X10346253Y-23896731D02*
X10355777Y-23915779D01*
X10355777Y-23915779D02*
X10365301Y-23953874D01*
X10365301Y-23953874D02*
X10365301Y-24001493D01*
X10365301Y-24001493D02*
X10355777Y-24039588D01*
X10355777Y-24039588D02*
X10346253Y-24058636D01*
X10346253Y-24058636D02*
X10336729Y-24068160D01*
X10336729Y-24068160D02*
X10317682Y-24077684D01*
X10317682Y-24077684D02*
X10298634Y-24077684D01*
X10298634Y-24077684D02*
X10279587Y-24068160D01*
X10279587Y-24068160D02*
X10270063Y-24058636D01*
X10270063Y-24058636D02*
X10260539Y-24039588D01*
X10260539Y-24039588D02*
X10251015Y-24001493D01*
X10251015Y-24001493D02*
X10251015Y-23953874D01*
X10251015Y-23953874D02*
X10260539Y-23915779D01*
X10260539Y-23915779D02*
X10270063Y-23896731D01*
X10270063Y-23896731D02*
X10279587Y-23887208D01*
X10279587Y-23887208D02*
X10298634Y-23877684D01*
X10451015Y-24058636D02*
X10460539Y-24068160D01*
X10460539Y-24068160D02*
X10451015Y-24077684D01*
X10451015Y-24077684D02*
X10441491Y-24068160D01*
X10441491Y-24068160D02*
X10451015Y-24058636D01*
X10451015Y-24058636D02*
X10451015Y-24077684D01*
X10584348Y-23877684D02*
X10603396Y-23877684D01*
X10603396Y-23877684D02*
X10622444Y-23887208D01*
X10622444Y-23887208D02*
X10631968Y-23896731D01*
X10631968Y-23896731D02*
X10641491Y-23915779D01*
X10641491Y-23915779D02*
X10651015Y-23953874D01*
X10651015Y-23953874D02*
X10651015Y-24001493D01*
X10651015Y-24001493D02*
X10641491Y-24039588D01*
X10641491Y-24039588D02*
X10631968Y-24058636D01*
X10631968Y-24058636D02*
X10622444Y-24068160D01*
X10622444Y-24068160D02*
X10603396Y-24077684D01*
X10603396Y-24077684D02*
X10584348Y-24077684D01*
X10584348Y-24077684D02*
X10565301Y-24068160D01*
X10565301Y-24068160D02*
X10555777Y-24058636D01*
X10555777Y-24058636D02*
X10546253Y-24039588D01*
X10546253Y-24039588D02*
X10536729Y-24001493D01*
X10536729Y-24001493D02*
X10536729Y-23953874D01*
X10536729Y-23953874D02*
X10546253Y-23915779D01*
X10546253Y-23915779D02*
X10555777Y-23896731D01*
X10555777Y-23896731D02*
X10565301Y-23887208D01*
X10565301Y-23887208D02*
X10584348Y-23877684D01*
X10841491Y-24077684D02*
X10727206Y-24077684D01*
X10784348Y-24077684D02*
X10784348Y-23877684D01*
X10784348Y-23877684D02*
X10765301Y-23906255D01*
X10765301Y-23906255D02*
X10746253Y-23925303D01*
X10746253Y-23925303D02*
X10727206Y-23934827D01*
X10936729Y-24077684D02*
X10974825Y-24077684D01*
X10974825Y-24077684D02*
X10993872Y-24068160D01*
X10993872Y-24068160D02*
X11003396Y-24058636D01*
X11003396Y-24058636D02*
X11022444Y-24030065D01*
X11022444Y-24030065D02*
X11031968Y-23991969D01*
X11031968Y-23991969D02*
X11031968Y-23915779D01*
X11031968Y-23915779D02*
X11022444Y-23896731D01*
X11022444Y-23896731D02*
X11012920Y-23887208D01*
X11012920Y-23887208D02*
X10993872Y-23877684D01*
X10993872Y-23877684D02*
X10955777Y-23877684D01*
X10955777Y-23877684D02*
X10936729Y-23887208D01*
X10936729Y-23887208D02*
X10927206Y-23896731D01*
X10927206Y-23896731D02*
X10917682Y-23915779D01*
X10917682Y-23915779D02*
X10917682Y-23963398D01*
X10917682Y-23963398D02*
X10927206Y-23982446D01*
X10927206Y-23982446D02*
X10936729Y-23991969D01*
X10936729Y-23991969D02*
X10955777Y-24001493D01*
X10955777Y-24001493D02*
X10993872Y-24001493D01*
X10993872Y-24001493D02*
X11012920Y-23991969D01*
X11012920Y-23991969D02*
X11022444Y-23982446D01*
X11022444Y-23982446D02*
X11031968Y-23963398D01*
X11098634Y-23877684D02*
X11231967Y-23877684D01*
X11231967Y-23877684D02*
X11146253Y-24077684D01*
X11298634Y-23877684D02*
X11298634Y-23915779D01*
X11374825Y-23877684D02*
X11374825Y-23915779D01*
X11670063Y-24153874D02*
X11660539Y-24144350D01*
X11660539Y-24144350D02*
X11641491Y-24115779D01*
X11641491Y-24115779D02*
X11631968Y-24096731D01*
X11631968Y-24096731D02*
X11622444Y-24068160D01*
X11622444Y-24068160D02*
X11612920Y-24020541D01*
X11612920Y-24020541D02*
X11612920Y-23982446D01*
X11612920Y-23982446D02*
X11622444Y-23934827D01*
X11622444Y-23934827D02*
X11631968Y-23906255D01*
X11631968Y-23906255D02*
X11641491Y-23887208D01*
X11641491Y-23887208D02*
X11660539Y-23858636D01*
X11660539Y-23858636D02*
X11670063Y-23849112D01*
X11851015Y-24077684D02*
X11736729Y-24077684D01*
X11793872Y-24077684D02*
X11793872Y-23877684D01*
X11793872Y-23877684D02*
X11774825Y-23906255D01*
X11774825Y-23906255D02*
X11755777Y-23925303D01*
X11755777Y-23925303D02*
X11736729Y-23934827D01*
X12089110Y-24077684D02*
X12089110Y-23877684D01*
X12174825Y-24077684D02*
X12174825Y-23972922D01*
X12174825Y-23972922D02*
X12165301Y-23953874D01*
X12165301Y-23953874D02*
X12146253Y-23944350D01*
X12146253Y-23944350D02*
X12117682Y-23944350D01*
X12117682Y-23944350D02*
X12098634Y-23953874D01*
X12098634Y-23953874D02*
X12089110Y-23963398D01*
X12298634Y-24077684D02*
X12279587Y-24068160D01*
X12279587Y-24068160D02*
X12270063Y-24058636D01*
X12270063Y-24058636D02*
X12260539Y-24039588D01*
X12260539Y-24039588D02*
X12260539Y-23982446D01*
X12260539Y-23982446D02*
X12270063Y-23963398D01*
X12270063Y-23963398D02*
X12279587Y-23953874D01*
X12279587Y-23953874D02*
X12298634Y-23944350D01*
X12298634Y-23944350D02*
X12327206Y-23944350D01*
X12327206Y-23944350D02*
X12346253Y-23953874D01*
X12346253Y-23953874D02*
X12355777Y-23963398D01*
X12355777Y-23963398D02*
X12365301Y-23982446D01*
X12365301Y-23982446D02*
X12365301Y-24039588D01*
X12365301Y-24039588D02*
X12355777Y-24058636D01*
X12355777Y-24058636D02*
X12346253Y-24068160D01*
X12346253Y-24068160D02*
X12327206Y-24077684D01*
X12327206Y-24077684D02*
X12298634Y-24077684D01*
X12479587Y-24077684D02*
X12460539Y-24068160D01*
X12460539Y-24068160D02*
X12451015Y-24049112D01*
X12451015Y-24049112D02*
X12451015Y-23877684D01*
X12631968Y-24068160D02*
X12612920Y-24077684D01*
X12612920Y-24077684D02*
X12574825Y-24077684D01*
X12574825Y-24077684D02*
X12555777Y-24068160D01*
X12555777Y-24068160D02*
X12546253Y-24049112D01*
X12546253Y-24049112D02*
X12546253Y-23972922D01*
X12546253Y-23972922D02*
X12555777Y-23953874D01*
X12555777Y-23953874D02*
X12574825Y-23944350D01*
X12574825Y-23944350D02*
X12612920Y-23944350D01*
X12612920Y-23944350D02*
X12631968Y-23953874D01*
X12631968Y-23953874D02*
X12641491Y-23972922D01*
X12641491Y-23972922D02*
X12641491Y-23991969D01*
X12641491Y-23991969D02*
X12546253Y-24011017D01*
X12708158Y-24153874D02*
X12717682Y-24144350D01*
X12717682Y-24144350D02*
X12736730Y-24115779D01*
X12736730Y-24115779D02*
X12746253Y-24096731D01*
X12746253Y-24096731D02*
X12755777Y-24068160D01*
X12755777Y-24068160D02*
X12765301Y-24020541D01*
X12765301Y-24020541D02*
X12765301Y-23982446D01*
X12765301Y-23982446D02*
X12755777Y-23934827D01*
X12755777Y-23934827D02*
X12746253Y-23906255D01*
X12746253Y-23906255D02*
X12736730Y-23887208D01*
X12736730Y-23887208D02*
X12717682Y-23858636D01*
X12717682Y-23858636D02*
X12708158Y-23849112D01*
D14*
X8060000Y-24215200D02*
X8060000Y-24285200D01*
X8025000Y-24250200D02*
X8095000Y-24250200D01*
D10*
X8393872Y-24141684D02*
X8412920Y-24141684D01*
X8412920Y-24141684D02*
X8431967Y-24151208D01*
X8431967Y-24151208D02*
X8441491Y-24160731D01*
X8441491Y-24160731D02*
X8451015Y-24179779D01*
X8451015Y-24179779D02*
X8460539Y-24217874D01*
X8460539Y-24217874D02*
X8460539Y-24265493D01*
X8460539Y-24265493D02*
X8451015Y-24303588D01*
X8451015Y-24303588D02*
X8441491Y-24322636D01*
X8441491Y-24322636D02*
X8431967Y-24332160D01*
X8431967Y-24332160D02*
X8412920Y-24341684D01*
X8412920Y-24341684D02*
X8393872Y-24341684D01*
X8393872Y-24341684D02*
X8374824Y-24332160D01*
X8374824Y-24332160D02*
X8365301Y-24322636D01*
X8365301Y-24322636D02*
X8355777Y-24303588D01*
X8355777Y-24303588D02*
X8346253Y-24265493D01*
X8346253Y-24265493D02*
X8346253Y-24217874D01*
X8346253Y-24217874D02*
X8355777Y-24179779D01*
X8355777Y-24179779D02*
X8365301Y-24160731D01*
X8365301Y-24160731D02*
X8374824Y-24151208D01*
X8374824Y-24151208D02*
X8393872Y-24141684D01*
X8546253Y-24322636D02*
X8555777Y-24332160D01*
X8555777Y-24332160D02*
X8546253Y-24341684D01*
X8546253Y-24341684D02*
X8536729Y-24332160D01*
X8536729Y-24332160D02*
X8546253Y-24322636D01*
X8546253Y-24322636D02*
X8546253Y-24341684D01*
X8622444Y-24141684D02*
X8755777Y-24141684D01*
X8755777Y-24141684D02*
X8670063Y-24341684D01*
X8870063Y-24141684D02*
X8889110Y-24141684D01*
X8889110Y-24141684D02*
X8908158Y-24151208D01*
X8908158Y-24151208D02*
X8917682Y-24160731D01*
X8917682Y-24160731D02*
X8927205Y-24179779D01*
X8927205Y-24179779D02*
X8936729Y-24217874D01*
X8936729Y-24217874D02*
X8936729Y-24265493D01*
X8936729Y-24265493D02*
X8927205Y-24303588D01*
X8927205Y-24303588D02*
X8917682Y-24322636D01*
X8917682Y-24322636D02*
X8908158Y-24332160D01*
X8908158Y-24332160D02*
X8889110Y-24341684D01*
X8889110Y-24341684D02*
X8870063Y-24341684D01*
X8870063Y-24341684D02*
X8851015Y-24332160D01*
X8851015Y-24332160D02*
X8841491Y-24322636D01*
X8841491Y-24322636D02*
X8831967Y-24303588D01*
X8831967Y-24303588D02*
X8822444Y-24265493D01*
X8822444Y-24265493D02*
X8822444Y-24217874D01*
X8822444Y-24217874D02*
X8831967Y-24179779D01*
X8831967Y-24179779D02*
X8841491Y-24160731D01*
X8841491Y-24160731D02*
X8851015Y-24151208D01*
X8851015Y-24151208D02*
X8870063Y-24141684D01*
X9060539Y-24141684D02*
X9079586Y-24141684D01*
X9079586Y-24141684D02*
X9098634Y-24151208D01*
X9098634Y-24151208D02*
X9108158Y-24160731D01*
X9108158Y-24160731D02*
X9117682Y-24179779D01*
X9117682Y-24179779D02*
X9127205Y-24217874D01*
X9127205Y-24217874D02*
X9127205Y-24265493D01*
X9127205Y-24265493D02*
X9117682Y-24303588D01*
X9117682Y-24303588D02*
X9108158Y-24322636D01*
X9108158Y-24322636D02*
X9098634Y-24332160D01*
X9098634Y-24332160D02*
X9079586Y-24341684D01*
X9079586Y-24341684D02*
X9060539Y-24341684D01*
X9060539Y-24341684D02*
X9041491Y-24332160D01*
X9041491Y-24332160D02*
X9031967Y-24322636D01*
X9031967Y-24322636D02*
X9022444Y-24303588D01*
X9022444Y-24303588D02*
X9012920Y-24265493D01*
X9012920Y-24265493D02*
X9012920Y-24217874D01*
X9012920Y-24217874D02*
X9022444Y-24179779D01*
X9022444Y-24179779D02*
X9031967Y-24160731D01*
X9031967Y-24160731D02*
X9041491Y-24151208D01*
X9041491Y-24151208D02*
X9060539Y-24141684D01*
X9212920Y-24341684D02*
X9212920Y-24208350D01*
X9212920Y-24227398D02*
X9222444Y-24217874D01*
X9222444Y-24217874D02*
X9241491Y-24208350D01*
X9241491Y-24208350D02*
X9270063Y-24208350D01*
X9270063Y-24208350D02*
X9289110Y-24217874D01*
X9289110Y-24217874D02*
X9298634Y-24236922D01*
X9298634Y-24236922D02*
X9298634Y-24341684D01*
X9298634Y-24236922D02*
X9308158Y-24217874D01*
X9308158Y-24217874D02*
X9327205Y-24208350D01*
X9327205Y-24208350D02*
X9355777Y-24208350D01*
X9355777Y-24208350D02*
X9374825Y-24217874D01*
X9374825Y-24217874D02*
X9384348Y-24236922D01*
X9384348Y-24236922D02*
X9384348Y-24341684D01*
X9479586Y-24341684D02*
X9479586Y-24208350D01*
X9479586Y-24227398D02*
X9489110Y-24217874D01*
X9489110Y-24217874D02*
X9508158Y-24208350D01*
X9508158Y-24208350D02*
X9536729Y-24208350D01*
X9536729Y-24208350D02*
X9555777Y-24217874D01*
X9555777Y-24217874D02*
X9565301Y-24236922D01*
X9565301Y-24236922D02*
X9565301Y-24341684D01*
X9565301Y-24236922D02*
X9574825Y-24217874D01*
X9574825Y-24217874D02*
X9593872Y-24208350D01*
X9593872Y-24208350D02*
X9622444Y-24208350D01*
X9622444Y-24208350D02*
X9641491Y-24217874D01*
X9641491Y-24217874D02*
X9651015Y-24236922D01*
X9651015Y-24236922D02*
X9651015Y-24341684D01*
X10041491Y-24132160D02*
X9870063Y-24389303D01*
X10298634Y-24141684D02*
X10317682Y-24141684D01*
X10317682Y-24141684D02*
X10336729Y-24151208D01*
X10336729Y-24151208D02*
X10346253Y-24160731D01*
X10346253Y-24160731D02*
X10355777Y-24179779D01*
X10355777Y-24179779D02*
X10365301Y-24217874D01*
X10365301Y-24217874D02*
X10365301Y-24265493D01*
X10365301Y-24265493D02*
X10355777Y-24303588D01*
X10355777Y-24303588D02*
X10346253Y-24322636D01*
X10346253Y-24322636D02*
X10336729Y-24332160D01*
X10336729Y-24332160D02*
X10317682Y-24341684D01*
X10317682Y-24341684D02*
X10298634Y-24341684D01*
X10298634Y-24341684D02*
X10279587Y-24332160D01*
X10279587Y-24332160D02*
X10270063Y-24322636D01*
X10270063Y-24322636D02*
X10260539Y-24303588D01*
X10260539Y-24303588D02*
X10251015Y-24265493D01*
X10251015Y-24265493D02*
X10251015Y-24217874D01*
X10251015Y-24217874D02*
X10260539Y-24179779D01*
X10260539Y-24179779D02*
X10270063Y-24160731D01*
X10270063Y-24160731D02*
X10279587Y-24151208D01*
X10279587Y-24151208D02*
X10298634Y-24141684D01*
X10451015Y-24322636D02*
X10460539Y-24332160D01*
X10460539Y-24332160D02*
X10451015Y-24341684D01*
X10451015Y-24341684D02*
X10441491Y-24332160D01*
X10441491Y-24332160D02*
X10451015Y-24322636D01*
X10451015Y-24322636D02*
X10451015Y-24341684D01*
X10584348Y-24141684D02*
X10603396Y-24141684D01*
X10603396Y-24141684D02*
X10622444Y-24151208D01*
X10622444Y-24151208D02*
X10631968Y-24160731D01*
X10631968Y-24160731D02*
X10641491Y-24179779D01*
X10641491Y-24179779D02*
X10651015Y-24217874D01*
X10651015Y-24217874D02*
X10651015Y-24265493D01*
X10651015Y-24265493D02*
X10641491Y-24303588D01*
X10641491Y-24303588D02*
X10631968Y-24322636D01*
X10631968Y-24322636D02*
X10622444Y-24332160D01*
X10622444Y-24332160D02*
X10603396Y-24341684D01*
X10603396Y-24341684D02*
X10584348Y-24341684D01*
X10584348Y-24341684D02*
X10565301Y-24332160D01*
X10565301Y-24332160D02*
X10555777Y-24322636D01*
X10555777Y-24322636D02*
X10546253Y-24303588D01*
X10546253Y-24303588D02*
X10536729Y-24265493D01*
X10536729Y-24265493D02*
X10536729Y-24217874D01*
X10536729Y-24217874D02*
X10546253Y-24179779D01*
X10546253Y-24179779D02*
X10555777Y-24160731D01*
X10555777Y-24160731D02*
X10565301Y-24151208D01*
X10565301Y-24151208D02*
X10584348Y-24141684D01*
X10727206Y-24160731D02*
X10736729Y-24151208D01*
X10736729Y-24151208D02*
X10755777Y-24141684D01*
X10755777Y-24141684D02*
X10803396Y-24141684D01*
X10803396Y-24141684D02*
X10822444Y-24151208D01*
X10822444Y-24151208D02*
X10831968Y-24160731D01*
X10831968Y-24160731D02*
X10841491Y-24179779D01*
X10841491Y-24179779D02*
X10841491Y-24198827D01*
X10841491Y-24198827D02*
X10831968Y-24227398D01*
X10831968Y-24227398D02*
X10717682Y-24341684D01*
X10717682Y-24341684D02*
X10841491Y-24341684D01*
X10908158Y-24141684D02*
X11041491Y-24141684D01*
X11041491Y-24141684D02*
X10955777Y-24341684D01*
X11203396Y-24141684D02*
X11165301Y-24141684D01*
X11165301Y-24141684D02*
X11146253Y-24151208D01*
X11146253Y-24151208D02*
X11136729Y-24160731D01*
X11136729Y-24160731D02*
X11117682Y-24189303D01*
X11117682Y-24189303D02*
X11108158Y-24227398D01*
X11108158Y-24227398D02*
X11108158Y-24303588D01*
X11108158Y-24303588D02*
X11117682Y-24322636D01*
X11117682Y-24322636D02*
X11127206Y-24332160D01*
X11127206Y-24332160D02*
X11146253Y-24341684D01*
X11146253Y-24341684D02*
X11184349Y-24341684D01*
X11184349Y-24341684D02*
X11203396Y-24332160D01*
X11203396Y-24332160D02*
X11212920Y-24322636D01*
X11212920Y-24322636D02*
X11222444Y-24303588D01*
X11222444Y-24303588D02*
X11222444Y-24255969D01*
X11222444Y-24255969D02*
X11212920Y-24236922D01*
X11212920Y-24236922D02*
X11203396Y-24227398D01*
X11203396Y-24227398D02*
X11184349Y-24217874D01*
X11184349Y-24217874D02*
X11146253Y-24217874D01*
X11146253Y-24217874D02*
X11127206Y-24227398D01*
X11127206Y-24227398D02*
X11117682Y-24236922D01*
X11117682Y-24236922D02*
X11108158Y-24255969D01*
X11298634Y-24141684D02*
X11298634Y-24179779D01*
X11374825Y-24141684D02*
X11374825Y-24179779D01*
X11670063Y-24417874D02*
X11660539Y-24408350D01*
X11660539Y-24408350D02*
X11641491Y-24379779D01*
X11641491Y-24379779D02*
X11631968Y-24360731D01*
X11631968Y-24360731D02*
X11622444Y-24332160D01*
X11622444Y-24332160D02*
X11612920Y-24284541D01*
X11612920Y-24284541D02*
X11612920Y-24246446D01*
X11612920Y-24246446D02*
X11622444Y-24198827D01*
X11622444Y-24198827D02*
X11631968Y-24170255D01*
X11631968Y-24170255D02*
X11641491Y-24151208D01*
X11641491Y-24151208D02*
X11660539Y-24122636D01*
X11660539Y-24122636D02*
X11670063Y-24113112D01*
X11774825Y-24227398D02*
X11755777Y-24217874D01*
X11755777Y-24217874D02*
X11746253Y-24208350D01*
X11746253Y-24208350D02*
X11736729Y-24189303D01*
X11736729Y-24189303D02*
X11736729Y-24179779D01*
X11736729Y-24179779D02*
X11746253Y-24160731D01*
X11746253Y-24160731D02*
X11755777Y-24151208D01*
X11755777Y-24151208D02*
X11774825Y-24141684D01*
X11774825Y-24141684D02*
X11812920Y-24141684D01*
X11812920Y-24141684D02*
X11831968Y-24151208D01*
X11831968Y-24151208D02*
X11841491Y-24160731D01*
X11841491Y-24160731D02*
X11851015Y-24179779D01*
X11851015Y-24179779D02*
X11851015Y-24189303D01*
X11851015Y-24189303D02*
X11841491Y-24208350D01*
X11841491Y-24208350D02*
X11831968Y-24217874D01*
X11831968Y-24217874D02*
X11812920Y-24227398D01*
X11812920Y-24227398D02*
X11774825Y-24227398D01*
X11774825Y-24227398D02*
X11755777Y-24236922D01*
X11755777Y-24236922D02*
X11746253Y-24246446D01*
X11746253Y-24246446D02*
X11736729Y-24265493D01*
X11736729Y-24265493D02*
X11736729Y-24303588D01*
X11736729Y-24303588D02*
X11746253Y-24322636D01*
X11746253Y-24322636D02*
X11755777Y-24332160D01*
X11755777Y-24332160D02*
X11774825Y-24341684D01*
X11774825Y-24341684D02*
X11812920Y-24341684D01*
X11812920Y-24341684D02*
X11831968Y-24332160D01*
X11831968Y-24332160D02*
X11841491Y-24322636D01*
X11841491Y-24322636D02*
X11851015Y-24303588D01*
X11851015Y-24303588D02*
X11851015Y-24265493D01*
X11851015Y-24265493D02*
X11841491Y-24246446D01*
X11841491Y-24246446D02*
X11831968Y-24236922D01*
X11831968Y-24236922D02*
X11812920Y-24227398D01*
X12089110Y-24341684D02*
X12089110Y-24141684D01*
X12174825Y-24341684D02*
X12174825Y-24236922D01*
X12174825Y-24236922D02*
X12165301Y-24217874D01*
X12165301Y-24217874D02*
X12146253Y-24208350D01*
X12146253Y-24208350D02*
X12117682Y-24208350D01*
X12117682Y-24208350D02*
X12098634Y-24217874D01*
X12098634Y-24217874D02*
X12089110Y-24227398D01*
X12298634Y-24341684D02*
X12279587Y-24332160D01*
X12279587Y-24332160D02*
X12270063Y-24322636D01*
X12270063Y-24322636D02*
X12260539Y-24303588D01*
X12260539Y-24303588D02*
X12260539Y-24246446D01*
X12260539Y-24246446D02*
X12270063Y-24227398D01*
X12270063Y-24227398D02*
X12279587Y-24217874D01*
X12279587Y-24217874D02*
X12298634Y-24208350D01*
X12298634Y-24208350D02*
X12327206Y-24208350D01*
X12327206Y-24208350D02*
X12346253Y-24217874D01*
X12346253Y-24217874D02*
X12355777Y-24227398D01*
X12355777Y-24227398D02*
X12365301Y-24246446D01*
X12365301Y-24246446D02*
X12365301Y-24303588D01*
X12365301Y-24303588D02*
X12355777Y-24322636D01*
X12355777Y-24322636D02*
X12346253Y-24332160D01*
X12346253Y-24332160D02*
X12327206Y-24341684D01*
X12327206Y-24341684D02*
X12298634Y-24341684D01*
X12479587Y-24341684D02*
X12460539Y-24332160D01*
X12460539Y-24332160D02*
X12451015Y-24313112D01*
X12451015Y-24313112D02*
X12451015Y-24141684D01*
X12631968Y-24332160D02*
X12612920Y-24341684D01*
X12612920Y-24341684D02*
X12574825Y-24341684D01*
X12574825Y-24341684D02*
X12555777Y-24332160D01*
X12555777Y-24332160D02*
X12546253Y-24313112D01*
X12546253Y-24313112D02*
X12546253Y-24236922D01*
X12546253Y-24236922D02*
X12555777Y-24217874D01*
X12555777Y-24217874D02*
X12574825Y-24208350D01*
X12574825Y-24208350D02*
X12612920Y-24208350D01*
X12612920Y-24208350D02*
X12631968Y-24217874D01*
X12631968Y-24217874D02*
X12641491Y-24236922D01*
X12641491Y-24236922D02*
X12641491Y-24255969D01*
X12641491Y-24255969D02*
X12546253Y-24275017D01*
X12717682Y-24332160D02*
X12736730Y-24341684D01*
X12736730Y-24341684D02*
X12774825Y-24341684D01*
X12774825Y-24341684D02*
X12793872Y-24332160D01*
X12793872Y-24332160D02*
X12803396Y-24313112D01*
X12803396Y-24313112D02*
X12803396Y-24303588D01*
X12803396Y-24303588D02*
X12793872Y-24284541D01*
X12793872Y-24284541D02*
X12774825Y-24275017D01*
X12774825Y-24275017D02*
X12746253Y-24275017D01*
X12746253Y-24275017D02*
X12727206Y-24265493D01*
X12727206Y-24265493D02*
X12717682Y-24246446D01*
X12717682Y-24246446D02*
X12717682Y-24236922D01*
X12717682Y-24236922D02*
X12727206Y-24217874D01*
X12727206Y-24217874D02*
X12746253Y-24208350D01*
X12746253Y-24208350D02*
X12774825Y-24208350D01*
X12774825Y-24208350D02*
X12793872Y-24217874D01*
X12870063Y-24417874D02*
X12879587Y-24408350D01*
X12879587Y-24408350D02*
X12898634Y-24379779D01*
X12898634Y-24379779D02*
X12908158Y-24360731D01*
X12908158Y-24360731D02*
X12917682Y-24332160D01*
X12917682Y-24332160D02*
X12927206Y-24284541D01*
X12927206Y-24284541D02*
X12927206Y-24246446D01*
X12927206Y-24246446D02*
X12917682Y-24198827D01*
X12917682Y-24198827D02*
X12908158Y-24170255D01*
X12908158Y-24170255D02*
X12898634Y-24151208D01*
X12898634Y-24151208D02*
X12879587Y-24122636D01*
X12879587Y-24122636D02*
X12870063Y-24113112D01*
D15*
X8083284Y-24542484D02*
X8083284Y-24485915D01*
X8026715Y-24485915D01*
X8026715Y-24542484D01*
X8083284Y-24542484D01*
D10*
X8393872Y-24405684D02*
X8412920Y-24405684D01*
X8412920Y-24405684D02*
X8431967Y-24415208D01*
X8431967Y-24415208D02*
X8441491Y-24424731D01*
X8441491Y-24424731D02*
X8451015Y-24443779D01*
X8451015Y-24443779D02*
X8460539Y-24481874D01*
X8460539Y-24481874D02*
X8460539Y-24529493D01*
X8460539Y-24529493D02*
X8451015Y-24567588D01*
X8451015Y-24567588D02*
X8441491Y-24586636D01*
X8441491Y-24586636D02*
X8431967Y-24596160D01*
X8431967Y-24596160D02*
X8412920Y-24605684D01*
X8412920Y-24605684D02*
X8393872Y-24605684D01*
X8393872Y-24605684D02*
X8374824Y-24596160D01*
X8374824Y-24596160D02*
X8365301Y-24586636D01*
X8365301Y-24586636D02*
X8355777Y-24567588D01*
X8355777Y-24567588D02*
X8346253Y-24529493D01*
X8346253Y-24529493D02*
X8346253Y-24481874D01*
X8346253Y-24481874D02*
X8355777Y-24443779D01*
X8355777Y-24443779D02*
X8365301Y-24424731D01*
X8365301Y-24424731D02*
X8374824Y-24415208D01*
X8374824Y-24415208D02*
X8393872Y-24405684D01*
X8546253Y-24586636D02*
X8555777Y-24596160D01*
X8555777Y-24596160D02*
X8546253Y-24605684D01*
X8546253Y-24605684D02*
X8536729Y-24596160D01*
X8536729Y-24596160D02*
X8546253Y-24586636D01*
X8546253Y-24586636D02*
X8546253Y-24605684D01*
X8670063Y-24491398D02*
X8651015Y-24481874D01*
X8651015Y-24481874D02*
X8641491Y-24472350D01*
X8641491Y-24472350D02*
X8631967Y-24453303D01*
X8631967Y-24453303D02*
X8631967Y-24443779D01*
X8631967Y-24443779D02*
X8641491Y-24424731D01*
X8641491Y-24424731D02*
X8651015Y-24415208D01*
X8651015Y-24415208D02*
X8670063Y-24405684D01*
X8670063Y-24405684D02*
X8708158Y-24405684D01*
X8708158Y-24405684D02*
X8727205Y-24415208D01*
X8727205Y-24415208D02*
X8736729Y-24424731D01*
X8736729Y-24424731D02*
X8746253Y-24443779D01*
X8746253Y-24443779D02*
X8746253Y-24453303D01*
X8746253Y-24453303D02*
X8736729Y-24472350D01*
X8736729Y-24472350D02*
X8727205Y-24481874D01*
X8727205Y-24481874D02*
X8708158Y-24491398D01*
X8708158Y-24491398D02*
X8670063Y-24491398D01*
X8670063Y-24491398D02*
X8651015Y-24500922D01*
X8651015Y-24500922D02*
X8641491Y-24510446D01*
X8641491Y-24510446D02*
X8631967Y-24529493D01*
X8631967Y-24529493D02*
X8631967Y-24567588D01*
X8631967Y-24567588D02*
X8641491Y-24586636D01*
X8641491Y-24586636D02*
X8651015Y-24596160D01*
X8651015Y-24596160D02*
X8670063Y-24605684D01*
X8670063Y-24605684D02*
X8708158Y-24605684D01*
X8708158Y-24605684D02*
X8727205Y-24596160D01*
X8727205Y-24596160D02*
X8736729Y-24586636D01*
X8736729Y-24586636D02*
X8746253Y-24567588D01*
X8746253Y-24567588D02*
X8746253Y-24529493D01*
X8746253Y-24529493D02*
X8736729Y-24510446D01*
X8736729Y-24510446D02*
X8727205Y-24500922D01*
X8727205Y-24500922D02*
X8708158Y-24491398D01*
X8870063Y-24405684D02*
X8889110Y-24405684D01*
X8889110Y-24405684D02*
X8908158Y-24415208D01*
X8908158Y-24415208D02*
X8917682Y-24424731D01*
X8917682Y-24424731D02*
X8927205Y-24443779D01*
X8927205Y-24443779D02*
X8936729Y-24481874D01*
X8936729Y-24481874D02*
X8936729Y-24529493D01*
X8936729Y-24529493D02*
X8927205Y-24567588D01*
X8927205Y-24567588D02*
X8917682Y-24586636D01*
X8917682Y-24586636D02*
X8908158Y-24596160D01*
X8908158Y-24596160D02*
X8889110Y-24605684D01*
X8889110Y-24605684D02*
X8870063Y-24605684D01*
X8870063Y-24605684D02*
X8851015Y-24596160D01*
X8851015Y-24596160D02*
X8841491Y-24586636D01*
X8841491Y-24586636D02*
X8831967Y-24567588D01*
X8831967Y-24567588D02*
X8822444Y-24529493D01*
X8822444Y-24529493D02*
X8822444Y-24481874D01*
X8822444Y-24481874D02*
X8831967Y-24443779D01*
X8831967Y-24443779D02*
X8841491Y-24424731D01*
X8841491Y-24424731D02*
X8851015Y-24415208D01*
X8851015Y-24415208D02*
X8870063Y-24405684D01*
X9060539Y-24405684D02*
X9079586Y-24405684D01*
X9079586Y-24405684D02*
X9098634Y-24415208D01*
X9098634Y-24415208D02*
X9108158Y-24424731D01*
X9108158Y-24424731D02*
X9117682Y-24443779D01*
X9117682Y-24443779D02*
X9127205Y-24481874D01*
X9127205Y-24481874D02*
X9127205Y-24529493D01*
X9127205Y-24529493D02*
X9117682Y-24567588D01*
X9117682Y-24567588D02*
X9108158Y-24586636D01*
X9108158Y-24586636D02*
X9098634Y-24596160D01*
X9098634Y-24596160D02*
X9079586Y-24605684D01*
X9079586Y-24605684D02*
X9060539Y-24605684D01*
X9060539Y-24605684D02*
X9041491Y-24596160D01*
X9041491Y-24596160D02*
X9031967Y-24586636D01*
X9031967Y-24586636D02*
X9022444Y-24567588D01*
X9022444Y-24567588D02*
X9012920Y-24529493D01*
X9012920Y-24529493D02*
X9012920Y-24481874D01*
X9012920Y-24481874D02*
X9022444Y-24443779D01*
X9022444Y-24443779D02*
X9031967Y-24424731D01*
X9031967Y-24424731D02*
X9041491Y-24415208D01*
X9041491Y-24415208D02*
X9060539Y-24405684D01*
X9212920Y-24605684D02*
X9212920Y-24472350D01*
X9212920Y-24491398D02*
X9222444Y-24481874D01*
X9222444Y-24481874D02*
X9241491Y-24472350D01*
X9241491Y-24472350D02*
X9270063Y-24472350D01*
X9270063Y-24472350D02*
X9289110Y-24481874D01*
X9289110Y-24481874D02*
X9298634Y-24500922D01*
X9298634Y-24500922D02*
X9298634Y-24605684D01*
X9298634Y-24500922D02*
X9308158Y-24481874D01*
X9308158Y-24481874D02*
X9327205Y-24472350D01*
X9327205Y-24472350D02*
X9355777Y-24472350D01*
X9355777Y-24472350D02*
X9374825Y-24481874D01*
X9374825Y-24481874D02*
X9384348Y-24500922D01*
X9384348Y-24500922D02*
X9384348Y-24605684D01*
X9479586Y-24605684D02*
X9479586Y-24472350D01*
X9479586Y-24491398D02*
X9489110Y-24481874D01*
X9489110Y-24481874D02*
X9508158Y-24472350D01*
X9508158Y-24472350D02*
X9536729Y-24472350D01*
X9536729Y-24472350D02*
X9555777Y-24481874D01*
X9555777Y-24481874D02*
X9565301Y-24500922D01*
X9565301Y-24500922D02*
X9565301Y-24605684D01*
X9565301Y-24500922D02*
X9574825Y-24481874D01*
X9574825Y-24481874D02*
X9593872Y-24472350D01*
X9593872Y-24472350D02*
X9622444Y-24472350D01*
X9622444Y-24472350D02*
X9641491Y-24481874D01*
X9641491Y-24481874D02*
X9651015Y-24500922D01*
X9651015Y-24500922D02*
X9651015Y-24605684D01*
X10041491Y-24396160D02*
X9870063Y-24653303D01*
X10298634Y-24405684D02*
X10317682Y-24405684D01*
X10317682Y-24405684D02*
X10336729Y-24415208D01*
X10336729Y-24415208D02*
X10346253Y-24424731D01*
X10346253Y-24424731D02*
X10355777Y-24443779D01*
X10355777Y-24443779D02*
X10365301Y-24481874D01*
X10365301Y-24481874D02*
X10365301Y-24529493D01*
X10365301Y-24529493D02*
X10355777Y-24567588D01*
X10355777Y-24567588D02*
X10346253Y-24586636D01*
X10346253Y-24586636D02*
X10336729Y-24596160D01*
X10336729Y-24596160D02*
X10317682Y-24605684D01*
X10317682Y-24605684D02*
X10298634Y-24605684D01*
X10298634Y-24605684D02*
X10279587Y-24596160D01*
X10279587Y-24596160D02*
X10270063Y-24586636D01*
X10270063Y-24586636D02*
X10260539Y-24567588D01*
X10260539Y-24567588D02*
X10251015Y-24529493D01*
X10251015Y-24529493D02*
X10251015Y-24481874D01*
X10251015Y-24481874D02*
X10260539Y-24443779D01*
X10260539Y-24443779D02*
X10270063Y-24424731D01*
X10270063Y-24424731D02*
X10279587Y-24415208D01*
X10279587Y-24415208D02*
X10298634Y-24405684D01*
X10451015Y-24586636D02*
X10460539Y-24596160D01*
X10460539Y-24596160D02*
X10451015Y-24605684D01*
X10451015Y-24605684D02*
X10441491Y-24596160D01*
X10441491Y-24596160D02*
X10451015Y-24586636D01*
X10451015Y-24586636D02*
X10451015Y-24605684D01*
X10584348Y-24405684D02*
X10603396Y-24405684D01*
X10603396Y-24405684D02*
X10622444Y-24415208D01*
X10622444Y-24415208D02*
X10631968Y-24424731D01*
X10631968Y-24424731D02*
X10641491Y-24443779D01*
X10641491Y-24443779D02*
X10651015Y-24481874D01*
X10651015Y-24481874D02*
X10651015Y-24529493D01*
X10651015Y-24529493D02*
X10641491Y-24567588D01*
X10641491Y-24567588D02*
X10631968Y-24586636D01*
X10631968Y-24586636D02*
X10622444Y-24596160D01*
X10622444Y-24596160D02*
X10603396Y-24605684D01*
X10603396Y-24605684D02*
X10584348Y-24605684D01*
X10584348Y-24605684D02*
X10565301Y-24596160D01*
X10565301Y-24596160D02*
X10555777Y-24586636D01*
X10555777Y-24586636D02*
X10546253Y-24567588D01*
X10546253Y-24567588D02*
X10536729Y-24529493D01*
X10536729Y-24529493D02*
X10536729Y-24481874D01*
X10536729Y-24481874D02*
X10546253Y-24443779D01*
X10546253Y-24443779D02*
X10555777Y-24424731D01*
X10555777Y-24424731D02*
X10565301Y-24415208D01*
X10565301Y-24415208D02*
X10584348Y-24405684D01*
X10717682Y-24405684D02*
X10841491Y-24405684D01*
X10841491Y-24405684D02*
X10774825Y-24481874D01*
X10774825Y-24481874D02*
X10803396Y-24481874D01*
X10803396Y-24481874D02*
X10822444Y-24491398D01*
X10822444Y-24491398D02*
X10831968Y-24500922D01*
X10831968Y-24500922D02*
X10841491Y-24519969D01*
X10841491Y-24519969D02*
X10841491Y-24567588D01*
X10841491Y-24567588D02*
X10831968Y-24586636D01*
X10831968Y-24586636D02*
X10822444Y-24596160D01*
X10822444Y-24596160D02*
X10803396Y-24605684D01*
X10803396Y-24605684D02*
X10746253Y-24605684D01*
X10746253Y-24605684D02*
X10727206Y-24596160D01*
X10727206Y-24596160D02*
X10717682Y-24586636D01*
X11031968Y-24605684D02*
X10917682Y-24605684D01*
X10974825Y-24605684D02*
X10974825Y-24405684D01*
X10974825Y-24405684D02*
X10955777Y-24434255D01*
X10955777Y-24434255D02*
X10936729Y-24453303D01*
X10936729Y-24453303D02*
X10917682Y-24462827D01*
X11212920Y-24405684D02*
X11117682Y-24405684D01*
X11117682Y-24405684D02*
X11108158Y-24500922D01*
X11108158Y-24500922D02*
X11117682Y-24491398D01*
X11117682Y-24491398D02*
X11136729Y-24481874D01*
X11136729Y-24481874D02*
X11184349Y-24481874D01*
X11184349Y-24481874D02*
X11203396Y-24491398D01*
X11203396Y-24491398D02*
X11212920Y-24500922D01*
X11212920Y-24500922D02*
X11222444Y-24519969D01*
X11222444Y-24519969D02*
X11222444Y-24567588D01*
X11222444Y-24567588D02*
X11212920Y-24586636D01*
X11212920Y-24586636D02*
X11203396Y-24596160D01*
X11203396Y-24596160D02*
X11184349Y-24605684D01*
X11184349Y-24605684D02*
X11136729Y-24605684D01*
X11136729Y-24605684D02*
X11117682Y-24596160D01*
X11117682Y-24596160D02*
X11108158Y-24586636D01*
X11298634Y-24405684D02*
X11298634Y-24443779D01*
X11374825Y-24405684D02*
X11374825Y-24443779D01*
X11670063Y-24681874D02*
X11660539Y-24672350D01*
X11660539Y-24672350D02*
X11641491Y-24643779D01*
X11641491Y-24643779D02*
X11631968Y-24624731D01*
X11631968Y-24624731D02*
X11622444Y-24596160D01*
X11622444Y-24596160D02*
X11612920Y-24548541D01*
X11612920Y-24548541D02*
X11612920Y-24510446D01*
X11612920Y-24510446D02*
X11622444Y-24462827D01*
X11622444Y-24462827D02*
X11631968Y-24434255D01*
X11631968Y-24434255D02*
X11641491Y-24415208D01*
X11641491Y-24415208D02*
X11660539Y-24386636D01*
X11660539Y-24386636D02*
X11670063Y-24377112D01*
X11755777Y-24605684D02*
X11793872Y-24605684D01*
X11793872Y-24605684D02*
X11812920Y-24596160D01*
X11812920Y-24596160D02*
X11822444Y-24586636D01*
X11822444Y-24586636D02*
X11841491Y-24558065D01*
X11841491Y-24558065D02*
X11851015Y-24519969D01*
X11851015Y-24519969D02*
X11851015Y-24443779D01*
X11851015Y-24443779D02*
X11841491Y-24424731D01*
X11841491Y-24424731D02*
X11831968Y-24415208D01*
X11831968Y-24415208D02*
X11812920Y-24405684D01*
X11812920Y-24405684D02*
X11774825Y-24405684D01*
X11774825Y-24405684D02*
X11755777Y-24415208D01*
X11755777Y-24415208D02*
X11746253Y-24424731D01*
X11746253Y-24424731D02*
X11736729Y-24443779D01*
X11736729Y-24443779D02*
X11736729Y-24491398D01*
X11736729Y-24491398D02*
X11746253Y-24510446D01*
X11746253Y-24510446D02*
X11755777Y-24519969D01*
X11755777Y-24519969D02*
X11774825Y-24529493D01*
X11774825Y-24529493D02*
X11812920Y-24529493D01*
X11812920Y-24529493D02*
X11831968Y-24519969D01*
X11831968Y-24519969D02*
X11841491Y-24510446D01*
X11841491Y-24510446D02*
X11851015Y-24491398D01*
X12089110Y-24605684D02*
X12089110Y-24405684D01*
X12174825Y-24605684D02*
X12174825Y-24500922D01*
X12174825Y-24500922D02*
X12165301Y-24481874D01*
X12165301Y-24481874D02*
X12146253Y-24472350D01*
X12146253Y-24472350D02*
X12117682Y-24472350D01*
X12117682Y-24472350D02*
X12098634Y-24481874D01*
X12098634Y-24481874D02*
X12089110Y-24491398D01*
X12298634Y-24605684D02*
X12279587Y-24596160D01*
X12279587Y-24596160D02*
X12270063Y-24586636D01*
X12270063Y-24586636D02*
X12260539Y-24567588D01*
X12260539Y-24567588D02*
X12260539Y-24510446D01*
X12260539Y-24510446D02*
X12270063Y-24491398D01*
X12270063Y-24491398D02*
X12279587Y-24481874D01*
X12279587Y-24481874D02*
X12298634Y-24472350D01*
X12298634Y-24472350D02*
X12327206Y-24472350D01*
X12327206Y-24472350D02*
X12346253Y-24481874D01*
X12346253Y-24481874D02*
X12355777Y-24491398D01*
X12355777Y-24491398D02*
X12365301Y-24510446D01*
X12365301Y-24510446D02*
X12365301Y-24567588D01*
X12365301Y-24567588D02*
X12355777Y-24586636D01*
X12355777Y-24586636D02*
X12346253Y-24596160D01*
X12346253Y-24596160D02*
X12327206Y-24605684D01*
X12327206Y-24605684D02*
X12298634Y-24605684D01*
X12479587Y-24605684D02*
X12460539Y-24596160D01*
X12460539Y-24596160D02*
X12451015Y-24577112D01*
X12451015Y-24577112D02*
X12451015Y-24405684D01*
X12631968Y-24596160D02*
X12612920Y-24605684D01*
X12612920Y-24605684D02*
X12574825Y-24605684D01*
X12574825Y-24605684D02*
X12555777Y-24596160D01*
X12555777Y-24596160D02*
X12546253Y-24577112D01*
X12546253Y-24577112D02*
X12546253Y-24500922D01*
X12546253Y-24500922D02*
X12555777Y-24481874D01*
X12555777Y-24481874D02*
X12574825Y-24472350D01*
X12574825Y-24472350D02*
X12612920Y-24472350D01*
X12612920Y-24472350D02*
X12631968Y-24481874D01*
X12631968Y-24481874D02*
X12641491Y-24500922D01*
X12641491Y-24500922D02*
X12641491Y-24519969D01*
X12641491Y-24519969D02*
X12546253Y-24539017D01*
X12717682Y-24596160D02*
X12736730Y-24605684D01*
X12736730Y-24605684D02*
X12774825Y-24605684D01*
X12774825Y-24605684D02*
X12793872Y-24596160D01*
X12793872Y-24596160D02*
X12803396Y-24577112D01*
X12803396Y-24577112D02*
X12803396Y-24567588D01*
X12803396Y-24567588D02*
X12793872Y-24548541D01*
X12793872Y-24548541D02*
X12774825Y-24539017D01*
X12774825Y-24539017D02*
X12746253Y-24539017D01*
X12746253Y-24539017D02*
X12727206Y-24529493D01*
X12727206Y-24529493D02*
X12717682Y-24510446D01*
X12717682Y-24510446D02*
X12717682Y-24500922D01*
X12717682Y-24500922D02*
X12727206Y-24481874D01*
X12727206Y-24481874D02*
X12746253Y-24472350D01*
X12746253Y-24472350D02*
X12774825Y-24472350D01*
X12774825Y-24472350D02*
X12793872Y-24481874D01*
X12870063Y-24681874D02*
X12879587Y-24672350D01*
X12879587Y-24672350D02*
X12898634Y-24643779D01*
X12898634Y-24643779D02*
X12908158Y-24624731D01*
X12908158Y-24624731D02*
X12917682Y-24596160D01*
X12917682Y-24596160D02*
X12927206Y-24548541D01*
X12927206Y-24548541D02*
X12927206Y-24510446D01*
X12927206Y-24510446D02*
X12917682Y-24462827D01*
X12917682Y-24462827D02*
X12908158Y-24434255D01*
X12908158Y-24434255D02*
X12898634Y-24415208D01*
X12898634Y-24415208D02*
X12879587Y-24386636D01*
X12879587Y-24386636D02*
X12870063Y-24377112D01*
D11*
X8045000Y-24828200D02*
X8095000Y-24778200D01*
X8045000Y-24728200D01*
X7995000Y-24778200D01*
X8045000Y-24828200D01*
D10*
X8460539Y-24869684D02*
X8346253Y-24869684D01*
X8403396Y-24869684D02*
X8403396Y-24669684D01*
X8403396Y-24669684D02*
X8384348Y-24698255D01*
X8384348Y-24698255D02*
X8365301Y-24717303D01*
X8365301Y-24717303D02*
X8346253Y-24726827D01*
X8546253Y-24850636D02*
X8555777Y-24860160D01*
X8555777Y-24860160D02*
X8546253Y-24869684D01*
X8546253Y-24869684D02*
X8536729Y-24860160D01*
X8536729Y-24860160D02*
X8546253Y-24850636D01*
X8546253Y-24850636D02*
X8546253Y-24869684D01*
X8679586Y-24669684D02*
X8698634Y-24669684D01*
X8698634Y-24669684D02*
X8717682Y-24679208D01*
X8717682Y-24679208D02*
X8727205Y-24688731D01*
X8727205Y-24688731D02*
X8736729Y-24707779D01*
X8736729Y-24707779D02*
X8746253Y-24745874D01*
X8746253Y-24745874D02*
X8746253Y-24793493D01*
X8746253Y-24793493D02*
X8736729Y-24831588D01*
X8736729Y-24831588D02*
X8727205Y-24850636D01*
X8727205Y-24850636D02*
X8717682Y-24860160D01*
X8717682Y-24860160D02*
X8698634Y-24869684D01*
X8698634Y-24869684D02*
X8679586Y-24869684D01*
X8679586Y-24869684D02*
X8660539Y-24860160D01*
X8660539Y-24860160D02*
X8651015Y-24850636D01*
X8651015Y-24850636D02*
X8641491Y-24831588D01*
X8641491Y-24831588D02*
X8631967Y-24793493D01*
X8631967Y-24793493D02*
X8631967Y-24745874D01*
X8631967Y-24745874D02*
X8641491Y-24707779D01*
X8641491Y-24707779D02*
X8651015Y-24688731D01*
X8651015Y-24688731D02*
X8660539Y-24679208D01*
X8660539Y-24679208D02*
X8679586Y-24669684D01*
X8870063Y-24669684D02*
X8889110Y-24669684D01*
X8889110Y-24669684D02*
X8908158Y-24679208D01*
X8908158Y-24679208D02*
X8917682Y-24688731D01*
X8917682Y-24688731D02*
X8927205Y-24707779D01*
X8927205Y-24707779D02*
X8936729Y-24745874D01*
X8936729Y-24745874D02*
X8936729Y-24793493D01*
X8936729Y-24793493D02*
X8927205Y-24831588D01*
X8927205Y-24831588D02*
X8917682Y-24850636D01*
X8917682Y-24850636D02*
X8908158Y-24860160D01*
X8908158Y-24860160D02*
X8889110Y-24869684D01*
X8889110Y-24869684D02*
X8870063Y-24869684D01*
X8870063Y-24869684D02*
X8851015Y-24860160D01*
X8851015Y-24860160D02*
X8841491Y-24850636D01*
X8841491Y-24850636D02*
X8831967Y-24831588D01*
X8831967Y-24831588D02*
X8822444Y-24793493D01*
X8822444Y-24793493D02*
X8822444Y-24745874D01*
X8822444Y-24745874D02*
X8831967Y-24707779D01*
X8831967Y-24707779D02*
X8841491Y-24688731D01*
X8841491Y-24688731D02*
X8851015Y-24679208D01*
X8851015Y-24679208D02*
X8870063Y-24669684D01*
X9060539Y-24669684D02*
X9079586Y-24669684D01*
X9079586Y-24669684D02*
X9098634Y-24679208D01*
X9098634Y-24679208D02*
X9108158Y-24688731D01*
X9108158Y-24688731D02*
X9117682Y-24707779D01*
X9117682Y-24707779D02*
X9127205Y-24745874D01*
X9127205Y-24745874D02*
X9127205Y-24793493D01*
X9127205Y-24793493D02*
X9117682Y-24831588D01*
X9117682Y-24831588D02*
X9108158Y-24850636D01*
X9108158Y-24850636D02*
X9098634Y-24860160D01*
X9098634Y-24860160D02*
X9079586Y-24869684D01*
X9079586Y-24869684D02*
X9060539Y-24869684D01*
X9060539Y-24869684D02*
X9041491Y-24860160D01*
X9041491Y-24860160D02*
X9031967Y-24850636D01*
X9031967Y-24850636D02*
X9022444Y-24831588D01*
X9022444Y-24831588D02*
X9012920Y-24793493D01*
X9012920Y-24793493D02*
X9012920Y-24745874D01*
X9012920Y-24745874D02*
X9022444Y-24707779D01*
X9022444Y-24707779D02*
X9031967Y-24688731D01*
X9031967Y-24688731D02*
X9041491Y-24679208D01*
X9041491Y-24679208D02*
X9060539Y-24669684D01*
X9212920Y-24869684D02*
X9212920Y-24736350D01*
X9212920Y-24755398D02*
X9222444Y-24745874D01*
X9222444Y-24745874D02*
X9241491Y-24736350D01*
X9241491Y-24736350D02*
X9270063Y-24736350D01*
X9270063Y-24736350D02*
X9289110Y-24745874D01*
X9289110Y-24745874D02*
X9298634Y-24764922D01*
X9298634Y-24764922D02*
X9298634Y-24869684D01*
X9298634Y-24764922D02*
X9308158Y-24745874D01*
X9308158Y-24745874D02*
X9327205Y-24736350D01*
X9327205Y-24736350D02*
X9355777Y-24736350D01*
X9355777Y-24736350D02*
X9374825Y-24745874D01*
X9374825Y-24745874D02*
X9384348Y-24764922D01*
X9384348Y-24764922D02*
X9384348Y-24869684D01*
X9479586Y-24869684D02*
X9479586Y-24736350D01*
X9479586Y-24755398D02*
X9489110Y-24745874D01*
X9489110Y-24745874D02*
X9508158Y-24736350D01*
X9508158Y-24736350D02*
X9536729Y-24736350D01*
X9536729Y-24736350D02*
X9555777Y-24745874D01*
X9555777Y-24745874D02*
X9565301Y-24764922D01*
X9565301Y-24764922D02*
X9565301Y-24869684D01*
X9565301Y-24764922D02*
X9574825Y-24745874D01*
X9574825Y-24745874D02*
X9593872Y-24736350D01*
X9593872Y-24736350D02*
X9622444Y-24736350D01*
X9622444Y-24736350D02*
X9641491Y-24745874D01*
X9641491Y-24745874D02*
X9651015Y-24764922D01*
X9651015Y-24764922D02*
X9651015Y-24869684D01*
X10041491Y-24660160D02*
X9870063Y-24917303D01*
X10298634Y-24669684D02*
X10317682Y-24669684D01*
X10317682Y-24669684D02*
X10336729Y-24679208D01*
X10336729Y-24679208D02*
X10346253Y-24688731D01*
X10346253Y-24688731D02*
X10355777Y-24707779D01*
X10355777Y-24707779D02*
X10365301Y-24745874D01*
X10365301Y-24745874D02*
X10365301Y-24793493D01*
X10365301Y-24793493D02*
X10355777Y-24831588D01*
X10355777Y-24831588D02*
X10346253Y-24850636D01*
X10346253Y-24850636D02*
X10336729Y-24860160D01*
X10336729Y-24860160D02*
X10317682Y-24869684D01*
X10317682Y-24869684D02*
X10298634Y-24869684D01*
X10298634Y-24869684D02*
X10279587Y-24860160D01*
X10279587Y-24860160D02*
X10270063Y-24850636D01*
X10270063Y-24850636D02*
X10260539Y-24831588D01*
X10260539Y-24831588D02*
X10251015Y-24793493D01*
X10251015Y-24793493D02*
X10251015Y-24745874D01*
X10251015Y-24745874D02*
X10260539Y-24707779D01*
X10260539Y-24707779D02*
X10270063Y-24688731D01*
X10270063Y-24688731D02*
X10279587Y-24679208D01*
X10279587Y-24679208D02*
X10298634Y-24669684D01*
X10451015Y-24850636D02*
X10460539Y-24860160D01*
X10460539Y-24860160D02*
X10451015Y-24869684D01*
X10451015Y-24869684D02*
X10441491Y-24860160D01*
X10441491Y-24860160D02*
X10451015Y-24850636D01*
X10451015Y-24850636D02*
X10451015Y-24869684D01*
X10584348Y-24669684D02*
X10603396Y-24669684D01*
X10603396Y-24669684D02*
X10622444Y-24679208D01*
X10622444Y-24679208D02*
X10631968Y-24688731D01*
X10631968Y-24688731D02*
X10641491Y-24707779D01*
X10641491Y-24707779D02*
X10651015Y-24745874D01*
X10651015Y-24745874D02*
X10651015Y-24793493D01*
X10651015Y-24793493D02*
X10641491Y-24831588D01*
X10641491Y-24831588D02*
X10631968Y-24850636D01*
X10631968Y-24850636D02*
X10622444Y-24860160D01*
X10622444Y-24860160D02*
X10603396Y-24869684D01*
X10603396Y-24869684D02*
X10584348Y-24869684D01*
X10584348Y-24869684D02*
X10565301Y-24860160D01*
X10565301Y-24860160D02*
X10555777Y-24850636D01*
X10555777Y-24850636D02*
X10546253Y-24831588D01*
X10546253Y-24831588D02*
X10536729Y-24793493D01*
X10536729Y-24793493D02*
X10536729Y-24745874D01*
X10536729Y-24745874D02*
X10546253Y-24707779D01*
X10546253Y-24707779D02*
X10555777Y-24688731D01*
X10555777Y-24688731D02*
X10565301Y-24679208D01*
X10565301Y-24679208D02*
X10584348Y-24669684D01*
X10717682Y-24669684D02*
X10841491Y-24669684D01*
X10841491Y-24669684D02*
X10774825Y-24745874D01*
X10774825Y-24745874D02*
X10803396Y-24745874D01*
X10803396Y-24745874D02*
X10822444Y-24755398D01*
X10822444Y-24755398D02*
X10831968Y-24764922D01*
X10831968Y-24764922D02*
X10841491Y-24783969D01*
X10841491Y-24783969D02*
X10841491Y-24831588D01*
X10841491Y-24831588D02*
X10831968Y-24850636D01*
X10831968Y-24850636D02*
X10822444Y-24860160D01*
X10822444Y-24860160D02*
X10803396Y-24869684D01*
X10803396Y-24869684D02*
X10746253Y-24869684D01*
X10746253Y-24869684D02*
X10727206Y-24860160D01*
X10727206Y-24860160D02*
X10717682Y-24850636D01*
X10936729Y-24869684D02*
X10974825Y-24869684D01*
X10974825Y-24869684D02*
X10993872Y-24860160D01*
X10993872Y-24860160D02*
X11003396Y-24850636D01*
X11003396Y-24850636D02*
X11022444Y-24822065D01*
X11022444Y-24822065D02*
X11031968Y-24783969D01*
X11031968Y-24783969D02*
X11031968Y-24707779D01*
X11031968Y-24707779D02*
X11022444Y-24688731D01*
X11022444Y-24688731D02*
X11012920Y-24679208D01*
X11012920Y-24679208D02*
X10993872Y-24669684D01*
X10993872Y-24669684D02*
X10955777Y-24669684D01*
X10955777Y-24669684D02*
X10936729Y-24679208D01*
X10936729Y-24679208D02*
X10927206Y-24688731D01*
X10927206Y-24688731D02*
X10917682Y-24707779D01*
X10917682Y-24707779D02*
X10917682Y-24755398D01*
X10917682Y-24755398D02*
X10927206Y-24774446D01*
X10927206Y-24774446D02*
X10936729Y-24783969D01*
X10936729Y-24783969D02*
X10955777Y-24793493D01*
X10955777Y-24793493D02*
X10993872Y-24793493D01*
X10993872Y-24793493D02*
X11012920Y-24783969D01*
X11012920Y-24783969D02*
X11022444Y-24774446D01*
X11022444Y-24774446D02*
X11031968Y-24755398D01*
X11203396Y-24736350D02*
X11203396Y-24869684D01*
X11155777Y-24660160D02*
X11108158Y-24803017D01*
X11108158Y-24803017D02*
X11231967Y-24803017D01*
X11298634Y-24669684D02*
X11298634Y-24707779D01*
X11374825Y-24669684D02*
X11374825Y-24707779D01*
X11670063Y-24945874D02*
X11660539Y-24936350D01*
X11660539Y-24936350D02*
X11641491Y-24907779D01*
X11641491Y-24907779D02*
X11631968Y-24888731D01*
X11631968Y-24888731D02*
X11622444Y-24860160D01*
X11622444Y-24860160D02*
X11612920Y-24812541D01*
X11612920Y-24812541D02*
X11612920Y-24774446D01*
X11612920Y-24774446D02*
X11622444Y-24726827D01*
X11622444Y-24726827D02*
X11631968Y-24698255D01*
X11631968Y-24698255D02*
X11641491Y-24679208D01*
X11641491Y-24679208D02*
X11660539Y-24650636D01*
X11660539Y-24650636D02*
X11670063Y-24641112D01*
X11841491Y-24669684D02*
X11746253Y-24669684D01*
X11746253Y-24669684D02*
X11736729Y-24764922D01*
X11736729Y-24764922D02*
X11746253Y-24755398D01*
X11746253Y-24755398D02*
X11765301Y-24745874D01*
X11765301Y-24745874D02*
X11812920Y-24745874D01*
X11812920Y-24745874D02*
X11831968Y-24755398D01*
X11831968Y-24755398D02*
X11841491Y-24764922D01*
X11841491Y-24764922D02*
X11851015Y-24783969D01*
X11851015Y-24783969D02*
X11851015Y-24831588D01*
X11851015Y-24831588D02*
X11841491Y-24850636D01*
X11841491Y-24850636D02*
X11831968Y-24860160D01*
X11831968Y-24860160D02*
X11812920Y-24869684D01*
X11812920Y-24869684D02*
X11765301Y-24869684D01*
X11765301Y-24869684D02*
X11746253Y-24860160D01*
X11746253Y-24860160D02*
X11736729Y-24850636D01*
X11946253Y-24869684D02*
X11984348Y-24869684D01*
X11984348Y-24869684D02*
X12003396Y-24860160D01*
X12003396Y-24860160D02*
X12012920Y-24850636D01*
X12012920Y-24850636D02*
X12031968Y-24822065D01*
X12031968Y-24822065D02*
X12041491Y-24783969D01*
X12041491Y-24783969D02*
X12041491Y-24707779D01*
X12041491Y-24707779D02*
X12031968Y-24688731D01*
X12031968Y-24688731D02*
X12022444Y-24679208D01*
X12022444Y-24679208D02*
X12003396Y-24669684D01*
X12003396Y-24669684D02*
X11965301Y-24669684D01*
X11965301Y-24669684D02*
X11946253Y-24679208D01*
X11946253Y-24679208D02*
X11936729Y-24688731D01*
X11936729Y-24688731D02*
X11927206Y-24707779D01*
X11927206Y-24707779D02*
X11927206Y-24755398D01*
X11927206Y-24755398D02*
X11936729Y-24774446D01*
X11936729Y-24774446D02*
X11946253Y-24783969D01*
X11946253Y-24783969D02*
X11965301Y-24793493D01*
X11965301Y-24793493D02*
X12003396Y-24793493D01*
X12003396Y-24793493D02*
X12022444Y-24783969D01*
X12022444Y-24783969D02*
X12031968Y-24774446D01*
X12031968Y-24774446D02*
X12041491Y-24755398D01*
X12279587Y-24869684D02*
X12279587Y-24669684D01*
X12365301Y-24869684D02*
X12365301Y-24764922D01*
X12365301Y-24764922D02*
X12355777Y-24745874D01*
X12355777Y-24745874D02*
X12336730Y-24736350D01*
X12336730Y-24736350D02*
X12308158Y-24736350D01*
X12308158Y-24736350D02*
X12289110Y-24745874D01*
X12289110Y-24745874D02*
X12279587Y-24755398D01*
X12489110Y-24869684D02*
X12470063Y-24860160D01*
X12470063Y-24860160D02*
X12460539Y-24850636D01*
X12460539Y-24850636D02*
X12451015Y-24831588D01*
X12451015Y-24831588D02*
X12451015Y-24774446D01*
X12451015Y-24774446D02*
X12460539Y-24755398D01*
X12460539Y-24755398D02*
X12470063Y-24745874D01*
X12470063Y-24745874D02*
X12489110Y-24736350D01*
X12489110Y-24736350D02*
X12517682Y-24736350D01*
X12517682Y-24736350D02*
X12536730Y-24745874D01*
X12536730Y-24745874D02*
X12546253Y-24755398D01*
X12546253Y-24755398D02*
X12555777Y-24774446D01*
X12555777Y-24774446D02*
X12555777Y-24831588D01*
X12555777Y-24831588D02*
X12546253Y-24850636D01*
X12546253Y-24850636D02*
X12536730Y-24860160D01*
X12536730Y-24860160D02*
X12517682Y-24869684D01*
X12517682Y-24869684D02*
X12489110Y-24869684D01*
X12670063Y-24869684D02*
X12651015Y-24860160D01*
X12651015Y-24860160D02*
X12641491Y-24841112D01*
X12641491Y-24841112D02*
X12641491Y-24669684D01*
X12822444Y-24860160D02*
X12803396Y-24869684D01*
X12803396Y-24869684D02*
X12765301Y-24869684D01*
X12765301Y-24869684D02*
X12746253Y-24860160D01*
X12746253Y-24860160D02*
X12736730Y-24841112D01*
X12736730Y-24841112D02*
X12736730Y-24764922D01*
X12736730Y-24764922D02*
X12746253Y-24745874D01*
X12746253Y-24745874D02*
X12765301Y-24736350D01*
X12765301Y-24736350D02*
X12803396Y-24736350D01*
X12803396Y-24736350D02*
X12822444Y-24745874D01*
X12822444Y-24745874D02*
X12831968Y-24764922D01*
X12831968Y-24764922D02*
X12831968Y-24783969D01*
X12831968Y-24783969D02*
X12736730Y-24803017D01*
X12908158Y-24860160D02*
X12927206Y-24869684D01*
X12927206Y-24869684D02*
X12965301Y-24869684D01*
X12965301Y-24869684D02*
X12984349Y-24860160D01*
X12984349Y-24860160D02*
X12993872Y-24841112D01*
X12993872Y-24841112D02*
X12993872Y-24831588D01*
X12993872Y-24831588D02*
X12984349Y-24812541D01*
X12984349Y-24812541D02*
X12965301Y-24803017D01*
X12965301Y-24803017D02*
X12936730Y-24803017D01*
X12936730Y-24803017D02*
X12917682Y-24793493D01*
X12917682Y-24793493D02*
X12908158Y-24774446D01*
X12908158Y-24774446D02*
X12908158Y-24764922D01*
X12908158Y-24764922D02*
X12917682Y-24745874D01*
X12917682Y-24745874D02*
X12936730Y-24736350D01*
X12936730Y-24736350D02*
X12965301Y-24736350D01*
X12965301Y-24736350D02*
X12984349Y-24745874D01*
X13060539Y-24945874D02*
X13070063Y-24936350D01*
X13070063Y-24936350D02*
X13089111Y-24907779D01*
X13089111Y-24907779D02*
X13098634Y-24888731D01*
X13098634Y-24888731D02*
X13108158Y-24860160D01*
X13108158Y-24860160D02*
X13117682Y-24812541D01*
X13117682Y-24812541D02*
X13117682Y-24774446D01*
X13117682Y-24774446D02*
X13108158Y-24726827D01*
X13108158Y-24726827D02*
X13098634Y-24698255D01*
X13098634Y-24698255D02*
X13089111Y-24679208D01*
X13089111Y-24679208D02*
X13070063Y-24650636D01*
X13070063Y-24650636D02*
X13060539Y-24641112D01*
D16*
X7993000Y-24991200D02*
X8095000Y-25093200D01*
X8095000Y-24991200D02*
X7993000Y-25093200D01*
X8095000Y-25042200D02*
G75*
G03*
X8095000Y-25042200I-51000J0D01*
G01*
D10*
X8460539Y-25133684D02*
X8346253Y-25133684D01*
X8403396Y-25133684D02*
X8403396Y-24933684D01*
X8403396Y-24933684D02*
X8384348Y-24962255D01*
X8384348Y-24962255D02*
X8365301Y-24981303D01*
X8365301Y-24981303D02*
X8346253Y-24990827D01*
X8546253Y-25114636D02*
X8555777Y-25124160D01*
X8555777Y-25124160D02*
X8546253Y-25133684D01*
X8546253Y-25133684D02*
X8536729Y-25124160D01*
X8536729Y-25124160D02*
X8546253Y-25114636D01*
X8546253Y-25114636D02*
X8546253Y-25133684D01*
X8679586Y-24933684D02*
X8698634Y-24933684D01*
X8698634Y-24933684D02*
X8717682Y-24943208D01*
X8717682Y-24943208D02*
X8727205Y-24952731D01*
X8727205Y-24952731D02*
X8736729Y-24971779D01*
X8736729Y-24971779D02*
X8746253Y-25009874D01*
X8746253Y-25009874D02*
X8746253Y-25057493D01*
X8746253Y-25057493D02*
X8736729Y-25095588D01*
X8736729Y-25095588D02*
X8727205Y-25114636D01*
X8727205Y-25114636D02*
X8717682Y-25124160D01*
X8717682Y-25124160D02*
X8698634Y-25133684D01*
X8698634Y-25133684D02*
X8679586Y-25133684D01*
X8679586Y-25133684D02*
X8660539Y-25124160D01*
X8660539Y-25124160D02*
X8651015Y-25114636D01*
X8651015Y-25114636D02*
X8641491Y-25095588D01*
X8641491Y-25095588D02*
X8631967Y-25057493D01*
X8631967Y-25057493D02*
X8631967Y-25009874D01*
X8631967Y-25009874D02*
X8641491Y-24971779D01*
X8641491Y-24971779D02*
X8651015Y-24952731D01*
X8651015Y-24952731D02*
X8660539Y-24943208D01*
X8660539Y-24943208D02*
X8679586Y-24933684D01*
X8822444Y-24952731D02*
X8831967Y-24943208D01*
X8831967Y-24943208D02*
X8851015Y-24933684D01*
X8851015Y-24933684D02*
X8898634Y-24933684D01*
X8898634Y-24933684D02*
X8917682Y-24943208D01*
X8917682Y-24943208D02*
X8927205Y-24952731D01*
X8927205Y-24952731D02*
X8936729Y-24971779D01*
X8936729Y-24971779D02*
X8936729Y-24990827D01*
X8936729Y-24990827D02*
X8927205Y-25019398D01*
X8927205Y-25019398D02*
X8812920Y-25133684D01*
X8812920Y-25133684D02*
X8936729Y-25133684D01*
X9060539Y-24933684D02*
X9079586Y-24933684D01*
X9079586Y-24933684D02*
X9098634Y-24943208D01*
X9098634Y-24943208D02*
X9108158Y-24952731D01*
X9108158Y-24952731D02*
X9117682Y-24971779D01*
X9117682Y-24971779D02*
X9127205Y-25009874D01*
X9127205Y-25009874D02*
X9127205Y-25057493D01*
X9127205Y-25057493D02*
X9117682Y-25095588D01*
X9117682Y-25095588D02*
X9108158Y-25114636D01*
X9108158Y-25114636D02*
X9098634Y-25124160D01*
X9098634Y-25124160D02*
X9079586Y-25133684D01*
X9079586Y-25133684D02*
X9060539Y-25133684D01*
X9060539Y-25133684D02*
X9041491Y-25124160D01*
X9041491Y-25124160D02*
X9031967Y-25114636D01*
X9031967Y-25114636D02*
X9022444Y-25095588D01*
X9022444Y-25095588D02*
X9012920Y-25057493D01*
X9012920Y-25057493D02*
X9012920Y-25009874D01*
X9012920Y-25009874D02*
X9022444Y-24971779D01*
X9022444Y-24971779D02*
X9031967Y-24952731D01*
X9031967Y-24952731D02*
X9041491Y-24943208D01*
X9041491Y-24943208D02*
X9060539Y-24933684D01*
X9212920Y-25133684D02*
X9212920Y-25000350D01*
X9212920Y-25019398D02*
X9222444Y-25009874D01*
X9222444Y-25009874D02*
X9241491Y-25000350D01*
X9241491Y-25000350D02*
X9270063Y-25000350D01*
X9270063Y-25000350D02*
X9289110Y-25009874D01*
X9289110Y-25009874D02*
X9298634Y-25028922D01*
X9298634Y-25028922D02*
X9298634Y-25133684D01*
X9298634Y-25028922D02*
X9308158Y-25009874D01*
X9308158Y-25009874D02*
X9327205Y-25000350D01*
X9327205Y-25000350D02*
X9355777Y-25000350D01*
X9355777Y-25000350D02*
X9374825Y-25009874D01*
X9374825Y-25009874D02*
X9384348Y-25028922D01*
X9384348Y-25028922D02*
X9384348Y-25133684D01*
X9479586Y-25133684D02*
X9479586Y-25000350D01*
X9479586Y-25019398D02*
X9489110Y-25009874D01*
X9489110Y-25009874D02*
X9508158Y-25000350D01*
X9508158Y-25000350D02*
X9536729Y-25000350D01*
X9536729Y-25000350D02*
X9555777Y-25009874D01*
X9555777Y-25009874D02*
X9565301Y-25028922D01*
X9565301Y-25028922D02*
X9565301Y-25133684D01*
X9565301Y-25028922D02*
X9574825Y-25009874D01*
X9574825Y-25009874D02*
X9593872Y-25000350D01*
X9593872Y-25000350D02*
X9622444Y-25000350D01*
X9622444Y-25000350D02*
X9641491Y-25009874D01*
X9641491Y-25009874D02*
X9651015Y-25028922D01*
X9651015Y-25028922D02*
X9651015Y-25133684D01*
X10041491Y-24924160D02*
X9870063Y-25181303D01*
X10298634Y-24933684D02*
X10317682Y-24933684D01*
X10317682Y-24933684D02*
X10336729Y-24943208D01*
X10336729Y-24943208D02*
X10346253Y-24952731D01*
X10346253Y-24952731D02*
X10355777Y-24971779D01*
X10355777Y-24971779D02*
X10365301Y-25009874D01*
X10365301Y-25009874D02*
X10365301Y-25057493D01*
X10365301Y-25057493D02*
X10355777Y-25095588D01*
X10355777Y-25095588D02*
X10346253Y-25114636D01*
X10346253Y-25114636D02*
X10336729Y-25124160D01*
X10336729Y-25124160D02*
X10317682Y-25133684D01*
X10317682Y-25133684D02*
X10298634Y-25133684D01*
X10298634Y-25133684D02*
X10279587Y-25124160D01*
X10279587Y-25124160D02*
X10270063Y-25114636D01*
X10270063Y-25114636D02*
X10260539Y-25095588D01*
X10260539Y-25095588D02*
X10251015Y-25057493D01*
X10251015Y-25057493D02*
X10251015Y-25009874D01*
X10251015Y-25009874D02*
X10260539Y-24971779D01*
X10260539Y-24971779D02*
X10270063Y-24952731D01*
X10270063Y-24952731D02*
X10279587Y-24943208D01*
X10279587Y-24943208D02*
X10298634Y-24933684D01*
X10451015Y-25114636D02*
X10460539Y-25124160D01*
X10460539Y-25124160D02*
X10451015Y-25133684D01*
X10451015Y-25133684D02*
X10441491Y-25124160D01*
X10441491Y-25124160D02*
X10451015Y-25114636D01*
X10451015Y-25114636D02*
X10451015Y-25133684D01*
X10584348Y-24933684D02*
X10603396Y-24933684D01*
X10603396Y-24933684D02*
X10622444Y-24943208D01*
X10622444Y-24943208D02*
X10631968Y-24952731D01*
X10631968Y-24952731D02*
X10641491Y-24971779D01*
X10641491Y-24971779D02*
X10651015Y-25009874D01*
X10651015Y-25009874D02*
X10651015Y-25057493D01*
X10651015Y-25057493D02*
X10641491Y-25095588D01*
X10641491Y-25095588D02*
X10631968Y-25114636D01*
X10631968Y-25114636D02*
X10622444Y-25124160D01*
X10622444Y-25124160D02*
X10603396Y-25133684D01*
X10603396Y-25133684D02*
X10584348Y-25133684D01*
X10584348Y-25133684D02*
X10565301Y-25124160D01*
X10565301Y-25124160D02*
X10555777Y-25114636D01*
X10555777Y-25114636D02*
X10546253Y-25095588D01*
X10546253Y-25095588D02*
X10536729Y-25057493D01*
X10536729Y-25057493D02*
X10536729Y-25009874D01*
X10536729Y-25009874D02*
X10546253Y-24971779D01*
X10546253Y-24971779D02*
X10555777Y-24952731D01*
X10555777Y-24952731D02*
X10565301Y-24943208D01*
X10565301Y-24943208D02*
X10584348Y-24933684D01*
X10822444Y-25000350D02*
X10822444Y-25133684D01*
X10774825Y-24924160D02*
X10727206Y-25067017D01*
X10727206Y-25067017D02*
X10851015Y-25067017D01*
X10965301Y-24933684D02*
X10984349Y-24933684D01*
X10984349Y-24933684D02*
X11003396Y-24943208D01*
X11003396Y-24943208D02*
X11012920Y-24952731D01*
X11012920Y-24952731D02*
X11022444Y-24971779D01*
X11022444Y-24971779D02*
X11031968Y-25009874D01*
X11031968Y-25009874D02*
X11031968Y-25057493D01*
X11031968Y-25057493D02*
X11022444Y-25095588D01*
X11022444Y-25095588D02*
X11012920Y-25114636D01*
X11012920Y-25114636D02*
X11003396Y-25124160D01*
X11003396Y-25124160D02*
X10984349Y-25133684D01*
X10984349Y-25133684D02*
X10965301Y-25133684D01*
X10965301Y-25133684D02*
X10946253Y-25124160D01*
X10946253Y-25124160D02*
X10936729Y-25114636D01*
X10936729Y-25114636D02*
X10927206Y-25095588D01*
X10927206Y-25095588D02*
X10917682Y-25057493D01*
X10917682Y-25057493D02*
X10917682Y-25009874D01*
X10917682Y-25009874D02*
X10927206Y-24971779D01*
X10927206Y-24971779D02*
X10936729Y-24952731D01*
X10936729Y-24952731D02*
X10946253Y-24943208D01*
X10946253Y-24943208D02*
X10965301Y-24933684D01*
X11108158Y-24952731D02*
X11117682Y-24943208D01*
X11117682Y-24943208D02*
X11136729Y-24933684D01*
X11136729Y-24933684D02*
X11184349Y-24933684D01*
X11184349Y-24933684D02*
X11203396Y-24943208D01*
X11203396Y-24943208D02*
X11212920Y-24952731D01*
X11212920Y-24952731D02*
X11222444Y-24971779D01*
X11222444Y-24971779D02*
X11222444Y-24990827D01*
X11222444Y-24990827D02*
X11212920Y-25019398D01*
X11212920Y-25019398D02*
X11098634Y-25133684D01*
X11098634Y-25133684D02*
X11222444Y-25133684D01*
X11298634Y-24933684D02*
X11298634Y-24971779D01*
X11374825Y-24933684D02*
X11374825Y-24971779D01*
X11670063Y-25209874D02*
X11660539Y-25200350D01*
X11660539Y-25200350D02*
X11641491Y-25171779D01*
X11641491Y-25171779D02*
X11631968Y-25152731D01*
X11631968Y-25152731D02*
X11622444Y-25124160D01*
X11622444Y-25124160D02*
X11612920Y-25076541D01*
X11612920Y-25076541D02*
X11612920Y-25038446D01*
X11612920Y-25038446D02*
X11622444Y-24990827D01*
X11622444Y-24990827D02*
X11631968Y-24962255D01*
X11631968Y-24962255D02*
X11641491Y-24943208D01*
X11641491Y-24943208D02*
X11660539Y-24914636D01*
X11660539Y-24914636D02*
X11670063Y-24905112D01*
X11727206Y-24933684D02*
X11851015Y-24933684D01*
X11851015Y-24933684D02*
X11784348Y-25009874D01*
X11784348Y-25009874D02*
X11812920Y-25009874D01*
X11812920Y-25009874D02*
X11831968Y-25019398D01*
X11831968Y-25019398D02*
X11841491Y-25028922D01*
X11841491Y-25028922D02*
X11851015Y-25047969D01*
X11851015Y-25047969D02*
X11851015Y-25095588D01*
X11851015Y-25095588D02*
X11841491Y-25114636D01*
X11841491Y-25114636D02*
X11831968Y-25124160D01*
X11831968Y-25124160D02*
X11812920Y-25133684D01*
X11812920Y-25133684D02*
X11755777Y-25133684D01*
X11755777Y-25133684D02*
X11736729Y-25124160D01*
X11736729Y-25124160D02*
X11727206Y-25114636D01*
X11946253Y-25133684D02*
X11984348Y-25133684D01*
X11984348Y-25133684D02*
X12003396Y-25124160D01*
X12003396Y-25124160D02*
X12012920Y-25114636D01*
X12012920Y-25114636D02*
X12031968Y-25086065D01*
X12031968Y-25086065D02*
X12041491Y-25047969D01*
X12041491Y-25047969D02*
X12041491Y-24971779D01*
X12041491Y-24971779D02*
X12031968Y-24952731D01*
X12031968Y-24952731D02*
X12022444Y-24943208D01*
X12022444Y-24943208D02*
X12003396Y-24933684D01*
X12003396Y-24933684D02*
X11965301Y-24933684D01*
X11965301Y-24933684D02*
X11946253Y-24943208D01*
X11946253Y-24943208D02*
X11936729Y-24952731D01*
X11936729Y-24952731D02*
X11927206Y-24971779D01*
X11927206Y-24971779D02*
X11927206Y-25019398D01*
X11927206Y-25019398D02*
X11936729Y-25038446D01*
X11936729Y-25038446D02*
X11946253Y-25047969D01*
X11946253Y-25047969D02*
X11965301Y-25057493D01*
X11965301Y-25057493D02*
X12003396Y-25057493D01*
X12003396Y-25057493D02*
X12022444Y-25047969D01*
X12022444Y-25047969D02*
X12031968Y-25038446D01*
X12031968Y-25038446D02*
X12041491Y-25019398D01*
X12279587Y-25133684D02*
X12279587Y-24933684D01*
X12365301Y-25133684D02*
X12365301Y-25028922D01*
X12365301Y-25028922D02*
X12355777Y-25009874D01*
X12355777Y-25009874D02*
X12336730Y-25000350D01*
X12336730Y-25000350D02*
X12308158Y-25000350D01*
X12308158Y-25000350D02*
X12289110Y-25009874D01*
X12289110Y-25009874D02*
X12279587Y-25019398D01*
X12489110Y-25133684D02*
X12470063Y-25124160D01*
X12470063Y-25124160D02*
X12460539Y-25114636D01*
X12460539Y-25114636D02*
X12451015Y-25095588D01*
X12451015Y-25095588D02*
X12451015Y-25038446D01*
X12451015Y-25038446D02*
X12460539Y-25019398D01*
X12460539Y-25019398D02*
X12470063Y-25009874D01*
X12470063Y-25009874D02*
X12489110Y-25000350D01*
X12489110Y-25000350D02*
X12517682Y-25000350D01*
X12517682Y-25000350D02*
X12536730Y-25009874D01*
X12536730Y-25009874D02*
X12546253Y-25019398D01*
X12546253Y-25019398D02*
X12555777Y-25038446D01*
X12555777Y-25038446D02*
X12555777Y-25095588D01*
X12555777Y-25095588D02*
X12546253Y-25114636D01*
X12546253Y-25114636D02*
X12536730Y-25124160D01*
X12536730Y-25124160D02*
X12517682Y-25133684D01*
X12517682Y-25133684D02*
X12489110Y-25133684D01*
X12670063Y-25133684D02*
X12651015Y-25124160D01*
X12651015Y-25124160D02*
X12641491Y-25105112D01*
X12641491Y-25105112D02*
X12641491Y-24933684D01*
X12822444Y-25124160D02*
X12803396Y-25133684D01*
X12803396Y-25133684D02*
X12765301Y-25133684D01*
X12765301Y-25133684D02*
X12746253Y-25124160D01*
X12746253Y-25124160D02*
X12736730Y-25105112D01*
X12736730Y-25105112D02*
X12736730Y-25028922D01*
X12736730Y-25028922D02*
X12746253Y-25009874D01*
X12746253Y-25009874D02*
X12765301Y-25000350D01*
X12765301Y-25000350D02*
X12803396Y-25000350D01*
X12803396Y-25000350D02*
X12822444Y-25009874D01*
X12822444Y-25009874D02*
X12831968Y-25028922D01*
X12831968Y-25028922D02*
X12831968Y-25047969D01*
X12831968Y-25047969D02*
X12736730Y-25067017D01*
X12908158Y-25124160D02*
X12927206Y-25133684D01*
X12927206Y-25133684D02*
X12965301Y-25133684D01*
X12965301Y-25133684D02*
X12984349Y-25124160D01*
X12984349Y-25124160D02*
X12993872Y-25105112D01*
X12993872Y-25105112D02*
X12993872Y-25095588D01*
X12993872Y-25095588D02*
X12984349Y-25076541D01*
X12984349Y-25076541D02*
X12965301Y-25067017D01*
X12965301Y-25067017D02*
X12936730Y-25067017D01*
X12936730Y-25067017D02*
X12917682Y-25057493D01*
X12917682Y-25057493D02*
X12908158Y-25038446D01*
X12908158Y-25038446D02*
X12908158Y-25028922D01*
X12908158Y-25028922D02*
X12917682Y-25009874D01*
X12917682Y-25009874D02*
X12936730Y-25000350D01*
X12936730Y-25000350D02*
X12965301Y-25000350D01*
X12965301Y-25000350D02*
X12984349Y-25009874D01*
X13060539Y-25209874D02*
X13070063Y-25200350D01*
X13070063Y-25200350D02*
X13089111Y-25171779D01*
X13089111Y-25171779D02*
X13098634Y-25152731D01*
X13098634Y-25152731D02*
X13108158Y-25124160D01*
X13108158Y-25124160D02*
X13117682Y-25076541D01*
X13117682Y-25076541D02*
X13117682Y-25038446D01*
X13117682Y-25038446D02*
X13108158Y-24990827D01*
X13108158Y-24990827D02*
X13098634Y-24962255D01*
X13098634Y-24962255D02*
X13089111Y-24943208D01*
X13089111Y-24943208D02*
X13070063Y-24914636D01*
X13070063Y-24914636D02*
X13060539Y-24905112D01*
X7895000Y-25206200D02*
X8095000Y-25406200D01*
X8095000Y-25206200D02*
X7895000Y-25406200D01*
X7995000Y-25206200D02*
X7995000Y-25406200D01*
X7895000Y-25306200D02*
X8095000Y-25306200D01*
X8336729Y-25197684D02*
X8460539Y-25197684D01*
X8460539Y-25197684D02*
X8393872Y-25273874D01*
X8393872Y-25273874D02*
X8422444Y-25273874D01*
X8422444Y-25273874D02*
X8441491Y-25283398D01*
X8441491Y-25283398D02*
X8451015Y-25292922D01*
X8451015Y-25292922D02*
X8460539Y-25311969D01*
X8460539Y-25311969D02*
X8460539Y-25359588D01*
X8460539Y-25359588D02*
X8451015Y-25378636D01*
X8451015Y-25378636D02*
X8441491Y-25388160D01*
X8441491Y-25388160D02*
X8422444Y-25397684D01*
X8422444Y-25397684D02*
X8365301Y-25397684D01*
X8365301Y-25397684D02*
X8346253Y-25388160D01*
X8346253Y-25388160D02*
X8336729Y-25378636D01*
X8546253Y-25378636D02*
X8555777Y-25388160D01*
X8555777Y-25388160D02*
X8546253Y-25397684D01*
X8546253Y-25397684D02*
X8536729Y-25388160D01*
X8536729Y-25388160D02*
X8546253Y-25378636D01*
X8546253Y-25378636D02*
X8546253Y-25397684D01*
X8631967Y-25216731D02*
X8641491Y-25207208D01*
X8641491Y-25207208D02*
X8660539Y-25197684D01*
X8660539Y-25197684D02*
X8708158Y-25197684D01*
X8708158Y-25197684D02*
X8727205Y-25207208D01*
X8727205Y-25207208D02*
X8736729Y-25216731D01*
X8736729Y-25216731D02*
X8746253Y-25235779D01*
X8746253Y-25235779D02*
X8746253Y-25254827D01*
X8746253Y-25254827D02*
X8736729Y-25283398D01*
X8736729Y-25283398D02*
X8622444Y-25397684D01*
X8622444Y-25397684D02*
X8746253Y-25397684D01*
X8870063Y-25197684D02*
X8889110Y-25197684D01*
X8889110Y-25197684D02*
X8908158Y-25207208D01*
X8908158Y-25207208D02*
X8917682Y-25216731D01*
X8917682Y-25216731D02*
X8927205Y-25235779D01*
X8927205Y-25235779D02*
X8936729Y-25273874D01*
X8936729Y-25273874D02*
X8936729Y-25321493D01*
X8936729Y-25321493D02*
X8927205Y-25359588D01*
X8927205Y-25359588D02*
X8917682Y-25378636D01*
X8917682Y-25378636D02*
X8908158Y-25388160D01*
X8908158Y-25388160D02*
X8889110Y-25397684D01*
X8889110Y-25397684D02*
X8870063Y-25397684D01*
X8870063Y-25397684D02*
X8851015Y-25388160D01*
X8851015Y-25388160D02*
X8841491Y-25378636D01*
X8841491Y-25378636D02*
X8831967Y-25359588D01*
X8831967Y-25359588D02*
X8822444Y-25321493D01*
X8822444Y-25321493D02*
X8822444Y-25273874D01*
X8822444Y-25273874D02*
X8831967Y-25235779D01*
X8831967Y-25235779D02*
X8841491Y-25216731D01*
X8841491Y-25216731D02*
X8851015Y-25207208D01*
X8851015Y-25207208D02*
X8870063Y-25197684D01*
X9060539Y-25197684D02*
X9079586Y-25197684D01*
X9079586Y-25197684D02*
X9098634Y-25207208D01*
X9098634Y-25207208D02*
X9108158Y-25216731D01*
X9108158Y-25216731D02*
X9117682Y-25235779D01*
X9117682Y-25235779D02*
X9127205Y-25273874D01*
X9127205Y-25273874D02*
X9127205Y-25321493D01*
X9127205Y-25321493D02*
X9117682Y-25359588D01*
X9117682Y-25359588D02*
X9108158Y-25378636D01*
X9108158Y-25378636D02*
X9098634Y-25388160D01*
X9098634Y-25388160D02*
X9079586Y-25397684D01*
X9079586Y-25397684D02*
X9060539Y-25397684D01*
X9060539Y-25397684D02*
X9041491Y-25388160D01*
X9041491Y-25388160D02*
X9031967Y-25378636D01*
X9031967Y-25378636D02*
X9022444Y-25359588D01*
X9022444Y-25359588D02*
X9012920Y-25321493D01*
X9012920Y-25321493D02*
X9012920Y-25273874D01*
X9012920Y-25273874D02*
X9022444Y-25235779D01*
X9022444Y-25235779D02*
X9031967Y-25216731D01*
X9031967Y-25216731D02*
X9041491Y-25207208D01*
X9041491Y-25207208D02*
X9060539Y-25197684D01*
X9212920Y-25397684D02*
X9212920Y-25264350D01*
X9212920Y-25283398D02*
X9222444Y-25273874D01*
X9222444Y-25273874D02*
X9241491Y-25264350D01*
X9241491Y-25264350D02*
X9270063Y-25264350D01*
X9270063Y-25264350D02*
X9289110Y-25273874D01*
X9289110Y-25273874D02*
X9298634Y-25292922D01*
X9298634Y-25292922D02*
X9298634Y-25397684D01*
X9298634Y-25292922D02*
X9308158Y-25273874D01*
X9308158Y-25273874D02*
X9327205Y-25264350D01*
X9327205Y-25264350D02*
X9355777Y-25264350D01*
X9355777Y-25264350D02*
X9374825Y-25273874D01*
X9374825Y-25273874D02*
X9384348Y-25292922D01*
X9384348Y-25292922D02*
X9384348Y-25397684D01*
X9479586Y-25397684D02*
X9479586Y-25264350D01*
X9479586Y-25283398D02*
X9489110Y-25273874D01*
X9489110Y-25273874D02*
X9508158Y-25264350D01*
X9508158Y-25264350D02*
X9536729Y-25264350D01*
X9536729Y-25264350D02*
X9555777Y-25273874D01*
X9555777Y-25273874D02*
X9565301Y-25292922D01*
X9565301Y-25292922D02*
X9565301Y-25397684D01*
X9565301Y-25292922D02*
X9574825Y-25273874D01*
X9574825Y-25273874D02*
X9593872Y-25264350D01*
X9593872Y-25264350D02*
X9622444Y-25264350D01*
X9622444Y-25264350D02*
X9641491Y-25273874D01*
X9641491Y-25273874D02*
X9651015Y-25292922D01*
X9651015Y-25292922D02*
X9651015Y-25397684D01*
X10041491Y-25188160D02*
X9870063Y-25445303D01*
X10298634Y-25197684D02*
X10317682Y-25197684D01*
X10317682Y-25197684D02*
X10336729Y-25207208D01*
X10336729Y-25207208D02*
X10346253Y-25216731D01*
X10346253Y-25216731D02*
X10355777Y-25235779D01*
X10355777Y-25235779D02*
X10365301Y-25273874D01*
X10365301Y-25273874D02*
X10365301Y-25321493D01*
X10365301Y-25321493D02*
X10355777Y-25359588D01*
X10355777Y-25359588D02*
X10346253Y-25378636D01*
X10346253Y-25378636D02*
X10336729Y-25388160D01*
X10336729Y-25388160D02*
X10317682Y-25397684D01*
X10317682Y-25397684D02*
X10298634Y-25397684D01*
X10298634Y-25397684D02*
X10279587Y-25388160D01*
X10279587Y-25388160D02*
X10270063Y-25378636D01*
X10270063Y-25378636D02*
X10260539Y-25359588D01*
X10260539Y-25359588D02*
X10251015Y-25321493D01*
X10251015Y-25321493D02*
X10251015Y-25273874D01*
X10251015Y-25273874D02*
X10260539Y-25235779D01*
X10260539Y-25235779D02*
X10270063Y-25216731D01*
X10270063Y-25216731D02*
X10279587Y-25207208D01*
X10279587Y-25207208D02*
X10298634Y-25197684D01*
X10451015Y-25378636D02*
X10460539Y-25388160D01*
X10460539Y-25388160D02*
X10451015Y-25397684D01*
X10451015Y-25397684D02*
X10441491Y-25388160D01*
X10441491Y-25388160D02*
X10451015Y-25378636D01*
X10451015Y-25378636D02*
X10451015Y-25397684D01*
X10651015Y-25397684D02*
X10536729Y-25397684D01*
X10593872Y-25397684D02*
X10593872Y-25197684D01*
X10593872Y-25197684D02*
X10574825Y-25226255D01*
X10574825Y-25226255D02*
X10555777Y-25245303D01*
X10555777Y-25245303D02*
X10536729Y-25254827D01*
X10727206Y-25216731D02*
X10736729Y-25207208D01*
X10736729Y-25207208D02*
X10755777Y-25197684D01*
X10755777Y-25197684D02*
X10803396Y-25197684D01*
X10803396Y-25197684D02*
X10822444Y-25207208D01*
X10822444Y-25207208D02*
X10831968Y-25216731D01*
X10831968Y-25216731D02*
X10841491Y-25235779D01*
X10841491Y-25235779D02*
X10841491Y-25254827D01*
X10841491Y-25254827D02*
X10831968Y-25283398D01*
X10831968Y-25283398D02*
X10717682Y-25397684D01*
X10717682Y-25397684D02*
X10841491Y-25397684D01*
X11012920Y-25197684D02*
X10974825Y-25197684D01*
X10974825Y-25197684D02*
X10955777Y-25207208D01*
X10955777Y-25207208D02*
X10946253Y-25216731D01*
X10946253Y-25216731D02*
X10927206Y-25245303D01*
X10927206Y-25245303D02*
X10917682Y-25283398D01*
X10917682Y-25283398D02*
X10917682Y-25359588D01*
X10917682Y-25359588D02*
X10927206Y-25378636D01*
X10927206Y-25378636D02*
X10936729Y-25388160D01*
X10936729Y-25388160D02*
X10955777Y-25397684D01*
X10955777Y-25397684D02*
X10993872Y-25397684D01*
X10993872Y-25397684D02*
X11012920Y-25388160D01*
X11012920Y-25388160D02*
X11022444Y-25378636D01*
X11022444Y-25378636D02*
X11031968Y-25359588D01*
X11031968Y-25359588D02*
X11031968Y-25311969D01*
X11031968Y-25311969D02*
X11022444Y-25292922D01*
X11022444Y-25292922D02*
X11012920Y-25283398D01*
X11012920Y-25283398D02*
X10993872Y-25273874D01*
X10993872Y-25273874D02*
X10955777Y-25273874D01*
X10955777Y-25273874D02*
X10936729Y-25283398D01*
X10936729Y-25283398D02*
X10927206Y-25292922D01*
X10927206Y-25292922D02*
X10917682Y-25311969D01*
X11155777Y-25197684D02*
X11174825Y-25197684D01*
X11174825Y-25197684D02*
X11193872Y-25207208D01*
X11193872Y-25207208D02*
X11203396Y-25216731D01*
X11203396Y-25216731D02*
X11212920Y-25235779D01*
X11212920Y-25235779D02*
X11222444Y-25273874D01*
X11222444Y-25273874D02*
X11222444Y-25321493D01*
X11222444Y-25321493D02*
X11212920Y-25359588D01*
X11212920Y-25359588D02*
X11203396Y-25378636D01*
X11203396Y-25378636D02*
X11193872Y-25388160D01*
X11193872Y-25388160D02*
X11174825Y-25397684D01*
X11174825Y-25397684D02*
X11155777Y-25397684D01*
X11155777Y-25397684D02*
X11136729Y-25388160D01*
X11136729Y-25388160D02*
X11127206Y-25378636D01*
X11127206Y-25378636D02*
X11117682Y-25359588D01*
X11117682Y-25359588D02*
X11108158Y-25321493D01*
X11108158Y-25321493D02*
X11108158Y-25273874D01*
X11108158Y-25273874D02*
X11117682Y-25235779D01*
X11117682Y-25235779D02*
X11127206Y-25216731D01*
X11127206Y-25216731D02*
X11136729Y-25207208D01*
X11136729Y-25207208D02*
X11155777Y-25197684D01*
X11298634Y-25197684D02*
X11298634Y-25235779D01*
X11374825Y-25197684D02*
X11374825Y-25235779D01*
X11670063Y-25473874D02*
X11660539Y-25464350D01*
X11660539Y-25464350D02*
X11641491Y-25435779D01*
X11641491Y-25435779D02*
X11631968Y-25416731D01*
X11631968Y-25416731D02*
X11622444Y-25388160D01*
X11622444Y-25388160D02*
X11612920Y-25340541D01*
X11612920Y-25340541D02*
X11612920Y-25302446D01*
X11612920Y-25302446D02*
X11622444Y-25254827D01*
X11622444Y-25254827D02*
X11631968Y-25226255D01*
X11631968Y-25226255D02*
X11641491Y-25207208D01*
X11641491Y-25207208D02*
X11660539Y-25178636D01*
X11660539Y-25178636D02*
X11670063Y-25169112D01*
X11831968Y-25264350D02*
X11831968Y-25397684D01*
X11784348Y-25188160D02*
X11736729Y-25331017D01*
X11736729Y-25331017D02*
X11860539Y-25331017D01*
X12089110Y-25397684D02*
X12089110Y-25197684D01*
X12174825Y-25397684D02*
X12174825Y-25292922D01*
X12174825Y-25292922D02*
X12165301Y-25273874D01*
X12165301Y-25273874D02*
X12146253Y-25264350D01*
X12146253Y-25264350D02*
X12117682Y-25264350D01*
X12117682Y-25264350D02*
X12098634Y-25273874D01*
X12098634Y-25273874D02*
X12089110Y-25283398D01*
X12298634Y-25397684D02*
X12279587Y-25388160D01*
X12279587Y-25388160D02*
X12270063Y-25378636D01*
X12270063Y-25378636D02*
X12260539Y-25359588D01*
X12260539Y-25359588D02*
X12260539Y-25302446D01*
X12260539Y-25302446D02*
X12270063Y-25283398D01*
X12270063Y-25283398D02*
X12279587Y-25273874D01*
X12279587Y-25273874D02*
X12298634Y-25264350D01*
X12298634Y-25264350D02*
X12327206Y-25264350D01*
X12327206Y-25264350D02*
X12346253Y-25273874D01*
X12346253Y-25273874D02*
X12355777Y-25283398D01*
X12355777Y-25283398D02*
X12365301Y-25302446D01*
X12365301Y-25302446D02*
X12365301Y-25359588D01*
X12365301Y-25359588D02*
X12355777Y-25378636D01*
X12355777Y-25378636D02*
X12346253Y-25388160D01*
X12346253Y-25388160D02*
X12327206Y-25397684D01*
X12327206Y-25397684D02*
X12298634Y-25397684D01*
X12479587Y-25397684D02*
X12460539Y-25388160D01*
X12460539Y-25388160D02*
X12451015Y-25369112D01*
X12451015Y-25369112D02*
X12451015Y-25197684D01*
X12631968Y-25388160D02*
X12612920Y-25397684D01*
X12612920Y-25397684D02*
X12574825Y-25397684D01*
X12574825Y-25397684D02*
X12555777Y-25388160D01*
X12555777Y-25388160D02*
X12546253Y-25369112D01*
X12546253Y-25369112D02*
X12546253Y-25292922D01*
X12546253Y-25292922D02*
X12555777Y-25273874D01*
X12555777Y-25273874D02*
X12574825Y-25264350D01*
X12574825Y-25264350D02*
X12612920Y-25264350D01*
X12612920Y-25264350D02*
X12631968Y-25273874D01*
X12631968Y-25273874D02*
X12641491Y-25292922D01*
X12641491Y-25292922D02*
X12641491Y-25311969D01*
X12641491Y-25311969D02*
X12546253Y-25331017D01*
X12717682Y-25388160D02*
X12736730Y-25397684D01*
X12736730Y-25397684D02*
X12774825Y-25397684D01*
X12774825Y-25397684D02*
X12793872Y-25388160D01*
X12793872Y-25388160D02*
X12803396Y-25369112D01*
X12803396Y-25369112D02*
X12803396Y-25359588D01*
X12803396Y-25359588D02*
X12793872Y-25340541D01*
X12793872Y-25340541D02*
X12774825Y-25331017D01*
X12774825Y-25331017D02*
X12746253Y-25331017D01*
X12746253Y-25331017D02*
X12727206Y-25321493D01*
X12727206Y-25321493D02*
X12717682Y-25302446D01*
X12717682Y-25302446D02*
X12717682Y-25292922D01*
X12717682Y-25292922D02*
X12727206Y-25273874D01*
X12727206Y-25273874D02*
X12746253Y-25264350D01*
X12746253Y-25264350D02*
X12774825Y-25264350D01*
X12774825Y-25264350D02*
X12793872Y-25273874D01*
X12870063Y-25473874D02*
X12879587Y-25464350D01*
X12879587Y-25464350D02*
X12898634Y-25435779D01*
X12898634Y-25435779D02*
X12908158Y-25416731D01*
X12908158Y-25416731D02*
X12917682Y-25388160D01*
X12917682Y-25388160D02*
X12927206Y-25340541D01*
X12927206Y-25340541D02*
X12927206Y-25302446D01*
X12927206Y-25302446D02*
X12917682Y-25254827D01*
X12917682Y-25254827D02*
X12908158Y-25226255D01*
X12908158Y-25226255D02*
X12898634Y-25207208D01*
X12898634Y-25207208D02*
X12879587Y-25178636D01*
X12879587Y-25178636D02*
X12870063Y-25169112D01*
M02*
