%TF.GenerationSoftware,KiCad,Pcbnew,7.0.8*%
%TF.CreationDate,2024-01-22T14:24:46+01:00*%
%TF.ProjectId,BMS-Master,424d532d-4d61-4737-9465-722e6b696361,rev?*%
%TF.SameCoordinates,Original*%
%TF.FileFunction,Profile,NP*%
%FSLAX46Y46*%
G04 Gerber Fmt 4.6, Leading zero omitted, Abs format (unit mm)*
G04 Created by KiCad (PCBNEW 7.0.8) date 2024-01-22 14:24:46*
%MOMM*%
%LPD*%
G01*
G04 APERTURE LIST*
%TA.AperFunction,Profile*%
%ADD10C,0.200000*%
%TD*%
%TA.AperFunction,Profile*%
%ADD11C,0.100000*%
%TD*%
G04 APERTURE END LIST*
D10*
X106700000Y-192500000D02*
G75*
G03*
X106700000Y-192500000I-1700000J0D01*
G01*
X144200000Y-125000000D02*
G75*
G03*
X144200000Y-125000000I-1700000J0D01*
G01*
X249250000Y-176250000D02*
G75*
G03*
X249250000Y-176250000I-1700000J0D01*
G01*
X175400000Y-163750000D02*
G75*
G03*
X175400000Y-163750000I-1700000J0D01*
G01*
X204200000Y-225000000D02*
G75*
G03*
X204200000Y-225000000I-1700000J0D01*
G01*
X87700000Y-99500000D02*
G75*
G03*
X87700000Y-99500000I-1700000J0D01*
G01*
X87700000Y-225750000D02*
G75*
G03*
X87700000Y-225750000I-1700000J0D01*
G01*
X280450000Y-99500000D02*
G75*
G03*
X280450000Y-99500000I-1700000J0D01*
G01*
D11*
X188000000Y-216250000D02*
G75*
G03*
X178250000Y-206500000I-9750000J0D01*
G01*
X258401463Y-121699417D02*
X278310000Y-121699417D01*
X278310000Y-131870000D01*
X258401463Y-131870000D01*
X258401463Y-121699417D01*
X188000000Y-216250000D02*
X178250000Y-216250000D01*
X150250000Y-206500000D02*
X178250000Y-206500000D01*
X81000000Y-94488000D02*
X283695000Y-94488000D01*
X283695000Y-230772000D01*
X81000000Y-230772000D01*
X81000000Y-94488000D01*
X150250000Y-216250000D02*
X140500000Y-216250000D01*
X150250000Y-216250000D02*
X178250000Y-216250000D01*
X150250000Y-206500000D02*
G75*
G03*
X140500000Y-216250000I0J-9750000D01*
G01*
D10*
X280450000Y-225750000D02*
G75*
G03*
X280450000Y-225750000I-1700000J0D01*
G01*
M02*
