%TF.GenerationSoftware,KiCad,Pcbnew,7.0.8*%
%TF.CreationDate,2024-01-12T20:03:42+01:00*%
%TF.ProjectId,BMS-Slave,424d532d-536c-4617-9665-2e6b69636164,rev?*%
%TF.SameCoordinates,Original*%
%TF.FileFunction,Copper,L4,Bot*%
%TF.FilePolarity,Positive*%
%FSLAX46Y46*%
G04 Gerber Fmt 4.6, Leading zero omitted, Abs format (unit mm)*
G04 Created by KiCad (PCBNEW 7.0.8) date 2024-01-12 20:03:42*
%MOMM*%
%LPD*%
G01*
G04 APERTURE LIST*
G04 Aperture macros list*
%AMRoundRect*
0 Rectangle with rounded corners*
0 $1 Rounding radius*
0 $2 $3 $4 $5 $6 $7 $8 $9 X,Y pos of 4 corners*
0 Add a 4 corners polygon primitive as box body*
4,1,4,$2,$3,$4,$5,$6,$7,$8,$9,$2,$3,0*
0 Add four circle primitives for the rounded corners*
1,1,$1+$1,$2,$3*
1,1,$1+$1,$4,$5*
1,1,$1+$1,$6,$7*
1,1,$1+$1,$8,$9*
0 Add four rect primitives between the rounded corners*
20,1,$1+$1,$2,$3,$4,$5,0*
20,1,$1+$1,$4,$5,$6,$7,0*
20,1,$1+$1,$6,$7,$8,$9,0*
20,1,$1+$1,$8,$9,$2,$3,0*%
G04 Aperture macros list end*
%TA.AperFunction,ComponentPad*%
%ADD10C,2.000000*%
%TD*%
%TA.AperFunction,ComponentPad*%
%ADD11RoundRect,0.250001X-0.759999X0.499999X-0.759999X-0.499999X0.759999X-0.499999X0.759999X0.499999X0*%
%TD*%
%TA.AperFunction,ComponentPad*%
%ADD12O,2.020000X1.500000*%
%TD*%
%TA.AperFunction,ComponentPad*%
%ADD13C,1.440000*%
%TD*%
%TA.AperFunction,ComponentPad*%
%ADD14RoundRect,0.250001X0.499999X0.499999X-0.499999X0.499999X-0.499999X-0.499999X0.499999X-0.499999X0*%
%TD*%
%TA.AperFunction,ComponentPad*%
%ADD15C,1.500000*%
%TD*%
%TA.AperFunction,ComponentPad*%
%ADD16RoundRect,0.250001X-0.499999X-0.499999X0.499999X-0.499999X0.499999X0.499999X-0.499999X0.499999X0*%
%TD*%
%TA.AperFunction,ComponentPad*%
%ADD17RoundRect,0.250001X0.499999X-0.499999X0.499999X0.499999X-0.499999X0.499999X-0.499999X-0.499999X0*%
%TD*%
%TA.AperFunction,ComponentPad*%
%ADD18RoundRect,0.250001X0.759999X-0.499999X0.759999X0.499999X-0.759999X0.499999X-0.759999X-0.499999X0*%
%TD*%
%TA.AperFunction,ViaPad*%
%ADD19C,0.800000*%
%TD*%
%TA.AperFunction,ViaPad*%
%ADD20C,1.000000*%
%TD*%
%TA.AperFunction,Conductor*%
%ADD21C,0.300000*%
%TD*%
%TA.AperFunction,Conductor*%
%ADD22C,0.600000*%
%TD*%
%TA.AperFunction,Conductor*%
%ADD23C,0.250000*%
%TD*%
G04 APERTURE END LIST*
D10*
%TO.P,TP16,1,1*%
%TO.N,/slave2_of_2/GND*%
X306250000Y-118750000D03*
%TD*%
D11*
%TO.P,J13,1,1*%
%TO.N,/slave2_of_2/GND*%
X256040000Y-106250000D03*
D12*
%TO.P,J13,2,2*%
%TO.N,/slave2_of_2/U_Analog_IN/T_sens7*%
X256040000Y-109250000D03*
%TD*%
D11*
%TO.P,J7,1,1*%
%TO.N,/slave1_of_2/GND*%
X146500000Y-106250000D03*
D12*
%TO.P,J7,2,2*%
%TO.N,/slave1_of_2/U_Analog_IN/T_sens7*%
X146500000Y-109250000D03*
%TD*%
D13*
%TO.P,U3,1,+VIN*%
%TO.N,Net-(U3-+VIN)*%
X179250000Y-105710000D03*
%TO.P,U3,2,GND*%
%TO.N,/slave1_of_2/GND*%
X179250000Y-108250000D03*
%TO.P,U3,3,+VOUT*%
%TO.N,Net-(U17-VI)*%
X179250000Y-110790000D03*
%TD*%
D10*
%TO.P,TP1,1,1*%
%TO.N,/slave1_of_2/prim+3V*%
X146000000Y-115600000D03*
%TD*%
D14*
%TO.P,J5,1,Pin_1*%
%TO.N,/slave1_of_2/U_Analog_IN/T_sens0*%
X171750000Y-109250000D03*
D15*
%TO.P,J5,2,Pin_2*%
%TO.N,/slave1_of_2/U_Analog_IN/T_sens1*%
X168750000Y-109250000D03*
%TO.P,J5,3,Pin_3*%
%TO.N,/slave1_of_2/U_Analog_IN/T_sens2*%
X165750000Y-109250000D03*
%TO.P,J5,4,Pin_4*%
%TO.N,/slave1_of_2/U_Analog_IN/T_sens3*%
X162750000Y-109250000D03*
%TO.P,J5,5,Pin_5*%
%TO.N,/slave1_of_2/U_Analog_IN/T_sens4*%
X159750000Y-109250000D03*
%TO.P,J5,6,Pin_6*%
%TO.N,/slave1_of_2/U_Analog_IN/T_sens5*%
X156750000Y-109250000D03*
%TO.P,J5,7,Pin_7*%
%TO.N,/slave1_of_2/U_Analog_IN/T_sens6*%
X153750000Y-109250000D03*
%TO.P,J5,8,Pin_8*%
%TO.N,/slave1_of_2/GND*%
X171750000Y-106250000D03*
%TO.P,J5,9,Pin_9*%
X168750000Y-106250000D03*
%TO.P,J5,10,Pin_10*%
X165750000Y-106250000D03*
%TO.P,J5,11,Pin_11*%
X162750000Y-106250000D03*
%TO.P,J5,12,Pin_12*%
X159750000Y-106250000D03*
%TO.P,J5,13,Pin_13*%
X156750000Y-106250000D03*
%TO.P,J5,14,Pin_14*%
X153750000Y-106250000D03*
%TD*%
D16*
%TO.P,J14,1,Pin_1*%
%TO.N,/slave2_of_2/U_Analog_IN/T_sens15*%
X262250000Y-164750000D03*
D15*
%TO.P,J14,2,Pin_2*%
%TO.N,/slave2_of_2/U_Analog_IN/T_sens14*%
X265250000Y-164750000D03*
%TO.P,J14,3,Pin_3*%
%TO.N,/slave2_of_2/U_Analog_IN/T_sens13*%
X268250000Y-164750000D03*
%TO.P,J14,4,Pin_4*%
%TO.N,/slave2_of_2/U_Analog_IN/T_sens12*%
X271250000Y-164750000D03*
%TO.P,J14,5,Pin_5*%
%TO.N,/slave2_of_2/U_Analog_IN/T_sens11*%
X274250000Y-164750000D03*
%TO.P,J14,6,Pin_6*%
%TO.N,/slave2_of_2/U_Analog_IN/T_sens10*%
X277250000Y-164750000D03*
%TO.P,J14,7,Pin_7*%
%TO.N,/slave2_of_2/U_Analog_IN/T_sens9*%
X280250000Y-164750000D03*
%TO.P,J14,8,Pin_8*%
%TO.N,/slave2_of_2/U_Analog_IN/T_sens8*%
X283250000Y-164750000D03*
%TO.P,J14,9,Pin_9*%
%TO.N,/slave2_of_2/GND*%
X262250000Y-167750000D03*
%TO.P,J14,10,Pin_10*%
X265250000Y-167750000D03*
%TO.P,J14,11,Pin_11*%
X268250000Y-167750000D03*
%TO.P,J14,12,Pin_12*%
X271250000Y-167750000D03*
%TO.P,J14,13,Pin_13*%
X274250000Y-167750000D03*
%TO.P,J14,14,Pin_14*%
X277250000Y-167750000D03*
%TO.P,J14,15,Pin_15*%
X280250000Y-167750000D03*
%TO.P,J14,16,Pin_16*%
X283250000Y-167750000D03*
%TD*%
D10*
%TO.P,TP5,1,1*%
%TO.N,/slave1_of_2/GND*%
X189250000Y-121750000D03*
%TD*%
%TO.P,TP7,1,1*%
%TO.N,/slave1_of_2/EXT_DC_ISO_sec*%
X195500000Y-159000000D03*
%TD*%
D17*
%TO.P,J1,1,1*%
%TO.N,/slave1_of_2/U_Primary_ADBMS/isoSPI_IN+*%
X94275000Y-145000000D03*
D15*
%TO.P,J1,2,2*%
%TO.N,/slave1_of_2/U_Primary_ADBMS/isoSPI_IN-*%
X94275000Y-142000000D03*
%TO.P,J1,3,3*%
%TO.N,/slave1_of_2/U_Secondary_ADBMS/isoSPI_IN-*%
X97275000Y-145000000D03*
%TO.P,J1,4,4*%
%TO.N,/slave1_of_2/U_Secondary_ADBMS/isoSPI_IN+*%
X97275000Y-142000000D03*
%TD*%
D10*
%TO.P,TP4,1,1*%
%TO.N,/slave1_of_2/EXT_DC_ISO_prim*%
X192250000Y-124750000D03*
%TD*%
D16*
%TO.P,J12,1,Pin_1*%
%TO.N,/slave2_of_2/U_Connectors/Cell.11*%
X340000000Y-165000000D03*
D15*
%TO.P,J12,2,Pin_2*%
%TO.N,/slave2_of_2/U_Connectors/Cell.9*%
X343000000Y-165000000D03*
%TO.P,J12,3,Pin_3*%
%TO.N,/slave2_of_2/U_Connectors/Cell.7*%
X346000000Y-165000000D03*
%TO.P,J12,4,Pin_4*%
%TO.N,/slave2_of_2/U_Connectors/Cell.10*%
X340000000Y-168000000D03*
%TO.P,J12,5,Pin_5*%
%TO.N,/slave2_of_2/U_Connectors/Cell.8*%
X343000000Y-168000000D03*
%TO.P,J12,6,Pin_6*%
%TO.N,/slave2_of_2/U_Connectors/Cell.6*%
X346000000Y-168000000D03*
%TD*%
D13*
%TO.P,U8,1,+VIN*%
%TO.N,Net-(U8-+VIN)*%
X183470000Y-168330000D03*
%TO.P,U8,2,GND*%
%TO.N,/slave1_of_2/GND*%
X183470000Y-165790000D03*
%TO.P,U8,3,+VOUT*%
%TO.N,Net-(U18-VI)*%
X183470000Y-163250000D03*
%TD*%
D10*
%TO.P,TP12,1,1*%
%TO.N,/slave2_of_2/GND*%
X302250000Y-159250000D03*
%TD*%
D14*
%TO.P,J4,1,Pin_1*%
%TO.N,/slave1_of_2/U_Connectors/Cell.3*%
X229000000Y-108940000D03*
D15*
%TO.P,J4,2,Pin_2*%
%TO.N,/slave1_of_2/U_Connectors/Cell.1*%
X226000000Y-108940000D03*
%TO.P,J4,3,Pin_3*%
%TO.N,/slave1_of_2/U_Connectors/Cell.GND*%
X223000000Y-108940000D03*
%TO.P,J4,4,Pin_4*%
%TO.N,/slave1_of_2/U_Connectors/Cell.4*%
X229000000Y-105940000D03*
%TO.P,J4,5,Pin_5*%
%TO.N,/slave1_of_2/U_Connectors/Cell.2*%
X226000000Y-105940000D03*
%TO.P,J4,6,Pin_6*%
%TO.N,/slave1_of_2/U_Connectors/Cell.0*%
X223000000Y-105940000D03*
%TD*%
D18*
%TO.P,J9,1,1*%
%TO.N,unconnected-(J9-Pad1)*%
X346250000Y-109000000D03*
D12*
%TO.P,J9,2,2*%
%TO.N,/slave2_of_2/U_Connectors/Cell.5*%
X346250000Y-106000000D03*
%TD*%
D16*
%TO.P,J6,1,Pin_1*%
%TO.N,/slave1_of_2/U_Connectors/Cell.11*%
X230000000Y-165060000D03*
D15*
%TO.P,J6,2,Pin_2*%
%TO.N,/slave1_of_2/U_Connectors/Cell.9*%
X233000000Y-165060000D03*
%TO.P,J6,3,Pin_3*%
%TO.N,/slave1_of_2/U_Connectors/Cell.7*%
X236000000Y-165060000D03*
%TO.P,J6,4,Pin_4*%
%TO.N,/slave1_of_2/U_Connectors/Cell.10*%
X230000000Y-168060000D03*
%TO.P,J6,5,Pin_5*%
%TO.N,/slave1_of_2/U_Connectors/Cell.8*%
X233000000Y-168060000D03*
%TO.P,J6,6,Pin_6*%
%TO.N,/slave1_of_2/U_Connectors/Cell.6*%
X236000000Y-168060000D03*
%TD*%
D10*
%TO.P,TP10,1,1*%
%TO.N,/slave2_of_2/sec+5v*%
X298750000Y-159250000D03*
%TD*%
D18*
%TO.P,J3,1,1*%
%TO.N,unconnected-(J3-Pad1)*%
X236250000Y-109000000D03*
D12*
%TO.P,J3,2,2*%
%TO.N,/slave1_of_2/U_Connectors/Cell.5*%
X236250000Y-106000000D03*
%TD*%
D10*
%TO.P,TP6,1,1*%
%TO.N,/slave1_of_2/sec+5v*%
X188500000Y-159000000D03*
%TD*%
D14*
%TO.P,J11,1,Pin_1*%
%TO.N,/slave2_of_2/U_Analog_IN/T_sens0*%
X281250000Y-109250000D03*
D15*
%TO.P,J11,2,Pin_2*%
%TO.N,/slave2_of_2/U_Analog_IN/T_sens1*%
X278250000Y-109250000D03*
%TO.P,J11,3,Pin_3*%
%TO.N,/slave2_of_2/U_Analog_IN/T_sens2*%
X275250000Y-109250000D03*
%TO.P,J11,4,Pin_4*%
%TO.N,/slave2_of_2/U_Analog_IN/T_sens3*%
X272250000Y-109250000D03*
%TO.P,J11,5,Pin_5*%
%TO.N,/slave2_of_2/U_Analog_IN/T_sens4*%
X269250000Y-109250000D03*
%TO.P,J11,6,Pin_6*%
%TO.N,/slave2_of_2/U_Analog_IN/T_sens5*%
X266250000Y-109250000D03*
%TO.P,J11,7,Pin_7*%
%TO.N,/slave2_of_2/U_Analog_IN/T_sens6*%
X263250000Y-109250000D03*
%TO.P,J11,8,Pin_8*%
%TO.N,/slave2_of_2/GND*%
X281250000Y-106250000D03*
%TO.P,J11,9,Pin_9*%
X278250000Y-106250000D03*
%TO.P,J11,10,Pin_10*%
X275250000Y-106250000D03*
%TO.P,J11,11,Pin_11*%
X272250000Y-106250000D03*
%TO.P,J11,12,Pin_12*%
X269250000Y-106250000D03*
%TO.P,J11,13,Pin_13*%
X266250000Y-106250000D03*
%TO.P,J11,14,Pin_14*%
X263250000Y-106250000D03*
%TD*%
D16*
%TO.P,J8,1,Pin_1*%
%TO.N,/slave1_of_2/U_Analog_IN/T_sens15*%
X152500000Y-164810000D03*
D15*
%TO.P,J8,2,Pin_2*%
%TO.N,/slave1_of_2/U_Analog_IN/T_sens14*%
X155500000Y-164810000D03*
%TO.P,J8,3,Pin_3*%
%TO.N,/slave1_of_2/U_Analog_IN/T_sens13*%
X158500000Y-164810000D03*
%TO.P,J8,4,Pin_4*%
%TO.N,/slave1_of_2/U_Analog_IN/T_sens12*%
X161500000Y-164810000D03*
%TO.P,J8,5,Pin_5*%
%TO.N,/slave1_of_2/U_Analog_IN/T_sens11*%
X164500000Y-164810000D03*
%TO.P,J8,6,Pin_6*%
%TO.N,/slave1_of_2/U_Analog_IN/T_sens10*%
X167500000Y-164810000D03*
%TO.P,J8,7,Pin_7*%
%TO.N,/slave1_of_2/U_Analog_IN/T_sens9*%
X170500000Y-164810000D03*
%TO.P,J8,8,Pin_8*%
%TO.N,/slave1_of_2/U_Analog_IN/T_sens8*%
X173500000Y-164810000D03*
%TO.P,J8,9,Pin_9*%
%TO.N,/slave1_of_2/GND*%
X152500000Y-167810000D03*
%TO.P,J8,10,Pin_10*%
X155500000Y-167810000D03*
%TO.P,J8,11,Pin_11*%
X158500000Y-167810000D03*
%TO.P,J8,12,Pin_12*%
X161500000Y-167810000D03*
%TO.P,J8,13,Pin_13*%
X164500000Y-167810000D03*
%TO.P,J8,14,Pin_14*%
X167500000Y-167810000D03*
%TO.P,J8,15,Pin_15*%
X170500000Y-167810000D03*
%TO.P,J8,16,Pin_16*%
X173500000Y-167810000D03*
%TD*%
D10*
%TO.P,TP13,1,1*%
%TO.N,/slave2_of_2/prim+3V*%
X255250000Y-115000000D03*
%TD*%
%TO.P,TP14,1,1*%
%TO.N,/slave2_of_2/prim+5V*%
X306250000Y-114750000D03*
%TD*%
%TO.P,TP11,1,1*%
%TO.N,/slave2_of_2/EXT_DC_ISO_sec*%
X305500000Y-160250000D03*
%TD*%
%TO.P,TP2,1,1*%
%TO.N,/slave1_of_2/sec+3v*%
X146400000Y-159600000D03*
%TD*%
D17*
%TO.P,J2,1,1*%
%TO.N,/slave2_of_2/U_Primary_ADBMS/isoSPI_OUT+*%
X94255000Y-132000000D03*
D15*
%TO.P,J2,2,2*%
%TO.N,/slave2_of_2/U_Primary_ADBMS/isoSPI_OUT-*%
X94255000Y-129000000D03*
%TO.P,J2,3,3*%
%TO.N,/slave2_of_2/U_Secondary_ADBMS/isoSPI_OUT-*%
X97255000Y-132000000D03*
%TO.P,J2,4,4*%
%TO.N,/slave2_of_2/U_Secondary_ADBMS/isoSPI_OUT+*%
X97255000Y-129000000D03*
%TD*%
D10*
%TO.P,TP15,1,1*%
%TO.N,/slave2_of_2/EXT_DC_ISO_prim*%
X306250000Y-123250000D03*
%TD*%
%TO.P,TP9,1,1*%
%TO.N,/slave2_of_2/sec+3v*%
X256250000Y-158750000D03*
%TD*%
%TO.P,TP3,1,1*%
%TO.N,/slave1_of_2/prim+5V*%
X186000000Y-118750000D03*
%TD*%
D13*
%TO.P,U12,1,+VIN*%
%TO.N,Net-(U12-+VIN)*%
X288700000Y-105710000D03*
%TO.P,U12,2,GND*%
%TO.N,/slave2_of_2/GND*%
X288700000Y-108250000D03*
%TO.P,U12,3,+VOUT*%
%TO.N,Net-(U12-+VOUT)*%
X288700000Y-110790000D03*
%TD*%
%TO.P,U10,1,+VIN*%
%TO.N,Net-(U10-+VIN)*%
X293250000Y-168330000D03*
%TO.P,U10,2,GND*%
%TO.N,/slave2_of_2/GND*%
X293250000Y-165790000D03*
%TO.P,U10,3,+VOUT*%
%TO.N,Net-(U10-+VOUT)*%
X293250000Y-163250000D03*
%TD*%
D14*
%TO.P,J10,1,Pin_1*%
%TO.N,/slave2_of_2/U_Connectors/Cell.3*%
X339000000Y-108940000D03*
D15*
%TO.P,J10,2,Pin_2*%
%TO.N,/slave2_of_2/U_Connectors/Cell.1*%
X336000000Y-108940000D03*
%TO.P,J10,3,Pin_3*%
%TO.N,/slave2_of_2/U_Connectors/Cell.GND*%
X333000000Y-108940000D03*
%TO.P,J10,4,Pin_4*%
%TO.N,/slave2_of_2/U_Connectors/Cell.4*%
X339000000Y-105940000D03*
%TO.P,J10,5,Pin_5*%
%TO.N,/slave2_of_2/U_Connectors/Cell.2*%
X336000000Y-105940000D03*
%TO.P,J10,6,Pin_6*%
%TO.N,/slave2_of_2/U_Connectors/Cell.0*%
X333000000Y-105940000D03*
%TD*%
D10*
%TO.P,TP8,1,1*%
%TO.N,/slave1_of_2/GND*%
X192000000Y-159000000D03*
%TD*%
D19*
%TO.N,/slave1_of_2/prim+5V*%
X180000000Y-135725000D03*
X169250000Y-122125000D03*
X191140192Y-136689693D03*
X204500000Y-136250000D03*
X174000000Y-118000000D03*
X205779977Y-137529977D03*
X184250000Y-115000000D03*
X180975000Y-124750000D03*
X192200500Y-137750000D03*
%TO.N,/slave1_of_2/GND*%
X161250000Y-121750000D03*
X191500000Y-147750000D03*
X172470023Y-117220023D03*
X203000000Y-162500000D03*
X169309954Y-119500000D03*
X118750000Y-143250000D03*
X180250000Y-156750000D03*
X175250000Y-135250000D03*
X175250000Y-116500000D03*
X201175500Y-163000000D03*
X177279977Y-154029977D03*
X241177484Y-148167530D03*
X154500000Y-117250000D03*
X239250000Y-150750000D03*
X163720023Y-156779977D03*
X171250000Y-156750000D03*
X191000000Y-134000000D03*
X240750000Y-126250000D03*
X234750000Y-150750000D03*
X181750000Y-149750000D03*
X150250000Y-156750000D03*
D20*
X207250000Y-107500000D03*
D19*
X236000000Y-124250000D03*
X118750000Y-149250500D03*
X160725000Y-156750000D03*
X230000000Y-124250000D03*
X154500000Y-150500000D03*
X240750000Y-124250000D03*
X178750000Y-125500000D03*
X93100000Y-170200000D03*
D20*
X244000000Y-111500000D03*
D19*
X162407107Y-117700000D03*
X109100000Y-168200000D03*
X154750000Y-156750000D03*
X166500000Y-150250000D03*
X183400000Y-135750000D03*
X150000000Y-117250000D03*
X166500000Y-117250000D03*
%TO.N,/slave1_of_2/prim+3V*%
X191000000Y-135500000D03*
X171700000Y-113900000D03*
X190500000Y-129250000D03*
X176750000Y-114000000D03*
%TO.N,Net-(U1-V+)*%
X194828552Y-142943959D03*
X197500000Y-127000000D03*
%TO.N,/slave1_of_2/sec+5v*%
X171000000Y-149750000D03*
X157270434Y-154270434D03*
X192782477Y-144250500D03*
X168875000Y-155125000D03*
X178250000Y-149750000D03*
X157000000Y-149250000D03*
X191250000Y-151000000D03*
X182500000Y-145000000D03*
%TO.N,/slave1_of_2/sec+3v*%
X172000000Y-160189162D03*
X187250000Y-149500000D03*
D20*
%TO.N,/slave1_of_2/EXT_DC_ISO_prim*%
X199075250Y-126075250D03*
X208750000Y-168750000D03*
D19*
%TO.N,/slave1_of_2/U_Primary_ADBMS/C10*%
X198750000Y-153750000D03*
X194500000Y-140000000D03*
%TO.N,/slave1_of_2/U_Primary_ADBMS/C9*%
X194500000Y-139000000D03*
X199250000Y-152750000D03*
%TO.N,/slave1_of_2/U_Primary_ADBMS/C8*%
X199750000Y-151750000D03*
X194500000Y-138000000D03*
%TO.N,/slave1_of_2/U_Primary_ADBMS/C7*%
X194500000Y-137000000D03*
X200250000Y-150750000D03*
%TO.N,/slave1_of_2/U_Primary_ADBMS/C6*%
X200750000Y-149750000D03*
X194500000Y-136000000D03*
%TO.N,/slave1_of_2/U_Primary_ADBMS/C5*%
X201250000Y-148750000D03*
X194500000Y-135000000D03*
%TO.N,/slave1_of_2/U_Primary_ADBMS/C4*%
X194500000Y-134000000D03*
X201750000Y-147750000D03*
%TO.N,/slave1_of_2/U_Primary_ADBMS/C3*%
X202250000Y-146750000D03*
X194500000Y-133000000D03*
%TO.N,/slave1_of_2/U_Primary_ADBMS/C2*%
X202750000Y-145750000D03*
X194500000Y-132000000D03*
%TO.N,/slave1_of_2/U_Primary_ADBMS/C12*%
X194500000Y-142000000D03*
X197750000Y-155750000D03*
%TO.N,/slave1_of_2/U_Primary_ADBMS/C11*%
X198250000Y-154750000D03*
X194500000Y-141000000D03*
%TO.N,/slave1_of_2/U_Primary_ADBMS/C1*%
X203250000Y-144750000D03*
X194500000Y-131000000D03*
%TO.N,/slave1_of_2/Temp_MUX_sec*%
X187250000Y-145250000D03*
X176720023Y-152470023D03*
%TO.N,/slave1_of_2/EXT_DC_ISO_sec*%
X192250000Y-166250000D03*
%TO.N,/slave1_of_2/U_Passive_Balancing/GLOBAL_BAL_FEEDBACK*%
X192000000Y-130750000D03*
X203625000Y-110125000D03*
X212625000Y-148250000D03*
X191970023Y-132529977D03*
X197750000Y-120500000D03*
X202250000Y-117250000D03*
X201029977Y-126529977D03*
X210500000Y-132615000D03*
%TO.N,/slave2_of_2/sec+5v*%
X279250000Y-155100000D03*
X272225500Y-154250000D03*
X315500000Y-105000000D03*
X314875000Y-160875000D03*
X297000000Y-155750000D03*
X273500000Y-149250000D03*
X311000000Y-106000000D03*
%TO.N,/slave2_of_2/GND*%
X311549500Y-148073466D03*
D20*
X316500000Y-158750000D03*
D19*
X272050500Y-118100000D03*
X346250000Y-126250000D03*
X109200000Y-106000000D03*
X297250000Y-134250000D03*
X93250000Y-103600000D03*
X264000000Y-117250000D03*
X308750000Y-131250000D03*
X293750000Y-146500000D03*
X308500000Y-103750000D03*
X297750000Y-128250000D03*
X281000000Y-156750000D03*
D20*
X352000000Y-110750000D03*
D19*
X297724500Y-146697158D03*
X343000000Y-147750000D03*
X117750000Y-125000000D03*
X311000500Y-143250000D03*
X278750000Y-119500000D03*
X298250000Y-151250000D03*
X218055752Y-102555751D03*
X342129977Y-125879977D03*
X264500000Y-156750000D03*
X271000000Y-122000000D03*
X293000000Y-134000000D03*
X274312250Y-157194099D03*
X117500000Y-131000000D03*
X347500000Y-148250000D03*
X260000000Y-156750000D03*
X349700000Y-128747858D03*
X309000000Y-126250000D03*
X353875000Y-143375000D03*
X276000000Y-117000000D03*
X284900000Y-116800000D03*
X297250000Y-136250000D03*
X259500000Y-117250000D03*
X280000000Y-117000000D03*
X341320023Y-124570023D03*
X287750000Y-151225000D03*
X270475000Y-156750000D03*
X289500000Y-155750000D03*
%TO.N,/slave2_of_2/U_Primary_ADBMS/C10*%
X316250000Y-151500000D03*
X346000000Y-152000000D03*
X346750000Y-147250000D03*
X312000000Y-137750000D03*
%TO.N,/slave2_of_2/U_Primary_ADBMS/C9*%
X350000000Y-152250000D03*
X316750000Y-150500000D03*
X349500000Y-146000000D03*
X312000000Y-136750000D03*
%TO.N,/slave2_of_2/U_Primary_ADBMS/C8*%
X317250000Y-149500000D03*
X312000000Y-135750000D03*
%TO.N,/slave2_of_2/U_Primary_ADBMS/C7*%
X317750000Y-148500000D03*
X312000000Y-134749503D03*
%TO.N,/slave2_of_2/U_Primary_ADBMS/C6*%
X318250000Y-147500000D03*
X312000000Y-133750000D03*
%TO.N,/slave2_of_2/U_Primary_ADBMS/C5*%
X352750000Y-122250000D03*
X312000000Y-132750000D03*
X318750000Y-146500000D03*
X349499647Y-127499646D03*
%TO.N,/slave2_of_2/U_Primary_ADBMS/C4*%
X312000000Y-131750000D03*
X319250000Y-145500000D03*
%TO.N,/slave2_of_2/U_Primary_ADBMS/C3*%
X319750000Y-144500000D03*
X312000000Y-130750000D03*
X347000000Y-128750000D03*
X348000000Y-122250000D03*
%TO.N,/slave2_of_2/U_Primary_ADBMS/C2*%
X320250000Y-143500000D03*
X315500000Y-129500000D03*
%TO.N,/slave2_of_2/U_Primary_ADBMS/C12*%
X312000000Y-139749503D03*
X315250000Y-153500000D03*
%TO.N,/slave2_of_2/U_Primary_ADBMS/C11*%
X312000000Y-138750000D03*
X315750000Y-152500000D03*
%TO.N,/slave2_of_2/U_Primary_ADBMS/C1*%
X315250000Y-128024500D03*
X320971120Y-142500000D03*
%TO.N,/slave2_of_2/U_Primary_ADBMS/C0*%
X310369796Y-129250000D03*
X310000000Y-130749500D03*
%TO.N,/slave2_of_2/prim+5V*%
X301500000Y-112750000D03*
X282500000Y-117749500D03*
X292500000Y-117000000D03*
X298000500Y-127000000D03*
X311000000Y-107750000D03*
X280100000Y-122150000D03*
%TO.N,/slave2_of_2/prim+3V*%
X291718750Y-113968750D03*
X301750000Y-140000000D03*
%TO.N,Net-(U11-V+)*%
X311119296Y-128250000D03*
X311118843Y-131221771D03*
%TO.N,/slave2_of_2/U_Passive_Balancing/GLOBAL_BAL_FEEDBACK*%
X316250000Y-117000000D03*
X315029977Y-114000000D03*
X324500500Y-152500000D03*
X314250000Y-105750000D03*
X325215145Y-137094809D03*
X314750000Y-109099500D03*
D20*
%TO.N,/slave2_of_2/EXT_DC_ISO_prim*%
X317837500Y-168912500D03*
%TO.N,/slave1_of_2/VBAT+*%
X207500000Y-169500000D03*
X244250000Y-165500000D03*
D19*
%TO.N,Net-(IC10-C)*%
X212539317Y-149485903D03*
X204654977Y-119154977D03*
X203250000Y-116250000D03*
X210500000Y-133885000D03*
X206500000Y-108500000D03*
X208000000Y-119000000D03*
X210500000Y-160500000D03*
D20*
%TO.N,/slave2_of_2/VBAT+*%
X322000000Y-169250000D03*
X353750000Y-162750000D03*
X317775500Y-171250000D03*
D19*
%TO.N,Net-(IC17-C)*%
X317520000Y-117000000D03*
X315750000Y-107000000D03*
X324750000Y-153750000D03*
X318750000Y-109750000D03*
X312824500Y-121800000D03*
X325250000Y-136000000D03*
%TO.N,/slave1_of_2/U_Input_Fuses/Cell_Fused.GND*%
X230250000Y-117750000D03*
X219000000Y-109799999D03*
%TO.N,/slave1_of_2/U_Input_Fuses/Cell_Fused.1*%
X208750000Y-115500000D03*
X234750000Y-117750000D03*
X221375000Y-116625000D03*
%TO.N,/slave1_of_2/U_Input_Fuses/Cell_Fused.3*%
X220736850Y-123486850D03*
X239250000Y-117750000D03*
X205750000Y-122750000D03*
%TO.N,/slave1_of_2/U_Input_Fuses/Cell_Fused.4*%
X241500000Y-117750000D03*
X224500000Y-125225000D03*
%TO.N,/slave1_of_2/U_Input_Fuses/Cell_Fused.5*%
X243750000Y-117750000D03*
X205250000Y-129615000D03*
X220875000Y-130125000D03*
%TO.N,/slave1_of_2/U_Input_Fuses/Cell_Fused.6*%
X218500000Y-148250000D03*
X243750000Y-157250000D03*
X212250000Y-133000000D03*
X231000000Y-154500000D03*
%TO.N,/slave1_of_2/U_Input_Fuses/Cell_Fused.7*%
X214900000Y-156899500D03*
X213000500Y-156876268D03*
%TO.N,/slave1_of_2/U_Input_Fuses/Cell_Fused.8*%
X213000000Y-159000000D03*
X228750000Y-160250000D03*
X239250000Y-157250000D03*
X214900000Y-158999503D03*
%TO.N,/slave1_of_2/U_Input_Fuses/Cell_Fused.10*%
X217500000Y-169499500D03*
X221029977Y-164279977D03*
X234750000Y-157250000D03*
%TO.N,/slave1_of_2/U_Input_Fuses/Cell_Fused.11*%
X214500000Y-164500000D03*
X232500000Y-157250000D03*
%TO.N,/slave2_of_2/U_Input_Fuses/Cell_Fused.GND*%
X318750000Y-103750000D03*
X340250000Y-115250000D03*
X329500000Y-107000000D03*
%TO.N,/slave2_of_2/U_Input_Fuses/Cell_Fused.0*%
X329250000Y-110500000D03*
X319750000Y-108250000D03*
X342500000Y-118000000D03*
%TO.N,/slave2_of_2/U_Input_Fuses/Cell_Fused.1*%
X339500500Y-118154977D03*
X344750000Y-118000000D03*
X321500000Y-114000000D03*
%TO.N,/slave2_of_2/U_Input_Fuses/Cell_Fused.2*%
X329425000Y-119825000D03*
X347000000Y-118000000D03*
X315325500Y-120688813D03*
%TO.N,/slave2_of_2/U_Input_Fuses/Cell_Fused.3*%
X321500000Y-120750000D03*
X349250000Y-118000000D03*
X339000000Y-120250000D03*
%TO.N,/slave2_of_2/U_Input_Fuses/Cell_Fused.4*%
X351500000Y-118000000D03*
X329875000Y-122125000D03*
%TO.N,/slave2_of_2/U_Input_Fuses/Cell_Fused.5*%
X336500000Y-128250000D03*
X326750000Y-128250000D03*
X320651700Y-127446443D03*
X353500000Y-118000000D03*
%TO.N,/slave2_of_2/U_Input_Fuses/Cell_Fused.6*%
X353750000Y-156750000D03*
X338750000Y-153000000D03*
X334750000Y-135750000D03*
%TO.N,/slave2_of_2/U_Input_Fuses/Cell_Fused.7*%
X351500000Y-156750000D03*
X341425500Y-155486581D03*
%TO.N,/slave2_of_2/U_Input_Fuses/Cell_Fused.8*%
X320250000Y-158000000D03*
X349250000Y-156750000D03*
X330750000Y-157750000D03*
%TO.N,/slave2_of_2/U_Input_Fuses/Cell_Fused.9*%
X334250000Y-169750000D03*
X347000000Y-156750000D03*
%TO.N,/slave2_of_2/U_Input_Fuses/Cell_Fused.10*%
X344750000Y-156750000D03*
X327500000Y-169750000D03*
X330750000Y-164500000D03*
%TO.N,/slave2_of_2/U_Input_Fuses/Cell_Fused.11*%
X336345023Y-164845023D03*
X324000000Y-164500000D03*
%TO.N,/slave1_of_2/SDA1*%
X171000000Y-122125500D03*
X187376742Y-133250500D03*
X159750000Y-130095000D03*
X185499503Y-131250000D03*
%TO.N,/slave1_of_2/SCL1*%
X184500000Y-131250000D03*
X185250000Y-132750000D03*
%TO.N,/slave1_of_2/SDA2*%
X159250000Y-147750000D03*
X187250000Y-147500000D03*
X170000000Y-154574500D03*
X167500000Y-154250000D03*
%TO.N,/slave1_of_2/SCL2*%
X174750000Y-154000000D03*
X175339604Y-155789604D03*
X159750000Y-146500000D03*
X170000000Y-155850000D03*
X190750000Y-148750000D03*
%TO.N,Net-(IC5-A)*%
X219000000Y-119500000D03*
X204250000Y-121125000D03*
%TO.N,Net-(IC6-A)*%
X214900000Y-158000000D03*
X213000000Y-158000000D03*
%TO.N,Net-(IC9-A)*%
X219500000Y-112750000D03*
X207970023Y-111750000D03*
%TO.N,Net-(IC11-A)*%
X213000000Y-163000000D03*
X219250000Y-162500000D03*
%TO.N,Net-(IC13-A)*%
X216413000Y-126250000D03*
X219000000Y-126250000D03*
%TO.N,/slave2_of_2/SDA2*%
X282250000Y-154549500D03*
X276750000Y-147655000D03*
X302342621Y-142697408D03*
%TO.N,/slave2_of_2/SCL2*%
X302136849Y-143675500D03*
X282970023Y-155779977D03*
X276000000Y-146385000D03*
%TO.N,/slave2_of_2/SDA1*%
X299750000Y-125750000D03*
X301500000Y-128700000D03*
X278000000Y-121400500D03*
X276750000Y-124750000D03*
%TO.N,/slave2_of_2/SCL1*%
X299500000Y-127000000D03*
X301300000Y-129800000D03*
%TO.N,Net-(IC17-A)*%
X330500000Y-127200000D03*
X318500000Y-121500500D03*
%TO.N,Net-(IC21-A)*%
X318750000Y-113000000D03*
X329250000Y-113750000D03*
%TO.N,Net-(IC22-A)*%
X334250000Y-137000000D03*
X331250000Y-149000000D03*
%TO.N,Net-(IC25-A)*%
X328250000Y-162250000D03*
X318654977Y-163654977D03*
%TO.N,Net-(IC28-A)*%
X335000000Y-162000000D03*
X318779977Y-164779977D03*
%TO.N,/slave1_of_2/U_Primary_ADBMS/IN_M1*%
X185250000Y-140250000D03*
X129500000Y-152000000D03*
%TO.N,/slave1_of_2/U_Primary_ADBMS/IN_P1*%
X129595023Y-153154977D03*
X186250000Y-140750000D03*
%TO.N,/slave1_of_2/U_Primary_ADBMS/OUT_M1*%
X184500000Y-143500000D03*
X129690046Y-154309954D03*
%TO.N,/slave1_of_2/U_Primary_ADBMS/OUT_P1*%
X129750000Y-155500000D03*
X188000000Y-143250000D03*
%TO.N,/slave1_of_2/U_Secondary_ADBMS/IN_M1*%
X145500000Y-167750000D03*
X184250000Y-154074500D03*
%TO.N,/slave1_of_2/U_Secondary_ADBMS/IN_P1*%
X185500000Y-154524500D03*
X146250000Y-169750000D03*
%TO.N,/slave1_of_2/U_Secondary_ADBMS/OUT_M1*%
X147000000Y-170500000D03*
X184000000Y-157000000D03*
%TO.N,/slave1_of_2/U_Secondary_ADBMS/OUT_P1*%
X147750000Y-171250000D03*
X188104987Y-156854987D03*
%TO.N,/slave1_of_2/U_Passive_Balancing/S5*%
X207750000Y-125750000D03*
X199750000Y-134500000D03*
%TO.N,/slave1_of_2/U_Passive_Balancing/S10*%
X217500000Y-151750000D03*
X203500000Y-139500000D03*
X212940988Y-151999057D03*
X211250500Y-151999503D03*
%TO.N,/slave1_of_2/U_Passive_Balancing/S4*%
X219000000Y-121000000D03*
X198750000Y-133500000D03*
%TO.N,/slave1_of_2/U_Passive_Balancing/S9*%
X211250500Y-151000000D03*
X221250000Y-158000000D03*
X213000000Y-151000000D03*
X203500000Y-138500000D03*
%TO.N,/slave1_of_2/U_Passive_Balancing/S3*%
X208750000Y-114500000D03*
X198000000Y-132500000D03*
%TO.N,/slave1_of_2/U_Passive_Balancing/S8*%
X202750000Y-137500000D03*
X211701796Y-150031396D03*
%TO.N,/slave1_of_2/U_Passive_Balancing/S2*%
X198000000Y-131500000D03*
X219250000Y-114250000D03*
%TO.N,/slave1_of_2/U_Passive_Balancing/S7*%
X201750000Y-136500000D03*
X209000000Y-128250000D03*
%TO.N,/slave1_of_2/U_Passive_Balancing/S12*%
X203500000Y-141500000D03*
X216000000Y-162065300D03*
%TO.N,/slave1_of_2/U_Passive_Balancing/S1*%
X202000000Y-125000000D03*
X208500000Y-108500000D03*
%TO.N,/slave1_of_2/U_Passive_Balancing/S6*%
X200750000Y-135500000D03*
X219000000Y-127500000D03*
%TO.N,/slave1_of_2/U_Passive_Balancing/S11*%
X222029977Y-162220023D03*
X203500000Y-140500000D03*
%TO.N,/slave2_of_2/U_Secondary_ADBMS/IN_M1*%
X308762299Y-150262299D03*
X119500000Y-134500000D03*
%TO.N,/slave2_of_2/U_Secondary_ADBMS/IN_P1*%
X119500000Y-130000000D03*
X308774253Y-151261730D03*
%TO.N,/slave2_of_2/U_Secondary_ADBMS/OUT_M1*%
X308750000Y-153250000D03*
X119700000Y-128500000D03*
%TO.N,/slave2_of_2/U_Secondary_ADBMS/OUT_P1*%
X118250000Y-124000000D03*
X308750000Y-154249503D03*
%TO.N,/slave2_of_2/U_Primary_ADBMS/IN_M1*%
X305089567Y-136735031D03*
X112500000Y-106499503D03*
%TO.N,/slave2_of_2/U_Primary_ADBMS/IN_P1*%
X112500000Y-105500000D03*
X304954536Y-137800000D03*
%TO.N,/slave2_of_2/U_Primary_ADBMS/OUT_M1*%
X308600000Y-137995805D03*
X114250000Y-104250000D03*
%TO.N,/slave2_of_2/U_Primary_ADBMS/OUT_P1*%
X114250000Y-103249500D03*
X308669173Y-139900049D03*
%TO.N,/slave2_of_2/U_Passive_Balancing/S5*%
X320980746Y-132269254D03*
X329279977Y-123779977D03*
%TO.N,/slave2_of_2/U_Passive_Balancing/S10*%
X323751000Y-139274500D03*
X320250000Y-155750000D03*
%TO.N,/slave2_of_2/U_Passive_Balancing/S4*%
X326250000Y-118750000D03*
X319250000Y-118750000D03*
X324749959Y-125141421D03*
X320750000Y-131250000D03*
%TO.N,/slave2_of_2/U_Passive_Balancing/S9*%
X327999503Y-151500000D03*
X327990367Y-138774223D03*
%TO.N,/slave2_of_2/U_Passive_Balancing/S3*%
X319500000Y-130250000D03*
X324750246Y-124141919D03*
%TO.N,/slave2_of_2/U_Passive_Balancing/S8*%
X322100000Y-135100000D03*
X329000000Y-151500000D03*
%TO.N,/slave2_of_2/U_Passive_Balancing/S2*%
X318750000Y-111750000D03*
X325249500Y-111500000D03*
X312000000Y-129750000D03*
X324696105Y-123143884D03*
%TO.N,/slave2_of_2/U_Passive_Balancing/S7*%
X322500500Y-134129486D03*
X329000000Y-130000000D03*
%TO.N,/slave2_of_2/U_Passive_Balancing/S12*%
X326000000Y-151500000D03*
X325999500Y-140250000D03*
%TO.N,/slave2_of_2/U_Passive_Balancing/S1*%
X324500000Y-105250000D03*
X309822871Y-128322871D03*
X318750000Y-105250000D03*
X324587500Y-122104977D03*
%TO.N,/slave2_of_2/U_Passive_Balancing/S6*%
X319122609Y-126317760D03*
X321800000Y-133250000D03*
%TO.N,/slave2_of_2/U_Passive_Balancing/S11*%
X327000000Y-151500000D03*
X326973704Y-139499500D03*
%TO.N,/slave1_of_2/U_Analog_IN/OPA_TEMP_prim*%
X169250000Y-120500000D03*
X166980746Y-118230746D03*
%TO.N,/slave2_of_2/U_Analog_IN/OPA_TEMP_prim*%
X276470023Y-118220023D03*
X278750000Y-120499503D03*
%TO.N,Net-(U17-VI)*%
X175500000Y-124500000D03*
%TO.N,Net-(U18-VI)*%
X175250000Y-138250000D03*
%TO.N,Net-(U17-VO)*%
X172000000Y-124250000D03*
X181500000Y-117000000D03*
%TO.N,Net-(U18-VO)*%
X176500000Y-159250000D03*
X173500000Y-148500000D03*
%TO.N,Net-(U19-VO)*%
X282925000Y-148250000D03*
X290250000Y-157750000D03*
%TO.N,Net-(U20-VO)*%
X287750000Y-115750000D03*
X286000000Y-123000000D03*
%TO.N,Net-(U10-+VOUT)*%
X291500000Y-159250000D03*
X292000000Y-137750000D03*
%TO.N,Net-(U12-+VOUT)*%
X293500000Y-125750000D03*
%TD*%
D21*
%TO.N,/slave1_of_2/prim+5V*%
X184250000Y-115000000D02*
X178310661Y-115000000D01*
X178310661Y-115000000D02*
X175310661Y-118000000D01*
X175310661Y-118000000D02*
X174000000Y-118000000D01*
X204500000Y-136250000D02*
X205779977Y-137529977D01*
X191140192Y-136689693D02*
X191140193Y-136689693D01*
X180975000Y-123775000D02*
X186000000Y-118750000D01*
X169875000Y-122125000D02*
X174000000Y-118000000D01*
X169250000Y-122125000D02*
X169875000Y-122125000D01*
X180975000Y-124750000D02*
X180975000Y-123775000D01*
%TO.N,/slave1_of_2/GND*%
X121750500Y-149250500D02*
X118750000Y-149250500D01*
X109100000Y-167400000D02*
X115500000Y-161000000D01*
X109100000Y-168200000D02*
X109100000Y-167400000D01*
X116000000Y-143250000D02*
X118750000Y-143250000D01*
X115500000Y-150000000D02*
X116249500Y-149250500D01*
X95100000Y-168200000D02*
X93100000Y-170200000D01*
X150250000Y-156750000D02*
X129250000Y-156750000D01*
X162407107Y-117700000D02*
X162225937Y-117881170D01*
X115500000Y-150000000D02*
X115500000Y-143750000D01*
X115500000Y-143750000D02*
X116000000Y-143250000D01*
X109100000Y-168200000D02*
X95100000Y-168200000D01*
X129250000Y-156750000D02*
X121750500Y-149250500D01*
X172470023Y-117220023D02*
X172440046Y-117250000D01*
X171220023Y-156779977D02*
X171250000Y-156750000D01*
X160725000Y-156750000D02*
X160754977Y-156779977D01*
X181559954Y-149750000D02*
X181750000Y-149750000D01*
X115500000Y-161000000D02*
X115500000Y-150000000D01*
X116249500Y-149250500D02*
X118750000Y-149250500D01*
%TO.N,/slave1_of_2/prim+3V*%
X171700000Y-113900000D02*
X171754243Y-113845757D01*
X192000000Y-133750000D02*
X192000000Y-135000000D01*
X191500000Y-135500000D02*
X191000000Y-135500000D01*
X171754243Y-113845757D02*
X176595757Y-113845757D01*
X190500000Y-129250000D02*
X190500000Y-132250000D01*
X190500000Y-132250000D02*
X192000000Y-133750000D01*
X192000000Y-135000000D02*
X191500000Y-135500000D01*
X176595757Y-113845757D02*
X176750000Y-114000000D01*
%TO.N,Net-(U1-V+)*%
X197250000Y-127000000D02*
X193750000Y-130500000D01*
X193750000Y-142310661D02*
X194383298Y-142943959D01*
X194383298Y-142943959D02*
X194828552Y-142943959D01*
X193750000Y-130500000D02*
X193750000Y-142310661D01*
X197500000Y-127000000D02*
X197250000Y-127000000D01*
%TO.N,/slave1_of_2/sec+3v*%
X172000000Y-160189162D02*
X173810838Y-160189162D01*
X183000000Y-153750000D02*
X187250000Y-149500000D01*
X180250000Y-153750000D02*
X183000000Y-153750000D01*
X173810838Y-160189162D02*
X180250000Y-153750000D01*
%TO.N,/slave1_of_2/U_Primary_ADBMS/C10*%
X198250000Y-153250000D02*
X198750000Y-153750000D01*
X195000000Y-140000000D02*
X198250000Y-143250000D01*
X198250000Y-143250000D02*
X198250000Y-153250000D01*
X194500000Y-140000000D02*
X195000000Y-140000000D01*
%TO.N,/slave1_of_2/U_Primary_ADBMS/C9*%
X198750000Y-152250000D02*
X199250000Y-152750000D01*
X194500000Y-139000000D02*
X195000000Y-139000000D01*
X195000000Y-139000000D02*
X198750000Y-142750000D01*
X198750000Y-142750000D02*
X198750000Y-152250000D01*
%TO.N,/slave1_of_2/U_Primary_ADBMS/C8*%
X199250000Y-151250000D02*
X199750000Y-151750000D01*
X195000000Y-138000000D02*
X199250000Y-142250000D01*
X199250000Y-142250000D02*
X199250000Y-151250000D01*
X194500000Y-138000000D02*
X195000000Y-138000000D01*
%TO.N,/slave1_of_2/U_Primary_ADBMS/C7*%
X194500000Y-137000000D02*
X195000000Y-137000000D01*
X195000000Y-137000000D02*
X199750000Y-141750000D01*
X199750000Y-150250000D02*
X200250000Y-150750000D01*
X199750000Y-141750000D02*
X199750000Y-150250000D01*
%TO.N,/slave1_of_2/U_Primary_ADBMS/C6*%
X195000000Y-136000000D02*
X200250000Y-141250000D01*
X200250000Y-149250000D02*
X200750000Y-149750000D01*
X194500000Y-136000000D02*
X195000000Y-136000000D01*
X200250000Y-141250000D02*
X200250000Y-149250000D01*
%TO.N,/slave1_of_2/U_Primary_ADBMS/C5*%
X200750000Y-148250000D02*
X201250000Y-148750000D01*
X200750000Y-140750000D02*
X200750000Y-148250000D01*
X194500000Y-135000000D02*
X195000000Y-135000000D01*
X195000000Y-135000000D02*
X200750000Y-140750000D01*
%TO.N,/slave1_of_2/U_Primary_ADBMS/C4*%
X194500000Y-134000000D02*
X195000000Y-134000000D01*
X195000000Y-134000000D02*
X201250000Y-140250000D01*
X201250000Y-147250000D02*
X201750000Y-147750000D01*
X201250000Y-140250000D02*
X201250000Y-147250000D01*
%TO.N,/slave1_of_2/U_Primary_ADBMS/C3*%
X194500000Y-133000000D02*
X195000000Y-133000000D01*
X201750000Y-139750000D02*
X201750000Y-146250000D01*
X201750000Y-146250000D02*
X202250000Y-146750000D01*
X195000000Y-133000000D02*
X201750000Y-139750000D01*
%TO.N,/slave1_of_2/U_Primary_ADBMS/C2*%
X202250000Y-145250000D02*
X202750000Y-145750000D01*
X194500000Y-132000000D02*
X195000000Y-132000000D01*
X202250000Y-139250000D02*
X202250000Y-145250000D01*
X195000000Y-132000000D02*
X202250000Y-139250000D01*
%TO.N,/slave1_of_2/U_Primary_ADBMS/C12*%
X195000000Y-142000000D02*
X197250000Y-144250000D01*
X194500000Y-142000000D02*
X195000000Y-142000000D01*
X197250000Y-155250000D02*
X197750000Y-155750000D01*
X197250000Y-144250000D02*
X197250000Y-155250000D01*
%TO.N,/slave1_of_2/U_Primary_ADBMS/C11*%
X195000000Y-141000000D02*
X197750000Y-143750000D01*
X194500000Y-141000000D02*
X195000000Y-141000000D01*
X197750000Y-154250000D02*
X198250000Y-154750000D01*
X197750000Y-143750000D02*
X197750000Y-154250000D01*
%TO.N,/slave1_of_2/U_Primary_ADBMS/C1*%
X202750000Y-144250000D02*
X203250000Y-144750000D01*
X194500000Y-131000000D02*
X195000000Y-131000000D01*
X195000000Y-131000000D02*
X202750000Y-138750000D01*
X202750000Y-138750000D02*
X202750000Y-144250000D01*
%TO.N,/slave1_of_2/Temp_MUX_sec*%
X176720023Y-152470023D02*
X183940046Y-145250000D01*
X183940046Y-145250000D02*
X187250000Y-145250000D01*
%TO.N,/slave1_of_2/EXT_DC_ISO_sec*%
X195500000Y-159000000D02*
X195500000Y-163000000D01*
X195500000Y-163000000D02*
X192250000Y-166250000D01*
%TO.N,/slave1_of_2/U_Passive_Balancing/GLOBAL_BAL_FEEDBACK*%
X192000000Y-132500000D02*
X191970023Y-132529977D01*
X192000000Y-130750000D02*
X192000000Y-132500000D01*
X212625000Y-148250000D02*
X212125000Y-148250000D01*
X211250000Y-133000000D02*
X210865000Y-132615000D01*
X203625000Y-110125000D02*
X202250000Y-111500000D01*
X211250000Y-147375000D02*
X211250000Y-133000000D01*
X210865000Y-132615000D02*
X210500000Y-132615000D01*
X201000000Y-126500000D02*
X201029977Y-126529977D01*
X199000000Y-120500000D02*
X202250000Y-117250000D01*
X197750000Y-120500000D02*
X199000000Y-120500000D01*
X197750000Y-120500000D02*
X201000000Y-123750000D01*
X212125000Y-148250000D02*
X211250000Y-147375000D01*
X202250000Y-111500000D02*
X202250000Y-117250000D01*
X201000000Y-125500000D02*
X201000000Y-126500000D01*
X201000000Y-123750000D02*
X201000000Y-125500000D01*
%TO.N,/slave2_of_2/sec+5v*%
X311000000Y-106000000D02*
X312000000Y-105000000D01*
X312000000Y-105000000D02*
X315500000Y-105000000D01*
X301100000Y-161600000D02*
X298750000Y-159250000D01*
X314875000Y-161375000D02*
X314650000Y-161600000D01*
X314650000Y-161600000D02*
X301100000Y-161600000D01*
X314875000Y-160875000D02*
X314875000Y-161375000D01*
%TO.N,/slave2_of_2/GND*%
X115250000Y-129500000D02*
X115250000Y-123500000D01*
X93250000Y-103600000D02*
X106800000Y-103600000D01*
X146000001Y-102500000D02*
X109750000Y-102500000D01*
X150673711Y-102500000D02*
X148888711Y-104285000D01*
X115250000Y-112750000D02*
X115250000Y-123500000D01*
X115250000Y-123500000D02*
X116750000Y-125000000D01*
X109200000Y-103050000D02*
X109200000Y-106000000D01*
X284900000Y-116800000D02*
X284700000Y-117000000D01*
X218000001Y-102500000D02*
X150673711Y-102500000D01*
X280883984Y-156866016D02*
X281000000Y-156750000D01*
X116750000Y-131000000D02*
X115250000Y-129500000D01*
X117500000Y-131000000D02*
X116750000Y-131000000D01*
D22*
X297000000Y-134000000D02*
X297250000Y-134250000D01*
D21*
X106800000Y-103600000D02*
X109200000Y-106000000D01*
X148888711Y-104285000D02*
X147785000Y-104285000D01*
X109750000Y-102500000D02*
X109200000Y-103050000D01*
X264192356Y-117442356D02*
X264000000Y-117250000D01*
X218055752Y-102555751D02*
X218000001Y-102500000D01*
X109200000Y-106700000D02*
X115250000Y-112750000D01*
X311000500Y-143209330D02*
X311000500Y-143250000D01*
X147785000Y-104285000D02*
X146000001Y-102500000D01*
X109200000Y-106000000D02*
X109200000Y-106700000D01*
X116750000Y-125000000D02*
X117750000Y-125000000D01*
D22*
X293000000Y-134000000D02*
X297000000Y-134000000D01*
D21*
X270591016Y-156866016D02*
X270475000Y-156750000D01*
%TO.N,/slave2_of_2/U_Primary_ADBMS/C10*%
X316000000Y-151250000D02*
X316000000Y-140500000D01*
X346000000Y-148500000D02*
X346000000Y-152000000D01*
X316000000Y-140500000D02*
X313250000Y-137750000D01*
X313250000Y-137750000D02*
X312000000Y-137750000D01*
X316250000Y-151500000D02*
X316000000Y-151250000D01*
X346750000Y-147750000D02*
X346000000Y-148500000D01*
X346750000Y-147250000D02*
X346750000Y-147750000D01*
%TO.N,/slave2_of_2/U_Primary_ADBMS/C9*%
X313500000Y-136750000D02*
X312000000Y-136750000D01*
X349500000Y-146000000D02*
X349500000Y-148000000D01*
X316500000Y-150250000D02*
X316500000Y-139750000D01*
X349500000Y-148000000D02*
X350000000Y-148500000D01*
X350000000Y-148500000D02*
X350000000Y-152250000D01*
X316500000Y-139750000D02*
X313500000Y-136750000D01*
X316750000Y-150500000D02*
X316500000Y-150250000D01*
%TO.N,/slave2_of_2/U_Primary_ADBMS/C8*%
X317000000Y-139000000D02*
X313750000Y-135750000D01*
X317250000Y-149500000D02*
X317000000Y-149250000D01*
X313750000Y-135750000D02*
X312000000Y-135750000D01*
X317000000Y-149250000D02*
X317000000Y-139000000D01*
%TO.N,/slave2_of_2/U_Primary_ADBMS/C7*%
X317500000Y-148250000D02*
X317500000Y-138250000D01*
X317500000Y-138250000D02*
X314000000Y-134750000D01*
X317750000Y-148500000D02*
X317500000Y-148250000D01*
X314000000Y-134750000D02*
X312000497Y-134750000D01*
X312000497Y-134750000D02*
X312000000Y-134749503D01*
%TO.N,/slave2_of_2/U_Primary_ADBMS/C6*%
X318000000Y-137500000D02*
X314250000Y-133750000D01*
X314250000Y-133750000D02*
X312000000Y-133750000D01*
X318000000Y-147250000D02*
X318000000Y-137500000D01*
X318250000Y-147500000D02*
X318000000Y-147250000D01*
%TO.N,/slave2_of_2/U_Primary_ADBMS/C5*%
X318500000Y-136750000D02*
X314500000Y-132750000D01*
X314500000Y-132750000D02*
X312000000Y-132750000D01*
X349499647Y-127499646D02*
X351988957Y-125010336D01*
X351988957Y-124011043D02*
X352750000Y-123250000D01*
X318500000Y-146250000D02*
X318500000Y-136750000D01*
X352750000Y-123250000D02*
X352750000Y-122250000D01*
X351988957Y-125010336D02*
X351988957Y-124011043D01*
X318750000Y-146500000D02*
X318500000Y-146250000D01*
%TO.N,/slave2_of_2/U_Primary_ADBMS/C4*%
X319000000Y-145250000D02*
X319000000Y-135750000D01*
X319000000Y-135750000D02*
X315000000Y-131750000D01*
X319250000Y-145500000D02*
X319000000Y-145250000D01*
X315000000Y-131750000D02*
X312000000Y-131750000D01*
%TO.N,/slave2_of_2/U_Primary_ADBMS/C3*%
X348000000Y-127750000D02*
X348000000Y-122250000D01*
X315250000Y-130750000D02*
X312000000Y-130750000D01*
X347000000Y-128750000D02*
X348000000Y-127750000D01*
X319500000Y-144250000D02*
X319500000Y-135000000D01*
X319750000Y-144500000D02*
X319500000Y-144250000D01*
X319500000Y-135000000D02*
X315250000Y-130750000D01*
%TO.N,/slave2_of_2/U_Primary_ADBMS/C2*%
X320221159Y-134221159D02*
X320221159Y-143471159D01*
X315500000Y-129500000D02*
X320221159Y-134221159D01*
X320221159Y-143471159D02*
X320250000Y-143500000D01*
%TO.N,/slave2_of_2/U_Primary_ADBMS/C12*%
X312000000Y-139749503D02*
X312749503Y-139749503D01*
X315000000Y-142000000D02*
X315000000Y-153250000D01*
X315000000Y-153250000D02*
X315250000Y-153500000D01*
X312749503Y-139749503D02*
X315000000Y-142000000D01*
%TO.N,/slave2_of_2/U_Primary_ADBMS/C11*%
X315750000Y-152500000D02*
X315500000Y-152250000D01*
X315500000Y-141250000D02*
X313000000Y-138750000D01*
X313000000Y-138750000D02*
X312000000Y-138750000D01*
X315500000Y-152250000D02*
X315500000Y-141250000D01*
%TO.N,/slave2_of_2/U_Primary_ADBMS/C1*%
X320971120Y-142500000D02*
X320971120Y-133471120D01*
X320971120Y-133471120D02*
X315524500Y-128024500D01*
X315524500Y-128024500D02*
X315250000Y-128024500D01*
%TO.N,/slave2_of_2/U_Primary_ADBMS/C0*%
X310000000Y-130749500D02*
X310369796Y-130379704D01*
X310369796Y-130379704D02*
X310369796Y-129250000D01*
%TO.N,/slave2_of_2/prim+3V*%
X298750000Y-139250000D02*
X299500000Y-140000000D01*
X291718750Y-113968750D02*
X298750000Y-121000000D01*
X299500000Y-140000000D02*
X301750000Y-140000000D01*
X298750000Y-121000000D02*
X298750000Y-139250000D01*
%TO.N,Net-(U11-V+)*%
X311119296Y-131221318D02*
X311119296Y-128250000D01*
X311118843Y-131221771D02*
X311119296Y-131221318D01*
%TO.N,/slave2_of_2/U_Passive_Balancing/GLOBAL_BAL_FEEDBACK*%
X314750000Y-109099500D02*
X314250000Y-108599500D01*
X315029977Y-115779977D02*
X316250000Y-117000000D01*
X324500500Y-137809454D02*
X324500500Y-152500000D01*
X314750000Y-109099500D02*
X315029977Y-109379477D01*
X315029977Y-114000000D02*
X315029977Y-115779977D01*
X325215145Y-137094809D02*
X324500500Y-137809454D01*
X314250000Y-108599500D02*
X314250000Y-105750000D01*
X315029977Y-109379477D02*
X315029977Y-114000000D01*
D22*
%TO.N,/slave1_of_2/VBAT+*%
X207500000Y-169500000D02*
X207500000Y-170000000D01*
X242750000Y-171000000D02*
X244250000Y-169500000D01*
X207500000Y-170000000D02*
X208500000Y-171000000D01*
X208500000Y-171000000D02*
X242750000Y-171000000D01*
X244250000Y-169500000D02*
X244250000Y-165500000D01*
D21*
%TO.N,Net-(IC10-C)*%
X212539317Y-149485903D02*
X212539317Y-150335683D01*
X206500000Y-109250000D02*
X206500000Y-108500000D01*
X212000000Y-159000000D02*
X210500000Y-160500000D01*
X212000000Y-150875000D02*
X212000000Y-159000000D01*
X203250000Y-116250000D02*
X203250000Y-112500000D01*
X212539317Y-150335683D02*
X212000000Y-150875000D01*
X203250000Y-112500000D02*
X206500000Y-109250000D01*
X204654977Y-119154977D02*
X204809954Y-119000000D01*
X212539317Y-149485903D02*
X212300242Y-149485903D01*
X204809954Y-119000000D02*
X208000000Y-119000000D01*
X210500000Y-147685661D02*
X210500000Y-133885000D01*
X212300242Y-149485903D02*
X210500000Y-147685661D01*
D22*
%TO.N,/slave2_of_2/VBAT+*%
X353750000Y-169750000D02*
X352250000Y-171250000D01*
X352250000Y-171250000D02*
X317775500Y-171250000D01*
X322500000Y-169250000D02*
X324500000Y-171250000D01*
X353750000Y-162750000D02*
X353750000Y-169750000D01*
X322000000Y-169250000D02*
X322500000Y-169250000D01*
D21*
%TO.N,Net-(IC17-C)*%
X318750000Y-109750000D02*
X318750000Y-108750000D01*
X317750000Y-110750000D02*
X318750000Y-109750000D01*
X317750000Y-116770000D02*
X317750000Y-110750000D01*
X325250000Y-153250000D02*
X324750000Y-153750000D01*
X325250000Y-136000000D02*
X325750000Y-136000000D01*
X312824500Y-119925500D02*
X315000000Y-117750000D01*
X317520000Y-117000000D02*
X317750000Y-116770000D01*
X326250000Y-136500000D02*
X326250000Y-138125000D01*
X325250000Y-139125000D02*
X325250000Y-153250000D01*
X315000000Y-117750000D02*
X316770000Y-117750000D01*
X317000000Y-107000000D02*
X315750000Y-107000000D01*
X325750000Y-136000000D02*
X326250000Y-136500000D01*
X326250000Y-138125000D02*
X325250000Y-139125000D01*
X316770000Y-117750000D02*
X317520000Y-117000000D01*
X312824500Y-121800000D02*
X312824500Y-119925500D01*
X318750000Y-108750000D02*
X317000000Y-107000000D01*
%TO.N,/slave1_of_2/U_Input_Fuses/Cell_Fused.GND*%
X230250000Y-116000000D02*
X230250000Y-117750000D01*
X226500000Y-112250000D02*
X230250000Y-116000000D01*
X219000000Y-109799999D02*
X221450001Y-112250000D01*
X221450001Y-112250000D02*
X226500000Y-112250000D01*
%TO.N,/slave1_of_2/U_Input_Fuses/Cell_Fused.1*%
X220250000Y-115500000D02*
X221375000Y-116625000D01*
X234000000Y-118500000D02*
X229875000Y-118500000D01*
X208750000Y-115500000D02*
X220250000Y-115500000D01*
X228000000Y-116625000D02*
X221375000Y-116625000D01*
X234750000Y-117750000D02*
X234000000Y-118500000D01*
X229875000Y-118500000D02*
X228000000Y-116625000D01*
%TO.N,/slave1_of_2/U_Input_Fuses/Cell_Fused.3*%
X223000000Y-121000000D02*
X220736850Y-123263150D01*
X239250000Y-117750000D02*
X236000000Y-121000000D01*
X220000000Y-122750000D02*
X220736850Y-123486850D01*
X205750000Y-122750000D02*
X220000000Y-122750000D01*
X236000000Y-121000000D02*
X223000000Y-121000000D01*
X220736850Y-123263150D02*
X220736850Y-123486850D01*
%TO.N,/slave1_of_2/U_Input_Fuses/Cell_Fused.4*%
X224500000Y-125225000D02*
X224500000Y-122500000D01*
X225500000Y-121500000D02*
X237750000Y-121500000D01*
X224500000Y-122500000D02*
X225500000Y-121500000D01*
X237750000Y-121500000D02*
X241500000Y-117750000D01*
%TO.N,/slave1_of_2/U_Input_Fuses/Cell_Fused.5*%
X228750000Y-124000000D02*
X228750000Y-128250000D01*
X243750000Y-117750000D02*
X239000000Y-122500000D01*
X205250000Y-129615000D02*
X220365000Y-129615000D01*
X226875000Y-130125000D02*
X220875000Y-130125000D01*
X239000000Y-122500000D02*
X230250000Y-122500000D01*
X220365000Y-129615000D02*
X220875000Y-130125000D01*
X230250000Y-122500000D02*
X228750000Y-124000000D01*
X228750000Y-128250000D02*
X226875000Y-130125000D01*
%TO.N,/slave1_of_2/U_Input_Fuses/Cell_Fused.6*%
X242250000Y-155750000D02*
X236500000Y-155750000D01*
X236500000Y-155750000D02*
X232250000Y-155750000D01*
X232250000Y-155750000D02*
X231000000Y-154500000D01*
X217750000Y-147000000D02*
X218500000Y-147750000D01*
X212250000Y-146250000D02*
X213000000Y-147000000D01*
X212250000Y-133000000D02*
X212250000Y-146250000D01*
X213000000Y-147000000D02*
X217750000Y-147000000D01*
X243750000Y-157250000D02*
X242250000Y-155750000D01*
X218500000Y-147750000D02*
X218500000Y-148250000D01*
%TO.N,/slave1_of_2/U_Input_Fuses/Cell_Fused.7*%
X214876768Y-156876268D02*
X214900000Y-156899500D01*
X213000500Y-156876268D02*
X214876768Y-156876268D01*
%TO.N,/slave1_of_2/U_Input_Fuses/Cell_Fused.8*%
X214899503Y-159000000D02*
X214900000Y-158999503D01*
X232000000Y-156500000D02*
X238500000Y-156500000D01*
X228750000Y-159750000D02*
X232000000Y-156500000D01*
X228750000Y-160250000D02*
X228750000Y-159750000D01*
X213000000Y-159000000D02*
X214899503Y-159000000D01*
X238500000Y-156500000D02*
X239250000Y-157250000D01*
%TO.N,/slave1_of_2/U_Input_Fuses/Cell_Fused.10*%
X221029977Y-164279977D02*
X221059954Y-164250000D01*
X217500000Y-167750000D02*
X220970023Y-164279977D01*
X234750000Y-157750000D02*
X234750000Y-157250000D01*
X220970023Y-164279977D02*
X221029977Y-164279977D01*
X217500000Y-169499500D02*
X217500000Y-167750000D01*
X221059954Y-164250000D02*
X228250000Y-164250000D01*
X228250000Y-164250000D02*
X234750000Y-157750000D01*
%TO.N,/slave1_of_2/U_Input_Fuses/Cell_Fused.11*%
X228292894Y-163500000D02*
X232500000Y-159292894D01*
X219750000Y-164500000D02*
X220750000Y-163500000D01*
X232500000Y-159292894D02*
X232500000Y-157250000D01*
X220750000Y-163500000D02*
X228292894Y-163500000D01*
X214500000Y-164500000D02*
X219750000Y-164500000D01*
%TO.N,/slave2_of_2/U_Input_Fuses/Cell_Fused.GND*%
X329500000Y-107000000D02*
X329500000Y-108250000D01*
X318750000Y-103750000D02*
X327250000Y-103750000D01*
X332000000Y-110750000D02*
X335750000Y-110750000D01*
X329500000Y-108250000D02*
X332000000Y-110750000D01*
X327250000Y-103750000D02*
X329500000Y-106000000D01*
X335750000Y-110750000D02*
X340250000Y-115250000D01*
X329500000Y-106000000D02*
X329500000Y-107000000D01*
%TO.N,/slave2_of_2/U_Input_Fuses/Cell_Fused.0*%
X329250000Y-110500000D02*
X330250000Y-111500000D01*
X341750000Y-118000000D02*
X342500000Y-118000000D01*
X319750000Y-108250000D02*
X327000000Y-108250000D01*
X330250000Y-111500000D02*
X335250000Y-111500000D01*
X327000000Y-108250000D02*
X329250000Y-110500000D01*
X335250000Y-111500000D02*
X341750000Y-118000000D01*
%TO.N,/slave2_of_2/U_Input_Fuses/Cell_Fused.1*%
X336095523Y-114750000D02*
X339500500Y-118154977D01*
X321500000Y-114000000D02*
X322250000Y-113250000D01*
X339500500Y-118154977D02*
X340345523Y-119000000D01*
X329094670Y-114750000D02*
X336095523Y-114750000D01*
X322250000Y-113250000D02*
X327594670Y-113250000D01*
X340345523Y-119000000D02*
X343750000Y-119000000D01*
X343750000Y-119000000D02*
X344750000Y-118000000D01*
X327594670Y-113250000D02*
X329094670Y-114750000D01*
%TO.N,/slave2_of_2/U_Input_Fuses/Cell_Fused.2*%
X317061187Y-120688813D02*
X317534300Y-120215700D01*
X329425000Y-119825000D02*
X329750000Y-119500000D01*
X347000000Y-118500000D02*
X347000000Y-118000000D01*
X317534300Y-120215700D02*
X317534300Y-120210113D01*
X344750000Y-119000000D02*
X346500000Y-119000000D01*
X346500000Y-119000000D02*
X347000000Y-118500000D01*
X317534300Y-120210113D02*
X318244413Y-119500000D01*
X329100000Y-119500000D02*
X329425000Y-119825000D01*
X315325500Y-120688813D02*
X317061187Y-120688813D01*
X344250000Y-119500000D02*
X344750000Y-119000000D01*
X318244413Y-119500000D02*
X329100000Y-119500000D01*
X329750000Y-119500000D02*
X344250000Y-119500000D01*
%TO.N,/slave2_of_2/U_Input_Fuses/Cell_Fused.3*%
X344500000Y-120250000D02*
X345250000Y-119500000D01*
X338675000Y-120575000D02*
X339000000Y-120250000D01*
X322250000Y-120000000D02*
X328539339Y-120000000D01*
X339000000Y-120250000D02*
X344500000Y-120250000D01*
X328539339Y-120000000D02*
X329114339Y-120575000D01*
X329114339Y-120575000D02*
X338675000Y-120575000D01*
X349250000Y-119000000D02*
X349250000Y-118000000D01*
X348750000Y-119500000D02*
X349250000Y-119000000D01*
X345250000Y-119500000D02*
X348750000Y-119500000D01*
X321500000Y-120750000D02*
X322250000Y-120000000D01*
%TO.N,/slave2_of_2/U_Input_Fuses/Cell_Fused.4*%
X330250000Y-121750000D02*
X343957106Y-121750000D01*
X350500000Y-120000000D02*
X351500000Y-119000000D01*
X343957106Y-121750000D02*
X345707106Y-120000000D01*
X329875000Y-122125000D02*
X330250000Y-121750000D01*
X351500000Y-119000000D02*
X351500000Y-118000000D01*
X345707106Y-120000000D02*
X350500000Y-120000000D01*
%TO.N,/slave2_of_2/U_Input_Fuses/Cell_Fused.5*%
X326750000Y-128250000D02*
X336500000Y-128250000D01*
X325946443Y-127446443D02*
X320651700Y-127446443D01*
X342500000Y-122250000D02*
X336500000Y-128250000D01*
X326750000Y-128250000D02*
X325946443Y-127446443D01*
X344750000Y-122250000D02*
X342500000Y-122250000D01*
X353500000Y-119250000D02*
X352250000Y-120500000D01*
X346500000Y-120500000D02*
X344750000Y-122250000D01*
X353500000Y-118000000D02*
X353500000Y-119250000D01*
X352250000Y-120500000D02*
X346500000Y-120500000D01*
%TO.N,/slave2_of_2/U_Input_Fuses/Cell_Fused.6*%
X338750000Y-153000000D02*
X344500000Y-153000000D01*
X352500000Y-154000000D02*
X353750000Y-155250000D01*
X335000000Y-148500000D02*
X335000000Y-136000000D01*
X335000000Y-136000000D02*
X334750000Y-135750000D01*
X353750000Y-155250000D02*
X353750000Y-156750000D01*
X338750000Y-153000000D02*
X338750000Y-152250000D01*
X344500000Y-153000000D02*
X345500000Y-154000000D01*
X338750000Y-152250000D02*
X335000000Y-148500000D01*
X345500000Y-154000000D02*
X352500000Y-154000000D01*
%TO.N,/slave2_of_2/U_Input_Fuses/Cell_Fused.7*%
X351500000Y-155750000D02*
X351250000Y-155500000D01*
X341438919Y-155500000D02*
X341425500Y-155486581D01*
X351500000Y-156750000D02*
X351500000Y-155750000D01*
X351250000Y-155500000D02*
X341438919Y-155500000D01*
%TO.N,/slave2_of_2/U_Input_Fuses/Cell_Fused.8*%
X340222742Y-157750000D02*
X330750000Y-157750000D01*
X341972742Y-156000000D02*
X340222742Y-157750000D01*
X330500000Y-158000000D02*
X330750000Y-157750000D01*
X347500000Y-156000000D02*
X341972742Y-156000000D01*
X320250000Y-158000000D02*
X330500000Y-158000000D01*
X349250000Y-156750000D02*
X348500000Y-156000000D01*
X348500000Y-156000000D02*
X347500000Y-156000000D01*
%TO.N,/slave2_of_2/U_Input_Fuses/Cell_Fused.9*%
X334250000Y-169750000D02*
X334250000Y-168750000D01*
X344500000Y-163500000D02*
X347000000Y-161000000D01*
X339500000Y-163500000D02*
X344500000Y-163500000D01*
X347000000Y-161000000D02*
X347000000Y-156750000D01*
X334250000Y-168750000D02*
X339500000Y-163500000D01*
%TO.N,/slave2_of_2/U_Input_Fuses/Cell_Fused.10*%
X339250000Y-163000000D02*
X338250000Y-164000000D01*
X339250000Y-163000000D02*
X332500000Y-169750000D01*
X332500000Y-169750000D02*
X327500000Y-169750000D01*
X338250000Y-164000000D02*
X336000000Y-164000000D01*
X344750000Y-156750000D02*
X344750000Y-161500000D01*
X331250000Y-165000000D02*
X330750000Y-164500000D01*
X335000000Y-165000000D02*
X331250000Y-165000000D01*
X343250000Y-163000000D02*
X339250000Y-163000000D01*
X336000000Y-164000000D02*
X335000000Y-165000000D01*
X344750000Y-161500000D02*
X343250000Y-163000000D01*
%TO.N,/slave2_of_2/U_Input_Fuses/Cell_Fused.11*%
X324000000Y-165000000D02*
X324000000Y-164500000D01*
X335690046Y-165500000D02*
X324500000Y-165500000D01*
X336345023Y-164845023D02*
X335690046Y-165500000D01*
X324500000Y-165500000D02*
X324000000Y-165000000D01*
%TO.N,/slave1_of_2/SDA1*%
X171000000Y-122500000D02*
X163405000Y-130095000D01*
X163405000Y-130095000D02*
X159750000Y-130095000D01*
X187376742Y-133127239D02*
X187376742Y-133250500D01*
X185499503Y-131250000D02*
X187376742Y-133127239D01*
X171000000Y-122125500D02*
X171000000Y-122500000D01*
%TO.N,/slave1_of_2/SCL1*%
X184500000Y-132000000D02*
X185250000Y-132750000D01*
X184500000Y-131250000D02*
X184500000Y-132000000D01*
%TO.N,/slave1_of_2/SDA2*%
X167500000Y-154250000D02*
X167500000Y-153000000D01*
X162750000Y-148250000D02*
X159750000Y-148250000D01*
X175250000Y-155000000D02*
X182750000Y-147500000D01*
X182750000Y-147500000D02*
X187250000Y-147500000D01*
X167500000Y-153000000D02*
X162750000Y-148250000D01*
X170425500Y-155000000D02*
X175250000Y-155000000D01*
X159750000Y-148250000D02*
X159250000Y-147750000D01*
X170000000Y-154574500D02*
X170425500Y-155000000D01*
D23*
%TO.N,/slave1_of_2/SCL2*%
X186974695Y-148750000D02*
X190750000Y-148750000D01*
D21*
X174750000Y-151500000D02*
X174750000Y-154000000D01*
X169750000Y-146500000D02*
X174750000Y-151500000D01*
D23*
X186525000Y-149199695D02*
X186974695Y-148750000D01*
X182500000Y-153250000D02*
X186525000Y-149225000D01*
X186525000Y-149225000D02*
X186525000Y-149199695D01*
D21*
X159750000Y-146500000D02*
X169750000Y-146500000D01*
D23*
X177400000Y-155850000D02*
X180000000Y-153250000D01*
X170000000Y-155850000D02*
X177400000Y-155850000D01*
X180000000Y-153250000D02*
X182500000Y-153250000D01*
D21*
%TO.N,Net-(IC5-A)*%
X204250000Y-121125000D02*
X204375000Y-121250000D01*
X217250000Y-121250000D02*
X219000000Y-119500000D01*
X204375000Y-121250000D02*
X217250000Y-121250000D01*
%TO.N,Net-(IC6-A)*%
X214900000Y-158000000D02*
X213000000Y-158000000D01*
%TO.N,Net-(IC9-A)*%
X207970023Y-111750000D02*
X208690046Y-112470023D01*
X208690046Y-112470023D02*
X219220023Y-112470023D01*
X219220023Y-112470023D02*
X219500000Y-112750000D01*
%TO.N,Net-(IC11-A)*%
X218750000Y-162500000D02*
X218250000Y-163000000D01*
X219250000Y-162500000D02*
X218750000Y-162500000D01*
X218250000Y-163000000D02*
X213000000Y-163000000D01*
%TO.N,Net-(IC13-A)*%
X216413000Y-126250000D02*
X219000000Y-126250000D01*
%TO.N,/slave2_of_2/SDA2*%
X299750000Y-154500000D02*
X282299500Y-154500000D01*
X276750000Y-147655000D02*
X278750000Y-147655000D01*
X282299500Y-154500000D02*
X282250000Y-154549500D01*
X301000000Y-153250000D02*
X299750000Y-154500000D01*
X302342621Y-142697408D02*
X301552592Y-142697408D01*
X301552592Y-142697408D02*
X301000000Y-143250000D01*
X278750000Y-147655000D02*
X282250000Y-151155000D01*
X282250000Y-151155000D02*
X282250000Y-154549500D01*
X301000000Y-143250000D02*
X301000000Y-153250000D01*
%TO.N,/slave2_of_2/SCL2*%
X299957107Y-155000000D02*
X283750000Y-155000000D01*
X282419816Y-155779977D02*
X282970023Y-155779977D01*
X283750000Y-155000000D02*
X282970023Y-155779977D01*
X276000000Y-149360161D02*
X282419816Y-155779977D01*
X276000000Y-146385000D02*
X276000000Y-149360161D01*
X301500000Y-144312349D02*
X301500000Y-153457107D01*
X301500000Y-153457107D02*
X299957107Y-155000000D01*
X302136849Y-143675500D02*
X301500000Y-144312349D01*
%TO.N,/slave2_of_2/SDA1*%
X278000000Y-122500000D02*
X278000000Y-121400500D01*
X301500000Y-127617766D02*
X301500000Y-128700000D01*
X276750000Y-123750000D02*
X278000000Y-122500000D01*
X299750000Y-125750000D02*
X299750000Y-125867766D01*
X299750000Y-125867766D02*
X301500000Y-127617766D01*
X276750000Y-124750000D02*
X276750000Y-123750000D01*
%TO.N,/slave2_of_2/SCL1*%
X299500000Y-128000000D02*
X301300000Y-129800000D01*
X299500000Y-127000000D02*
X299500000Y-128000000D01*
%TO.N,Net-(IC17-A)*%
X321188839Y-121500500D02*
X321189339Y-121500000D01*
X322560661Y-120750000D02*
X327310661Y-120750000D01*
X327310661Y-120750000D02*
X330500000Y-123939339D01*
X330500000Y-123939339D02*
X330500000Y-127200000D01*
X321810661Y-121500000D02*
X322560661Y-120750000D01*
X321189339Y-121500000D02*
X321810661Y-121500000D01*
X318500000Y-121500500D02*
X321188839Y-121500500D01*
%TO.N,Net-(IC21-A)*%
X318750000Y-113000000D02*
X319500000Y-112250000D01*
X319500000Y-112250000D02*
X327750000Y-112250000D01*
X327750000Y-112250000D02*
X329250000Y-113750000D01*
%TO.N,Net-(IC22-A)*%
X334500000Y-148500000D02*
X334500000Y-137250000D01*
X334000000Y-149000000D02*
X334500000Y-148500000D01*
X331250000Y-149000000D02*
X334000000Y-149000000D01*
X334500000Y-137250000D02*
X334250000Y-137000000D01*
%TO.N,Net-(IC25-A)*%
X328250000Y-163000000D02*
X328250000Y-162250000D01*
X318654977Y-163654977D02*
X319059954Y-163250000D01*
X328000000Y-163250000D02*
X328250000Y-163000000D01*
X319059954Y-163250000D02*
X328000000Y-163250000D01*
%TO.N,Net-(IC28-A)*%
X319809954Y-163750000D02*
X333250000Y-163750000D01*
X333250000Y-163750000D02*
X335000000Y-162000000D01*
X318779977Y-164779977D02*
X319809954Y-163750000D01*
%TO.N,/slave1_of_2/U_Primary_ADBMS/IN_M1*%
X141250000Y-140250000D02*
X129500000Y-152000000D01*
X185250000Y-140250000D02*
X141250000Y-140250000D01*
%TO.N,/slave1_of_2/U_Primary_ADBMS/IN_P1*%
X141500000Y-141250000D02*
X185750000Y-141250000D01*
X129595023Y-153154977D02*
X141500000Y-141250000D01*
X185750000Y-141250000D02*
X186250000Y-140750000D01*
%TO.N,/slave1_of_2/U_Primary_ADBMS/OUT_M1*%
X141750000Y-142250000D02*
X183250000Y-142250000D01*
X129690046Y-154309954D02*
X141750000Y-142250000D01*
X183250000Y-142250000D02*
X184500000Y-143500000D01*
%TO.N,/slave1_of_2/U_Primary_ADBMS/OUT_P1*%
X183000000Y-144250000D02*
X187000000Y-144250000D01*
X187000000Y-144250000D02*
X188000000Y-143250000D01*
X129750000Y-155500000D02*
X142000000Y-143250000D01*
X182000000Y-143250000D02*
X183000000Y-144250000D01*
X142000000Y-143250000D02*
X182000000Y-143250000D01*
%TO.N,/slave1_of_2/U_Secondary_ADBMS/IN_M1*%
X184750000Y-166500000D02*
X184750000Y-161000000D01*
X150250000Y-167750000D02*
X151500000Y-169000000D01*
X184750000Y-161000000D02*
X182250000Y-158500000D01*
X182250000Y-158500000D02*
X182250000Y-156074500D01*
X182250000Y-156074500D02*
X184250000Y-154074500D01*
X174750000Y-169000000D02*
X176750000Y-167000000D01*
X151500000Y-169000000D02*
X174750000Y-169000000D01*
X145500000Y-167750000D02*
X150250000Y-167750000D01*
X184250000Y-167000000D02*
X184750000Y-166500000D01*
X176750000Y-167000000D02*
X184250000Y-167000000D01*
%TO.N,/slave1_of_2/U_Secondary_ADBMS/IN_P1*%
X184500000Y-169750000D02*
X185500000Y-168750000D01*
X185500000Y-168750000D02*
X185500000Y-160500000D01*
X183000000Y-156750000D02*
X185225500Y-154524500D01*
X146250000Y-169750000D02*
X184500000Y-169750000D01*
X185225500Y-154524500D02*
X185500000Y-154524500D01*
X183000000Y-158000000D02*
X183000000Y-156750000D01*
X185500000Y-160500000D02*
X183000000Y-158000000D01*
%TO.N,/slave1_of_2/U_Secondary_ADBMS/OUT_M1*%
X184000000Y-158000000D02*
X184000000Y-157000000D01*
X186250000Y-160250000D02*
X184000000Y-158000000D01*
X185000000Y-170500000D02*
X186250000Y-169250000D01*
X186250000Y-169250000D02*
X186250000Y-160250000D01*
X147000000Y-170500000D02*
X185000000Y-170500000D01*
%TO.N,/slave1_of_2/U_Secondary_ADBMS/OUT_P1*%
X186750000Y-169750000D02*
X185250000Y-171250000D01*
X185250000Y-171250000D02*
X147750000Y-171250000D01*
X186750000Y-158209974D02*
X186750000Y-169750000D01*
X188104987Y-156854987D02*
X186750000Y-158209974D01*
%TO.N,/slave1_of_2/U_Passive_Balancing/S5*%
X201500000Y-134500000D02*
X199750000Y-134500000D01*
X202750000Y-129000000D02*
X202750000Y-133250000D01*
X206000000Y-125750000D02*
X202750000Y-129000000D01*
X207750000Y-125750000D02*
X206000000Y-125750000D01*
X202750000Y-133250000D02*
X201500000Y-134500000D01*
%TO.N,/slave1_of_2/U_Passive_Balancing/S10*%
X206750000Y-152000000D02*
X205750000Y-151000000D01*
X211250500Y-151999503D02*
X211250003Y-152000000D01*
X205750000Y-144000000D02*
X205000000Y-143250000D01*
X211250003Y-152000000D02*
X206750000Y-152000000D01*
X212940988Y-151999057D02*
X212941931Y-152000000D01*
X204000000Y-139500000D02*
X203500000Y-139500000D01*
X205000000Y-143250000D02*
X205000000Y-140500000D01*
X217250000Y-152000000D02*
X217500000Y-151750000D01*
X205750000Y-151000000D02*
X205750000Y-144000000D01*
X205000000Y-140500000D02*
X204000000Y-139500000D01*
X212941931Y-152000000D02*
X217250000Y-152000000D01*
%TO.N,/slave1_of_2/U_Passive_Balancing/S4*%
X202000000Y-132250000D02*
X200750000Y-133500000D01*
X202000000Y-128750000D02*
X202000000Y-132250000D01*
X200750000Y-133500000D02*
X198750000Y-133500000D01*
X218000000Y-122000000D02*
X205000000Y-122000000D01*
X204250000Y-126500000D02*
X202000000Y-128750000D01*
X219000000Y-121000000D02*
X218000000Y-122000000D01*
X205000000Y-122000000D02*
X204250000Y-122750000D01*
X204250000Y-122750000D02*
X204250000Y-126500000D01*
%TO.N,/slave1_of_2/U_Passive_Balancing/S9*%
X205750000Y-140000000D02*
X204250000Y-138500000D01*
X211250500Y-151000000D02*
X207250000Y-151000000D01*
X217000000Y-151000000D02*
X218000000Y-151000000D01*
X206500000Y-143500000D02*
X205750000Y-142750000D01*
X213000000Y-151000000D02*
X213250000Y-151250000D01*
X221250000Y-154250000D02*
X221250000Y-158000000D01*
X216750000Y-151250000D02*
X217000000Y-151000000D01*
X205750000Y-142750000D02*
X205750000Y-140000000D01*
X213250000Y-151250000D02*
X216750000Y-151250000D01*
X204250000Y-138500000D02*
X203500000Y-138500000D01*
X218000000Y-151000000D02*
X221250000Y-154250000D01*
X207250000Y-151000000D02*
X206500000Y-150250000D01*
X206500000Y-150250000D02*
X206500000Y-143500000D01*
%TO.N,/slave1_of_2/U_Passive_Balancing/S3*%
X201250000Y-131500000D02*
X201250000Y-128500000D01*
X201250000Y-128500000D02*
X203500000Y-126250000D01*
X207750000Y-115439339D02*
X208689339Y-114500000D01*
X207164214Y-115439339D02*
X207750000Y-115439339D01*
X203500000Y-126250000D02*
X203500000Y-119103553D01*
X198000000Y-132500000D02*
X200250000Y-132500000D01*
X203500000Y-119103553D02*
X207164214Y-115439339D01*
X200250000Y-132500000D02*
X201250000Y-131500000D01*
X208689339Y-114500000D02*
X208750000Y-114500000D01*
%TO.N,/slave1_of_2/U_Passive_Balancing/S8*%
X207250000Y-149250000D02*
X207250000Y-143000000D01*
X211701796Y-150031396D02*
X211670400Y-150000000D01*
X206500000Y-139625000D02*
X204375000Y-137500000D01*
X211670400Y-150000000D02*
X208000000Y-150000000D01*
X208000000Y-150000000D02*
X207250000Y-149250000D01*
X207250000Y-143000000D02*
X206500000Y-142250000D01*
X204375000Y-137500000D02*
X202750000Y-137500000D01*
X206500000Y-142250000D02*
X206500000Y-139625000D01*
%TO.N,/slave1_of_2/U_Passive_Balancing/S2*%
X200500000Y-128250000D02*
X200500000Y-130500000D01*
X218500000Y-113500000D02*
X208250000Y-113500000D01*
X208250000Y-113500000D02*
X202750000Y-119000000D01*
X202750000Y-126000000D02*
X200500000Y-128250000D01*
X202750000Y-119000000D02*
X202750000Y-126000000D01*
X200500000Y-130500000D02*
X199500000Y-131500000D01*
X219250000Y-114250000D02*
X218500000Y-113500000D01*
X199500000Y-131500000D02*
X198000000Y-131500000D01*
%TO.N,/slave1_of_2/U_Passive_Balancing/S7*%
X205419339Y-128250000D02*
X204250000Y-129419339D01*
X209000000Y-128250000D02*
X205419339Y-128250000D01*
X204250000Y-129419339D02*
X204250000Y-134750000D01*
X204250000Y-134750000D02*
X202500000Y-136500000D01*
X202500000Y-136500000D02*
X201750000Y-136500000D01*
%TO.N,/slave1_of_2/U_Passive_Balancing/S12*%
X204250000Y-157250000D02*
X204250000Y-144500000D01*
X204250000Y-144500000D02*
X203500000Y-143750000D01*
X203500000Y-143750000D02*
X203500000Y-141500000D01*
X209065300Y-162065300D02*
X204250000Y-157250000D01*
X216000000Y-162065300D02*
X209065300Y-162065300D01*
%TO.N,/slave1_of_2/U_Passive_Balancing/S1*%
X208500000Y-108500000D02*
X206500000Y-110500000D01*
X206500000Y-110500000D02*
X206500000Y-114250000D01*
X202000000Y-118750000D02*
X202000000Y-125000000D01*
X206500000Y-114250000D02*
X202000000Y-118750000D01*
%TO.N,/slave1_of_2/U_Passive_Balancing/S6*%
X201750000Y-135500000D02*
X203500000Y-133750000D01*
X203500000Y-129250000D02*
X205250000Y-127500000D01*
X205250000Y-127500000D02*
X219000000Y-127500000D01*
X200750000Y-135500000D02*
X201750000Y-135500000D01*
X203500000Y-133750000D02*
X203500000Y-129250000D01*
%TO.N,/slave1_of_2/U_Passive_Balancing/S11*%
X205000000Y-144250000D02*
X204250000Y-143500000D01*
X205000000Y-156750000D02*
X205000000Y-144250000D01*
X222029977Y-162220023D02*
X221059954Y-161250000D01*
X204250000Y-140750000D02*
X204000000Y-140500000D01*
X209500000Y-161250000D02*
X205000000Y-156750000D01*
X221059954Y-161250000D02*
X209500000Y-161250000D01*
X204000000Y-140500000D02*
X203500000Y-140500000D01*
X204250000Y-143500000D02*
X204250000Y-140750000D01*
D23*
%TO.N,/slave2_of_2/U_Secondary_ADBMS/IN_M1*%
X290145000Y-109745000D02*
X290200000Y-109800000D01*
D21*
X257450000Y-111350000D02*
X258300000Y-110500000D01*
X140215000Y-113785000D02*
X149715000Y-113785000D01*
X214250000Y-106500000D02*
X216750000Y-109000000D01*
X216750000Y-109000000D02*
X219750000Y-109000000D01*
X300900000Y-126310660D02*
X302400000Y-127810660D01*
X290200000Y-109800000D02*
X300900000Y-120500000D01*
X302400000Y-139307106D02*
X308800000Y-145707106D01*
X302400000Y-127810660D02*
X302400000Y-139307106D01*
X308800000Y-150224598D02*
X308762299Y-150262299D01*
X149715000Y-113785000D02*
X151000000Y-112500000D01*
X237814213Y-111100000D02*
X238914213Y-110000000D01*
X119500000Y-134500000D02*
X140215000Y-113785000D01*
X186000000Y-106500000D02*
X214250000Y-106500000D01*
X308800000Y-145707106D02*
X308800000Y-150224598D01*
X282750000Y-110500000D02*
X283450000Y-109800000D01*
X221290000Y-110540000D02*
X234368248Y-110540000D01*
X234928248Y-111100000D02*
X237814213Y-111100000D01*
D23*
X287750000Y-109800000D02*
X287805000Y-109745000D01*
D21*
X180000001Y-112500000D02*
X186000000Y-106500000D01*
X258300000Y-110500000D02*
X282750000Y-110500000D01*
X219750000Y-109000000D02*
X221290000Y-110540000D01*
D23*
X287805000Y-109745000D02*
X290145000Y-109745000D01*
D21*
X254910600Y-111350000D02*
X257450000Y-111350000D01*
X283450000Y-109800000D02*
X287750000Y-109800000D01*
X300900000Y-120500000D02*
X300900000Y-126310660D01*
X238914213Y-110000000D02*
X253560600Y-110000000D01*
X151000000Y-112500000D02*
X180000001Y-112500000D01*
X253560600Y-110000000D02*
X254910600Y-111350000D01*
X234368248Y-110540000D02*
X234928248Y-111100000D01*
%TO.N,/slave2_of_2/U_Secondary_ADBMS/IN_P1*%
X309600000Y-150485259D02*
X309600000Y-145600000D01*
X259942894Y-108150000D02*
X257242894Y-110850000D01*
X221790000Y-110040000D02*
X220000000Y-108250000D01*
X150711855Y-112000000D02*
X149426855Y-113285000D01*
X255117707Y-110850000D02*
X253767707Y-109500000D01*
X308774253Y-151261730D02*
X308823529Y-151261730D01*
X283700000Y-109200000D02*
X282650000Y-108150000D01*
X309600000Y-145600000D02*
X303000000Y-139000000D01*
X308823529Y-151261730D02*
X309600000Y-150485259D01*
X301400000Y-126103554D02*
X301400000Y-120292894D01*
X179792894Y-112000000D02*
X150711855Y-112000000D01*
D23*
X290402106Y-109295000D02*
X290428553Y-109321447D01*
D21*
X238707106Y-109500000D02*
X237607106Y-110600000D01*
X120250000Y-130000000D02*
X119500000Y-130000000D01*
X287750000Y-109200000D02*
X283700000Y-109200000D01*
X234357321Y-110040000D02*
X221790000Y-110040000D01*
D23*
X235100000Y-110600000D02*
X234540000Y-110040000D01*
D21*
X282650000Y-108150000D02*
X259942894Y-108150000D01*
X149426855Y-113285000D02*
X136965000Y-113285000D01*
D23*
X234540000Y-110040000D02*
X234357321Y-110040000D01*
X237607106Y-110600000D02*
X235100000Y-110600000D01*
D21*
X303000000Y-139000000D02*
X303000000Y-127703554D01*
X301400000Y-120292894D02*
X290428553Y-109321447D01*
X303000000Y-127703554D02*
X301400000Y-126103554D01*
X257242894Y-110850000D02*
X255117707Y-110850000D01*
D23*
X287845000Y-109295000D02*
X290402106Y-109295000D01*
D21*
X220000000Y-108250000D02*
X217000000Y-108250000D01*
X214750000Y-106000000D02*
X185792893Y-106000000D01*
X253767707Y-109500000D02*
X238707106Y-109500000D01*
X217000000Y-108250000D02*
X214750000Y-106000000D01*
D23*
X287750000Y-109200000D02*
X287845000Y-109295000D01*
D21*
X136965000Y-113285000D02*
X120250000Y-130000000D01*
X185792893Y-106000000D02*
X179792894Y-112000000D01*
%TO.N,/slave2_of_2/U_Secondary_ADBMS/OUT_M1*%
X301900000Y-125807106D02*
X301900000Y-118900000D01*
X308750000Y-153250000D02*
X310200000Y-151800000D01*
D23*
X234676828Y-109500000D02*
X234641474Y-109500000D01*
D21*
X303600000Y-138600000D02*
X303600000Y-127507106D01*
X253974813Y-109000000D02*
X238500000Y-109000000D01*
X135950000Y-112250000D02*
X147000000Y-112250000D01*
X303600000Y-127507106D02*
X301900000Y-125807106D01*
X301900000Y-118900000D02*
X290400000Y-107400000D01*
X148031289Y-111215000D02*
X148505000Y-111215000D01*
X180000000Y-109500000D02*
X184000000Y-105500000D01*
X255324813Y-110350000D02*
X253974813Y-109000000D01*
D23*
X287795000Y-107205000D02*
X290205000Y-107205000D01*
D21*
X215228553Y-105500000D02*
X217228553Y-107500000D01*
X287700000Y-107300000D02*
X287600000Y-107400000D01*
X119700000Y-128500000D02*
X135950000Y-112250000D01*
X259985788Y-107400000D02*
X257035788Y-110350000D01*
X220500000Y-107750000D02*
X231000000Y-107750000D01*
D23*
X287700000Y-107300000D02*
X287795000Y-107205000D01*
D21*
X238500000Y-109000000D02*
X237400000Y-110100000D01*
D23*
X290205000Y-107205000D02*
X290400000Y-107400000D01*
D21*
X119700000Y-128500000D02*
X119750000Y-128500000D01*
X147000000Y-112250000D02*
X147425000Y-111825000D01*
X217228553Y-107500000D02*
X220250000Y-107500000D01*
X184000000Y-105500000D02*
X215228553Y-105500000D01*
X147425000Y-111821289D02*
X148031289Y-111215000D01*
X151720000Y-108000000D02*
X174750000Y-108000000D01*
D23*
X235276828Y-110100000D02*
X234676828Y-109500000D01*
D21*
X232750000Y-109500000D02*
X234641474Y-109500000D01*
X310200000Y-151800000D02*
X310200000Y-145200000D01*
X257035788Y-110350000D02*
X255324813Y-110350000D01*
X220250000Y-107500000D02*
X220500000Y-107750000D01*
X287600000Y-107400000D02*
X259985788Y-107400000D01*
X176250000Y-109500000D02*
X180000000Y-109500000D01*
X174750000Y-108000000D02*
X176250000Y-109500000D01*
D23*
X237400000Y-110100000D02*
X235276828Y-110100000D01*
D21*
X148505000Y-111215000D02*
X151720000Y-108000000D01*
X231000000Y-107750000D02*
X232750000Y-109500000D01*
X310200000Y-145200000D02*
X303600000Y-138600000D01*
X147425000Y-111825000D02*
X147425000Y-111821289D01*
%TO.N,/slave2_of_2/U_Secondary_ADBMS/OUT_P1*%
X262725517Y-105000000D02*
X260825517Y-106900000D01*
X302400000Y-118600000D02*
X302400000Y-125600000D01*
X231750000Y-107250000D02*
X221175246Y-107250000D01*
X177750000Y-107500000D02*
X151261147Y-107500000D01*
X304230036Y-138290697D02*
X304689339Y-138750000D01*
X253750000Y-108000000D02*
X253500000Y-107750000D01*
X151261147Y-107500000D02*
X148046147Y-110715000D01*
D23*
X290550000Y-106750000D02*
X290545000Y-106755000D01*
D21*
X304205036Y-128605036D02*
X304205036Y-138230341D01*
X308811159Y-154249503D02*
X308750000Y-154249503D01*
X217417893Y-106750000D02*
X215667893Y-105000000D01*
X147824182Y-110715000D02*
X146789182Y-111750000D01*
X221175246Y-107250000D02*
X220675246Y-106750000D01*
X130500000Y-111750000D02*
X118250000Y-124000000D01*
X304200000Y-127400000D02*
X304200000Y-128600000D01*
X310800000Y-152260662D02*
X308811159Y-154249503D01*
X302400000Y-125600000D02*
X304200000Y-127400000D01*
X179700000Y-107000000D02*
X178250000Y-107000000D01*
X178250000Y-107000000D02*
X177750000Y-107500000D01*
X220675246Y-106750000D02*
X217417893Y-106750000D01*
X310800000Y-144850305D02*
X310800000Y-152260662D01*
X304230036Y-138255341D02*
X304230036Y-138290697D01*
X283542894Y-106750000D02*
X281792894Y-105000000D01*
X287515000Y-106755000D02*
X287510000Y-106750000D01*
D23*
X290545000Y-106755000D02*
X287515000Y-106755000D01*
D21*
X181700000Y-105000000D02*
X179700000Y-107000000D01*
X281792894Y-105000000D02*
X262725517Y-105000000D01*
X304205036Y-138230341D02*
X304230036Y-138255341D01*
X304200000Y-128600000D02*
X304205036Y-128605036D01*
X148046147Y-110715000D02*
X147824182Y-110715000D01*
X232250000Y-107750000D02*
X231750000Y-107250000D01*
X146789182Y-111750000D02*
X130500000Y-111750000D01*
X287510000Y-106750000D02*
X283542894Y-106750000D01*
X215667893Y-105000000D02*
X181700000Y-105000000D01*
X260825517Y-106900000D02*
X259494493Y-106900000D01*
X258394493Y-108000000D02*
X253750000Y-108000000D01*
X304689339Y-138750000D02*
X304699695Y-138750000D01*
X290550000Y-106750000D02*
X302400000Y-118600000D01*
X253500000Y-107750000D02*
X232250000Y-107750000D01*
X304699695Y-138750000D02*
X310800000Y-144850305D01*
X259494493Y-106900000D02*
X258394493Y-108000000D01*
%TO.N,/slave2_of_2/U_Primary_ADBMS/IN_M1*%
X260446934Y-106400000D02*
X259100000Y-106400000D01*
X172265000Y-104500000D02*
X152500000Y-104500000D01*
X141500000Y-106500000D02*
X112500497Y-106500000D01*
X147839041Y-110215000D02*
X147617075Y-110215000D01*
X220590000Y-105910000D02*
X217702893Y-105910000D01*
X145500000Y-110500000D02*
X141500000Y-106500000D01*
X221750000Y-104750000D02*
X220590000Y-105910000D01*
X289600000Y-104600000D02*
X286800000Y-104600000D01*
X258000000Y-107500000D02*
X253957107Y-107500000D01*
X283750000Y-106250000D02*
X282000000Y-104500000D01*
D23*
X152160000Y-104840000D02*
X152160000Y-105894040D01*
D21*
X285150000Y-106250000D02*
X283750000Y-106250000D01*
X232500000Y-107250000D02*
X230000000Y-104750000D01*
X253957107Y-107500000D02*
X253707107Y-107250000D01*
X216292893Y-104500000D02*
X178048467Y-104500000D01*
X152500000Y-104500000D02*
X152160000Y-104840000D01*
X304750000Y-127150000D02*
X302900000Y-125300000D01*
X217702893Y-105910000D02*
X216292893Y-104500000D01*
X304750000Y-136395464D02*
X304750000Y-127150000D01*
X286800000Y-104600000D02*
X285150000Y-106250000D01*
X253707107Y-107250000D02*
X232500000Y-107250000D01*
X302900000Y-117900000D02*
X289600000Y-104600000D01*
X112500497Y-106500000D02*
X112500000Y-106499503D01*
X282000000Y-104500000D02*
X262346934Y-104500000D01*
X262346934Y-104500000D02*
X260446934Y-106400000D01*
X147332075Y-110500000D02*
X145500000Y-110500000D01*
X151334040Y-106720000D02*
X147839041Y-110215000D01*
D23*
X152160000Y-105894040D02*
X151334040Y-106720000D01*
D21*
X176298467Y-106250000D02*
X174015000Y-106250000D01*
X305089567Y-136735031D02*
X304750000Y-136395464D01*
X302900000Y-125300000D02*
X302900000Y-117900000D01*
X178048467Y-104500000D02*
X176298467Y-106250000D01*
X147617075Y-110215000D02*
X147332075Y-110500000D01*
X259100000Y-106400000D02*
X258000000Y-107500000D01*
X174015000Y-106250000D02*
X172265000Y-104500000D01*
X230000000Y-104750000D02*
X221750000Y-104750000D01*
D23*
%TO.N,/slave2_of_2/U_Primary_ADBMS/IN_P1*%
X151660000Y-105686934D02*
X151126934Y-106220000D01*
D21*
X260164212Y-104000000D02*
X258879212Y-105285000D01*
X144750000Y-108000000D02*
X142250000Y-105500000D01*
X257183526Y-105285000D02*
X256933526Y-105035000D01*
X256933526Y-105035000D02*
X253742106Y-105035000D01*
X253457106Y-104750000D02*
X235564212Y-104750000D01*
X235564212Y-104750000D02*
X235279212Y-105035000D01*
X152250000Y-104000000D02*
X151660000Y-104590000D01*
X289750000Y-104000000D02*
X260164212Y-104000000D01*
X306000000Y-136942630D02*
X306000000Y-133707106D01*
X142250000Y-105500000D02*
X112500000Y-105500000D01*
X305142630Y-137800000D02*
X306000000Y-136942630D01*
X305250000Y-132957106D02*
X305250000Y-126850000D01*
X306000000Y-133707106D02*
X305250000Y-132957106D01*
X232376934Y-104090000D02*
X219330178Y-104090000D01*
X219330178Y-104090000D02*
X219114427Y-104305751D01*
D23*
X151660000Y-104590000D02*
X151660000Y-105686934D01*
D21*
X305250000Y-126850000D02*
X303400000Y-125000000D01*
X303400000Y-125000000D02*
X303400000Y-117650000D01*
X303400000Y-117650000D02*
X289750000Y-104000000D01*
X151126934Y-106220000D02*
X149346934Y-108000000D01*
X304954536Y-137800000D02*
X305142630Y-137800000D01*
X253742106Y-105035000D02*
X253457106Y-104750000D01*
X235279212Y-105035000D02*
X233321934Y-105035000D01*
X258879212Y-105285000D02*
X257183526Y-105285000D01*
X216835786Y-104000000D02*
X152250000Y-104000000D01*
X217141537Y-104305751D02*
X216835786Y-104000000D01*
X219114427Y-104305751D02*
X217141537Y-104305751D01*
X149346934Y-108000000D02*
X144750000Y-108000000D01*
X233321934Y-105035000D02*
X232376934Y-104090000D01*
%TO.N,/slave2_of_2/U_Primary_ADBMS/OUT_M1*%
X253949213Y-104535000D02*
X253664213Y-104250000D01*
X258707106Y-104750000D02*
X258500000Y-104750000D01*
X305750000Y-126550000D02*
X303900000Y-124700000D01*
D23*
X257320278Y-104750000D02*
X258500000Y-104750000D01*
X257070278Y-104500000D02*
X257320278Y-104750000D01*
D21*
X233577894Y-104535000D02*
X232632894Y-103590000D01*
X142391474Y-104250000D02*
X114250000Y-104250000D01*
X218907320Y-103805751D02*
X217348644Y-103805751D01*
X217348644Y-103805751D02*
X217042893Y-103500000D01*
X308600000Y-137995805D02*
X308750000Y-137845805D01*
X256715000Y-104535000D02*
X253949213Y-104535000D01*
X308750000Y-137845805D02*
X308750000Y-135750000D01*
X145641474Y-107500000D02*
X142391474Y-104250000D01*
X217042893Y-103500000D02*
X151087923Y-103500000D01*
X149750000Y-106250000D02*
X148500000Y-107500000D01*
X305750000Y-132750000D02*
X305750000Y-126550000D01*
X149750000Y-104837923D02*
X149750000Y-106250000D01*
X235357105Y-104250000D02*
X235072105Y-104535000D01*
X151087923Y-103500000D02*
X149750000Y-104837923D01*
X303900000Y-124700000D02*
X303900000Y-117400000D01*
X259957106Y-103500000D02*
X258707106Y-104750000D01*
D23*
X256750000Y-104500000D02*
X257070278Y-104500000D01*
D21*
X256750000Y-104500000D02*
X256715000Y-104535000D01*
X148500000Y-107500000D02*
X145641474Y-107500000D01*
X219123071Y-103590000D02*
X218907320Y-103805751D01*
X308750000Y-135750000D02*
X305750000Y-132750000D01*
X290000000Y-103500000D02*
X259957106Y-103500000D01*
X253664213Y-104250000D02*
X235357105Y-104250000D01*
X232632894Y-103590000D02*
X219123071Y-103590000D01*
X235072105Y-104535000D02*
X233577894Y-104535000D01*
X303900000Y-117400000D02*
X290000000Y-103500000D01*
%TO.N,/slave2_of_2/U_Primary_ADBMS/OUT_P1*%
X142749500Y-103249500D02*
X114250000Y-103249500D01*
X217250000Y-103000000D02*
X217555751Y-103305751D01*
X218700213Y-103305751D02*
X218915964Y-103090000D01*
X144285000Y-104785000D02*
X149095818Y-104785000D01*
X235149998Y-103750000D02*
X253871320Y-103750000D01*
X150880817Y-103000000D02*
X217250000Y-103000000D01*
D23*
X258490000Y-104260000D02*
X258500000Y-104250000D01*
D21*
X253871320Y-103750000D02*
X254121320Y-104000000D01*
X309800000Y-136000000D02*
X306250000Y-132450000D01*
X306250000Y-126250000D02*
X304400000Y-124400000D01*
X234865000Y-104035000D02*
X235149998Y-103750000D01*
D23*
X257581644Y-104260000D02*
X258490000Y-104260000D01*
D21*
X306250000Y-132450000D02*
X306250000Y-126250000D01*
X290207106Y-103000000D02*
X259749999Y-103000000D01*
X309800000Y-138769222D02*
X309800000Y-136000000D01*
X232840001Y-103090000D02*
X233785000Y-104035000D01*
X142749500Y-103249500D02*
X144285000Y-104785000D01*
D23*
X257321644Y-104000000D02*
X257581644Y-104260000D01*
D21*
X304400000Y-117192894D02*
X290207106Y-103000000D01*
X254121320Y-104000000D02*
X256500000Y-104000000D01*
X233785000Y-104035000D02*
X234865000Y-104035000D01*
X304400000Y-124400000D02*
X304400000Y-117192894D01*
X217555751Y-103305751D02*
X218700213Y-103305751D01*
D23*
X256500000Y-104000000D02*
X257321644Y-104000000D01*
D21*
X308669173Y-139900049D02*
X309800000Y-138769222D01*
X259749999Y-103000000D02*
X258500000Y-104250000D01*
X149095818Y-104785000D02*
X150880817Y-103000000D01*
X218915964Y-103090000D02*
X232840001Y-103090000D01*
%TO.N,/slave2_of_2/U_Passive_Balancing/S5*%
X322000000Y-131741470D02*
X322000000Y-130750000D01*
X318372609Y-126007099D02*
X318811948Y-125567760D01*
X319433270Y-125567760D02*
X319756931Y-125891421D01*
X322000000Y-130750000D02*
X318372609Y-127122609D01*
X319756931Y-125891421D02*
X327168533Y-125891421D01*
X318372609Y-127122609D02*
X318372609Y-126007099D01*
X327168533Y-125891421D02*
X329279977Y-123779977D01*
X318811948Y-125567760D02*
X319433270Y-125567760D01*
X320980746Y-132269254D02*
X321472216Y-132269254D01*
X321472216Y-132269254D02*
X322000000Y-131741470D01*
%TO.N,/slave2_of_2/U_Passive_Balancing/S10*%
X323750000Y-139275500D02*
X323750000Y-152189839D01*
X323751000Y-139274500D02*
X323750000Y-139275500D01*
X320250000Y-155689839D02*
X320250000Y-155750000D01*
X323750000Y-152189839D02*
X320250000Y-155689839D01*
%TO.N,/slave2_of_2/U_Passive_Balancing/S4*%
X318604842Y-125067760D02*
X324676298Y-125067760D01*
X320750000Y-131250000D02*
X320750000Y-130207107D01*
X317872609Y-125799992D02*
X318604842Y-125067760D01*
X320750000Y-130207107D02*
X317872609Y-127329716D01*
X319250000Y-118750000D02*
X326250000Y-118750000D01*
X324676298Y-125067760D02*
X324749959Y-125141421D01*
X317872609Y-127329716D02*
X317872609Y-125799992D01*
%TO.N,/slave2_of_2/U_Passive_Balancing/S9*%
X327990367Y-138774223D02*
X327999503Y-138783359D01*
X327999503Y-138783359D02*
X327999503Y-151500000D01*
%TO.N,/slave2_of_2/U_Passive_Balancing/S3*%
X319500000Y-130250000D02*
X319500000Y-129750000D01*
X317372609Y-125592885D02*
X318823575Y-124141919D01*
X318823575Y-124141919D02*
X324750246Y-124141919D01*
X319500000Y-129750000D02*
X317372609Y-127622609D01*
X317372609Y-127622609D02*
X317372609Y-125592885D01*
%TO.N,/slave2_of_2/U_Passive_Balancing/S8*%
X322100000Y-135100000D02*
X322113773Y-135113773D01*
X329000000Y-138500000D02*
X329000000Y-151500000D01*
X322113773Y-135113773D02*
X325613773Y-135113773D01*
X325613773Y-135113773D02*
X329000000Y-138500000D01*
%TO.N,/slave2_of_2/U_Passive_Balancing/S2*%
X319000000Y-111500000D02*
X325249500Y-111500000D01*
X318750000Y-111750000D02*
X319000000Y-111500000D01*
X312000000Y-129750000D02*
X312000000Y-126500000D01*
X312000000Y-126500000D02*
X315356116Y-123143884D01*
X315356116Y-123143884D02*
X324696105Y-123143884D01*
%TO.N,/slave2_of_2/U_Passive_Balancing/S7*%
X329000000Y-131750000D02*
X329000000Y-130000000D01*
X326620514Y-134129486D02*
X329000000Y-131750000D01*
X322500500Y-134129486D02*
X326620514Y-134129486D01*
%TO.N,/slave2_of_2/U_Passive_Balancing/S12*%
X325999500Y-140250000D02*
X326000000Y-140250500D01*
X326000000Y-140250500D02*
X326000000Y-151500000D01*
%TO.N,/slave2_of_2/U_Passive_Balancing/S1*%
X315542894Y-122250000D02*
X309822871Y-127970023D01*
X324587500Y-122104977D02*
X324442477Y-122250000D01*
X309822871Y-127970023D02*
X309822871Y-128322871D01*
X318750000Y-105250000D02*
X324500000Y-105250000D01*
X324442477Y-122250000D02*
X315542894Y-122250000D01*
%TO.N,/slave2_of_2/U_Passive_Balancing/S6*%
X319122609Y-126978013D02*
X319122609Y-126317760D01*
X321800000Y-133250000D02*
X322500000Y-132550000D01*
X322500000Y-130500000D02*
X320750000Y-128750000D01*
X320750000Y-128750000D02*
X320750000Y-128605404D01*
X320750000Y-128605404D02*
X319122609Y-126978013D01*
X322500000Y-132550000D02*
X322500000Y-130500000D01*
%TO.N,/slave2_of_2/U_Passive_Balancing/S11*%
X327000000Y-139525796D02*
X327000000Y-151500000D01*
X326973704Y-139499500D02*
X327000000Y-139525796D01*
%TO.N,/slave1_of_2/U_Analog_IN/OPA_TEMP_prim*%
X169250000Y-120500000D02*
X169000000Y-120500000D01*
X166980746Y-118480746D02*
X166980746Y-118230746D01*
X169000000Y-120500000D02*
X166980746Y-118480746D01*
%TO.N,/slave2_of_2/U_Analog_IN/OPA_TEMP_prim*%
X276470023Y-118220023D02*
X276470023Y-118720023D01*
X276470023Y-118720023D02*
X278249503Y-120499503D01*
X278249503Y-120499503D02*
X278750000Y-120499503D01*
D22*
%TO.N,Net-(U20-VO)*%
X287750000Y-115750000D02*
X287750000Y-121250000D01*
X287750000Y-121250000D02*
X286000000Y-123000000D01*
%TO.N,Net-(U10-+VOUT)*%
X293250000Y-163250000D02*
X291500000Y-161500000D01*
X291500000Y-161500000D02*
X291500000Y-159250000D01*
%TO.N,Net-(U12-+VOUT)*%
X293500000Y-121250000D02*
X293500000Y-125750000D01*
X288700000Y-116450000D02*
X289500000Y-117250000D01*
X289500000Y-117250000D02*
X293500000Y-121250000D01*
X288700000Y-110790000D02*
X288700000Y-116450000D01*
%TD*%
M02*
