%TF.GenerationSoftware,KiCad,Pcbnew,7.0.8*%
%TF.CreationDate,2024-01-12T20:03:45+01:00*%
%TF.ProjectId,BMS-Slave,424d532d-536c-4617-9665-2e6b69636164,rev?*%
%TF.SameCoordinates,Original*%
%TF.FileFunction,Plated,1,4,PTH,Drill*%
%TF.FilePolarity,Positive*%
%FSLAX46Y46*%
G04 Gerber Fmt 4.6, Leading zero omitted, Abs format (unit mm)*
G04 Created by KiCad (PCBNEW 7.0.8) date 2024-01-12 20:03:45*
%MOMM*%
%LPD*%
G01*
G04 APERTURE LIST*
%TA.AperFunction,ViaDrill*%
%ADD10C,0.400000*%
%TD*%
%TA.AperFunction,ComponentDrill*%
%ADD11C,0.940000*%
%TD*%
%TA.AperFunction,ComponentDrill*%
%ADD12C,1.000000*%
%TD*%
%TA.AperFunction,ComponentDrill*%
%ADD13C,1.020000*%
%TD*%
G04 APERTURE END LIST*
D10*
X93100000Y-170200000D03*
X93250000Y-103600000D03*
X109100000Y-168200000D03*
X109200000Y-106000000D03*
X112500000Y-105500000D03*
X112500000Y-106499503D03*
X114250000Y-103249500D03*
X114250000Y-104250000D03*
X117500000Y-131000000D03*
X117750000Y-125000000D03*
X118250000Y-124000000D03*
X118750000Y-143250000D03*
X118750000Y-149250500D03*
X119500000Y-130000000D03*
X119500000Y-134500000D03*
X119700000Y-128500000D03*
X129500000Y-152000000D03*
X129595023Y-153154977D03*
X129690046Y-154309954D03*
X129750000Y-155500000D03*
X145500000Y-167750000D03*
X146250000Y-169750000D03*
X147000000Y-170500000D03*
X147750000Y-171250000D03*
X150000000Y-117250000D03*
X150250000Y-156750000D03*
X154500000Y-117250000D03*
X154500000Y-150500000D03*
X154750000Y-156750000D03*
X157000000Y-149250000D03*
X157270434Y-154270434D03*
X159250000Y-147750000D03*
X159750000Y-130095000D03*
X159750000Y-146500000D03*
X160725000Y-156750000D03*
X161250000Y-121750000D03*
X162407107Y-117700000D03*
X163720023Y-156779977D03*
X166500000Y-117250000D03*
X166500000Y-150250000D03*
X166980746Y-118230746D03*
X167500000Y-154250000D03*
X168875000Y-155125000D03*
X169250000Y-120500000D03*
X169250000Y-122125000D03*
X169309954Y-119500000D03*
X170000000Y-154574500D03*
X170000000Y-155850000D03*
X171000000Y-122125500D03*
X171000000Y-149750000D03*
X171250000Y-156750000D03*
X171700000Y-113900000D03*
X172000000Y-124250000D03*
X172000000Y-160189162D03*
X172470023Y-117220023D03*
X173500000Y-148500000D03*
X174000000Y-118000000D03*
X174750000Y-154000000D03*
X175250000Y-116500000D03*
X175250000Y-135250000D03*
X175250000Y-138250000D03*
X175339604Y-155789604D03*
X175500000Y-124500000D03*
X176500000Y-159250000D03*
X176720023Y-152470023D03*
X176750000Y-114000000D03*
X177279977Y-154029977D03*
X178250000Y-149750000D03*
X178750000Y-125500000D03*
X180000000Y-135725000D03*
X180250000Y-156750000D03*
X180975000Y-124750000D03*
X181500000Y-117000000D03*
X181750000Y-149750000D03*
X182500000Y-145000000D03*
X183400000Y-135750000D03*
X184000000Y-157000000D03*
X184250000Y-115000000D03*
X184250000Y-154074500D03*
X184500000Y-131250000D03*
X184500000Y-143500000D03*
X185250000Y-132750000D03*
X185250000Y-140250000D03*
X185499503Y-131250000D03*
X185500000Y-154524500D03*
X186250000Y-140750000D03*
X187250000Y-145250000D03*
X187250000Y-147500000D03*
X187250000Y-149500000D03*
X187376742Y-133250500D03*
X188000000Y-143250000D03*
X188104987Y-156854987D03*
X190500000Y-129250000D03*
X190750000Y-148750000D03*
X191000000Y-134000000D03*
X191000000Y-135500000D03*
X191140192Y-136689693D03*
X191250000Y-151000000D03*
X191500000Y-147750000D03*
X191970023Y-132529977D03*
X192000000Y-130750000D03*
X192200500Y-137750000D03*
X192250000Y-166250000D03*
X192782477Y-144250500D03*
X194500000Y-131000000D03*
X194500000Y-132000000D03*
X194500000Y-133000000D03*
X194500000Y-134000000D03*
X194500000Y-135000000D03*
X194500000Y-136000000D03*
X194500000Y-137000000D03*
X194500000Y-138000000D03*
X194500000Y-139000000D03*
X194500000Y-140000000D03*
X194500000Y-141000000D03*
X194500000Y-142000000D03*
X194828552Y-142943959D03*
X197500000Y-127000000D03*
X197750000Y-120500000D03*
X197750000Y-155750000D03*
X198000000Y-131500000D03*
X198000000Y-132500000D03*
X198250000Y-154750000D03*
X198750000Y-133500000D03*
X198750000Y-153750000D03*
X199075250Y-126075250D03*
X199250000Y-152750000D03*
X199750000Y-134500000D03*
X199750000Y-151750000D03*
X200250000Y-150750000D03*
X200750000Y-135500000D03*
X200750000Y-149750000D03*
X201029977Y-126529977D03*
X201175500Y-163000000D03*
X201250000Y-148750000D03*
X201750000Y-136500000D03*
X201750000Y-147750000D03*
X202000000Y-125000000D03*
X202250000Y-117250000D03*
X202250000Y-146750000D03*
X202750000Y-137500000D03*
X202750000Y-145750000D03*
X203000000Y-162500000D03*
X203250000Y-116250000D03*
X203250000Y-144750000D03*
X203500000Y-138500000D03*
X203500000Y-139500000D03*
X203500000Y-140500000D03*
X203500000Y-141500000D03*
X203625000Y-110125000D03*
X204250000Y-121125000D03*
X204500000Y-136250000D03*
X204654977Y-119154977D03*
X205250000Y-129615000D03*
X205750000Y-122750000D03*
X205779977Y-137529977D03*
X206500000Y-108500000D03*
X207250000Y-107500000D03*
X207500000Y-169500000D03*
X207750000Y-125750000D03*
X207970023Y-111750000D03*
X208000000Y-119000000D03*
X208500000Y-108500000D03*
X208750000Y-114500000D03*
X208750000Y-115500000D03*
X208750000Y-168750000D03*
X209000000Y-128250000D03*
X210500000Y-132615000D03*
X210500000Y-133885000D03*
X210500000Y-160500000D03*
X211250500Y-151000000D03*
X211250500Y-151999503D03*
X211701796Y-150031396D03*
X212250000Y-133000000D03*
X212539317Y-149485903D03*
X212625000Y-148250000D03*
X212940988Y-151999057D03*
X213000000Y-151000000D03*
X213000000Y-158000000D03*
X213000000Y-159000000D03*
X213000000Y-163000000D03*
X213000500Y-156876268D03*
X214500000Y-164500000D03*
X214900000Y-156899500D03*
X214900000Y-158000000D03*
X214900000Y-158999503D03*
X216000000Y-162065300D03*
X216413000Y-126250000D03*
X217500000Y-151750000D03*
X217500000Y-169499500D03*
X218055752Y-102555751D03*
X218500000Y-148250000D03*
X219000000Y-109799999D03*
X219000000Y-119500000D03*
X219000000Y-121000000D03*
X219000000Y-126250000D03*
X219000000Y-127500000D03*
X219250000Y-114250000D03*
X219250000Y-162500000D03*
X219500000Y-112750000D03*
X220736850Y-123486850D03*
X220875000Y-130125000D03*
X221029977Y-164279977D03*
X221250000Y-158000000D03*
X221375000Y-116625000D03*
X222029977Y-162220023D03*
X224500000Y-125225000D03*
X228750000Y-160250000D03*
X230000000Y-124250000D03*
X230250000Y-117750000D03*
X231000000Y-154500000D03*
X232500000Y-157250000D03*
X234750000Y-117750000D03*
X234750000Y-150750000D03*
X234750000Y-157250000D03*
X236000000Y-124250000D03*
X239250000Y-117750000D03*
X239250000Y-150750000D03*
X239250000Y-157250000D03*
X240750000Y-124250000D03*
X240750000Y-126250000D03*
X241177484Y-148167530D03*
X241500000Y-117750000D03*
X243750000Y-117750000D03*
X243750000Y-157250000D03*
X244000000Y-111500000D03*
X244250000Y-165500000D03*
X259500000Y-117250000D03*
X260000000Y-156750000D03*
X264000000Y-117250000D03*
X264500000Y-156750000D03*
X270475000Y-156750000D03*
X271000000Y-122000000D03*
X272050500Y-118100000D03*
X272225500Y-154250000D03*
X273500000Y-149250000D03*
X274312250Y-157194099D03*
X276000000Y-117000000D03*
X276000000Y-146385000D03*
X276470023Y-118220023D03*
X276750000Y-124750000D03*
X276750000Y-147655000D03*
X278000000Y-121400500D03*
X278750000Y-119500000D03*
X278750000Y-120499503D03*
X279250000Y-155100000D03*
X280000000Y-117000000D03*
X280100000Y-122150000D03*
X281000000Y-156750000D03*
X282250000Y-154549500D03*
X282500000Y-117749500D03*
X282925000Y-148250000D03*
X282970023Y-155779977D03*
X284900000Y-116800000D03*
X286000000Y-123000000D03*
X287750000Y-115750000D03*
X287750000Y-151225000D03*
X289500000Y-155750000D03*
X290250000Y-157750000D03*
X291500000Y-159250000D03*
X291718750Y-113968750D03*
X292000000Y-137750000D03*
X292500000Y-117000000D03*
X293000000Y-134000000D03*
X293500000Y-125750000D03*
X293750000Y-146500000D03*
X297000000Y-155750000D03*
X297250000Y-134250000D03*
X297250000Y-136250000D03*
X297724500Y-146697158D03*
X297750000Y-128250000D03*
X298000500Y-127000000D03*
X298250000Y-151250000D03*
X299500000Y-127000000D03*
X299750000Y-125750000D03*
X301300000Y-129800000D03*
X301500000Y-112750000D03*
X301500000Y-128700000D03*
X301750000Y-140000000D03*
X302136849Y-143675500D03*
X302342621Y-142697408D03*
X304954536Y-137800000D03*
X305089567Y-136735031D03*
X308500000Y-103750000D03*
X308600000Y-137995805D03*
X308669173Y-139900049D03*
X308750000Y-131250000D03*
X308750000Y-153250000D03*
X308750000Y-154249503D03*
X308762299Y-150262299D03*
X308774253Y-151261730D03*
X309000000Y-126250000D03*
X309822871Y-128322871D03*
X310000000Y-130749500D03*
X310369796Y-129250000D03*
X311000000Y-106000000D03*
X311000000Y-107750000D03*
X311000500Y-143250000D03*
X311118843Y-131221771D03*
X311119296Y-128250000D03*
X311549500Y-148073466D03*
X312000000Y-129750000D03*
X312000000Y-130750000D03*
X312000000Y-131750000D03*
X312000000Y-132750000D03*
X312000000Y-133750000D03*
X312000000Y-134749503D03*
X312000000Y-135750000D03*
X312000000Y-136750000D03*
X312000000Y-137750000D03*
X312000000Y-138750000D03*
X312000000Y-139749503D03*
X312824500Y-121800000D03*
X314250000Y-105750000D03*
X314750000Y-109099500D03*
X314875000Y-160875000D03*
X315029977Y-114000000D03*
X315250000Y-128024500D03*
X315250000Y-153500000D03*
X315325500Y-120688813D03*
X315500000Y-105000000D03*
X315500000Y-129500000D03*
X315750000Y-107000000D03*
X315750000Y-152500000D03*
X316250000Y-117000000D03*
X316250000Y-151500000D03*
X316500000Y-158750000D03*
X316750000Y-150500000D03*
X317250000Y-149500000D03*
X317520000Y-117000000D03*
X317750000Y-148500000D03*
X317775500Y-171250000D03*
X317837500Y-168912500D03*
X318250000Y-147500000D03*
X318500000Y-121500500D03*
X318654977Y-163654977D03*
X318750000Y-103750000D03*
X318750000Y-105250000D03*
X318750000Y-109750000D03*
X318750000Y-111750000D03*
X318750000Y-113000000D03*
X318750000Y-146500000D03*
X318779977Y-164779977D03*
X319122609Y-126317760D03*
X319250000Y-118750000D03*
X319250000Y-145500000D03*
X319500000Y-130250000D03*
X319750000Y-108250000D03*
X319750000Y-144500000D03*
X320250000Y-143500000D03*
X320250000Y-155750000D03*
X320250000Y-158000000D03*
X320651700Y-127446443D03*
X320750000Y-131250000D03*
X320971120Y-142500000D03*
X320980746Y-132269254D03*
X321500000Y-114000000D03*
X321500000Y-120750000D03*
X321800000Y-133250000D03*
X322000000Y-169250000D03*
X322100000Y-135100000D03*
X322500500Y-134129486D03*
X323751000Y-139274500D03*
X324000000Y-164500000D03*
X324500000Y-105250000D03*
X324500500Y-152500000D03*
X324587500Y-122104977D03*
X324696105Y-123143884D03*
X324749959Y-125141421D03*
X324750000Y-153750000D03*
X324750246Y-124141919D03*
X325215145Y-137094809D03*
X325249500Y-111500000D03*
X325250000Y-136000000D03*
X325999500Y-140250000D03*
X326000000Y-151500000D03*
X326250000Y-118750000D03*
X326750000Y-128250000D03*
X326973704Y-139499500D03*
X327000000Y-151500000D03*
X327500000Y-169750000D03*
X327990367Y-138774223D03*
X327999503Y-151500000D03*
X328250000Y-162250000D03*
X329000000Y-130000000D03*
X329000000Y-151500000D03*
X329250000Y-110500000D03*
X329250000Y-113750000D03*
X329279977Y-123779977D03*
X329425000Y-119825000D03*
X329500000Y-107000000D03*
X329875000Y-122125000D03*
X330500000Y-127200000D03*
X330750000Y-157750000D03*
X330750000Y-164500000D03*
X331250000Y-149000000D03*
X334250000Y-137000000D03*
X334250000Y-169750000D03*
X334750000Y-135750000D03*
X335000000Y-162000000D03*
X336345023Y-164845023D03*
X336500000Y-128250000D03*
X338750000Y-153000000D03*
X339000000Y-120250000D03*
X339500500Y-118154977D03*
X340250000Y-115250000D03*
X341320023Y-124570023D03*
X341425500Y-155486581D03*
X342129977Y-125879977D03*
X342500000Y-118000000D03*
X343000000Y-147750000D03*
X344750000Y-118000000D03*
X344750000Y-156750000D03*
X346000000Y-152000000D03*
X346250000Y-126250000D03*
X346750000Y-147250000D03*
X347000000Y-118000000D03*
X347000000Y-128750000D03*
X347000000Y-156750000D03*
X347500000Y-148250000D03*
X348000000Y-122250000D03*
X349250000Y-118000000D03*
X349250000Y-156750000D03*
X349499647Y-127499646D03*
X349500000Y-146000000D03*
X349700000Y-128747858D03*
X350000000Y-152250000D03*
X351500000Y-118000000D03*
X351500000Y-156750000D03*
X352000000Y-110750000D03*
X352750000Y-122250000D03*
X353500000Y-118000000D03*
X353750000Y-156750000D03*
X353750000Y-162750000D03*
X353875000Y-143375000D03*
D11*
%TO.C,U3*%
X179250000Y-105710000D03*
X179250000Y-108250000D03*
X179250000Y-110790000D03*
%TO.C,U8*%
X183470000Y-163250000D03*
X183470000Y-165790000D03*
X183470000Y-168330000D03*
%TO.C,U12*%
X288700000Y-105710000D03*
X288700000Y-108250000D03*
X288700000Y-110790000D03*
%TO.C,U10*%
X293250000Y-163250000D03*
X293250000Y-165790000D03*
X293250000Y-168330000D03*
D12*
%TO.C,TP1*%
X146000000Y-115600000D03*
%TO.C,TP2*%
X146400000Y-159600000D03*
%TO.C,TP3*%
X186000000Y-118750000D03*
%TO.C,TP6*%
X188500000Y-159000000D03*
%TO.C,TP5*%
X189250000Y-121750000D03*
%TO.C,TP8*%
X192000000Y-159000000D03*
%TO.C,TP4*%
X192250000Y-124750000D03*
%TO.C,TP7*%
X195500000Y-159000000D03*
%TO.C,TP13*%
X255250000Y-115000000D03*
%TO.C,TP9*%
X256250000Y-158750000D03*
%TO.C,TP10*%
X298750000Y-159250000D03*
%TO.C,TP12*%
X302250000Y-159250000D03*
%TO.C,TP11*%
X305500000Y-160250000D03*
%TO.C,TP14*%
X306250000Y-114750000D03*
%TO.C,TP16*%
X306250000Y-118750000D03*
%TO.C,TP15*%
X306250000Y-123250000D03*
D13*
%TO.C,J2*%
X94255000Y-129000000D03*
X94255000Y-132000000D03*
%TO.C,J1*%
X94275000Y-142000000D03*
X94275000Y-145000000D03*
%TO.C,J2*%
X97255000Y-129000000D03*
X97255000Y-132000000D03*
%TO.C,J1*%
X97275000Y-142000000D03*
X97275000Y-145000000D03*
%TO.C,J7*%
X146500000Y-106250000D03*
X146500000Y-109250000D03*
%TO.C,J8*%
X152500000Y-164810000D03*
X152500000Y-167810000D03*
%TO.C,J5*%
X153750000Y-106250000D03*
X153750000Y-109250000D03*
%TO.C,J8*%
X155500000Y-164810000D03*
X155500000Y-167810000D03*
%TO.C,J5*%
X156750000Y-106250000D03*
X156750000Y-109250000D03*
%TO.C,J8*%
X158500000Y-164810000D03*
X158500000Y-167810000D03*
%TO.C,J5*%
X159750000Y-106250000D03*
X159750000Y-109250000D03*
%TO.C,J8*%
X161500000Y-164810000D03*
X161500000Y-167810000D03*
%TO.C,J5*%
X162750000Y-106250000D03*
X162750000Y-109250000D03*
%TO.C,J8*%
X164500000Y-164810000D03*
X164500000Y-167810000D03*
%TO.C,J5*%
X165750000Y-106250000D03*
X165750000Y-109250000D03*
%TO.C,J8*%
X167500000Y-164810000D03*
X167500000Y-167810000D03*
%TO.C,J5*%
X168750000Y-106250000D03*
X168750000Y-109250000D03*
%TO.C,J8*%
X170500000Y-164810000D03*
X170500000Y-167810000D03*
%TO.C,J5*%
X171750000Y-106250000D03*
X171750000Y-109250000D03*
%TO.C,J8*%
X173500000Y-164810000D03*
X173500000Y-167810000D03*
%TO.C,J4*%
X223000000Y-105940000D03*
X223000000Y-108940000D03*
X226000000Y-105940000D03*
X226000000Y-108940000D03*
X229000000Y-105940000D03*
X229000000Y-108940000D03*
%TO.C,J6*%
X230000000Y-165060000D03*
X230000000Y-168060000D03*
X233000000Y-165060000D03*
X233000000Y-168060000D03*
X236000000Y-165060000D03*
X236000000Y-168060000D03*
%TO.C,J3*%
X236250000Y-106000000D03*
X236250000Y-109000000D03*
%TO.C,J13*%
X256040000Y-106250000D03*
X256040000Y-109250000D03*
%TO.C,J14*%
X262250000Y-164750000D03*
X262250000Y-167750000D03*
%TO.C,J11*%
X263250000Y-106250000D03*
X263250000Y-109250000D03*
%TO.C,J14*%
X265250000Y-164750000D03*
X265250000Y-167750000D03*
%TO.C,J11*%
X266250000Y-106250000D03*
X266250000Y-109250000D03*
%TO.C,J14*%
X268250000Y-164750000D03*
X268250000Y-167750000D03*
%TO.C,J11*%
X269250000Y-106250000D03*
X269250000Y-109250000D03*
%TO.C,J14*%
X271250000Y-164750000D03*
X271250000Y-167750000D03*
%TO.C,J11*%
X272250000Y-106250000D03*
X272250000Y-109250000D03*
%TO.C,J14*%
X274250000Y-164750000D03*
X274250000Y-167750000D03*
%TO.C,J11*%
X275250000Y-106250000D03*
X275250000Y-109250000D03*
%TO.C,J14*%
X277250000Y-164750000D03*
X277250000Y-167750000D03*
%TO.C,J11*%
X278250000Y-106250000D03*
X278250000Y-109250000D03*
%TO.C,J14*%
X280250000Y-164750000D03*
X280250000Y-167750000D03*
%TO.C,J11*%
X281250000Y-106250000D03*
X281250000Y-109250000D03*
%TO.C,J14*%
X283250000Y-164750000D03*
X283250000Y-167750000D03*
%TO.C,J10*%
X333000000Y-105940000D03*
X333000000Y-108940000D03*
X336000000Y-105940000D03*
X336000000Y-108940000D03*
X339000000Y-105940000D03*
X339000000Y-108940000D03*
%TO.C,J12*%
X340000000Y-165000000D03*
X340000000Y-168000000D03*
X343000000Y-165000000D03*
X343000000Y-168000000D03*
X346000000Y-165000000D03*
X346000000Y-168000000D03*
%TO.C,J9*%
X346250000Y-106000000D03*
X346250000Y-109000000D03*
M02*
