%TF.GenerationSoftware,KiCad,Pcbnew,7.0.8*%
%TF.CreationDate,2024-01-22T14:24:46+01:00*%
%TF.ProjectId,BMS-Master,424d532d-4d61-4737-9465-722e6b696361,rev?*%
%TF.SameCoordinates,Original*%
%TF.FileFunction,Soldermask,Top*%
%TF.FilePolarity,Negative*%
%FSLAX46Y46*%
G04 Gerber Fmt 4.6, Leading zero omitted, Abs format (unit mm)*
G04 Created by KiCad (PCBNEW 7.0.8) date 2024-01-22 14:24:46*
%MOMM*%
%LPD*%
G01*
G04 APERTURE LIST*
G04 Aperture macros list*
%AMRoundRect*
0 Rectangle with rounded corners*
0 $1 Rounding radius*
0 $2 $3 $4 $5 $6 $7 $8 $9 X,Y pos of 4 corners*
0 Add a 4 corners polygon primitive as box body*
4,1,4,$2,$3,$4,$5,$6,$7,$8,$9,$2,$3,0*
0 Add four circle primitives for the rounded corners*
1,1,$1+$1,$2,$3*
1,1,$1+$1,$4,$5*
1,1,$1+$1,$6,$7*
1,1,$1+$1,$8,$9*
0 Add four rect primitives between the rounded corners*
20,1,$1+$1,$2,$3,$4,$5,0*
20,1,$1+$1,$4,$5,$6,$7,0*
20,1,$1+$1,$6,$7,$8,$9,0*
20,1,$1+$1,$8,$9,$2,$3,0*%
G04 Aperture macros list end*
%ADD10C,0.711200*%
%ADD11C,0.836200*%
%ADD12C,0.010000*%
%ADD13R,1.700000X1.700000*%
%ADD14O,1.700000X1.700000*%
%ADD15RoundRect,0.250000X-1.000000X1.500000X-1.000000X-1.500000X1.000000X-1.500000X1.000000X1.500000X0*%
%ADD16RoundRect,0.102000X-1.395000X0.370000X-1.395000X-0.370000X1.395000X-0.370000X1.395000X0.370000X0*%
%ADD17R,1.270000X0.508000*%
%ADD18RoundRect,0.225000X-0.250000X0.225000X-0.250000X-0.225000X0.250000X-0.225000X0.250000X0.225000X0*%
%ADD19C,1.020000*%
%ADD20R,1.520000X1.520000*%
%ADD21C,1.520000*%
%ADD22RoundRect,0.200000X-0.200000X-0.275000X0.200000X-0.275000X0.200000X0.275000X-0.200000X0.275000X0*%
%ADD23RoundRect,0.200000X-0.275000X0.200000X-0.275000X-0.200000X0.275000X-0.200000X0.275000X0.200000X0*%
%ADD24RoundRect,0.225000X-0.225000X-0.250000X0.225000X-0.250000X0.225000X0.250000X-0.225000X0.250000X0*%
%ADD25RoundRect,0.200000X0.275000X-0.200000X0.275000X0.200000X-0.275000X0.200000X-0.275000X-0.200000X0*%
%ADD26R,0.508000X1.193800*%
%ADD27C,2.000000*%
%ADD28RoundRect,0.225000X0.225000X0.250000X-0.225000X0.250000X-0.225000X-0.250000X0.225000X-0.250000X0*%
%ADD29RoundRect,0.225000X0.250000X-0.225000X0.250000X0.225000X-0.250000X0.225000X-0.250000X-0.225000X0*%
%ADD30RoundRect,0.218750X-0.218750X-0.256250X0.218750X-0.256250X0.218750X0.256250X-0.218750X0.256250X0*%
%ADD31R,1.825000X1.680000*%
%ADD32R,0.650000X1.850000*%
%ADD33RoundRect,0.102000X-0.450000X-0.500000X0.450000X-0.500000X0.450000X0.500000X-0.450000X0.500000X0*%
%ADD34RoundRect,0.102000X-0.850000X-0.275000X0.850000X-0.275000X0.850000X0.275000X-0.850000X0.275000X0*%
%ADD35C,1.270000*%
%ADD36RoundRect,0.200000X0.200000X0.275000X-0.200000X0.275000X-0.200000X-0.275000X0.200000X-0.275000X0*%
%ADD37RoundRect,0.075000X-0.675000X-0.075000X0.675000X-0.075000X0.675000X0.075000X-0.675000X0.075000X0*%
%ADD38RoundRect,0.075000X-0.075000X-0.675000X0.075000X-0.675000X0.075000X0.675000X-0.075000X0.675000X0*%
%ADD39RoundRect,0.150000X0.150000X-0.587500X0.150000X0.587500X-0.150000X0.587500X-0.150000X-0.587500X0*%
%ADD40RoundRect,0.250000X-0.600000X0.400000X-0.600000X-0.400000X0.600000X-0.400000X0.600000X0.400000X0*%
%ADD41R,2.500000X1.500000*%
%ADD42O,2.500000X1.500000*%
%ADD43R,1.550000X0.700000*%
%ADD44RoundRect,0.250000X-0.475000X0.250000X-0.475000X-0.250000X0.475000X-0.250000X0.475000X0.250000X0*%
%ADD45RoundRect,0.100000X-0.637500X-0.100000X0.637500X-0.100000X0.637500X0.100000X-0.637500X0.100000X0*%
%ADD46RoundRect,0.102000X0.279400X-0.990600X0.279400X0.990600X-0.279400X0.990600X-0.279400X-0.990600X0*%
%ADD47R,0.800000X0.300000*%
%ADD48R,1.750000X2.600000*%
%ADD49R,1.312279X0.475831*%
%ADD50RoundRect,0.237916X-0.418223X0.000001X0.418223X0.000001X0.418223X-0.000001X-0.418223X-0.000001X0*%
%ADD51RoundRect,0.144000X0.258000X-0.653000X0.258000X0.653000X-0.258000X0.653000X-0.258000X-0.653000X0*%
%ADD52RoundRect,0.218750X0.218750X0.256250X-0.218750X0.256250X-0.218750X-0.256250X0.218750X-0.256250X0*%
%ADD53RoundRect,0.250000X0.475000X-0.250000X0.475000X0.250000X-0.475000X0.250000X-0.475000X-0.250000X0*%
%ADD54R,0.750000X2.350000*%
%ADD55R,0.400000X1.200000*%
%ADD56R,1.066800X1.447800*%
%ADD57R,1.397000X0.279400*%
%ADD58R,1.350000X1.350000*%
%ADD59O,1.350000X1.350000*%
%ADD60R,1.900000X1.500000*%
%ADD61RoundRect,0.150000X-0.875000X-0.150000X0.875000X-0.150000X0.875000X0.150000X-0.875000X0.150000X0*%
%ADD62RoundRect,0.102000X-0.990600X-0.279400X0.990600X-0.279400X0.990600X0.279400X-0.990600X0.279400X0*%
%ADD63C,0.252400*%
%ADD64O,0.252400X0.252400*%
%ADD65C,1.252400*%
%ADD66R,1.300000X0.600000*%
%ADD67RoundRect,0.250000X-0.650000X0.325000X-0.650000X-0.325000X0.650000X-0.325000X0.650000X0.325000X0*%
%ADD68R,0.650000X1.525000*%
%ADD69RoundRect,0.250000X0.325000X0.650000X-0.325000X0.650000X-0.325000X-0.650000X0.325000X-0.650000X0*%
%ADD70RoundRect,0.102000X-0.600000X1.000000X-0.600000X-1.000000X0.600000X-1.000000X0.600000X1.000000X0*%
%ADD71RoundRect,0.150000X0.150000X-0.512500X0.150000X0.512500X-0.150000X0.512500X-0.150000X-0.512500X0*%
%ADD72RoundRect,0.250000X0.300000X-2.050000X0.300000X2.050000X-0.300000X2.050000X-0.300000X-2.050000X0*%
%ADD73RoundRect,0.250002X5.149998X-4.449998X5.149998X4.449998X-5.149998X4.449998X-5.149998X-4.449998X0*%
%ADD74RoundRect,0.075000X-0.725000X-0.075000X0.725000X-0.075000X0.725000X0.075000X-0.725000X0.075000X0*%
%ADD75RoundRect,0.075000X-0.075000X-0.725000X0.075000X-0.725000X0.075000X0.725000X-0.075000X0.725000X0*%
%ADD76R,1.250000X0.500000*%
%ADD77C,4.800000*%
%ADD78C,1.500000*%
%ADD79RoundRect,0.102000X-1.225000X0.800000X-1.225000X-0.800000X1.225000X-0.800000X1.225000X0.800000X0*%
%ADD80R,1.350000X0.900000*%
%ADD81C,3.000000*%
%ADD82R,1.900000X0.750000*%
%ADD83RoundRect,0.218750X-0.256250X0.218750X-0.256250X-0.218750X0.256250X-0.218750X0.256250X0.218750X0*%
%ADD84RoundRect,0.150000X-0.512500X-0.150000X0.512500X-0.150000X0.512500X0.150000X-0.512500X0.150000X0*%
%ADD85RoundRect,0.250000X1.100000X-0.325000X1.100000X0.325000X-1.100000X0.325000X-1.100000X-0.325000X0*%
%ADD86R,0.900000X1.350000*%
%ADD87RoundRect,0.150000X-0.150000X0.512500X-0.150000X-0.512500X0.150000X-0.512500X0.150000X0.512500X0*%
%ADD88RoundRect,0.218750X0.256250X-0.218750X0.256250X0.218750X-0.256250X0.218750X-0.256250X-0.218750X0*%
%ADD89R,1.900000X1.100000*%
%ADD90R,2.600000X3.500000*%
G04 APERTURE END LIST*
D10*
%TO.C,J11*%
X86547350Y-121743000D02*
G75*
G03*
X86547350Y-121743000I-355600J0D01*
G01*
D11*
X88569850Y-124743000D02*
G75*
G03*
X88569850Y-124743000I-418100J0D01*
G01*
X88569850Y-127743000D02*
G75*
G03*
X88569850Y-127743000I-418100J0D01*
G01*
D10*
X86547350Y-133743000D02*
G75*
G03*
X86547350Y-133743000I-355600J0D01*
G01*
D12*
X88987950Y-131579200D02*
X87315550Y-131579200D01*
X87315550Y-129906800D01*
X88987950Y-129906800D01*
X88987950Y-131579200D01*
G36*
X88987950Y-131579200D02*
G01*
X87315550Y-131579200D01*
X87315550Y-129906800D01*
X88987950Y-129906800D01*
X88987950Y-131579200D01*
G37*
%TO.C,P1*%
X107030000Y-226257100D02*
X106630000Y-226257100D01*
X106630000Y-225307100D01*
X107030000Y-225307100D01*
X107030000Y-226257100D01*
G36*
X107030000Y-226257100D02*
G01*
X106630000Y-226257100D01*
X106630000Y-225307100D01*
X107030000Y-225307100D01*
X107030000Y-226257100D01*
G37*
X107030000Y-227972100D02*
X106630000Y-227972100D01*
X106630000Y-227022100D01*
X107030000Y-227022100D01*
X107030000Y-227972100D01*
G36*
X107030000Y-227972100D02*
G01*
X106630000Y-227972100D01*
X106630000Y-227022100D01*
X107030000Y-227022100D01*
X107030000Y-227972100D01*
G37*
X108530000Y-226257100D02*
X108130000Y-226257100D01*
X108130000Y-225307100D01*
X108530000Y-225307100D01*
X108530000Y-226257100D01*
G36*
X108530000Y-226257100D02*
G01*
X108130000Y-226257100D01*
X108130000Y-225307100D01*
X108530000Y-225307100D01*
X108530000Y-226257100D01*
G37*
X108530000Y-227972100D02*
X108130000Y-227972100D01*
X108130000Y-227022100D01*
X108530000Y-227022100D01*
X108530000Y-227972100D01*
G36*
X108530000Y-227972100D02*
G01*
X108130000Y-227972100D01*
X108130000Y-227022100D01*
X108530000Y-227022100D01*
X108530000Y-227972100D01*
G37*
X109030000Y-226257100D02*
X108630000Y-226257100D01*
X108630000Y-225307100D01*
X109030000Y-225307100D01*
X109030000Y-226257100D01*
G36*
X109030000Y-226257100D02*
G01*
X108630000Y-226257100D01*
X108630000Y-225307100D01*
X109030000Y-225307100D01*
X109030000Y-226257100D01*
G37*
X109030000Y-227972100D02*
X108630000Y-227972100D01*
X108630000Y-227022100D01*
X109030000Y-227022100D01*
X109030000Y-227972100D01*
G36*
X109030000Y-227972100D02*
G01*
X108630000Y-227972100D01*
X108630000Y-227022100D01*
X109030000Y-227022100D01*
X109030000Y-227972100D01*
G37*
X109530000Y-226257100D02*
X109130000Y-226257100D01*
X109130000Y-225307100D01*
X109530000Y-225307100D01*
X109530000Y-226257100D01*
G36*
X109530000Y-226257100D02*
G01*
X109130000Y-226257100D01*
X109130000Y-225307100D01*
X109530000Y-225307100D01*
X109530000Y-226257100D01*
G37*
X109530000Y-227972100D02*
X109130000Y-227972100D01*
X109130000Y-227022100D01*
X109530000Y-227022100D01*
X109530000Y-227972100D01*
G36*
X109530000Y-227972100D02*
G01*
X109130000Y-227972100D01*
X109130000Y-227022100D01*
X109530000Y-227022100D01*
X109530000Y-227972100D01*
G37*
X110030000Y-226257100D02*
X109630000Y-226257100D01*
X109630000Y-225307100D01*
X110030000Y-225307100D01*
X110030000Y-226257100D01*
G36*
X110030000Y-226257100D02*
G01*
X109630000Y-226257100D01*
X109630000Y-225307100D01*
X110030000Y-225307100D01*
X110030000Y-226257100D01*
G37*
X110030000Y-227972100D02*
X109630000Y-227972100D01*
X109630000Y-227022100D01*
X110030000Y-227022100D01*
X110030000Y-227972100D01*
G36*
X110030000Y-227972100D02*
G01*
X109630000Y-227972100D01*
X109630000Y-227022100D01*
X110030000Y-227022100D01*
X110030000Y-227972100D01*
G37*
X110530000Y-226257100D02*
X110130000Y-226257100D01*
X110130000Y-225307100D01*
X110530000Y-225307100D01*
X110530000Y-226257100D01*
G36*
X110530000Y-226257100D02*
G01*
X110130000Y-226257100D01*
X110130000Y-225307100D01*
X110530000Y-225307100D01*
X110530000Y-226257100D01*
G37*
X110530000Y-227972100D02*
X110130000Y-227972100D01*
X110130000Y-227022100D01*
X110530000Y-227022100D01*
X110530000Y-227972100D01*
G36*
X110530000Y-227972100D02*
G01*
X110130000Y-227972100D01*
X110130000Y-227022100D01*
X110530000Y-227022100D01*
X110530000Y-227972100D01*
G37*
X111030000Y-226257100D02*
X110630000Y-226257100D01*
X110630000Y-225307100D01*
X111030000Y-225307100D01*
X111030000Y-226257100D01*
G36*
X111030000Y-226257100D02*
G01*
X110630000Y-226257100D01*
X110630000Y-225307100D01*
X111030000Y-225307100D01*
X111030000Y-226257100D01*
G37*
X111030000Y-227972100D02*
X110630000Y-227972100D01*
X110630000Y-227022100D01*
X111030000Y-227022100D01*
X111030000Y-227972100D01*
G36*
X111030000Y-227972100D02*
G01*
X110630000Y-227972100D01*
X110630000Y-227022100D01*
X111030000Y-227022100D01*
X111030000Y-227972100D01*
G37*
X112530000Y-226257100D02*
X112130000Y-226257100D01*
X112130000Y-225307100D01*
X112530000Y-225307100D01*
X112530000Y-226257100D01*
G36*
X112530000Y-226257100D02*
G01*
X112130000Y-226257100D01*
X112130000Y-225307100D01*
X112530000Y-225307100D01*
X112530000Y-226257100D01*
G37*
X112530000Y-227972100D02*
X112130000Y-227972100D01*
X112130000Y-227022100D01*
X112530000Y-227022100D01*
X112530000Y-227972100D01*
G36*
X112530000Y-227972100D02*
G01*
X112130000Y-227972100D01*
X112130000Y-227022100D01*
X112530000Y-227022100D01*
X112530000Y-227972100D01*
G37*
%TO.C,S3*%
X262409000Y-205897500D02*
X261809000Y-205897500D01*
X261809000Y-205197500D01*
X262409000Y-205197500D01*
X262409000Y-205897500D01*
G36*
X262409000Y-205897500D02*
G01*
X261809000Y-205897500D01*
X261809000Y-205197500D01*
X262409000Y-205197500D01*
X262409000Y-205897500D01*
G37*
X260509000Y-205897500D02*
X259909000Y-205897500D01*
X259909000Y-205197500D01*
X260509000Y-205197500D01*
X260509000Y-205897500D01*
G36*
X260509000Y-205897500D02*
G01*
X259909000Y-205897500D01*
X259909000Y-205197500D01*
X260509000Y-205197500D01*
X260509000Y-205897500D01*
G37*
X261459000Y-207897500D02*
X260859000Y-207897500D01*
X260859000Y-207197500D01*
X261459000Y-207197500D01*
X261459000Y-207897500D01*
G36*
X261459000Y-207897500D02*
G01*
X260859000Y-207897500D01*
X260859000Y-207197500D01*
X261459000Y-207197500D01*
X261459000Y-207897500D01*
G37*
%TO.C,S4*%
X268100000Y-158850000D02*
X267400000Y-158850000D01*
X267400000Y-158250000D01*
X268100000Y-158250000D01*
X268100000Y-158850000D01*
G36*
X268100000Y-158850000D02*
G01*
X267400000Y-158850000D01*
X267400000Y-158250000D01*
X268100000Y-158250000D01*
X268100000Y-158850000D01*
G37*
X268100000Y-156950000D02*
X267400000Y-156950000D01*
X267400000Y-156350000D01*
X268100000Y-156350000D01*
X268100000Y-156950000D01*
G36*
X268100000Y-156950000D02*
G01*
X267400000Y-156950000D01*
X267400000Y-156350000D01*
X268100000Y-156350000D01*
X268100000Y-156950000D01*
G37*
X266100000Y-157900000D02*
X265400000Y-157900000D01*
X265400000Y-157300000D01*
X266100000Y-157300000D01*
X266100000Y-157900000D01*
G36*
X266100000Y-157900000D02*
G01*
X265400000Y-157900000D01*
X265400000Y-157300000D01*
X266100000Y-157300000D01*
X266100000Y-157900000D01*
G37*
%TO.C,P2*%
X240605500Y-226831000D02*
X240205500Y-226831000D01*
X240205500Y-225881000D01*
X240605500Y-225881000D01*
X240605500Y-226831000D01*
G36*
X240605500Y-226831000D02*
G01*
X240205500Y-226831000D01*
X240205500Y-225881000D01*
X240605500Y-225881000D01*
X240605500Y-226831000D01*
G37*
X240605500Y-228546000D02*
X240205500Y-228546000D01*
X240205500Y-227596000D01*
X240605500Y-227596000D01*
X240605500Y-228546000D01*
G36*
X240605500Y-228546000D02*
G01*
X240205500Y-228546000D01*
X240205500Y-227596000D01*
X240605500Y-227596000D01*
X240605500Y-228546000D01*
G37*
X242105500Y-226831000D02*
X241705500Y-226831000D01*
X241705500Y-225881000D01*
X242105500Y-225881000D01*
X242105500Y-226831000D01*
G36*
X242105500Y-226831000D02*
G01*
X241705500Y-226831000D01*
X241705500Y-225881000D01*
X242105500Y-225881000D01*
X242105500Y-226831000D01*
G37*
X242105500Y-228546000D02*
X241705500Y-228546000D01*
X241705500Y-227596000D01*
X242105500Y-227596000D01*
X242105500Y-228546000D01*
G36*
X242105500Y-228546000D02*
G01*
X241705500Y-228546000D01*
X241705500Y-227596000D01*
X242105500Y-227596000D01*
X242105500Y-228546000D01*
G37*
X242605500Y-226831000D02*
X242205500Y-226831000D01*
X242205500Y-225881000D01*
X242605500Y-225881000D01*
X242605500Y-226831000D01*
G36*
X242605500Y-226831000D02*
G01*
X242205500Y-226831000D01*
X242205500Y-225881000D01*
X242605500Y-225881000D01*
X242605500Y-226831000D01*
G37*
X242605500Y-228546000D02*
X242205500Y-228546000D01*
X242205500Y-227596000D01*
X242605500Y-227596000D01*
X242605500Y-228546000D01*
G36*
X242605500Y-228546000D02*
G01*
X242205500Y-228546000D01*
X242205500Y-227596000D01*
X242605500Y-227596000D01*
X242605500Y-228546000D01*
G37*
X243105500Y-226831000D02*
X242705500Y-226831000D01*
X242705500Y-225881000D01*
X243105500Y-225881000D01*
X243105500Y-226831000D01*
G36*
X243105500Y-226831000D02*
G01*
X242705500Y-226831000D01*
X242705500Y-225881000D01*
X243105500Y-225881000D01*
X243105500Y-226831000D01*
G37*
X243105500Y-228546000D02*
X242705500Y-228546000D01*
X242705500Y-227596000D01*
X243105500Y-227596000D01*
X243105500Y-228546000D01*
G36*
X243105500Y-228546000D02*
G01*
X242705500Y-228546000D01*
X242705500Y-227596000D01*
X243105500Y-227596000D01*
X243105500Y-228546000D01*
G37*
X243605500Y-226831000D02*
X243205500Y-226831000D01*
X243205500Y-225881000D01*
X243605500Y-225881000D01*
X243605500Y-226831000D01*
G36*
X243605500Y-226831000D02*
G01*
X243205500Y-226831000D01*
X243205500Y-225881000D01*
X243605500Y-225881000D01*
X243605500Y-226831000D01*
G37*
X243605500Y-228546000D02*
X243205500Y-228546000D01*
X243205500Y-227596000D01*
X243605500Y-227596000D01*
X243605500Y-228546000D01*
G36*
X243605500Y-228546000D02*
G01*
X243205500Y-228546000D01*
X243205500Y-227596000D01*
X243605500Y-227596000D01*
X243605500Y-228546000D01*
G37*
X244105500Y-226831000D02*
X243705500Y-226831000D01*
X243705500Y-225881000D01*
X244105500Y-225881000D01*
X244105500Y-226831000D01*
G36*
X244105500Y-226831000D02*
G01*
X243705500Y-226831000D01*
X243705500Y-225881000D01*
X244105500Y-225881000D01*
X244105500Y-226831000D01*
G37*
X244105500Y-228546000D02*
X243705500Y-228546000D01*
X243705500Y-227596000D01*
X244105500Y-227596000D01*
X244105500Y-228546000D01*
G36*
X244105500Y-228546000D02*
G01*
X243705500Y-228546000D01*
X243705500Y-227596000D01*
X244105500Y-227596000D01*
X244105500Y-228546000D01*
G37*
X244605500Y-226831000D02*
X244205500Y-226831000D01*
X244205500Y-225881000D01*
X244605500Y-225881000D01*
X244605500Y-226831000D01*
G36*
X244605500Y-226831000D02*
G01*
X244205500Y-226831000D01*
X244205500Y-225881000D01*
X244605500Y-225881000D01*
X244605500Y-226831000D01*
G37*
X244605500Y-228546000D02*
X244205500Y-228546000D01*
X244205500Y-227596000D01*
X244605500Y-227596000D01*
X244605500Y-228546000D01*
G36*
X244605500Y-228546000D02*
G01*
X244205500Y-228546000D01*
X244205500Y-227596000D01*
X244605500Y-227596000D01*
X244605500Y-228546000D01*
G37*
X246105500Y-226831000D02*
X245705500Y-226831000D01*
X245705500Y-225881000D01*
X246105500Y-225881000D01*
X246105500Y-226831000D01*
G36*
X246105500Y-226831000D02*
G01*
X245705500Y-226831000D01*
X245705500Y-225881000D01*
X246105500Y-225881000D01*
X246105500Y-226831000D01*
G37*
X246105500Y-228546000D02*
X245705500Y-228546000D01*
X245705500Y-227596000D01*
X246105500Y-227596000D01*
X246105500Y-228546000D01*
G36*
X246105500Y-228546000D02*
G01*
X245705500Y-228546000D01*
X245705500Y-227596000D01*
X246105500Y-227596000D01*
X246105500Y-228546000D01*
G37*
%TD*%
D13*
%TO.C,J5*%
X163000000Y-131040000D03*
D14*
X163000000Y-128500000D03*
%TD*%
D15*
%TO.C,C104*%
X112254000Y-104497500D03*
X112254000Y-110997500D03*
%TD*%
D16*
%TO.C,J4*%
X132046000Y-133089000D03*
X136116000Y-133089000D03*
X132046000Y-134359000D03*
X136116000Y-134359000D03*
X132046000Y-135629000D03*
X136116000Y-135629000D03*
X136116000Y-136899000D03*
X132046000Y-138169000D03*
X136116000Y-138169000D03*
X132046000Y-139439000D03*
X136116000Y-139439000D03*
X132046000Y-140709000D03*
X136116000Y-140709000D03*
X132046000Y-141979000D03*
X136116000Y-141979000D03*
X132046000Y-143249000D03*
X136116000Y-143249000D03*
X132046000Y-144519000D03*
X136116000Y-144519000D03*
%TD*%
D17*
%TO.C,U2*%
X188383000Y-164789999D03*
X188383000Y-165740000D03*
X188383000Y-166690001D03*
X190821400Y-166690001D03*
X190821400Y-165740000D03*
X190821400Y-164789999D03*
%TD*%
D18*
%TO.C,C55*%
X175223000Y-200620799D03*
X175223000Y-202170799D03*
%TD*%
D19*
%TO.C,J12*%
X91248500Y-146089000D03*
X85248500Y-146089000D03*
D20*
X88248500Y-142149000D03*
D21*
X88248500Y-145149000D03*
%TD*%
D22*
%TO.C,R52*%
X103661750Y-181242000D03*
X105311750Y-181242000D03*
%TD*%
D23*
%TO.C,R10*%
X134216000Y-161284000D03*
X134216000Y-162934000D03*
%TD*%
D24*
%TO.C,C30*%
X170247900Y-149524000D03*
X171797900Y-149524000D03*
%TD*%
D23*
%TO.C,R54*%
X122301000Y-179769000D03*
X122301000Y-181419000D03*
%TD*%
D25*
%TO.C,R61*%
X251500000Y-113900000D03*
X251500000Y-112250000D03*
%TD*%
D26*
%TO.C,U19*%
X237337001Y-181686200D03*
X236537000Y-181686200D03*
X235737001Y-181686200D03*
X234937000Y-181686200D03*
X234137002Y-181686200D03*
X233337001Y-181686200D03*
X232537000Y-181686200D03*
X231737002Y-181686200D03*
X230937001Y-181686200D03*
X230137002Y-181686200D03*
X229337001Y-181686200D03*
X228537000Y-181686200D03*
X227737002Y-181686200D03*
X226937001Y-181686200D03*
X226137003Y-181686200D03*
X225337002Y-181686200D03*
X224537001Y-181686200D03*
X223737002Y-181686200D03*
X222937001Y-181686200D03*
X222137003Y-181686200D03*
X221337002Y-181686200D03*
X220537001Y-181686200D03*
X219737003Y-181686200D03*
X218937002Y-181686200D03*
X218137003Y-181686200D03*
X217337002Y-181686200D03*
X216537001Y-181686200D03*
X216537001Y-193167000D03*
X217337002Y-193167000D03*
X218137001Y-193167000D03*
X218937002Y-193167000D03*
X219737000Y-193167000D03*
X220537001Y-193167000D03*
X221337002Y-193167000D03*
X222137000Y-193167000D03*
X222937001Y-193167000D03*
X223737000Y-193167000D03*
X224537001Y-193167000D03*
X225337002Y-193167000D03*
X226137000Y-193167000D03*
X226937001Y-193167000D03*
X227736999Y-193167000D03*
X228537000Y-193167000D03*
X229337001Y-193167000D03*
X230137000Y-193167000D03*
X230937001Y-193167000D03*
X231736999Y-193167000D03*
X232537000Y-193167000D03*
X233337001Y-193167000D03*
X234136999Y-193167000D03*
X234937000Y-193167000D03*
X235736999Y-193167000D03*
X236537000Y-193167000D03*
X237337001Y-193167000D03*
%TD*%
D25*
%TO.C,R24*%
X232058000Y-218496000D03*
X232058000Y-216846000D03*
%TD*%
D19*
%TO.C,J16*%
X221250018Y-98250000D03*
X230250000Y-98250000D03*
D20*
X227250001Y-102190000D03*
D21*
X224250002Y-102190000D03*
X227250001Y-99190001D03*
X224250002Y-99190001D03*
%TD*%
D18*
%TO.C,C34*%
X160216000Y-160034000D03*
X160216000Y-161584000D03*
%TD*%
D27*
%TO.C,TP3*%
X116180000Y-224657100D03*
%TD*%
D28*
%TO.C,C107*%
X149129000Y-114730000D03*
X147579000Y-114730000D03*
%TD*%
D29*
%TO.C,C35*%
X148336000Y-140221000D03*
X148336000Y-138671000D03*
%TD*%
D24*
%TO.C,C45*%
X103193000Y-217588100D03*
X104743000Y-217588100D03*
%TD*%
D18*
%TO.C,C75*%
X102066500Y-129997000D03*
X102066500Y-131547000D03*
%TD*%
D28*
%TO.C,C3*%
X197455000Y-165347000D03*
X195905000Y-165347000D03*
%TD*%
D27*
%TO.C,TP6*%
X172200000Y-196150000D03*
%TD*%
D28*
%TO.C,C23*%
X200902000Y-161696200D03*
X199352000Y-161696200D03*
%TD*%
D30*
%TO.C,D1*%
X182714000Y-169093000D03*
X184289000Y-169093000D03*
%TD*%
D31*
%TO.C,D10*%
X215054502Y-107595001D03*
X211299502Y-107595001D03*
%TD*%
D28*
%TO.C,C33*%
X136441000Y-155009000D03*
X134891000Y-155009000D03*
%TD*%
D29*
%TO.C,C91*%
X261159000Y-210535000D03*
X261159000Y-208985000D03*
%TD*%
D28*
%TO.C,C8*%
X196705000Y-162447000D03*
X195155000Y-162447000D03*
%TD*%
D32*
%TO.C,IC13*%
X248326000Y-113450000D03*
X249596000Y-113450000D03*
X249596000Y-107200000D03*
X248326000Y-107200000D03*
%TD*%
D33*
%TO.C,S1*%
X197780000Y-174247000D03*
X197780000Y-175847000D03*
X201880000Y-175847000D03*
X201880000Y-174247000D03*
D34*
X199830000Y-173622000D03*
%TD*%
D35*
%TO.C,J11*%
X86191750Y-121743000D03*
X86191750Y-133743000D03*
%TD*%
D27*
%TO.C,TP13*%
X161050000Y-196150000D03*
%TD*%
D25*
%TO.C,R23*%
X233708000Y-218496000D03*
X233708000Y-216846000D03*
%TD*%
D27*
%TO.C,TP16*%
X125616750Y-159937000D03*
%TD*%
D36*
%TO.C,R39*%
X177275000Y-179850000D03*
X175625000Y-179850000D03*
%TD*%
D29*
%TO.C,C11*%
X209144000Y-139662000D03*
X209144000Y-138112000D03*
%TD*%
D23*
%TO.C,R71*%
X211257002Y-110270001D03*
X211257002Y-111920001D03*
%TD*%
D18*
%TO.C,C19*%
X224783000Y-170015000D03*
X224783000Y-171565000D03*
%TD*%
D28*
%TO.C,C50*%
X113043000Y-217805000D03*
X111493000Y-217805000D03*
%TD*%
D31*
%TO.C,D5*%
X227777501Y-107590000D03*
X224022501Y-107590000D03*
%TD*%
D24*
%TO.C,C86*%
X240950000Y-124000000D03*
X242500000Y-124000000D03*
%TD*%
D29*
%TO.C,C2*%
X196930000Y-150672000D03*
X196930000Y-149122000D03*
%TD*%
D36*
%TO.C,R17*%
X171194250Y-132751500D03*
X169544250Y-132751500D03*
%TD*%
D23*
%TO.C,R4*%
X194630000Y-172672000D03*
X194630000Y-174322000D03*
%TD*%
D18*
%TO.C,C39*%
X129511000Y-132969000D03*
X129511000Y-134519000D03*
%TD*%
D37*
%TO.C,U1*%
X203733000Y-144190000D03*
X203733000Y-144690000D03*
X203733000Y-145190000D03*
X203733000Y-145690000D03*
X203733000Y-146190000D03*
X203733000Y-146690000D03*
X203733000Y-147190000D03*
X203733000Y-147690000D03*
X203733000Y-148190000D03*
X203733000Y-148690000D03*
X203733000Y-149190000D03*
X203733000Y-149690000D03*
X203733000Y-150190000D03*
X203733000Y-150690000D03*
X203733000Y-151190000D03*
X203733000Y-151690000D03*
X203733000Y-152190000D03*
X203733000Y-152690000D03*
X203733000Y-153190000D03*
X203733000Y-153690000D03*
X203733000Y-154190000D03*
X203733000Y-154690000D03*
X203733000Y-155190000D03*
X203733000Y-155690000D03*
X203733000Y-156190000D03*
X203733000Y-156690000D03*
X203733000Y-157190000D03*
X203733000Y-157690000D03*
X203733000Y-158190000D03*
X203733000Y-158690000D03*
X203733000Y-159190000D03*
X203733000Y-159690000D03*
X203733000Y-160190000D03*
X203733000Y-160690000D03*
X203733000Y-161190000D03*
X203733000Y-161690000D03*
X203733000Y-162190000D03*
X203733000Y-162690000D03*
X203733000Y-163190000D03*
X203733000Y-163690000D03*
X203733000Y-164190000D03*
X203733000Y-164690000D03*
X203733000Y-165190000D03*
X203733000Y-165690000D03*
D38*
X205658000Y-167615000D03*
X206158000Y-167615000D03*
X206658000Y-167615000D03*
X207158000Y-167615000D03*
X207658000Y-167615000D03*
X208158000Y-167615000D03*
X208658000Y-167615000D03*
X209158000Y-167615000D03*
X209658000Y-167615000D03*
X210158000Y-167615000D03*
X210658000Y-167615000D03*
X211158000Y-167615000D03*
X211658000Y-167615000D03*
X212158000Y-167615000D03*
X212658000Y-167615000D03*
X213158000Y-167615000D03*
X213658000Y-167615000D03*
X214158000Y-167615000D03*
X214658000Y-167615000D03*
X215158000Y-167615000D03*
X215658000Y-167615000D03*
X216158000Y-167615000D03*
X216658000Y-167615000D03*
X217158000Y-167615000D03*
X217658000Y-167615000D03*
X218158000Y-167615000D03*
X218658000Y-167615000D03*
X219158000Y-167615000D03*
X219658000Y-167615000D03*
X220158000Y-167615000D03*
X220658000Y-167615000D03*
X221158000Y-167615000D03*
X221658000Y-167615000D03*
X222158000Y-167615000D03*
X222658000Y-167615000D03*
X223158000Y-167615000D03*
X223658000Y-167615000D03*
X224158000Y-167615000D03*
X224658000Y-167615000D03*
X225158000Y-167615000D03*
X225658000Y-167615000D03*
X226158000Y-167615000D03*
X226658000Y-167615000D03*
X227158000Y-167615000D03*
D37*
X229083000Y-165690000D03*
X229083000Y-165190000D03*
X229083000Y-164690000D03*
X229083000Y-164190000D03*
X229083000Y-163690000D03*
X229083000Y-163190000D03*
X229083000Y-162690000D03*
X229083000Y-162190000D03*
X229083000Y-161690000D03*
X229083000Y-161190000D03*
X229083000Y-160690000D03*
X229083000Y-160190000D03*
X229083000Y-159690000D03*
X229083000Y-159190000D03*
X229083000Y-158690000D03*
X229083000Y-158190000D03*
X229083000Y-157690000D03*
X229083000Y-157190000D03*
X229083000Y-156690000D03*
X229083000Y-156190000D03*
X229083000Y-155690000D03*
X229083000Y-155190000D03*
X229083000Y-154690000D03*
X229083000Y-154190000D03*
X229083000Y-153690000D03*
X229083000Y-153190000D03*
X229083000Y-152690000D03*
X229083000Y-152190000D03*
X229083000Y-151690000D03*
X229083000Y-151190000D03*
X229083000Y-150690000D03*
X229083000Y-150190000D03*
X229083000Y-149690000D03*
X229083000Y-149190000D03*
X229083000Y-148690000D03*
X229083000Y-148190000D03*
X229083000Y-147690000D03*
X229083000Y-147190000D03*
X229083000Y-146690000D03*
X229083000Y-146190000D03*
X229083000Y-145690000D03*
X229083000Y-145190000D03*
X229083000Y-144690000D03*
X229083000Y-144190000D03*
D38*
X227158000Y-142265000D03*
X226658000Y-142265000D03*
X226158000Y-142265000D03*
X225658000Y-142265000D03*
X225158000Y-142265000D03*
X224658000Y-142265000D03*
X224158000Y-142265000D03*
X223658000Y-142265000D03*
X223158000Y-142265000D03*
X222658000Y-142265000D03*
X222158000Y-142265000D03*
X221658000Y-142265000D03*
X221158000Y-142265000D03*
X220658000Y-142265000D03*
X220158000Y-142265000D03*
X219658000Y-142265000D03*
X219158000Y-142265000D03*
X218658000Y-142265000D03*
X218158000Y-142265000D03*
X217658000Y-142265000D03*
X217158000Y-142265000D03*
X216658000Y-142265000D03*
X216158000Y-142265000D03*
X215658000Y-142265000D03*
X215158000Y-142265000D03*
X214658000Y-142265000D03*
X214158000Y-142265000D03*
X213658000Y-142265000D03*
X213158000Y-142265000D03*
X212658000Y-142265000D03*
X212158000Y-142265000D03*
X211658000Y-142265000D03*
X211158000Y-142265000D03*
X210658000Y-142265000D03*
X210158000Y-142265000D03*
X209658000Y-142265000D03*
X209158000Y-142265000D03*
X208658000Y-142265000D03*
X208158000Y-142265000D03*
X207658000Y-142265000D03*
X207158000Y-142265000D03*
X206658000Y-142265000D03*
X206158000Y-142265000D03*
X205658000Y-142265000D03*
%TD*%
D23*
%TO.C,R14*%
X153166000Y-160034000D03*
X153166000Y-161684000D03*
%TD*%
D19*
%TO.C,J7*%
X169239666Y-223075000D03*
X178239648Y-223075000D03*
D20*
X175239649Y-227015000D03*
D21*
X172239650Y-227015000D03*
X175239649Y-224015001D03*
X172239650Y-224015001D03*
%TD*%
D39*
%TO.C,Q1*%
X277080000Y-219120000D03*
X278980000Y-219120000D03*
X278030000Y-217245000D03*
%TD*%
D27*
%TO.C,TP33*%
X134454000Y-105505000D03*
%TD*%
D40*
%TO.C,D12*%
X93700000Y-110250000D03*
X93700000Y-113750000D03*
%TD*%
D27*
%TO.C,TP23*%
X95625500Y-175299000D03*
%TD*%
D28*
%TO.C,C58*%
X142347401Y-186854000D03*
X140797401Y-186854000D03*
%TD*%
D36*
%TO.C,R63*%
X206358667Y-113041000D03*
X204708667Y-113041000D03*
%TD*%
D22*
%TO.C,R68*%
X225953260Y-126525001D03*
X227603260Y-126525001D03*
%TD*%
D36*
%TO.C,R32*%
X176048000Y-198495799D03*
X174398000Y-198495799D03*
%TD*%
D22*
%TO.C,R33*%
X152546000Y-198622799D03*
X154196000Y-198622799D03*
%TD*%
D24*
%TO.C,C14*%
X225793000Y-139319000D03*
X227343000Y-139319000D03*
%TD*%
D41*
%TO.C,U21*%
X124954000Y-108145000D03*
D42*
X124954000Y-105605000D03*
X124954000Y-103065000D03*
%TD*%
D43*
%TO.C,IC4*%
X110630750Y-165525000D03*
X110630750Y-164255000D03*
X110630750Y-162985000D03*
X110630750Y-161715000D03*
X110630750Y-160445000D03*
X110630750Y-159175000D03*
X110630750Y-157905000D03*
X105180750Y-157905000D03*
X105180750Y-159175000D03*
X105180750Y-160445000D03*
X105180750Y-161715000D03*
X105180750Y-162985000D03*
X105180750Y-164255000D03*
X105180750Y-165525000D03*
%TD*%
D27*
%TO.C,TP4*%
X249650500Y-225171000D03*
%TD*%
D28*
%TO.C,C56*%
X171886302Y-186854004D03*
X170336302Y-186854004D03*
%TD*%
D18*
%TO.C,C69*%
X108035500Y-129985000D03*
X108035500Y-131535000D03*
%TD*%
D44*
%TO.C,C72*%
X100288500Y-130076000D03*
X100288500Y-131976000D03*
%TD*%
D24*
%TO.C,C38*%
X164426600Y-143509000D03*
X165976600Y-143509000D03*
%TD*%
D27*
%TO.C,TP12*%
X156450000Y-196150000D03*
%TD*%
%TO.C,TP36*%
X260760000Y-139570000D03*
%TD*%
D24*
%TO.C,C92*%
X262850000Y-157600000D03*
X264400000Y-157600000D03*
%TD*%
%TO.C,C70*%
X102755750Y-126915000D03*
X104305750Y-126915000D03*
%TD*%
D45*
%TO.C,U13*%
X173587500Y-181400000D03*
X173587500Y-182050000D03*
X173587500Y-182700000D03*
X173587500Y-183350000D03*
X173587500Y-184000000D03*
X173587500Y-184650000D03*
X173587500Y-185300000D03*
X179312500Y-185300000D03*
X179312500Y-184650000D03*
X179312500Y-184000000D03*
X179312500Y-183350000D03*
X179312500Y-182700000D03*
X179312500Y-182050000D03*
X179312500Y-181400000D03*
%TD*%
D23*
%TO.C,R62*%
X198183667Y-110166000D03*
X198183667Y-111816000D03*
%TD*%
D24*
%TO.C,C16*%
X231610000Y-153187200D03*
X233160000Y-153187200D03*
%TD*%
D46*
%TO.C,U8*%
X243409500Y-215204100D03*
X244679500Y-215204100D03*
X245949500Y-215204100D03*
X247219500Y-215204100D03*
X248489500Y-215204100D03*
X249759500Y-215204100D03*
X251029500Y-215204100D03*
X252299500Y-215204100D03*
X252299500Y-205806100D03*
X251029500Y-205806100D03*
X249759500Y-205806100D03*
X248489500Y-205806100D03*
X247219500Y-205806100D03*
X245949500Y-205806100D03*
X244679500Y-205806100D03*
X243409500Y-205806100D03*
%TD*%
D27*
%TO.C,TP25*%
X244326000Y-116325000D03*
%TD*%
D28*
%TO.C,C29*%
X187797900Y-149524000D03*
X186247900Y-149524000D03*
%TD*%
D18*
%TO.C,C100*%
X198684000Y-133292000D03*
X198684000Y-134842000D03*
%TD*%
D47*
%TO.C,IC7*%
X104407750Y-177686000D03*
X104407750Y-178186000D03*
X104407750Y-178686000D03*
X104407750Y-179186000D03*
X104407750Y-179686000D03*
X107407750Y-179686000D03*
X107407750Y-179186000D03*
X107407750Y-178686000D03*
X107407750Y-178186000D03*
X107407750Y-177686000D03*
D48*
X105907750Y-178686000D03*
%TD*%
D49*
%TO.C,D9*%
X229376101Y-133325000D03*
D50*
X231471784Y-133325000D03*
%TD*%
D25*
%TO.C,R28*%
X168661302Y-193079004D03*
X168661302Y-191429004D03*
%TD*%
D18*
%TO.C,C41*%
X158642200Y-160034000D03*
X158642200Y-161584000D03*
%TD*%
D51*
%TO.C,U15*%
X118824750Y-165039000D03*
X119774750Y-165039000D03*
X120724750Y-165039000D03*
X120724750Y-162709000D03*
X118824750Y-162709000D03*
%TD*%
D24*
%TO.C,C15*%
X231610000Y-146390000D03*
X233160000Y-146390000D03*
%TD*%
D52*
%TO.C,D4*%
X158095000Y-169083000D03*
X156520000Y-169083000D03*
%TD*%
D25*
%TO.C,R45*%
X120790750Y-168509000D03*
X120790750Y-166859000D03*
%TD*%
D36*
%TO.C,R38*%
X160229000Y-198622799D03*
X158579000Y-198622799D03*
%TD*%
D22*
%TO.C,R15*%
X159600000Y-169083000D03*
X161250000Y-169083000D03*
%TD*%
D32*
%TO.C,IC10*%
X88318325Y-220500000D03*
X89588325Y-220500000D03*
X89588325Y-214250000D03*
X88318325Y-214250000D03*
%TD*%
D22*
%TO.C,R42*%
X143075000Y-179800000D03*
X144725000Y-179800000D03*
%TD*%
D28*
%TO.C,C27*%
X190452800Y-168376200D03*
X188902800Y-168376200D03*
%TD*%
D53*
%TO.C,C78*%
X110714750Y-178110000D03*
X110714750Y-176210000D03*
%TD*%
D54*
%TO.C,T1*%
X167250000Y-218000000D03*
X169250000Y-218000000D03*
X171250000Y-218000000D03*
X173250000Y-218000000D03*
X175250000Y-218000000D03*
X177250000Y-218000000D03*
X177250000Y-204400000D03*
X175250000Y-204400000D03*
X173250000Y-204400000D03*
X171250000Y-204400000D03*
X169250000Y-204400000D03*
X167250000Y-204400000D03*
%TD*%
D22*
%TO.C,R66*%
X225948942Y-134124999D03*
X227598942Y-134124999D03*
%TD*%
D23*
%TO.C,R44*%
X120790750Y-159366000D03*
X120790750Y-161016000D03*
%TD*%
D29*
%TO.C,C74*%
X102840750Y-178255000D03*
X102840750Y-176705000D03*
%TD*%
D27*
%TO.C,TP5*%
X249650500Y-228750000D03*
%TD*%
D55*
%TO.C,U6*%
X238915500Y-209071000D03*
X238280500Y-209071000D03*
X237645500Y-209071000D03*
X237010500Y-209071000D03*
X236375500Y-209071000D03*
X235740500Y-209071000D03*
X235105500Y-209071000D03*
X234470500Y-209071000D03*
X233835500Y-209071000D03*
X233200500Y-209071000D03*
X233200500Y-214271000D03*
X233835500Y-214271000D03*
X234470500Y-214271000D03*
X235105500Y-214271000D03*
X235740500Y-214271000D03*
X236375500Y-214271000D03*
X237010500Y-214271000D03*
X237645500Y-214271000D03*
X238280500Y-214271000D03*
X238915500Y-214271000D03*
%TD*%
D56*
%TO.C,L1*%
X201057100Y-165347000D03*
X199202900Y-165347000D03*
%TD*%
D36*
%TO.C,R2*%
X181014500Y-171750000D03*
X179364500Y-171750000D03*
%TD*%
D27*
%TO.C,TP29*%
X248063000Y-194757000D03*
%TD*%
D57*
%TO.C,U11*%
X188195701Y-191704002D03*
X188195701Y-191204000D03*
X188195701Y-190704001D03*
X188195701Y-190204000D03*
X188195701Y-189704000D03*
X188195701Y-189204002D03*
X188195701Y-188704000D03*
X188195701Y-188204001D03*
X183826901Y-188203998D03*
X183826901Y-188704000D03*
X183826901Y-189203999D03*
X183826901Y-189704000D03*
X183826901Y-190204000D03*
X183826901Y-190703998D03*
X183826901Y-191204000D03*
X183826901Y-191703999D03*
%TD*%
D24*
%TO.C,C62*%
X186797401Y-186854000D03*
X188347401Y-186854000D03*
%TD*%
D36*
%TO.C,R76*%
X267575000Y-155100000D03*
X265925000Y-155100000D03*
%TD*%
D25*
%TO.C,R56*%
X239326000Y-113900000D03*
X239326000Y-112250000D03*
%TD*%
D58*
%TO.C,J9*%
X136250000Y-208400000D03*
D59*
X138250000Y-208400000D03*
X140250000Y-208400000D03*
%TD*%
D29*
%TO.C,C31*%
X135866000Y-162884000D03*
X135866000Y-161334000D03*
%TD*%
D60*
%TO.C,L4*%
X102250000Y-112025000D03*
X106350000Y-112025000D03*
%TD*%
D28*
%TO.C,C24*%
X200902000Y-155193800D03*
X199352000Y-155193800D03*
%TD*%
D18*
%TO.C,C105*%
X128371500Y-103537500D03*
X128371500Y-105087500D03*
%TD*%
D27*
%TO.C,TP7*%
X167650000Y-196150000D03*
%TD*%
D22*
%TO.C,R69*%
X225948942Y-128624999D03*
X227598942Y-128624999D03*
%TD*%
D61*
%TO.C,U18*%
X250200000Y-148330000D03*
X250200000Y-149600000D03*
X250200000Y-150870000D03*
X250200000Y-152140000D03*
X250200000Y-153410000D03*
X250200000Y-154680000D03*
X250200000Y-155950000D03*
X250200000Y-157220000D03*
X259500000Y-157220000D03*
X259500000Y-155950000D03*
X259500000Y-154680000D03*
X259500000Y-153410000D03*
X259500000Y-152140000D03*
X259500000Y-150870000D03*
X259500000Y-149600000D03*
X259500000Y-148330000D03*
%TD*%
D36*
%TO.C,R46*%
X107403750Y-126915000D03*
X105753750Y-126915000D03*
%TD*%
D28*
%TO.C,C108*%
X149129000Y-113130000D03*
X147579000Y-113130000D03*
%TD*%
D22*
%TO.C,R47*%
X96959750Y-140879250D03*
X98609750Y-140879250D03*
%TD*%
D27*
%TO.C,TP9*%
X179150000Y-200500000D03*
%TD*%
D29*
%TO.C,C12*%
X213662000Y-139621000D03*
X213662000Y-138071000D03*
%TD*%
D32*
%TO.C,IC12*%
X244806000Y-113450000D03*
X246076000Y-113450000D03*
X246076000Y-107200000D03*
X244806000Y-107200000D03*
%TD*%
D24*
%TO.C,C85*%
X233126000Y-124395000D03*
X234676000Y-124395000D03*
%TD*%
D29*
%TO.C,C82*%
X97278000Y-159054000D03*
X97278000Y-157504000D03*
%TD*%
D62*
%TO.C,U3*%
X174274900Y-149514000D03*
X174274900Y-150784000D03*
X174274900Y-152054000D03*
X174274900Y-153324000D03*
X174274900Y-154594000D03*
X174274900Y-155864000D03*
X174274900Y-157134000D03*
X174274900Y-158404000D03*
X183672900Y-158404000D03*
X183672900Y-157134000D03*
X183672900Y-155864000D03*
X183672900Y-154594000D03*
X183672900Y-153324000D03*
X183672900Y-152054000D03*
X183672900Y-150784000D03*
X183672900Y-149514000D03*
%TD*%
D63*
%TO.C,P1*%
X105830000Y-226657100D03*
D64*
X113330000Y-226657100D03*
D65*
X107180000Y-224507100D03*
X107180000Y-228807100D03*
X111980000Y-224507100D03*
X111980000Y-228807100D03*
%TD*%
D22*
%TO.C,R26*%
X232783000Y-203721000D03*
X234433000Y-203721000D03*
%TD*%
D18*
%TO.C,C20*%
X219177000Y-170014400D03*
X219177000Y-171564400D03*
%TD*%
D25*
%TO.C,R35*%
X154500201Y-193079000D03*
X154500201Y-191429000D03*
%TD*%
D57*
%TO.C,U10*%
X145145701Y-191704002D03*
X145145701Y-191204000D03*
X145145701Y-190704001D03*
X145145701Y-190204000D03*
X145145701Y-189704000D03*
X145145701Y-189204002D03*
X145145701Y-188704000D03*
X145145701Y-188204001D03*
X140776901Y-188203998D03*
X140776901Y-188704000D03*
X140776901Y-189203999D03*
X140776901Y-189704000D03*
X140776901Y-190204000D03*
X140776901Y-190703998D03*
X140776901Y-191204000D03*
X140776901Y-191703999D03*
%TD*%
D24*
%TO.C,C94*%
X226987000Y-177646000D03*
X228537000Y-177646000D03*
%TD*%
D22*
%TO.C,R65*%
X225928275Y-130248999D03*
X227578275Y-130248999D03*
%TD*%
D24*
%TO.C,C57*%
X173336302Y-186854004D03*
X174886302Y-186854004D03*
%TD*%
D29*
%TO.C,C90*%
X252995000Y-188521000D03*
X252995000Y-186971000D03*
%TD*%
D18*
%TO.C,C60*%
X153333400Y-200667199D03*
X153333400Y-202217199D03*
%TD*%
D27*
%TO.C,TP10*%
X150550000Y-196150000D03*
%TD*%
D29*
%TO.C,C89*%
X248000000Y-149550000D03*
X248000000Y-148000000D03*
%TD*%
D22*
%TO.C,R21*%
X102000000Y-204507100D03*
X103650000Y-204507100D03*
%TD*%
D18*
%TO.C,C96*%
X228537201Y-195414600D03*
X228537201Y-196964600D03*
%TD*%
D22*
%TO.C,R25*%
X234483000Y-205421000D03*
X236133000Y-205421000D03*
%TD*%
D66*
%TO.C,Q4*%
X202233667Y-112741000D03*
X202233667Y-110841000D03*
X200133667Y-111791000D03*
%TD*%
D24*
%TO.C,C18*%
X231610000Y-164693400D03*
X233160000Y-164693400D03*
%TD*%
D18*
%TO.C,C21*%
X214147800Y-170014400D03*
X214147800Y-171564400D03*
%TD*%
D25*
%TO.C,R37*%
X153000201Y-193079000D03*
X153000201Y-191429000D03*
%TD*%
D27*
%TO.C,TP35*%
X266510000Y-139570000D03*
%TD*%
D23*
%TO.C,R13*%
X135866000Y-164534000D03*
X135866000Y-166184000D03*
%TD*%
D25*
%TO.C,R19*%
X101301000Y-217524100D03*
X101301000Y-215874100D03*
%TD*%
D67*
%TO.C,C102*%
X99250000Y-110525000D03*
X99250000Y-113475000D03*
%TD*%
D68*
%TO.C,IC15*%
X200279000Y-136779000D03*
X201549000Y-136779000D03*
X202819000Y-136779000D03*
X204089000Y-136779000D03*
X204089000Y-131355000D03*
X202819000Y-131355000D03*
X201549000Y-131355000D03*
X200279000Y-131355000D03*
%TD*%
D18*
%TO.C,C5*%
X223210600Y-170015600D03*
X223210600Y-171565600D03*
%TD*%
D23*
%TO.C,R51*%
X95754000Y-157467000D03*
X95754000Y-159117000D03*
%TD*%
D27*
%TO.C,TP24*%
X240076000Y-116325000D03*
%TD*%
D24*
%TO.C,C66*%
X178675000Y-179850000D03*
X180225000Y-179850000D03*
%TD*%
D69*
%TO.C,C109*%
X270500000Y-116250000D03*
X267550000Y-116250000D03*
%TD*%
D19*
%TO.C,J6*%
X150389666Y-223060000D03*
X159389648Y-223060000D03*
D20*
X156389649Y-227000000D03*
D21*
X153389650Y-227000000D03*
X156389649Y-224000001D03*
X153389650Y-224000001D03*
%TD*%
D28*
%TO.C,C42*%
X143849000Y-153210000D03*
X142299000Y-153210000D03*
%TD*%
D70*
%TO.C,Y3*%
X134516000Y-149009000D03*
X134516000Y-152709000D03*
X136716000Y-152709000D03*
X136716000Y-149009000D03*
%TD*%
D71*
%TO.C,IC6*%
X95792000Y-163615500D03*
X96742000Y-163615500D03*
X97692000Y-163615500D03*
X97692000Y-161340500D03*
X96742000Y-161340500D03*
X95792000Y-161340500D03*
%TD*%
D23*
%TO.C,R74*%
X258659000Y-205585000D03*
X258659000Y-207235000D03*
%TD*%
D54*
%TO.C,T2*%
X151400000Y-218000000D03*
X153400000Y-218000000D03*
X155400000Y-218000000D03*
X157400000Y-218000000D03*
X159400000Y-218000000D03*
X161400000Y-218000000D03*
X161400000Y-204400000D03*
X159400000Y-204400000D03*
X157400000Y-204400000D03*
X155400000Y-204400000D03*
X153400000Y-204400000D03*
X151400000Y-204400000D03*
%TD*%
D24*
%TO.C,C59*%
X143797401Y-186854000D03*
X145347401Y-186854000D03*
%TD*%
D45*
%TO.C,U14*%
X144037500Y-181400000D03*
X144037500Y-182050000D03*
X144037500Y-182700000D03*
X144037500Y-183350000D03*
X144037500Y-184000000D03*
X144037500Y-184650000D03*
X144037500Y-185300000D03*
X149762500Y-185300000D03*
X149762500Y-184650000D03*
X149762500Y-184000000D03*
X149762500Y-183350000D03*
X149762500Y-182700000D03*
X149762500Y-182050000D03*
X149762500Y-181400000D03*
%TD*%
D36*
%TO.C,R59*%
X231675001Y-113390000D03*
X230025001Y-113390000D03*
%TD*%
D27*
%TO.C,TP11*%
X149450000Y-200450000D03*
%TD*%
D22*
%TO.C,R41*%
X172625000Y-179850000D03*
X174275000Y-179850000D03*
%TD*%
D72*
%TO.C,U20*%
X147614000Y-109355000D03*
X150154000Y-109355000D03*
D73*
X150154000Y-100205000D03*
D72*
X152694000Y-109355000D03*
%TD*%
D32*
%TO.C,IC8*%
X89518325Y-193450326D03*
X88248325Y-193450326D03*
X88248325Y-199700326D03*
X89518325Y-199700326D03*
%TD*%
D39*
%TO.C,Q2*%
X169419250Y-130801500D03*
X171319250Y-130801500D03*
X170369250Y-128926500D03*
%TD*%
D27*
%TO.C,TP34*%
X134454000Y-111105000D03*
%TD*%
D29*
%TO.C,C97*%
X216523001Y-179057600D03*
X216523001Y-177507600D03*
%TD*%
D27*
%TO.C,TP21*%
X85483325Y-218325326D03*
%TD*%
D74*
%TO.C,U4*%
X145995000Y-143733000D03*
X145995000Y-144233000D03*
X145995000Y-144733000D03*
X145995000Y-145233000D03*
X145995000Y-145733000D03*
X145995000Y-146233000D03*
X145995000Y-146733000D03*
X145995000Y-147233000D03*
X145995000Y-147733000D03*
X145995000Y-148233000D03*
X145995000Y-148733000D03*
X145995000Y-149233000D03*
X145995000Y-149733000D03*
X145995000Y-150233000D03*
X145995000Y-150733000D03*
X145995000Y-151233000D03*
X145995000Y-151733000D03*
X145995000Y-152233000D03*
X145995000Y-152733000D03*
X145995000Y-153233000D03*
X145995000Y-153733000D03*
X145995000Y-154233000D03*
X145995000Y-154733000D03*
X145995000Y-155233000D03*
X145995000Y-155733000D03*
D75*
X147670000Y-157408000D03*
X148170000Y-157408000D03*
X148670000Y-157408000D03*
X149170000Y-157408000D03*
X149670000Y-157408000D03*
X150170000Y-157408000D03*
X150670000Y-157408000D03*
X151170000Y-157408000D03*
X151670000Y-157408000D03*
X152170000Y-157408000D03*
X152670000Y-157408000D03*
X153170000Y-157408000D03*
X153670000Y-157408000D03*
X154170000Y-157408000D03*
X154670000Y-157408000D03*
X155170000Y-157408000D03*
X155670000Y-157408000D03*
X156170000Y-157408000D03*
X156670000Y-157408000D03*
X157170000Y-157408000D03*
X157670000Y-157408000D03*
X158170000Y-157408000D03*
X158670000Y-157408000D03*
X159170000Y-157408000D03*
X159670000Y-157408000D03*
D74*
X161345000Y-155733000D03*
X161345000Y-155233000D03*
X161345000Y-154733000D03*
X161345000Y-154233000D03*
X161345000Y-153733000D03*
X161345000Y-153233000D03*
X161345000Y-152733000D03*
X161345000Y-152233000D03*
X161345000Y-151733000D03*
X161345000Y-151233000D03*
X161345000Y-150733000D03*
X161345000Y-150233000D03*
X161345000Y-149733000D03*
X161345000Y-149233000D03*
X161345000Y-148733000D03*
X161345000Y-148233000D03*
X161345000Y-147733000D03*
X161345000Y-147233000D03*
X161345000Y-146733000D03*
X161345000Y-146233000D03*
X161345000Y-145733000D03*
X161345000Y-145233000D03*
X161345000Y-144733000D03*
X161345000Y-144233000D03*
X161345000Y-143733000D03*
D75*
X159670000Y-142058000D03*
X159170000Y-142058000D03*
X158670000Y-142058000D03*
X158170000Y-142058000D03*
X157670000Y-142058000D03*
X157170000Y-142058000D03*
X156670000Y-142058000D03*
X156170000Y-142058000D03*
X155670000Y-142058000D03*
X155170000Y-142058000D03*
X154670000Y-142058000D03*
X154170000Y-142058000D03*
X153670000Y-142058000D03*
X153170000Y-142058000D03*
X152670000Y-142058000D03*
X152170000Y-142058000D03*
X151670000Y-142058000D03*
X151170000Y-142058000D03*
X150670000Y-142058000D03*
X150170000Y-142058000D03*
X149670000Y-142058000D03*
X149170000Y-142058000D03*
X148670000Y-142058000D03*
X148170000Y-142058000D03*
X147670000Y-142058000D03*
%TD*%
D25*
%TO.C,R73*%
X217807002Y-111970001D03*
X217807002Y-110320001D03*
%TD*%
D67*
%TO.C,C101*%
X96600000Y-110525000D03*
X96600000Y-113475000D03*
%TD*%
D27*
%TO.C,TP27*%
X248013000Y-189657000D03*
%TD*%
D18*
%TO.C,C7*%
X192680000Y-157572000D03*
X192680000Y-159122000D03*
%TD*%
D23*
%TO.C,R7*%
X196180000Y-175822000D03*
X196180000Y-177472000D03*
%TD*%
D28*
%TO.C,C65*%
X157675201Y-186854000D03*
X156125201Y-186854000D03*
%TD*%
D24*
%TO.C,C67*%
X149125000Y-179800000D03*
X150675000Y-179800000D03*
%TD*%
D19*
%TO.C,J19*%
X208500018Y-98250000D03*
X217500000Y-98250000D03*
D20*
X214500001Y-102190000D03*
D21*
X211500002Y-102190000D03*
X214500001Y-99190001D03*
X211500002Y-99190001D03*
%TD*%
D76*
%TO.C,Z1*%
X106030000Y-220607100D03*
X106030000Y-221557100D03*
X106030000Y-222507100D03*
X108530000Y-222507100D03*
X108530000Y-221557100D03*
X108530000Y-220607100D03*
%TD*%
D25*
%TO.C,R31*%
X167161302Y-193079004D03*
X167161302Y-191429004D03*
%TD*%
D24*
%TO.C,C17*%
X231610000Y-158673600D03*
X233160000Y-158673600D03*
%TD*%
D27*
%TO.C,TP17*%
X125616750Y-167811000D03*
%TD*%
D25*
%TO.C,R78*%
X261250000Y-145070000D03*
X261250000Y-143420000D03*
%TD*%
D66*
%TO.C,Q3*%
X228200001Y-113040000D03*
X228200001Y-111140000D03*
X226100001Y-112090000D03*
%TD*%
D77*
%TO.C,J20*%
X276283000Y-210542000D03*
X276283000Y-185552000D03*
D78*
X274863000Y-192567000D03*
X274863000Y-195307000D03*
X274863000Y-198047000D03*
X274863000Y-200787000D03*
X274863000Y-203527000D03*
X277703000Y-193937000D03*
X277703000Y-196677000D03*
X277703000Y-199417000D03*
X277703000Y-202157000D03*
%TD*%
D18*
%TO.C,C40*%
X148691600Y-160057800D03*
X148691600Y-161607800D03*
%TD*%
D53*
%TO.C,C73*%
X101062750Y-178237000D03*
X101062750Y-176337000D03*
%TD*%
D22*
%TO.C,R82*%
X243100000Y-146500000D03*
X244750000Y-146500000D03*
%TD*%
D36*
%TO.C,R55*%
X93325000Y-220500000D03*
X91675000Y-220500000D03*
%TD*%
%TO.C,R43*%
X95561750Y-140879250D03*
X93911750Y-140879250D03*
%TD*%
D25*
%TO.C,R1*%
X212180000Y-171622000D03*
X212180000Y-169972000D03*
%TD*%
D18*
%TO.C,C1*%
X196930000Y-146072000D03*
X196930000Y-147622000D03*
%TD*%
D49*
%TO.C,D7*%
X229328260Y-125725001D03*
D50*
X231423943Y-125725001D03*
%TD*%
D79*
%TO.C,PS1*%
X260510000Y-120330000D03*
X260510000Y-133030000D03*
X260510000Y-135570000D03*
X276660000Y-135570000D03*
X276660000Y-133030000D03*
X276660000Y-120330000D03*
%TD*%
D62*
%TO.C,U16*%
X234802000Y-125700000D03*
X234802000Y-126970000D03*
X234802000Y-128240000D03*
X234802000Y-129510000D03*
X234802000Y-130780000D03*
X234802000Y-132050000D03*
X234802000Y-133320000D03*
X234802000Y-134590000D03*
X244200000Y-134590000D03*
X244200000Y-133320000D03*
X244200000Y-132050000D03*
X244200000Y-130780000D03*
X244200000Y-129510000D03*
X244200000Y-128240000D03*
X244200000Y-126970000D03*
X244200000Y-125700000D03*
%TD*%
D27*
%TO.C,TP26*%
X251076000Y-116325000D03*
%TD*%
D28*
%TO.C,C106*%
X152654000Y-113130000D03*
X151104000Y-113130000D03*
%TD*%
D36*
%TO.C,R81*%
X244825000Y-144750000D03*
X243175000Y-144750000D03*
%TD*%
D25*
%TO.C,R60*%
X230050001Y-111865000D03*
X230050001Y-110215000D03*
%TD*%
D22*
%TO.C,R11*%
X137491000Y-160159000D03*
X139141000Y-160159000D03*
%TD*%
D28*
%TO.C,C37*%
X143142000Y-148742400D03*
X141592000Y-148742400D03*
%TD*%
D47*
%TO.C,IC3*%
X106542750Y-130521000D03*
X106542750Y-130021000D03*
X106542750Y-129521000D03*
X106542750Y-129021000D03*
X106542750Y-128521000D03*
X103542750Y-128521000D03*
X103542750Y-129021000D03*
X103542750Y-129521000D03*
X103542750Y-130021000D03*
X103542750Y-130521000D03*
D48*
X105042750Y-129521000D03*
%TD*%
D58*
%TO.C,J10*%
X136250000Y-196500000D03*
D59*
X138250000Y-196500000D03*
X140250000Y-196500000D03*
%TD*%
D29*
%TO.C,C98*%
X237351001Y-179032200D03*
X237351001Y-177482200D03*
%TD*%
D80*
%TO.C,L3*%
X267000000Y-152850000D03*
X267000000Y-150350000D03*
X262450000Y-150350000D03*
X262450000Y-152850000D03*
%TD*%
D27*
%TO.C,TP22*%
X95625500Y-180760000D03*
%TD*%
D43*
%TO.C,IC1*%
X107950000Y-147828000D03*
X107950000Y-146558000D03*
X107950000Y-145288000D03*
X107950000Y-144018000D03*
X107950000Y-142748000D03*
X107950000Y-141478000D03*
X107950000Y-140208000D03*
X102500000Y-140208000D03*
X102500000Y-141478000D03*
X102500000Y-142748000D03*
X102500000Y-144018000D03*
X102500000Y-145288000D03*
X102500000Y-146558000D03*
X102500000Y-147828000D03*
%TD*%
D32*
%TO.C,IC11*%
X241306000Y-113450000D03*
X242576000Y-113450000D03*
X242576000Y-107200000D03*
X241306000Y-107200000D03*
%TD*%
D81*
%TO.C,FID1*%
X82600000Y-96100000D03*
%TD*%
D25*
%TO.C,R50*%
X97659000Y-167372000D03*
X97659000Y-165722000D03*
%TD*%
D24*
%TO.C,C6*%
X231608000Y-147995200D03*
X233158000Y-147995200D03*
%TD*%
%TO.C,C48*%
X235733000Y-216871000D03*
X237283000Y-216871000D03*
%TD*%
D22*
%TO.C,R16*%
X159600000Y-171750000D03*
X161250000Y-171750000D03*
%TD*%
D29*
%TO.C,C76*%
X118774750Y-160974000D03*
X118774750Y-159424000D03*
%TD*%
%TO.C,C47*%
X237658000Y-206946000D03*
X237658000Y-205396000D03*
%TD*%
D23*
%TO.C,R53*%
X88253325Y-189750326D03*
X88253325Y-191400326D03*
%TD*%
D19*
%TO.C,J14*%
X93243659Y-209400326D03*
X84243677Y-209400326D03*
D20*
X87243676Y-205460326D03*
D21*
X90243675Y-205460326D03*
X87243676Y-208460325D03*
X90243675Y-208460325D03*
%TD*%
D24*
%TO.C,C64*%
X159125201Y-186854000D03*
X160675201Y-186854000D03*
%TD*%
D22*
%TO.C,R27*%
X168398000Y-198545799D03*
X170048000Y-198545799D03*
%TD*%
D77*
%TO.C,J21*%
X275830000Y-141845000D03*
X275830000Y-166835000D03*
D78*
X277250000Y-159820000D03*
X277250000Y-157080000D03*
X277250000Y-154340000D03*
X277250000Y-151600000D03*
X277250000Y-148860000D03*
X274410000Y-158450000D03*
X274410000Y-155710000D03*
X274410000Y-152970000D03*
X274410000Y-150230000D03*
%TD*%
D46*
%TO.C,U7*%
X111760000Y-215557100D03*
X113030000Y-215557100D03*
X114300000Y-215557100D03*
X115570000Y-215557100D03*
X116840000Y-215557100D03*
X118110000Y-215557100D03*
X119380000Y-215557100D03*
X120650000Y-215557100D03*
X120650000Y-206159100D03*
X119380000Y-206159100D03*
X118110000Y-206159100D03*
X116840000Y-206159100D03*
X115570000Y-206159100D03*
X114300000Y-206159100D03*
X113030000Y-206159100D03*
X111760000Y-206159100D03*
%TD*%
D22*
%TO.C,R70*%
X225948942Y-132474999D03*
X227598942Y-132474999D03*
%TD*%
D29*
%TO.C,C87*%
X266645000Y-188146000D03*
X266645000Y-186596000D03*
%TD*%
D24*
%TO.C,C49*%
X235733000Y-218521000D03*
X237283000Y-218521000D03*
%TD*%
D29*
%TO.C,C10*%
X207620000Y-139662000D03*
X207620000Y-138112000D03*
%TD*%
D36*
%TO.C,R77*%
X267575000Y-160100000D03*
X265925000Y-160100000D03*
%TD*%
D28*
%TO.C,C36*%
X143142000Y-146253200D03*
X141592000Y-146253200D03*
%TD*%
D19*
%TO.C,J17*%
X249920984Y-102325000D03*
X240921002Y-102325000D03*
D20*
X243921001Y-98385000D03*
D21*
X246921000Y-98385000D03*
X243921001Y-101384999D03*
X246921000Y-101384999D03*
%TD*%
D16*
%TO.C,J2*%
X190073000Y-132175000D03*
X194143000Y-132175000D03*
X190073000Y-133445000D03*
X194143000Y-133445000D03*
X190073000Y-134715000D03*
X194143000Y-134715000D03*
X194143000Y-135985000D03*
X190073000Y-137255000D03*
X194143000Y-137255000D03*
X190073000Y-138525000D03*
X194143000Y-138525000D03*
X190073000Y-139795000D03*
X194143000Y-139795000D03*
X190073000Y-141065000D03*
X194143000Y-141065000D03*
X190073000Y-142335000D03*
X194143000Y-142335000D03*
X190073000Y-143605000D03*
X194143000Y-143605000D03*
%TD*%
D23*
%TO.C,R75*%
X263709000Y-205635000D03*
X263709000Y-207285000D03*
%TD*%
D76*
%TO.C,Z2*%
X239650500Y-221071000D03*
X239650500Y-222021000D03*
X239650500Y-222971000D03*
X242150500Y-222971000D03*
X242150500Y-222021000D03*
X242150500Y-221071000D03*
%TD*%
D29*
%TO.C,C26*%
X186577800Y-166551200D03*
X186577800Y-165001200D03*
%TD*%
D28*
%TO.C,C63*%
X185347401Y-186854000D03*
X183797401Y-186854000D03*
%TD*%
D53*
%TO.C,C71*%
X122568750Y-160887000D03*
X122568750Y-158987000D03*
%TD*%
D81*
%TO.C,FID2*%
X282100000Y-229200000D03*
%TD*%
D28*
%TO.C,C51*%
X112916000Y-203962000D03*
X111366000Y-203962000D03*
%TD*%
D22*
%TO.C,R79*%
X266570000Y-189671000D03*
X268220000Y-189671000D03*
%TD*%
D24*
%TO.C,C84*%
X104300000Y-138583000D03*
X105850000Y-138583000D03*
%TD*%
D18*
%TO.C,C54*%
X169223000Y-200620799D03*
X169223000Y-202170799D03*
%TD*%
D23*
%TO.C,R86*%
X264260000Y-146670000D03*
X264260000Y-148320000D03*
%TD*%
D28*
%TO.C,C81*%
X97308750Y-146158000D03*
X95758750Y-146158000D03*
%TD*%
D69*
%TO.C,C110*%
X270525000Y-113750000D03*
X267575000Y-113750000D03*
%TD*%
D82*
%TO.C,IC14*%
X250700000Y-143330000D03*
X250700000Y-145870000D03*
X259300000Y-145870000D03*
X259300000Y-143330000D03*
%TD*%
D28*
%TO.C,C77*%
X108309750Y-181242000D03*
X106759750Y-181242000D03*
%TD*%
D23*
%TO.C,R48*%
X122314750Y-166859000D03*
X122314750Y-168509000D03*
%TD*%
%TO.C,R85*%
X139804000Y-105780000D03*
X139804000Y-107430000D03*
%TD*%
D36*
%TO.C,R3*%
X181014500Y-169083000D03*
X179364500Y-169083000D03*
%TD*%
D83*
%TO.C,F2*%
X93700000Y-106762500D03*
X93700000Y-108337500D03*
%TD*%
D30*
%TO.C,F1*%
X93304250Y-127785500D03*
X94879250Y-127785500D03*
%TD*%
D29*
%TO.C,C93*%
X230924801Y-179032200D03*
X230924801Y-177482200D03*
%TD*%
D18*
%TO.C,C53*%
X243414500Y-201730100D03*
X243414500Y-203280100D03*
%TD*%
D66*
%TO.C,Q6*%
X246400000Y-144550000D03*
X246400000Y-146450000D03*
X248500000Y-145500000D03*
%TD*%
D29*
%TO.C,C28*%
X196180000Y-174272000D03*
X196180000Y-172722000D03*
%TD*%
D33*
%TO.C,S2*%
X137466000Y-162959000D03*
X137466000Y-164559000D03*
X141566000Y-164559000D03*
X141566000Y-162959000D03*
D34*
X139516000Y-162334000D03*
%TD*%
D29*
%TO.C,C88*%
X267401463Y-145099417D03*
X267401463Y-143549417D03*
%TD*%
D18*
%TO.C,C9*%
X187523000Y-132070000D03*
X187523000Y-133620000D03*
%TD*%
D19*
%TO.C,J13*%
X85182000Y-159181000D03*
X91182000Y-159181000D03*
D20*
X88182000Y-163121000D03*
D21*
X88182000Y-160121000D03*
%TD*%
D27*
%TO.C,TP14*%
X111829000Y-150749000D03*
%TD*%
D84*
%TO.C,IC2*%
X95396250Y-142541000D03*
X95396250Y-143491000D03*
X95396250Y-144441000D03*
X97671250Y-144441000D03*
X97671250Y-143491000D03*
X97671250Y-142541000D03*
%TD*%
D85*
%TO.C,C103*%
X112204000Y-100622500D03*
X112204000Y-97672500D03*
%TD*%
D55*
%TO.C,U5*%
X106381000Y-208197100D03*
X105746000Y-208197100D03*
X105111000Y-208197100D03*
X104476000Y-208197100D03*
X103841000Y-208197100D03*
X103206000Y-208197100D03*
X102571000Y-208197100D03*
X101936000Y-208197100D03*
X101301000Y-208197100D03*
X100666000Y-208197100D03*
X100666000Y-213397100D03*
X101301000Y-213397100D03*
X101936000Y-213397100D03*
X102571000Y-213397100D03*
X103206000Y-213397100D03*
X103841000Y-213397100D03*
X104476000Y-213397100D03*
X105111000Y-213397100D03*
X105746000Y-213397100D03*
X106381000Y-213397100D03*
%TD*%
D25*
%TO.C,R30*%
X137572401Y-193079000D03*
X137572401Y-191429000D03*
%TD*%
D27*
%TO.C,TP31*%
X99500000Y-106975000D03*
%TD*%
D86*
%TO.C,L2*%
X259863000Y-203282000D03*
X262363000Y-203282000D03*
X262363000Y-198732000D03*
X259863000Y-198732000D03*
%TD*%
D19*
%TO.C,J15*%
X91248500Y-181141000D03*
X85248500Y-181141000D03*
D20*
X88248500Y-177201000D03*
D21*
X88248500Y-180201000D03*
%TD*%
D22*
%TO.C,R5*%
X197785000Y-171887000D03*
X199435000Y-171887000D03*
%TD*%
D27*
%TO.C,TP8*%
X177150000Y-196150000D03*
%TD*%
D29*
%TO.C,C99*%
X235750801Y-179032200D03*
X235750801Y-177482200D03*
%TD*%
D25*
%TO.C,R29*%
X139072401Y-193079000D03*
X139072401Y-191429000D03*
%TD*%
D29*
%TO.C,C79*%
X108936750Y-178189000D03*
X108936750Y-176639000D03*
%TD*%
D27*
%TO.C,TP20*%
X92483325Y-196325326D03*
%TD*%
D49*
%TO.C,D8*%
X229276101Y-129425000D03*
D50*
X231371784Y-129425000D03*
%TD*%
D36*
%TO.C,R40*%
X147725000Y-179800000D03*
X146075000Y-179800000D03*
%TD*%
D44*
%TO.C,C68*%
X109813500Y-130076000D03*
X109813500Y-131976000D03*
%TD*%
D36*
%TO.C,R84*%
X204533000Y-138557000D03*
X202883000Y-138557000D03*
%TD*%
D24*
%TO.C,C83*%
X107188750Y-167176000D03*
X108738750Y-167176000D03*
%TD*%
%TO.C,C43*%
X164441000Y-145079400D03*
X165991000Y-145079400D03*
%TD*%
D28*
%TO.C,C4*%
X200905000Y-167247000D03*
X199355000Y-167247000D03*
%TD*%
D27*
%TO.C,TP18*%
X102756750Y-150730000D03*
%TD*%
D22*
%TO.C,R22*%
X100317000Y-202766100D03*
X101967000Y-202766100D03*
%TD*%
D87*
%TO.C,IC5*%
X114755750Y-168197500D03*
X113805750Y-168197500D03*
X112855750Y-168197500D03*
X112855750Y-170472500D03*
X114755750Y-170472500D03*
%TD*%
D29*
%TO.C,C44*%
X105238000Y-206044100D03*
X105238000Y-204494100D03*
%TD*%
D52*
%TO.C,D3*%
X158045000Y-171740000D03*
X156470000Y-171740000D03*
%TD*%
D27*
%TO.C,TP30*%
X247000000Y-155500000D03*
%TD*%
D25*
%TO.C,R36*%
X180622401Y-193029000D03*
X180622401Y-191379000D03*
%TD*%
D88*
%TO.C,D13*%
X264260000Y-145020000D03*
X264260000Y-143445000D03*
%TD*%
D27*
%TO.C,TP28*%
X247000000Y-152000000D03*
%TD*%
D63*
%TO.C,P2*%
X239405500Y-227231000D03*
D64*
X246905500Y-227231000D03*
D65*
X240755500Y-225081000D03*
X240755500Y-229381000D03*
X245555500Y-225081000D03*
X245555500Y-229381000D03*
%TD*%
D22*
%TO.C,R80*%
X247175000Y-143000000D03*
X248825000Y-143000000D03*
%TD*%
D25*
%TO.C,R49*%
X95754000Y-167372000D03*
X95754000Y-165722000D03*
%TD*%
D89*
%TO.C,Y1*%
X199780000Y-147197000D03*
X199780000Y-149697000D03*
%TD*%
D58*
%TO.C,J8*%
X136250000Y-202450000D03*
D59*
X138250000Y-202450000D03*
X140250000Y-202450000D03*
%TD*%
D22*
%TO.C,R9*%
X277105000Y-215382500D03*
X278755000Y-215382500D03*
%TD*%
D90*
%TO.C,J1*%
X188300000Y-106500000D03*
X163200000Y-106500000D03*
%TD*%
D27*
%TO.C,TP2*%
X116180000Y-228607100D03*
%TD*%
D18*
%TO.C,C95*%
X233337801Y-195414600D03*
X233337801Y-196964600D03*
%TD*%
D27*
%TO.C,TP32*%
X134404000Y-99955000D03*
%TD*%
D13*
%TO.C,J3*%
X281750000Y-219540000D03*
D14*
X281750000Y-217000000D03*
%TD*%
D28*
%TO.C,C111*%
X264000000Y-141820000D03*
X262450000Y-141820000D03*
%TD*%
D29*
%TO.C,C13*%
X218362000Y-139621000D03*
X218362000Y-138071000D03*
%TD*%
D18*
%TO.C,C22*%
X206962000Y-169471000D03*
X206962000Y-171021000D03*
%TD*%
D25*
%TO.C,R20*%
X99777000Y-217524100D03*
X99777000Y-215874100D03*
%TD*%
D36*
%TO.C,R58*%
X248476000Y-115575000D03*
X246826000Y-115575000D03*
%TD*%
D32*
%TO.C,IC9*%
X119127000Y-181421000D03*
X120397000Y-181421000D03*
X120397000Y-175171000D03*
X119127000Y-175171000D03*
%TD*%
D19*
%TO.C,J18*%
X195733685Y-98241000D03*
X204733667Y-98241000D03*
D20*
X201733668Y-102181000D03*
D21*
X198733669Y-102181000D03*
X201733668Y-99181001D03*
X198733669Y-99181001D03*
%TD*%
D24*
%TO.C,C46*%
X103193000Y-215937100D03*
X104743000Y-215937100D03*
%TD*%
D88*
%TO.C,D11*%
X139804000Y-104242500D03*
X139804000Y-102667500D03*
%TD*%
D70*
%TO.C,Y2*%
X194730000Y-156497000D03*
X194730000Y-160197000D03*
X196930000Y-160197000D03*
X196930000Y-156497000D03*
%TD*%
D36*
%TO.C,R72*%
X219432002Y-113495001D03*
X217782002Y-113495001D03*
%TD*%
D22*
%TO.C,R12*%
X140691000Y-160159000D03*
X142341000Y-160159000D03*
%TD*%
D30*
%TO.C,D2*%
X182675000Y-171750000D03*
X184250000Y-171750000D03*
%TD*%
D36*
%TO.C,R8*%
X278880000Y-220932500D03*
X277230000Y-220932500D03*
%TD*%
D61*
%TO.C,U17*%
X255213000Y-187112000D03*
X255213000Y-188382000D03*
X255213000Y-189652000D03*
X255213000Y-190922000D03*
X255213000Y-192192000D03*
X255213000Y-193462000D03*
X255213000Y-194732000D03*
X255213000Y-196002000D03*
X264513000Y-196002000D03*
X264513000Y-194732000D03*
X264513000Y-193462000D03*
X264513000Y-192192000D03*
X264513000Y-190922000D03*
X264513000Y-189652000D03*
X264513000Y-188382000D03*
X264513000Y-187112000D03*
%TD*%
D25*
%TO.C,R67*%
X204733667Y-111516000D03*
X204733667Y-109866000D03*
%TD*%
D22*
%TO.C,R18*%
X169494250Y-127051500D03*
X171144250Y-127051500D03*
%TD*%
D18*
%TO.C,C80*%
X114755750Y-172272500D03*
X114755750Y-173822500D03*
%TD*%
D57*
%TO.C,U12*%
X160584601Y-191704002D03*
X160584601Y-191204000D03*
X160584601Y-190704001D03*
X160584601Y-190204000D03*
X160584601Y-189704000D03*
X160584601Y-189204002D03*
X160584601Y-188704000D03*
X160584601Y-188204001D03*
X156215801Y-188203998D03*
X156215801Y-188704000D03*
X156215801Y-189203999D03*
X156215801Y-189704000D03*
X156215801Y-190204000D03*
X156215801Y-190703998D03*
X156215801Y-191204000D03*
X156215801Y-191703999D03*
%TD*%
D18*
%TO.C,C61*%
X159378600Y-200667199D03*
X159378600Y-202217199D03*
%TD*%
D22*
%TO.C,R64*%
X225955419Y-124975002D03*
X227605419Y-124975002D03*
%TD*%
D18*
%TO.C,C32*%
X132466000Y-150084000D03*
X132466000Y-151634000D03*
%TD*%
D19*
%TO.C,J22*%
X89896750Y-113000000D03*
X83896750Y-113000000D03*
D20*
X86896750Y-109060000D03*
D21*
X86896750Y-112060000D03*
%TD*%
D23*
%TO.C,R57*%
X224200001Y-110465000D03*
X224200001Y-112115000D03*
%TD*%
D22*
%TO.C,R83*%
X199835000Y-129540000D03*
X201485000Y-129540000D03*
%TD*%
D66*
%TO.C,Q5*%
X215257002Y-113045001D03*
X215257002Y-111145001D03*
X213157002Y-112095001D03*
%TD*%
D28*
%TO.C,C25*%
X190402800Y-163076200D03*
X188852800Y-163076200D03*
%TD*%
%TO.C,C52*%
X244692500Y-217198000D03*
X243142500Y-217198000D03*
%TD*%
D25*
%TO.C,R34*%
X182122401Y-193029000D03*
X182122401Y-191379000D03*
%TD*%
D22*
%TO.C,R6*%
X200855000Y-171897000D03*
X202505000Y-171897000D03*
%TD*%
D27*
%TO.C,TP1*%
X190246000Y-173990000D03*
%TD*%
D57*
%TO.C,U9*%
X174745702Y-191704006D03*
X174745702Y-191204004D03*
X174745702Y-190704005D03*
X174745702Y-190204004D03*
X174745702Y-189704004D03*
X174745702Y-189204006D03*
X174745702Y-188704004D03*
X174745702Y-188204005D03*
X170376902Y-188204002D03*
X170376902Y-188704004D03*
X170376902Y-189204003D03*
X170376902Y-189704004D03*
X170376902Y-190204004D03*
X170376902Y-190704002D03*
X170376902Y-191204004D03*
X170376902Y-191704003D03*
%TD*%
D31*
%TO.C,D6*%
X201911167Y-107541000D03*
X198156167Y-107541000D03*
%TD*%
M02*
